<?xml version="1.0" encoding="UTF-8" standalone="no"?>
<!-- Created with Inkscape (http://www.inkscape.org/) -->

<svg
   width="484"
   height="726"
   viewBox="0 0 128.05833 192.0875"
   version="1.1"
   id="svg5603"
   inkscape:version="1.2.1 (9c6d41e410, 2022-07-14)"
   sodipodi:docname="EICAS.svg"
   xmlns:inkscape="http://www.inkscape.org/namespaces/inkscape"
   xmlns:sodipodi="http://sodipodi.sourceforge.net/DTD/sodipodi-0.dtd"
   xmlns="http://www.w3.org/2000/svg"
   xmlns:svg="http://www.w3.org/2000/svg">
  <sodipodi:namedview
     id="namedview5605"
     pagecolor="#505050"
     bordercolor="#eeeeee"
     borderopacity="1"
     inkscape:showpageshadow="0"
     inkscape:pageopacity="0"
     inkscape:pagecheckerboard="0"
     inkscape:deskcolor="#505050"
     inkscape:document-units="px"
     showgrid="false"
     inkscape:zoom="0.72515432"
     inkscape:cx="397.15684"
     inkscape:cy="364.74995"
     inkscape:window-width="1920"
     inkscape:window-height="1001"
     inkscape:window-x="-9"
     inkscape:window-y="-9"
     inkscape:window-maximized="1"
     inkscape:current-layer="layer1" />
  <defs
     id="defs5600" />
  <g
     inkscape:label="Layer 1"
     inkscape:groupmode="layer"
     id="layer1">
    <rect
       style="fill:#000000;stroke-width:0.468109"
       id="rect334"
       width="128.05833"
       height="192.08749"
       x="0"
       y="-2.8421709e-14" />
    <g
       id="flap indicator"
       transform="matrix(0.26458333,0,0,0.26458333,-2.1259766e-6,-1.9287109e-6)">
      <path
         id="Shape 3"
         fill-rule="evenodd"
         class="s0"
         d="m 362.5,477 c -38.4,0 -69.5,-30.6 -69.5,-68.5 0,-37.9 31.1,-68.5 69.5,-68.5 38.4,0 69.5,30.6 69.5,68.5 0,37.9 -31.1,68.5 -69.5,68.5 z M 428,408.5 c 0,-35.7 -29.3,-64.5 -65.5,-64.5 -36.2,0 -65.5,28.8 -65.5,64.5 0,35.7 29.3,64.5 65.5,64.5 36.2,0 65.5,-28.8 65.5,-64.5 z"
         style="fill:#ffffff" />
      <path
         id="Shape 4"
         class="s0"
         d="m 355,452.4 q 3.7,0.6 7.5,0.6 C 387.1,453 407,433.1 407,408.5 407,383.9 387.1,364 362.5,364 337.9,364 318,383.9 318,408.5 q 0,3.3 0.5,6.5 H 311 v -12 h 5.3 c 0.7,-5.4 2.2,-10.5 4.5,-15.2 l -3.6,-2.5 7.8,-11.3 3.7,2.6 c 4.9,-5.2 11,-9.3 17.9,-11.8 l -0.9,-3.9 13.5,-2.9 0.8,4.1 q 1.3,-0.1 2.5,-0.1 5.4,0 10.5,1.2 l 1.9,-4.4 17.1,7.7 -2,4.5 c 3.9,2.8 7.3,6.3 10.2,10.2 l 4.9,-2.4 6.9,14.2 -4.9,2.3 q 0.8,2.8 1.3,5.7 h 5.6 v 16 h -5.8 q -0.9,5.1 -2.9,9.7 l 1.5,-2.6 4.4,2.5 -8,13.8 -4.4,-2.5 0.9,-1.5 c -2.1,2.9 -4.6,5.5 -7.3,7.8 l 0.5,-0.4 2.5,4.4 -13.8,8 -2.5,-4.3 q -3.9,1.5 -8.1,2.3 v 4.8 h -16 z"
         style="fill:#ffffff" />
      <path
         id="flap-dial"
         fill-rule="evenodd"
         class="s0"
         d="m 363,428 c -9,0 -16.5,-5.9 -19.1,-14 H 331 l -13,-6 13,-6 h 12.9 c 2.6,-8.1 10.1,-14 19.1,-14 11.1,0 20,8.9 20,20 0,11.1 -8.9,20 -20,20 z m 18,-20 c 0,-10 -8,-18 -18,-18 -10,0 -18,8 -18,18 0,10 8,18 18,18 10,0 18,-8 18,-18 z"
         style="fill:#ffffff" />
      <path
         id="FLAPS"
         fill-rule="evenodd"
         class="s1"
         d="m 317,432.5 h -3.2 v 3.1 h 2.5 v 1.4 h -2.5 v 5 h -1.2 v -10.9 h 4.4 z m 4.1,-1.5 v 9.5 h 4.3 v 1.4 h -5.6 V 431 Z m 10.8,10.9 -0.6,-3.1 H 329 l -0.7,3.1 h -1.2 l 2.3,-10.9 h 1.7 l 2.2,10.9 z m -2.7,-4.6 h 1.8 l -0.8,-4.9 z m 9.2,0.1 h -1.7 v 4.5 h -1.2 V 431 h 3 q 0.7,0 1.1,0.2 0.5,0.2 0.9,0.8 0.7,0.9 0.7,2.3 0,1.4 -0.8,2.3 -0.7,0.8 -2,0.8 z m -1.7,-4.9 v 3.5 h 1.7 q 0.7,0 1.1,-0.5 0.5,-0.4 0.5,-1.2 0,-1.8 -1.6,-1.8 z m 11.8,1 v 0.2 h -1.3 q 0,-0.6 -0.3,-1 -0.3,-0.3 -0.9,-0.3 -0.6,0 -1,0.4 -0.3,0.4 -0.3,1 0,0.8 0.9,1.4 l 1,0.6 q 1,0.7 1.5,1.4 0.5,0.8 0.5,1.8 0,1.4 -0.8,2.2 -0.8,0.9 -1.9,0.9 -1.1,0 -1.9,-0.8 -0.8,-0.8 -0.8,-2 0,-0.1 0,-0.3 h 1.3 q 0,0.7 0.4,1.2 0.4,0.4 1,0.4 0.6,0 1,-0.4 0.4,-0.5 0.4,-1.2 0,-0.6 -0.4,-1.1 -0.4,-0.5 -1.5,-1.1 -1.1,-0.6 -1.5,-1.3 -0.5,-0.6 -0.5,-1.6 0,-1.3 0.8,-2.2 0.7,-0.8 1.9,-0.8 0.9,0 1.7,0.8 0.7,0.7 0.7,1.8 z"
         style="fill:#71ffff" />
      <path
         id="UP"
         fill-rule="evenodd"
         class="s0"
         d="m 297.1,411.5 v -7.4 h 1.1 v 7.3 q 0,1.2 0.4,1.7 0.3,0.6 1.1,0.6 0.7,0 1.1,-0.7 0.2,-0.3 0.2,-0.6 0.1,-0.3 0.1,-1.1 v -7.2 h 1.1 v 7.2 q 0,1.1 -0.1,1.7 -0.1,0.6 -0.4,1.1 -0.7,1 -2.1,1 -1.2,0 -1.9,-1 -0.3,-0.5 -0.4,-1.1 -0.2,-0.6 -0.2,-1.5 z m 9.9,-1 h -1.5 v 4.5 h -1.1 v -10.9 h 2.7 q 0.6,0 1,0.2 0.4,0.2 0.8,0.7 0.6,0.9 0.6,2.3 0,1.4 -0.7,2.3 -0.6,0.9 -1.8,0.9 z m -1.5,-5 v 3.5 h 1.5 q 0.7,0 1,-0.4 0.4,-0.5 0.4,-1.3 0,-1.8 -1.4,-1.8 z M 315.9,380 v -9.3 l -2.9,2.4 v -1.9 l 2.7,-2.2 h 1.7 v 11 z m 32.2,-23.6 v 0.2 h 5 v 1.4 h -6.5 q 0,-0.6 0,-0.9 0,-1.5 0.4,-2.4 0.4,-0.7 0.9,-1.3 0.6,-0.5 1.8,-1.2 1.2,-0.8 1.6,-1.3 0.5,-0.5 0.5,-1.1 0,-0.6 -0.6,-1.2 -0.5,-0.5 -1.2,-0.5 -1.6,0 -3.2,1.2 v -1.7 q 1.3,-0.9 3,-0.9 1.6,0 2.5,0.9 1,0.8 1,2.2 0,1 -0.5,1.7 -0.3,0.5 -0.7,0.8 -0.4,0.3 -1.8,1.2 -1.2,0.8 -1.7,1.4 -0.5,0.7 -0.5,1.5 z m 38.8,-6.1 h -4.3 l -0.1,2.2 h 0.4 q 2,0 3.1,1 1.1,0.9 1.1,2.6 0,2.4 -2.3,3.4 -1.3,0.6 -3.8,0.6 v -1.3 h 0.1 0.8 q 0.7,0 1.3,-0.2 1.1,-0.2 1.8,-0.9 0.6,-0.7 0.6,-1.7 0,-2.1 -2.7,-2.1 -0.7,0 -1.2,0.1 h -0.5 q -0.1,0 -0.2,0.1 l 0.3,-5.1 h 5.6 z m 24.5,36.6 v -9.3 l -2.2,2.4 v -1.9 l 2.1,-2.2 h 1.2 v 11 z m 7.6,-11.2 q 0.9,0 1.4,0.3 0.5,0.3 0.8,1 0.5,1.4 0.5,4.4 0,3.8 -0.7,4.8 -0.6,0.8 -2.2,0.8 -1.7,0 -2.1,-1 -0.6,-1.5 -0.6,-4.7 0,-3.2 0.6,-4.5 0.2,-0.6 0.8,-0.8 0.5,-0.3 1.5,-0.3 z m 0,1.5 q -0.6,0 -1,0 -0.3,0.1 -0.4,0.4 -0.1,0.2 -0.3,1.4 -0.1,1.1 -0.1,2.3 0,1.1 0.1,2.2 0.1,1.1 0.2,1.5 0.1,0.4 0.4,0.5 0.3,0.2 0.9,0.2 0.7,0 1,-0.1 0.3,-0.2 0.4,-0.4 0.4,-0.9 0.4,-3.5 0,-1.5 -0.1,-2.7 -0.1,-1.2 -0.3,-1.5 -0.2,-0.2 -0.4,-0.3 -0.3,0 -0.8,0 z m -2,36.7 v -9.3 l -2.3,2.4 v -1.9 l 2.2,-2.2 h 1.4 v 11 z m 10.3,-9.6 h -3.4 l -0.2,2.2 h 0.3 q 1.7,0 2.7,0.9 0.9,0.9 0.9,2.6 0,2.4 -2,3.4 -1,0.6 -3.1,0.6 v -1.3 h 0.1 0.7 q 0.5,0 1,-0.1 1,-0.3 1.5,-0.9 0.5,-0.7 0.5,-1.7 0,-2.2 -2.2,-2.2 -0.6,0 -1,0.1 l -0.4,0.1 q -0.1,0 -0.2,0 l 0.3,-5.1 h 4.5 z m -17.9,34.9 v 0.2 h 3.8 v 1.5 h -4.9 q -0.1,-0.6 -0.1,-0.9 0,-1.6 0.3,-2.6 0.3,-0.7 0.8,-1.3 0.4,-0.6 1.3,-1.4 0.9,-0.8 1.3,-1.3 0.3,-0.5 0.3,-1.1 0,-0.8 -0.4,-1.3 -0.4,-0.5 -1,-0.5 -1.2,0 -2.4,1.2 v -1.8 q 1,-0.9 2.3,-0.9 1.2,0 1.9,0.8 0.7,0.9 0.7,2.4 0,1 -0.3,1.8 -0.3,0.5 -0.6,0.9 -0.3,0.3 -1.3,1.3 -0.9,0.8 -1.3,1.5 -0.4,0.7 -0.4,1.5 z m 11,-8.5 h -3.2 L 417,433 h 0.3 q 1.6,0 2.5,1 0.8,1 0.8,2.8 0,2.5 -1.8,3.6 -1,0.6 -2.9,0.6 v -1.4 h 0.1 0.6 q 0.5,0 1,-0.1 0.9,-0.3 1.4,-1 0.5,-0.7 0.5,-1.8 0,-2.2 -2.1,-2.2 -0.5,0 -0.9,0 l -0.5,0.1 q 0,0 -0.1,0 l 0.2,-5.4 h 4.3 z m -32.6,26.2 2.1,-2.7 h -3.5 V 453 h 4.9 v 1.4 l -2.1,2.5 q 1.2,0.1 1.8,0.9 0.6,0.7 0.6,2 0,1.5 -0.8,2.4 -0.9,0.9 -2.2,0.9 -1,0 -2.2,-0.6 v -1.4 q 0.9,0.7 2,0.7 1,0 1.6,-0.5 0.5,-0.6 0.5,-1.6 0,-0.7 -0.5,-1.2 -0.5,-0.6 -1.2,-0.6 h -1 z m 8.4,-4 q 0.9,0 1.4,0.3 0.4,0.2 0.7,0.8 0.5,1.3 0.5,4 0,3.4 -0.7,4.4 -0.6,0.7 -2.1,0.7 -1.6,0 -2.1,-1 -0.5,-1.2 -0.5,-4.1 0,-2.9 0.5,-4.1 0.3,-0.5 0.8,-0.7 0.6,-0.3 1.5,-0.3 z m 0,1.3 q -0.6,0 -0.9,0.1 -0.3,0.1 -0.4,0.3 -0.2,0.2 -0.3,1.2 -0.1,1 -0.1,2.2 0,0.9 0.1,1.9 0,1 0.2,1.4 0.1,0.3 0.3,0.5 0.3,0.1 0.9,0.1 0.6,0 0.9,-0.1 0.4,-0.1 0.5,-0.4 0.3,-0.8 0.3,-3.1 0,-1.4 -0.1,-2.4 -0.1,-1.1 -0.3,-1.4 -0.1,-0.2 -0.4,-0.2 -0.2,-0.1 -0.7,-0.1 z m -36.3,11.1 v 2.1 h 1.1 v 1.4 h -1.1 v 2.2 h -1.3 v -2.2 h -3.4 v -1.6 l 2.7,-6.5 h 1.3 l -2.8,6.7 h 2.2 v -2.1 z m 6.3,-4.8 q 1,0 1.5,0.3 0.5,0.3 0.8,0.9 0.6,1.4 0.6,4.2 0,3.5 -0.8,4.5 -0.6,0.7 -2.4,0.7 -1.8,0 -2.2,-1 -0.7,-1.3 -0.7,-4.3 0,-3 0.7,-4.3 0.2,-0.5 0.8,-0.7 0.6,-0.3 1.7,-0.3 z m 0,1.4 q -0.7,0 -1.1,0 -0.3,0.1 -0.4,0.3 -0.2,0.3 -0.3,1.4 -0.2,1 -0.2,2.2 0,1 0.1,2 0.1,1 0.3,1.4 0.1,0.4 0.4,0.5 0.3,0.2 0.9,0.2 0.8,0 1.1,-0.2 0.4,-0.1 0.5,-0.3 0.4,-0.9 0.4,-3.3 0,-1.4 -0.2,-2.5 -0.1,-1.1 -0.3,-1.4 -0.1,-0.2 -0.4,-0.3 -0.3,0 -0.8,0 z"
         style="fill:#ffffff" />
      <path
         id="Shape 7"
         fill-rule="evenodd"
         class="s2"
         d="m 287,478 h 75 v 33 h -75 z m 2,31 h 71 v -29 h -71 z m 74,-31 h 75 v 33 h -75 z m 2,31 h 71 v -29 h -71 z"
         style="fill:#e9e2f4" />
      <path
         id="flap-ext"
         fill-rule="evenodd"
         class="s3"
         d="m 365,480 h 71 v 29 h -71 z m 3.4,2 v 9 h 6 v -1.2 h -4.6 V 482 Z m 13.8,0 h -5.4 v 9 h 5.5 v -1.2 h -4.2 v -2.9 h 3.6 v -1.2 h -3.6 v -2.5 h 4.1 z m 16.8,0 h -4.7 v 9 h 1.3 v -4.1 h 2.7 v -1.2 h -2.7 v -2.5 h 3.4 z m 3.1,0 v 9 h 5.9 v -1.2 h -4.6 V 482 Z m 14.3,9 -2.3,-9 h -1.9 l -2.5,9 h 1.4 l 0.7,-2.6 h 2.5 l 0.6,2.6 z m -3.3,-7.8 1,4 h -2 z m 11,3.4 q 0.8,-0.7 0.8,-1.9 0,-1.2 -0.7,-1.9 -0.5,-0.4 -0.9,-0.6 -0.5,-0.2 -1.3,-0.2 h -3.2 v 9 h 1.3 v -3.7 h 1.8 q 1.4,0 2.2,-0.7 z m -2.2,-3.4 q 1.7,0 1.7,1.5 0,0.7 -0.4,1 -0.5,0.4 -1.3,0.4 h -1.8 v -2.9 z m 10,-0.6 q -0.8,-0.7 -1.8,-0.7 -1.2,0 -2,0.7 -0.8,0.7 -0.8,1.8 0,0.8 0.5,1.3 0.4,0.6 1.6,1.1 1.2,0.5 1.6,0.9 0.4,0.4 0.4,0.9 0,0.6 -0.4,1 -0.4,0.3 -1.1,0.3 -0.7,0 -1.1,-0.3 -0.4,-0.4 -0.4,-1 h -1.3 q 0,0.2 0,0.2 0,1 0.8,1.7 0.8,0.6 2,0.6 1.2,0 2.1,-0.7 0.8,-0.7 0.8,-1.8 0,-0.8 -0.5,-1.5 -0.5,-0.6 -1.7,-1.1 l -1,-0.5 q -1,-0.5 -1,-1.2 0,-0.5 0.4,-0.8 0.4,-0.4 1,-0.4 0.6,0 1,0.3 0.4,0.3 0.4,0.9 h 1.3 v -0.2 q 0,-0.9 -0.8,-1.5 z M 394.8,498 h -5.4 v 9 h 5.6 v -1.2 h -4.3 V 503 h 3.6 v -1.3 h -3.6 v -2.5 h 4.1 z m 2.3,0 2.5,4.5 -2.5,4.5 h 1.5 l 1.8,-3.4 1.9,3.4 h 1.4 l -2.5,-4.7 2.4,-4.3 h -1.3 l -1.9,3.2 -1.7,-3.2 z m 14.8,0 h -6.2 v 1.2 h 2.4 v 7.8 h 1.4 v -7.8 h 2.4 z"
         style="fill:#4eef27" />
      <path
         id="flap-trans"
         fill-rule="evenodd"
         class="s4"
         d="m 289,480 h 71 v 29 h -71 z m 3.4,2 v 9 h 6 v -1.2 h -4.6 V 482 Z m 13.8,0 h -5.4 v 9 h 5.5 v -1.2 h -4.2 v -2.9 h 3.6 v -1.2 h -3.6 v -2.5 h 4.1 z m 16.8,0 h -4.7 v 9 h 1.3 v -4.1 h 2.7 v -1.2 h -2.7 v -2.5 h 3.4 z m 3.1,0 v 9 h 5.9 v -1.2 h -4.6 V 482 Z m 14.3,9 -2.3,-9 h -1.9 l -2.5,9 h 1.4 l 0.7,-2.6 h 2.5 l 0.6,2.6 z m -3.3,-7.8 1,4 h -2 z m 11,3.4 q 0.8,-0.7 0.8,-1.9 0,-1.2 -0.7,-1.9 -0.5,-0.4 -0.9,-0.6 -0.5,-0.2 -1.3,-0.2 h -3.2 v 9 h 1.3 v -3.7 h 1.8 q 1.4,0 2.2,-0.7 z m -2.2,-3.4 q 1.7,0 1.7,1.5 0,0.7 -0.4,1 -0.5,0.4 -1.3,0.4 h -1.8 v -2.9 z m 10,-0.6 q -0.8,-0.7 -1.8,-0.7 -1.2,0 -2,0.7 -0.8,0.7 -0.8,1.8 0,0.8 0.5,1.3 0.4,0.6 1.6,1.1 1.2,0.5 1.6,0.9 0.4,0.4 0.4,0.9 0,0.6 -0.4,1 -0.4,0.3 -1.1,0.3 -0.7,0 -1.1,-0.3 -0.4,-0.4 -0.4,-1 h -1.3 q 0,0.2 0,0.2 0,1 0.8,1.7 0.8,0.6 2,0.6 1.2,0 2.1,-0.7 0.8,-0.7 0.8,-1.8 0,-0.8 -0.5,-1.5 -0.5,-0.6 -1.7,-1.1 l -1,-0.5 q -1,-0.5 -1,-1.2 0,-0.5 0.4,-0.8 0.4,-0.4 1,-0.4 0.6,0 1,0.3 0.4,0.3 0.4,0.9 h 1.3 v -0.2 q 0,-0.9 -0.8,-1.5 z M 302.2,498 H 296 v 1.2 h 2.5 v 7.8 h 1.3 v -7.8 h 2.4 z m 7.2,9 h 1.5 l -2.3,-4 q 0.8,-0.2 1.3,-0.8 0.5,-0.6 0.5,-1.5 0,-1.2 -0.8,-1.9 -0.7,-0.8 -2,-0.8 h -2.7 v 9 h 1.3 v -3.7 h 1.1 z m -2,-7.8 q 1.7,0 1.7,1.4 0,1.4 -1.7,1.4 h -1.2 v -2.8 z m 11.9,7.8 -2.3,-9 h -1.8 l -2.5,9 h 1.3 l 0.7,-2.6 h 2.6 l 0.6,2.6 z m -3.3,-7.8 0.9,4 h -2 z m 5.5,-1.2 v 9 h 1.2 v -6.9 l 3.3,6.9 h 1.4 v -9 h -1.2 v 6.6 l -3.1,-6.6 z m 13.4,0.6 q -0.8,-0.7 -1.9,-0.7 -1.2,0 -2,0.7 -0.8,0.7 -0.8,1.8 0,0.8 0.5,1.3 0.5,0.6 1.7,1.1 1.1,0.5 1.6,0.9 0.4,0.4 0.4,0.9 0,0.6 -0.5,0.9 -0.4,0.4 -1.1,0.4 -0.6,0 -1,-0.3 -0.4,-0.4 -0.5,-1 H 330 q 0,0.1 0,0.2 0,1 0.8,1.7 0.9,0.6 2.1,0.6 1.2,0 2,-0.7 0.8,-0.7 0.8,-1.8 0,-0.9 -0.5,-1.5 -0.5,-0.6 -1.6,-1.1 l -1.1,-0.6 q -0.9,-0.4 -0.9,-1.1 0,-0.5 0.4,-0.9 0.3,-0.3 0.9,-0.3 0.7,0 1,0.3 0.4,0.3 0.4,0.9 h 1.3 v -0.2 q 0,-0.9 -0.7,-1.5 z m 8.4,-0.6 h -4 v 1.2 h 1.3 v 6.6 H 339 v 1.2 h 4.6 v -1.2 h -1.7 v -6.6 h 1.4 z m 9.5,0 h -6.2 v 1.2 h 2.5 v 7.8 h 1.3 v -7.8 h 2.4 z"
         style="fill:#ff7f00" />
    </g>
    <g
       id="temperature"
       transform="matrix(0.26458333,0,0,0.26458333,-2.1259766e-6,-1.9287109e-6)">
      <path
         id="TAT"
         fill-rule="evenodd"
         class="s1"
         d="M 28.8,35.4 H 26.5 V 46 H 25.3 V 35.4 H 23 v -1.6 h 5.8 z M 35.5,46 34.9,42.4 H 32.5 L 31.9,46 h -1.3 l 2.3,-12.2 h 1.8 L 36.8,46 Z m -2.6,-5.2 h 1.8 L 33.8,35.3 Z M 44.6,35.4 H 42.3 V 46 H 41.1 V 35.4 h -2.3 v -1.6 h 5.8 z"
         style="fill:#71ffff" />
      <text
         xml:space="preserve"
         style="font-size:18.9281px;line-height:125%;font-family:'OCR B MT';-inkscape-font-specification:'OCR B MT';text-align:center;writing-mode:lr-tb;text-anchor:middle;fill:#00ff00;fill-opacity:1;stroke-width:0.403598"
         x="168.79645"
         y="38.541172"
         id="flt-mode"
         transform="scale(0.80306025,1.2452366)"
         inkscape:label="flt-mode"><tspan
           sodipodi:role="line"
           id="tspan418"
           x="168.79645"
           y="38.541172"
           style="stroke-width:0.403598">CRZ</tspan></text>
      <text
         xml:space="preserve"
         style="font-size:17.7934px;line-height:125%;font-family:'OCR B MT';-inkscape-font-specification:'OCR B MT';text-align:center;writing-mode:lr-tb;text-anchor:middle;fill:#ffffff;fill-opacity:1;stroke-width:0.379404"
         x="83.049561"
         y="39.065041"
         id="air-temp"
         transform="scale(0.81372191,1.2289211)"
         inkscape:label="air-temp"><tspan
           sodipodi:role="line"
           id="tspan1617"
           x="83.049561"
           y="39.065041"
           style="stroke-width:0.379404">-20c</tspan></text>
    </g>
    <g
       id="fuel"
       transform="matrix(0.26458333,0,0,0.26458333,-2.1259766e-6,-1.9287109e-6)">
      <path
         id="Shape 1"
         fill-rule="evenodd"
         class="s1"
         d="m 258,626 c 0,-3.9 3.1,-7 7,-7 h 24 v 3 h -24 c -2.2,0 -4,1.8 -4,4 v 39 c 0,2.2 1.8,4 4,4 h 192 c 2.2,0 4,-1.8 4,-4 v -39 c 0,-2.2 -1.8,-4 -4,-4 h -24 v -3 h 24 c 3.9,0 7,3.1 7,7 v 39 c 0,3.9 -3.1,7 -7,7 H 265 c -3.9,0 -7,-3.1 -7,-7 z m 38.2,-8.9 h -2.9 v 2.8 h 2.3 v 1.4 h -2.3 v 4.7 h -1.2 v -10.3 h 4.1 z m 2.2,5.6 v -6.9 h 1.2 v 6.8 q 0,1.1 0.3,1.7 0.4,0.5 1.2,0.5 0.8,0 1.2,-0.7 0.2,-0.2 0.2,-0.5 0.1,-0.3 0.1,-1.1 v -6.7 h 1.1 v 6.7 q 0,1 -0.1,1.6 -0.1,0.6 -0.4,1 -0.7,1 -2.2,1 -1.2,0 -1.9,-0.9 -0.4,-0.5 -0.5,-1 -0.2,-0.6 -0.2,-1.5 z m 12.5,-5.6 h -3.6 v 2.9 h 3.1 v 1.4 h -3.1 v 3.2 h 3.7 v 1.4 h -4.8 v -10.2 h 4.7 z m 3.8,-1.4 v 8.9 h 4 v 1.3 h -5.2 v -10.2 z m 17.6,8 1.4,2.2 h -1.4 l -0.7,-1.1 q -0.6,0.6 -1.4,0.6 -0.8,0 -1.5,-0.8 -0.6,-0.7 -0.9,-1.7 -0.2,-1 -0.2,-2.5 0,-2.2 0.7,-3.5 0.7,-1.3 1.9,-1.3 0.9,0 1.6,0.8 1.1,1.3 1.1,4.1 0,2 -0.6,3.2 z m -1.6,-2.8 0.9,1.4 q 0.1,-0.7 0.1,-1.7 0,-1.8 -0.4,-2.7 -0.4,-1 -1,-1 -0.8,0 -1.1,0.8 -0.5,1 -0.5,2.7 0,1.7 0.4,2.7 0.4,0.9 1.1,0.9 0.5,0 0.8,-0.3 l -1.6,-2.8 z m 9.7,-3.8 h -2.1 v 8.8 h -1.2 v -8.8 H 335 v -1.4 h 5.4 z m 3.1,-1.4 1.5,3.9 1.6,-3.9 h 1.3 l -2.3,5.5 v 4.8 h -1.1 v -4.8 l -2.3,-5.5 z m 7.6,7.3 v -1.8 h 2.6 v 1.8 z m 7.3,-7.3 v 4.2 l 3.2,-4.2 h 1.5 l -3.8,4.9 4,5.4 h -1.6 l -3.3,-4.7 v 4.7 h -1.2 v -10.3 z m 10.2,8.8 v -2.6 H 367 v -1.4 h 2.8 v 5 q -1.2,0.6 -2.3,0.6 -1.4,0 -2.2,-1.4 -0.8,-1.3 -0.8,-3.9 0,-1.6 0.3,-2.6 0.2,-1 0.8,-1.7 0.9,-0.9 2.1,-0.9 0.9,0 1.5,0.6 0.2,0.3 0.4,0.7 0.2,0.4 0.2,0.7 0,0 0,0.1 h -1.2 q -0.1,-0.7 -0.9,-0.7 -1,0 -1.5,0.9 -0.5,0.9 -0.5,2.9 0,3.9 1.9,3.9 0.5,0 1,-0.2 z m 8.3,-6.5 v 0.2 h -1.1 q 0,-0.6 -0.3,-0.9 -0.3,-0.3 -0.9,-0.3 -0.5,0 -0.9,0.3 -0.3,0.4 -0.3,1 0,0.8 0.8,1.3 l 0.9,0.6 q 1.1,0.6 1.5,1.3 0.4,0.7 0.4,1.7 0,1.3 -0.7,2.1 -0.7,0.8 -1.8,0.8 -1,0 -1.7,-0.8 -0.7,-0.7 -0.7,-1.8 0,-0.1 0,-0.3 h 1.1 q 0,0.7 0.4,1.1 0.3,0.4 0.9,0.4 0.6,0 1,-0.4 0.4,-0.4 0.4,-1.1 0,-0.6 -0.4,-1 -0.4,-0.5 -1.4,-1.1 -1,-0.6 -1.4,-1.2 -0.4,-0.6 -0.4,-1.5 0,-1.2 0.6,-2 0.7,-0.8 1.8,-0.8 0.9,0 1.6,0.7 0.6,0.7 0.6,1.7 z m 10.8,-2.3 1.5,3.6 1.6,-3.6 h 1.2 l -2.2,4.9 2.3,5.4 h -1.3 l -1.6,-4 -1.6,4 h -1.3 l 2.2,-5.2 -2.2,-5.1 z m 16.1,10.3 v -9.4 l -2.2,2.5 v -1.9 l 2.1,-2.3 H 405 V 626 Z m 7.5,-11.2 q 0.9,0 1.4,0.3 0.5,0.3 0.8,0.9 0.5,1.5 0.5,4.5 0,3.7 -0.7,4.8 -0.6,0.8 -2.2,0.8 -1.7,0 -2.1,-1.1 -0.6,-1.4 -0.6,-4.6 0,-3.2 0.6,-4.5 0.2,-0.6 0.8,-0.8 0.5,-0.3 1.5,-0.3 z m 0,1.4 q -0.7,0 -1,0.1 -0.3,0.1 -0.4,0.3 -0.1,0.3 -0.3,1.4 -0.1,1.1 -0.1,2.4 0,1 0.1,2.1 0.1,1.1 0.2,1.5 0.1,0.4 0.4,0.6 0.3,0.1 0.9,0.1 0.6,0 1,-0.1 0.3,-0.1 0.4,-0.4 0.4,-0.9 0.4,-3.4 0,-1.6 -0.1,-2.7 -0.2,-1.2 -0.4,-1.5 -0.1,-0.2 -0.3,-0.3 -0.3,-0.1 -0.8,-0.1 z m 7.3,-1.4 q 1,0 1.5,0.3 0.5,0.3 0.7,0.9 0.5,1.5 0.5,4.5 0,3.7 -0.7,4.8 -0.6,0.8 -2.2,0.8 -1.7,0 -2.1,-1.1 -0.6,-1.4 -0.6,-4.6 0,-3.2 0.6,-4.5 0.2,-0.6 0.8,-0.8 0.6,-0.3 1.5,-0.3 z m 0,1.4 q -0.6,0 -0.9,0.1 -0.3,0.1 -0.5,0.3 -0.1,0.3 -0.2,1.4 -0.2,1.1 -0.2,2.4 0,1 0.1,2.1 0.1,1.1 0.2,1.5 0.2,0.4 0.4,0.6 0.3,0.1 0.9,0.1 0.7,0 1,-0.1 0.3,-0.1 0.5,-0.4 0.3,-0.9 0.3,-3.4 0,-1.6 -0.1,-2.7 -0.1,-1.2 -0.3,-1.5 -0.1,-0.2 -0.4,-0.3 -0.2,-0.1 -0.8,-0.1 z m 7.4,-1.4 q 0.9,0 1.4,0.3 0.5,0.3 0.7,0.9 0.6,1.5 0.6,4.5 0,3.7 -0.8,4.8 -0.5,0.8 -2.1,0.8 -1.7,0 -2.2,-1.1 -0.5,-1.4 -0.5,-4.6 0,-3.2 0.5,-4.5 0.3,-0.6 0.8,-0.8 0.6,-0.3 1.6,-0.3 z m 0,1.4 q -0.7,0 -1,0.1 -0.3,0.1 -0.4,0.3 -0.2,0.3 -0.3,1.4 -0.1,1.1 -0.1,2.4 0,1 0.1,2.1 0.1,1.1 0.2,1.5 0.1,0.4 0.4,0.6 0.3,0.1 0.8,0.1 0.7,0 1,-0.1 0.4,-0.1 0.5,-0.4 0.3,-0.9 0.3,-3.4 0,-1.6 -0.1,-2.7 -0.1,-1.2 -0.3,-1.5 -0.1,-0.2 -0.4,-0.3 -0.2,-0.1 -0.7,-0.1 z M 256.3,682.1 H 254 v 8.9 h -1.1 v -8.9 h -2.2 v -1.4 h 5.6 z m 4.8,-1.5 q 1.2,0 2,1.5 0.8,1.5 0.8,3.7 0,2.4 -0.8,3.9 -0.8,1.4 -2.1,1.4 -1.2,0 -2,-1.4 -0.8,-1.5 -0.8,-3.8 0,-2.3 0.8,-3.8 0.8,-1.5 2.1,-1.5 z m 0,1.4 q -0.8,0 -1.2,0.9 -0.5,1.1 -0.5,3 0,1.8 0.4,2.8 0.5,1 1.3,1 0.7,0 1.2,-1 0.4,-1 0.4,-2.9 0,-1.7 -0.4,-2.8 -0.5,-1 -1.2,-1 z m 10.3,0.1 h -2.2 V 691 H 268 v -8.9 h -2.2 v -1.4 h 5.6 z m 6.5,8.9 -0.6,-2.9 H 275 l -0.6,2.9 h -1.2 l 2.2,-10.2 h 1.7 l 2.1,10.2 z m -2.6,-4.3 h 1.8 l -0.9,-4.6 z m 7.4,-6 v 8.9 h 4.2 v 1.4 h -5.4 v -10.3 z"
         style="fill:#71ffff" />
      <text
         xml:space="preserve"
         style="font-size:17.2546px;line-height:125%;font-family:'OCR B MT';-inkscape-font-specification:'OCR B MT';text-align:end;writing-mode:lr-tb;text-anchor:end;fill:#ffffff;fill-opacity:1;stroke-width:0.367916"
         x="427.76819"
         y="576.35046"
         id="total"
         transform="scale(0.83047608,1.2041286)"
         inkscape:label="total"><tspan
           sodipodi:role="line"
           id="tspan1773"
           x="427.76819"
           y="576.35046"
           style="stroke-width:0.367916">99.9</tspan></text>
      <text
         xml:space="preserve"
         style="font-size:17.7351px;line-height:125%;font-family:'OCR B MT';-inkscape-font-specification:'OCR B MT';text-align:end;writing-mode:lr-tb;text-anchor:end;fill:#ffffff;fill-opacity:1;stroke-width:0.378159"
         x="393.72238"
         y="530.71564"
         id="tank-l"
         transform="scale(0.81648557,1.2247614)"
         inkscape:label="tank-l"><tspan
           sodipodi:role="line"
           id="tspan1779"
           x="393.72238"
           y="530.71564"
           style="stroke-width:0.378159">9.99</tspan></text>
      <text
         xml:space="preserve"
         style="font-size:17.7351px;line-height:125%;font-family:'OCR B MT';-inkscape-font-specification:'OCR B MT';text-align:end;writing-mode:lr-tb;text-anchor:end;fill:#ffffff;fill-opacity:1;stroke-width:0.378159"
         x="468.43292"
         y="530.71564"
         id="tank-c"
         transform="scale(0.81648557,1.2247614)"
         inkscape:label="tank-c"><tspan
           sodipodi:role="line"
           id="tspan1785"
           x="468.43292"
           y="530.71564"
           style="stroke-width:0.378159">9.99</tspan></text>
      <text
         xml:space="preserve"
         style="font-size:17.7351px;line-height:125%;font-family:'OCR B MT';-inkscape-font-specification:'OCR B MT';text-align:end;writing-mode:lr-tb;text-anchor:end;fill:#ffffff;fill-opacity:1;stroke-width:0.378159"
         x="543.14337"
         y="530.71564"
         id="tank-r"
         transform="scale(0.81648557,1.2247614)"
         inkscape:label="tank-r"><tspan
           sodipodi:role="line"
           id="tspan1789"
           x="543.14337"
           y="530.71564"
           style="stroke-width:0.378159">9.99</tspan></text>
    </g>
    <g
       id="engine warnings"
       transform="matrix(0.26458333,0,0,0.26458333,-2.1259766e-6,-1.9287109e-6)">
      <path
         id="Shape 8"
         fill-rule="evenodd"
         class="s2"
         d="m 281,49 h 93 v 158 h -93 z m 3,31 h 87 V 52 h -87 z m 0,31 h 87 V 83 h -87 z m 0,31 h 87 v -28 h -87 z m 0,31 h 87 v -28 h -87 z m 0,31 h 87 V 176 H 284 Z M 380,49 h 93 v 158 h -93 z m 3,31 h 87 V 52 h -87 z m 0,31 h 87 V 83 h -87 z m 0,31 h 87 v -28 h -87 z m 0,31 h 87 v -28 h -87 z m 0,31 h 87 v -28 h -87 z"
         style="fill:#e9e2f4" />
      <path
         id="Shape 9"
         class="s6"
         d="m 405,32 h 43 v 15 h -43 z m -99,0 h 43 v 15 h -43 z"
         style="fill:#c3adb9" />
      <path
         id="ENG 2"
         class="s1"
         d="m 414.6,36.1 h -3.8 V 39 h 3.3 v 1.3 h -3.3 v 3.3 h 3.9 V 45 h -5.1 V 34.7 h 5 z m 3.8,-1.3 2.9,7.5 v -7.5 h 1 V 45 H 421 l -3,-7.9 V 45 h -1.1 V 34.8 Z m 10.5,8.7 v -2.6 h -1.8 v -1.4 h 2.9 v 5 q -1.2,0.7 -2.3,0.6 -1.5,0.1 -2.4,-1.3 -0.8,-1.4 -0.8,-3.9 0,-1.7 0.3,-2.7 0.3,-1 0.9,-1.7 0.9,-0.9 2.1,-0.9 1,0 1.6,0.7 0.3,0.3 0.5,0.7 0.2,0.4 0.2,0.7 0,0 -0.1,0.1 h -1.1 q -0.2,-0.8 -1,-0.8 -1.1,0 -1.6,0.9 -0.6,1 -0.6,2.9 0,4 2.1,4 0.5,0 1.1,-0.3 z m 12.3,-0.1 v 0.2 h 3.9 V 45 H 440 q -0.1,-0.6 -0.1,-0.9 0,-1.4 0.4,-2.4 0.3,-0.7 0.7,-1.2 0.5,-0.6 1.4,-1.3 1,-0.8 1.3,-1.3 0.4,-0.5 0.4,-1 0,-0.7 -0.5,-1.2 -0.4,-0.5 -0.9,-0.5 -1.3,0 -2.6,1.1 v -1.6 q 1,-0.9 2.4,-0.9 1.3,0 2,0.8 0.8,0.8 0.8,2.2 0,1 -0.4,1.7 -0.3,0.5 -0.6,0.8 -0.3,0.4 -1.4,1.2 -0.9,0.8 -1.3,1.5 -0.4,0.6 -0.4,1.4 z M 315.6,36.1 h -3.7 V 39 h 3.2 v 1.4 h -3.2 v 3.3 h 3.9 V 45 h -5.1 V 34.8 h 4.9 z m 3.8,-1.4 2.9,7.5 v -7.5 h 1.1 V 45 h -1.3 l -3,-7.9 V 45 H 318 V 34.7 Z m 10.4,8.7 v -2.6 h -1.7 v -1.3 h 2.9 v 5 q -1.2,0.6 -2.3,0.6 -1.6,0 -2.4,-1.4 -0.8,-1.4 -0.8,-3.9 0,-1.6 0.3,-2.6 0.3,-1 0.9,-1.7 0.8,-0.9 2.1,-0.9 1,0 1.6,0.6 0.2,0.3 0.4,0.7 0.2,0.4 0.2,0.7 0,0 0,0.1 h -1.2 q -0.2,-0.8 -0.9,-0.8 -1.1,0 -1.7,1 -0.5,0.9 -0.5,2.8 0,4 2.1,4 0.5,0 1,-0.3 z m 13.7,1.6 v -9.4 l -2.2,2.4 v -1.8 l 2.1,-2.3 h 1.3 V 45 Z"
         style="fill:#71ffff" />
      <g
         id="warningN2">
        <path
           id="start-valve-open2"
           fill-rule="evenodd"
           class="s7"
           d="m 383,52 h 87 v 28 h -87 z m 6.2,2.1 q -0.7,-0.5 -1.7,-0.5 -1.1,0 -1.8,0.6 -0.8,0.6 -0.8,1.6 0,0.8 0.5,1.3 0.4,0.5 1.5,1 1.1,0.4 1.5,0.8 0.4,0.4 0.4,0.9 0,0.5 -0.4,0.8 -0.4,0.4 -1.1,0.4 -0.6,0 -0.9,-0.4 -0.4,-0.3 -0.5,-0.9 h -1.2 q 0,0.2 0,0.3 0,0.9 0.8,1.5 0.8,0.6 1.9,0.6 1.1,0 1.9,-0.7 0.7,-0.6 0.7,-1.6 0,-0.8 -0.5,-1.4 -0.4,-0.6 -1.5,-1.1 l -1,-0.5 q -0.8,-0.4 -0.8,-1 0,-0.5 0.3,-0.8 0.4,-0.3 0.9,-0.3 0.6,0 1,0.2 0.3,0.3 0.3,0.8 h 1.2 v -0.2 q 0,-0.8 -0.7,-1.4 z m 8.9,-0.4 h -5.8 v 1.1 h 2.3 V 62 h 1.2 v -7.2 h 2.3 z m 8,8.3 -2.1,-8.3 h -1.8 l -2.3,8.3 h 1.3 l 0.6,-2.4 h 2.4 l 0.5,2.4 z m -3,-7.3 0.8,3.8 h -1.8 z m 9.6,7.3 h 1.4 l -2.2,-3.8 q 0.8,-0.1 1.2,-0.7 0.5,-0.6 0.5,-1.5 0,-1.1 -0.7,-1.7 -0.7,-0.7 -1.9,-0.7 h -2.6 V 62 h 1.3 v -3.5 h 1 z m -1.9,-7.3 q 1.6,0 1.6,1.4 0,1.3 -1.5,1.3 h -1.2 v -2.7 z m 10.9,-1.1 h -5.8 v 1.1 h 2.3 V 62 h 1.2 v -7.3 h 2.3 z m 9.6,0 2.3,8.4 h 1.7 l 2.3,-8.4 h -1.2 l -1.9,7.2 -1.9,-7.2 z m 14,8.4 -2.1,-8.4 h -1.8 l -2.2,8.4 h 1.2 l 0.6,-2.4 h 2.4 L 444,62 Z m -3.1,-7.3 0.9,3.8 h -1.8 z m 4.6,-1.1 2.3,8.3 h 1.7 l 2.3,-8.3 h -1.2 l -1.9,7.2 -1.9,-7.2 z m 8.6,0 v 8.3 h 5.5 v -1.1 h -4.3 v -7.2 z m 12.8,0 h -5 v 8.3 h 5.2 v -1.1 h -4 v -2.7 h 3.3 V 57 h -3.3 v -2.3 h 3.8 z m -55.6,17.1 q -0.8,1.3 -0.8,3.1 0,1.9 0.8,3.1 0.8,1.2 2.1,1.2 1.3,0 2.2,-1.2 0.8,-1.2 0.8,-3.1 0,-1.8 -0.9,-3.1 -0.8,-1.2 -2.1,-1.2 -1.2,0 -2.1,1.2 z m 3.4,0.8 q 0.5,0.8 0.5,2.2 0,1.6 -0.5,2.4 -0.5,0.8 -1.3,0.8 -0.8,0 -1.2,-0.8 -0.5,-0.8 -0.5,-2.3 0,-1.6 0.5,-2.5 0.4,-0.7 1.2,-0.7 0.8,0 1.3,0.9 z m 8.9,2.4 q 0.8,-0.7 0.8,-1.8 0,-1.1 -0.7,-1.8 -0.4,-0.4 -0.8,-0.5 -0.5,-0.2 -1.2,-0.2 h -3 V 78 h 1.3 v -3.5 h 1.6 q 1.3,0 2,-0.6 z M 423,70.7 q 1.5,0 1.5,1.4 0,0.6 -0.4,0.9 -0.4,0.4 -1.2,0.4 h -1.6 v -2.7 z m 10,-1.1 h -5 V 78 h 5.2 v -1.2 h -4 v -2.6 h 3.3 V 73 h -3.3 v -2.3 h 3.8 z m 2.4,0 V 78 h 1.2 v -6.4 l 3,6.4 h 1.4 v -8.4 h -1.1 v 6.2 l -3,-6.2 z"
           style="fill:#fbfd41" />
        <path
           id="oil-filter-bypass2"
           fill-rule="evenodd"
           class="s7"
           d="m 383,83 h 87 v 28 h -87 z m 6.2,2.8 q -0.9,1.2 -0.9,3.1 0,1.8 0.9,3 0.8,1.2 2.1,1.2 1.3,0 2.1,-1.2 0.8,-1.2 0.8,-3.1 0,-1.8 -0.8,-3 -0.9,-1.2 -2.1,-1.2 -1.3,0 -2.1,1.2 z m 3.3,0.7 q 0.5,0.9 0.5,2.3 0,1.5 -0.4,2.3 -0.5,0.9 -1.3,0.9 -0.8,0 -1.3,-0.8 -0.4,-0.9 -0.4,-2.3 0,-1.6 0.5,-2.5 0.4,-0.7 1.2,-0.7 0.8,0 1.2,0.8 z m 8.5,-1.8 h -3.8 v 1.1 h 1.3 v 6.1 H 397 V 93 h 4.2 v -1.1 h -1.5 v -6.1 h 1.3 z m 3.6,0 V 93 h 5.5 v -1.1 h -4.3 v -7.2 z m 20.6,0 h -4.3 V 93 h 1.2 v -3.8 h 2.5 v -1.1 h -2.5 v -2.3 h 3.1 z m 7.1,0 h -3.7 v 1.1 h 1.2 v 6.1 h -1.5 V 93 h 4.3 V 91.9 H 431 v -6.1 h 1.3 z m 3.6,0 v 8.4 h 5.5 v -1.2 h -4.3 v -7.2 z m 13.1,0 h -5.8 v 1.1 h 2.3 v 7.3 h 1.2 v -7.3 h 2.3 z m 7.6,0 h -5 v 8.4 h 5.1 V 92 h -3.9 v -2.7 h 3.3 v -1.1 h -3.3 v -2.4 h 3.8 z m 6.9,8.4 h 1.4 l -2.2,-3.8 q 0.8,-0.1 1.2,-0.7 0.5,-0.6 0.5,-1.4 0,-1.2 -0.7,-1.8 -0.7,-0.7 -1.9,-0.7 h -2.5 v 8.4 h 1.2 v -3.5 h 1 z m -1.8,-7.2 q 1.5,0 1.5,1.3 0,1.3 -1.5,1.3 h -1.1 v -2.6 z m -52.2,22.5 q 0.7,-0.8 0.7,-1.8 0,-0.7 -0.4,-1.2 -0.4,-0.5 -1,-0.7 1.2,-0.4 1.2,-1.6 0,-1 -0.8,-1.7 -0.4,-0.4 -0.9,-0.5 -0.5,-0.1 -1.3,-0.1 h -2.8 v 8.3 h 3.3 q 1.3,0 2,-0.7 z m -2.4,-6.5 q 0.7,0 1.2,0.3 0.4,0.3 0.4,0.9 0,0.4 -0.3,0.8 -0.3,0.3 -1.2,0.3 h -1.8 v -2.3 z m 0.1,3.3 q 0.9,0 1.3,0.4 0.5,0.4 0.5,1 0,0.7 -0.5,1 -0.4,0.4 -1.2,0.4 h -1.9 v -2.8 z m 4.7,-4.4 2.4,4.4 v 3.9 h 1.2 v -3.9 l 2.4,-4.4 h -1.4 l -1.6,3.1 -1.7,-3.1 z m 13.2,4.2 q 0.8,-0.7 0.8,-1.8 0,-1 -0.7,-1.7 -0.4,-0.4 -0.8,-0.6 -0.4,-0.1 -1.2,-0.1 h -2.9 v 8.3 h 1.2 v -3.5 h 1.6 q 1.3,0 2,-0.6 z m -1.9,-3.1 q 1.5,0 1.5,1.3 0,0.6 -0.4,1 -0.4,0.3 -1.1,0.3 h -1.7 v -2.6 z m 10.5,7.2 -2.1,-8.3 h -1.8 l -2.3,8.3 h 1.3 l 0.6,-2.4 h 2.4 l 0.5,2.4 z m -3,-7.3 0.8,3.8 h -1.8 z m 9.7,-0.6 q -0.7,-0.6 -1.7,-0.6 -1.2,0 -1.9,0.6 -0.7,0.7 -0.7,1.7 0,0.7 0.4,1.2 0.5,0.5 1.6,1 1,0.5 1.4,0.9 0.4,0.3 0.4,0.8 0,0.5 -0.4,0.9 -0.4,0.3 -1,0.3 -0.6,0 -1,-0.3 -0.4,-0.4 -0.4,-0.9 h -1.2 q 0,0.1 0,0.2 0,0.9 0.7,1.5 0.8,0.6 1.9,0.6 1.2,0 1.9,-0.6 0.8,-0.7 0.8,-1.7 0,-0.8 -0.5,-1.4 -0.5,-0.5 -1.5,-1.1 l -1,-0.4 q -0.9,-0.5 -0.9,-1.1 0,-0.5 0.4,-0.8 0.3,-0.3 0.9,-0.3 0.6,0 0.9,0.3 0.4,0.3 0.4,0.8 h 1.2 v -0.2 q 0,-0.8 -0.7,-1.4 z m 7.8,0 q -0.7,-0.6 -1.7,-0.6 -1.1,0 -1.9,0.6 -0.7,0.7 -0.7,1.7 0,0.7 0.4,1.2 0.5,0.5 1.6,1 1.1,0.5 1.5,0.9 0.4,0.3 0.4,0.8 0,0.5 -0.4,0.9 -0.5,0.3 -1.1,0.3 -0.6,0 -1,-0.3 -0.3,-0.4 -0.4,-0.9 h -1.2 q 0,0.1 0,0.2 0,0.9 0.8,1.5 0.7,0.6 1.8,0.6 1.2,0 1.9,-0.6 0.8,-0.7 0.8,-1.7 0,-0.8 -0.5,-1.4 -0.4,-0.5 -1.5,-1.1 l -1,-0.4 q -0.9,-0.5 -0.9,-1.1 0,-0.5 0.4,-0.8 0.4,-0.3 0.9,-0.3 0.6,0 1,0.3 0.3,0.3 0.3,0.8 h 1.2 v -0.2 q 0,-0.8 -0.7,-1.4 z"
           style="fill:#fbfd41" />
        <path
           id="low-oil-pressure2"
           fill-rule="evenodd"
           class="s7"
           d="m 383,114 h 87 v 28 h -87 z m 17.6,1.7 v 8.3 h 5.6 v -1.1 h -4.3 v -7.2 z m 8.1,1.1 q -0.9,1.2 -0.9,3.1 0,1.8 0.8,3 0.9,1.2 2.2,1.2 1.3,0 2.1,-1.2 0.8,-1.2 0.8,-3.1 0,-1.8 -0.8,-3 -0.9,-1.2 -2.1,-1.2 -1.3,0 -2.1,1.2 z m 3.3,0.7 q 0.5,0.9 0.5,2.3 0,1.5 -0.5,2.3 -0.4,0.9 -1.2,0.9 -0.9,0 -1.3,-0.8 -0.5,-0.9 -0.5,-2.3 0,-1.6 0.6,-2.5 0.4,-0.7 1.2,-0.7 0.8,0 1.2,0.8 z m 8.7,6.5 q 0.4,-1.5 0.7,-3.6 0.2,-2 0.2,-3.9 v -0.8 h -1.2 v 0.6 q 0,2.4 -0.4,5.3 v 0.4 l -0.9,-3.1 h -1 l -0.9,3 q -0.4,-2.5 -0.4,-5.8 v -0.4 h -1.2 v 0.8 q 0,1.5 0.2,3.7 0.3,2.2 0.7,3.8 h 1.3 l 0.8,-3 0.8,3 z m 11.4,-7.2 q -0.9,1.2 -0.9,3.1 0,1.8 0.9,3 0.8,1.2 2.1,1.2 1.3,0 2.1,-1.2 0.8,-1.2 0.8,-3.1 0,-1.8 -0.8,-3 -0.8,-1.2 -2.1,-1.2 -1.3,0 -2.1,1.2 z m 3.4,0.7 q 0.4,0.9 0.4,2.3 0,1.5 -0.4,2.3 -0.5,0.9 -1.3,0.9 -0.8,0 -1.3,-0.8 -0.4,-0.9 -0.4,-2.3 0,-1.6 0.5,-2.5 0.4,-0.7 1.2,-0.7 0.8,0 1.3,0.8 z m 8.4,-1.8 h -3.8 v 1.1 h 1.3 v 6.1 h -1.5 v 1.1 h 4.2 v -1.1 h -1.5 v -6.1 h 1.3 z m 3.6,0 v 8.3 h 5.5 v -1.1 h -4.3 v -7.2 z m -46.1,20.2 q 0.7,-0.7 0.7,-1.8 0,-1 -0.6,-1.7 -0.5,-0.4 -0.9,-0.6 -0.4,-0.1 -1.2,-0.1 h -2.9 v 8.3 h 1.2 v -3.4 h 1.6 q 1.4,0 2.1,-0.7 z m -2,-3.1 q 1.5,0 1.5,1.3 0,0.6 -0.4,1 -0.4,0.3 -1.1,0.3 h -1.7 v -2.6 z m 9.1,7.2 h 1.5 l -2.2,-3.7 q 0.8,-0.2 1.2,-0.8 0.5,-0.5 0.5,-1.4 0,-1.1 -0.7,-1.8 -0.7,-0.6 -1.9,-0.6 h -2.6 v 8.3 h 1.3 v -3.5 h 1 z m -1.9,-7.2 q 1.6,0 1.6,1.3 0,1.3 -1.6,1.3 h -1.1 v -2.6 z m 10.7,-1.1 h -5.1 v 8.3 h 5.2 v -1.1 h -3.9 v -2.7 h 3.3 v -1.1 h -3.3 v -2.3 h 3.8 z m 7,0.5 q -0.7,-0.6 -1.7,-0.6 -1.1,0 -1.9,0.6 -0.7,0.7 -0.7,1.7 0,0.7 0.4,1.2 0.5,0.5 1.6,1 1,0.5 1.4,0.9 0.5,0.3 0.5,0.8 0,0.5 -0.5,0.9 -0.4,0.3 -1,0.3 -0.6,0 -1,-0.3 -0.4,-0.3 -0.4,-0.9 h -1.2 q 0,0.1 0,0.2 0,0.9 0.8,1.5 0.7,0.7 1.8,0.7 1.2,0 1.9,-0.7 0.8,-0.7 0.8,-1.7 0,-0.8 -0.5,-1.4 -0.4,-0.5 -1.5,-1 l -1,-0.5 q -0.9,-0.4 -0.9,-1.1 0,-0.5 0.4,-0.8 0.4,-0.3 0.9,-0.3 0.6,0 0.9,0.3 0.4,0.3 0.4,0.8 h 1.2 v -0.2 q 0,-0.8 -0.7,-1.4 z m 7.8,0 q -0.7,-0.6 -1.7,-0.6 -1.1,0 -1.8,0.6 -0.8,0.7 -0.8,1.7 0,0.7 0.5,1.2 0.4,0.5 1.5,1 1.1,0.5 1.5,0.9 0.4,0.3 0.4,0.8 0,0.5 -0.4,0.9 -0.4,0.3 -1.1,0.3 -0.6,0 -0.9,-0.3 -0.4,-0.3 -0.5,-0.9 h -1.2 q 0,0.1 0,0.2 0,0.9 0.8,1.5 0.8,0.7 1.9,0.7 1.1,0 1.9,-0.7 0.7,-0.7 0.7,-1.7 0,-0.8 -0.4,-1.4 -0.5,-0.5 -1.6,-1 l -1,-0.5 q -0.8,-0.4 -0.8,-1.1 0,-0.5 0.3,-0.8 0.4,-0.3 0.9,-0.3 0.6,0 1,0.3 0.3,0.3 0.3,0.8 h 1.2 v -0.2 q 0,-0.8 -0.7,-1.4 z m 3.3,6.4 q 0.2,0.4 0.5,0.8 0.8,0.8 2.2,0.8 1.5,0 2.2,-0.9 0.4,-0.3 0.5,-0.8 0.1,-0.5 0.1,-1.3 v -5.5 h -1.2 v 5.5 q 0,0.6 -0.1,0.9 0,0.2 -0.2,0.4 -0.5,0.5 -1.3,0.5 -0.8,0 -1.2,-0.4 -0.4,-0.4 -0.4,-1.3 v -5.6 h -1.2 v 5.7 q 0,0.7 0.1,1.2 z m 12.2,1.5 h 1.5 l -2.2,-3.8 q 0.8,-0.1 1.2,-0.7 0.5,-0.6 0.5,-1.5 0,-1.1 -0.7,-1.7 -0.7,-0.7 -1.9,-0.7 h -2.6 v 8.4 h 1.3 v -3.5 h 1 z m -1.9,-7.3 q 1.6,0 1.6,1.4 0,1.3 -1.6,1.3 h -1.1 v -2.7 z m 10.7,-1.1 h -5.1 v 8.4 h 5.2 V 139 h -3.9 v -2.7 h 3.3 v -1.1 h -3.3 v -2.4 h 3.8 z"
           style="fill:#fbfd41" />
        <path
           id="thrust2"
           fill-rule="evenodd"
           class="s7"
           d="m 383,145 h 87 v 28 h -87 z m 26.8,8.7 h -5.7 v 1.1 h 2.2 v 7.2 h 1.2 v -7.2 h 2.3 z m 7.6,8.3 v -8.3 h -1.2 v 3.4 h -2.9 v -3.4 h -1.2 v 8.3 h 1.2 v -3.7 h 2.9 v 3.7 z m 6.9,0 h 1.4 l -2.2,-3.7 q 0.8,-0.2 1.3,-0.8 0.4,-0.5 0.4,-1.4 0,-1.1 -0.7,-1.8 -0.7,-0.6 -1.9,-0.6 h -2.5 v 8.3 h 1.2 v -3.5 h 1.1 z m -1.9,-7.2 q 1.6,0 1.6,1.3 0,1.3 -1.6,1.3 h -1.1 v -2.6 z m 5.3,5.7 q 0.1,0.5 0.5,0.9 0.8,0.7 2.1,0.7 1.6,0 2.3,-0.8 0.3,-0.4 0.5,-0.8 0.1,-0.5 0.1,-1.3 v -5.5 H 432 v 5.5 q 0,0.6 -0.1,0.8 -0.1,0.3 -0.3,0.5 -0.4,0.5 -1.2,0.5 -0.9,0 -1.3,-0.4 -0.3,-0.4 -0.3,-1.3 v -5.6 h -1.3 v 5.6 q 0,0.8 0.2,1.2 z m 12.3,-6.3 q -0.7,-0.6 -1.7,-0.6 -1.1,0 -1.8,0.6 -0.8,0.7 -0.8,1.7 0,0.7 0.5,1.2 0.4,0.5 1.5,1 1.1,0.5 1.5,0.9 0.4,0.3 0.4,0.8 0,0.5 -0.4,0.9 -0.4,0.3 -1,0.3 -0.6,0 -1,-0.3 -0.4,-0.4 -0.4,-0.9 h -1.2 q -0.1,0.1 -0.1,0.2 0,0.9 0.8,1.5 0.8,0.6 1.9,0.6 1.1,0 1.9,-0.6 0.7,-0.7 0.7,-1.7 0,-0.8 -0.4,-1.4 -0.5,-0.6 -1.6,-1.1 l -0.9,-0.4 q -0.9,-0.5 -0.9,-1.1 0,-0.5 0.3,-0.8 0.4,-0.3 1,-0.3 0.6,0 0.9,0.3 0.3,0.3 0.3,0.8 h 1.2 v -0.2 q 0,-0.8 -0.7,-1.4 z m 8.9,-0.5 h -5.8 v 1.1 h 2.3 v 7.2 h 1.2 v -7.2 h 2.3 z"
           style="fill:#fbfd41" />
        <path
           id="fuel-flow2"
           fill-rule="evenodd"
           class="s7"
           d="m 383,176 h 87 v 28 h -87 z m 14.8,8.7 h -4.3 v 8.3 h 1.2 v -3.8 h 2.5 v -1.1 h -2.5 v -2.3 h 3.1 z m 2.6,6.8 q 0.1,0.5 0.5,0.8 0.7,0.8 2.1,0.8 1.5,0 2.3,-0.8 0.3,-0.4 0.4,-0.8 0.1,-0.5 0.1,-1.3 v -5.5 h -1.2 v 5.5 q 0,0.6 0,0.8 -0.1,0.3 -0.3,0.5 -0.5,0.5 -1.3,0.5 -0.8,0 -1.2,-0.4 -0.4,-0.4 -0.4,-1.4 v -5.5 h -1.2 v 5.6 q 0,0.8 0.2,1.2 z m 13.1,-6.8 h -5 v 8.3 h 5.1 v -1.1 h -3.9 v -2.7 h 3.3 v -1.1 h -3.3 v -2.3 h 3.8 z m 2.8,0 v 8.3 h 5.5 v -1.1 h -4.3 v -7.2 z m 20.7,0 h -4.4 v 8.3 h 1.2 v -3.8 h 2.5 v -1.1 h -2.5 v -2.3 h 3.2 z m 2.8,0 v 8.4 h 5.5 v -1.2 H 441 v -7.2 z m 8.1,1.1 q -0.8,1.3 -0.8,3.1 0,1.9 0.8,3.1 0.8,1.2 2.1,1.2 1.3,0 2.2,-1.2 0.8,-1.2 0.8,-3.1 0,-1.8 -0.9,-3.1 -0.8,-1.2 -2.1,-1.2 -1.2,0 -2.1,1.2 z m 3.4,0.8 q 0.5,0.8 0.5,2.2 0,1.6 -0.5,2.4 -0.5,0.8 -1.3,0.8 -0.8,0 -1.3,-0.8 -0.4,-0.8 -0.4,-2.3 0,-1.6 0.5,-2.5 0.4,-0.7 1.2,-0.7 0.8,0 1.3,0.9 z m 8.7,6.5 q 0.4,-1.6 0.6,-3.6 0.3,-2.1 0.3,-3.9 v -0.9 h -1.3 v 0.6 q 0,2.5 -0.3,5.3 v 0.4 l -1,-3.1 h -0.9 l -0.9,3.1 q -0.4,-2.6 -0.4,-5.8 v -0.5 h -1.3 v 0.8 q 0,1.6 0.3,3.8 0.3,2.2 0.6,3.8 h 1.4 l 0.8,-3 0.7,3 z"
           style="fill:#fbfd41" />
      </g>
      <g
         id="warningN1">
        <path
           id="start-valve-open"
           fill-rule="evenodd"
           class="s7"
           d="m 284,52 h 87 v 28 h -87 z m 6.2,2.1 q -0.7,-0.5 -1.7,-0.5 -1.1,0 -1.8,0.6 -0.8,0.6 -0.8,1.6 0,0.8 0.5,1.3 0.4,0.5 1.5,1 1.1,0.4 1.5,0.8 0.4,0.4 0.4,0.9 0,0.5 -0.4,0.8 -0.4,0.4 -1.1,0.4 -0.6,0 -0.9,-0.4 -0.4,-0.3 -0.5,-0.9 h -1.2 q 0,0.2 0,0.3 0,0.9 0.8,1.5 0.8,0.6 1.9,0.6 1.1,0 1.9,-0.7 0.7,-0.6 0.7,-1.6 0,-0.8 -0.5,-1.4 -0.4,-0.6 -1.5,-1.1 l -1,-0.5 q -0.8,-0.4 -0.8,-1 0,-0.5 0.3,-0.8 0.4,-0.3 0.9,-0.3 0.6,0 1,0.2 0.3,0.3 0.3,0.8 h 1.2 v -0.2 q 0,-0.8 -0.7,-1.4 z m 8.9,-0.4 h -5.8 v 1.1 h 2.3 V 62 h 1.2 v -7.2 h 2.3 z m 8,8.3 -2.1,-8.3 h -1.8 l -2.3,8.3 h 1.3 l 0.6,-2.4 h 2.4 l 0.5,2.4 z m -3,-7.3 0.8,3.8 h -1.8 z m 9.6,7.3 h 1.4 l -2.2,-3.8 q 0.8,-0.1 1.2,-0.7 0.5,-0.6 0.5,-1.5 0,-1.1 -0.7,-1.7 -0.7,-0.7 -1.9,-0.7 h -2.6 V 62 h 1.3 v -3.5 h 1 z m -1.9,-7.3 q 1.6,0 1.6,1.4 0,1.3 -1.5,1.3 h -1.2 v -2.7 z m 10.9,-1.1 h -5.8 v 1.1 h 2.3 V 62 h 1.2 v -7.3 h 2.3 z m 9.6,0 2.3,8.4 h 1.7 l 2.3,-8.4 h -1.2 l -1.9,7.2 -1.9,-7.2 z m 14,8.4 -2.1,-8.4 h -1.8 l -2.2,8.4 h 1.2 l 0.6,-2.4 h 2.4 L 345,62 Z m -3.1,-7.3 0.9,3.8 h -1.8 z m 4.6,-1.1 2.3,8.3 h 1.7 l 2.3,-8.3 h -1.2 l -1.9,7.2 -1.9,-7.2 z m 8.6,0 v 8.3 h 5.5 v -1.1 h -4.3 v -7.2 z m 12.8,0 h -5 v 8.3 h 5.2 v -1.1 h -4 v -2.7 h 3.3 V 57 h -3.3 v -2.3 h 3.8 z m -55.6,17.1 q -0.8,1.3 -0.8,3.1 0,1.9 0.8,3.1 0.8,1.2 2.1,1.2 1.3,0 2.2,-1.2 0.8,-1.2 0.8,-3.1 0,-1.8 -0.9,-3.1 -0.8,-1.2 -2.1,-1.2 -1.2,0 -2.1,1.2 z m 3.4,0.8 q 0.5,0.8 0.5,2.2 0,1.6 -0.5,2.4 -0.5,0.8 -1.3,0.8 -0.8,0 -1.2,-0.8 -0.5,-0.8 -0.5,-2.3 0,-1.6 0.5,-2.5 0.4,-0.7 1.2,-0.7 0.8,0 1.3,0.9 z m 8.9,2.4 q 0.8,-0.7 0.8,-1.8 0,-1.1 -0.7,-1.8 -0.4,-0.4 -0.8,-0.5 -0.5,-0.2 -1.2,-0.2 h -3 V 78 h 1.3 v -3.5 h 1.6 q 1.3,0 2,-0.6 z M 324,70.7 q 1.5,0 1.5,1.4 0,0.6 -0.4,0.9 -0.4,0.4 -1.2,0.4 h -1.6 v -2.7 z m 10,-1.1 h -5 V 78 h 5.2 v -1.2 h -4 v -2.6 h 3.3 V 73 h -3.3 v -2.3 h 3.8 z m 2.4,0 V 78 h 1.2 v -6.4 l 3,6.4 h 1.4 v -8.4 h -1.1 v 6.2 l -3,-6.2 z"
           style="fill:#fbfd41" />
        <path
           id="oil-filter-bypass"
           fill-rule="evenodd"
           class="s7"
           d="m 284,83 h 87 v 28 h -87 z m 6.2,2.8 q -0.9,1.2 -0.9,3.1 0,1.8 0.9,3 0.8,1.2 2.1,1.2 1.3,0 2.1,-1.2 0.8,-1.2 0.8,-3.1 0,-1.8 -0.8,-3 -0.9,-1.2 -2.1,-1.2 -1.3,0 -2.1,1.2 z m 3.3,0.7 q 0.5,0.9 0.5,2.3 0,1.5 -0.4,2.3 -0.5,0.9 -1.3,0.9 -0.8,0 -1.3,-0.8 -0.4,-0.9 -0.4,-2.3 0,-1.6 0.5,-2.5 0.4,-0.7 1.2,-0.7 0.8,0 1.2,0.8 z m 8.5,-1.8 h -3.8 v 1.1 h 1.3 v 6.1 H 298 V 93 h 4.2 v -1.1 h -1.5 v -6.1 h 1.3 z m 3.6,0 V 93 h 5.5 v -1.1 h -4.3 v -7.2 z m 20.6,0 h -4.3 V 93 h 1.2 v -3.8 h 2.5 v -1.1 h -2.5 v -2.3 h 3.1 z m 7.1,0 h -3.8 v 1.1 h 1.3 v 6.1 h -1.5 V 93 h 4.3 V 91.9 H 332 v -6.1 h 1.3 z m 3.6,0 v 8.4 h 5.5 v -1.2 h -4.3 v -7.2 z m 13.1,0 h -5.8 v 1.1 h 2.3 v 7.3 h 1.2 v -7.3 h 2.3 z m 7.6,0 h -5 v 8.4 h 5.1 V 92 h -3.9 v -2.7 h 3.3 v -1.1 h -3.3 v -2.4 h 3.8 z m 6.9,8.4 h 1.4 l -2.2,-3.8 q 0.8,-0.1 1.2,-0.7 0.5,-0.6 0.5,-1.4 0,-1.2 -0.7,-1.8 -0.7,-0.7 -1.9,-0.7 h -2.5 v 8.4 h 1.2 v -3.5 h 1 z m -1.8,-7.2 q 1.5,0 1.5,1.3 0,1.3 -1.5,1.3 h -1.1 v -2.6 z m -52.2,22.5 q 0.7,-0.8 0.7,-1.8 0,-0.7 -0.4,-1.2 -0.4,-0.5 -1,-0.7 1.2,-0.4 1.2,-1.6 0,-1 -0.8,-1.7 -0.4,-0.4 -0.9,-0.5 -0.5,-0.1 -1.3,-0.1 h -2.8 v 8.3 h 3.3 q 1.3,0 2,-0.7 z m -2.4,-6.5 q 0.7,0 1.2,0.3 0.4,0.3 0.4,0.9 0,0.4 -0.3,0.8 -0.3,0.3 -1.2,0.3 h -1.8 v -2.3 z m 0.1,3.3 q 0.9,0 1.3,0.4 0.5,0.4 0.5,1 0,0.7 -0.5,1 -0.4,0.4 -1.2,0.4 h -1.9 v -2.8 z m 4.7,-4.4 2.4,4.4 v 3.9 h 1.2 v -3.9 l 2.4,-4.4 h -1.4 l -1.6,3.1 -1.7,-3.1 z m 13.2,4.2 q 0.8,-0.7 0.8,-1.8 0,-1 -0.7,-1.7 -0.4,-0.4 -0.8,-0.6 -0.4,-0.1 -1.2,-0.1 h -2.9 v 8.3 h 1.2 v -3.5 h 1.6 q 1.3,0 2,-0.6 z m -1.9,-3.1 q 1.5,0 1.5,1.3 0,0.6 -0.4,1 -0.4,0.3 -1.1,0.3 h -1.7 v -2.6 z m 10.5,7.2 -2.1,-8.3 h -1.8 l -2.3,8.3 h 1.3 l 0.6,-2.4 h 2.4 l 0.5,2.4 z m -3,-7.3 0.8,3.8 h -1.8 z m 9.7,-0.6 q -0.7,-0.6 -1.7,-0.6 -1.2,0 -1.9,0.6 -0.7,0.7 -0.7,1.7 0,0.7 0.4,1.2 0.5,0.5 1.6,1 1,0.5 1.4,0.9 0.4,0.3 0.4,0.8 0,0.5 -0.4,0.9 -0.4,0.3 -1,0.3 -0.6,0 -1,-0.3 -0.4,-0.4 -0.4,-0.9 h -1.2 q 0,0.1 0,0.2 0,0.9 0.7,1.5 0.8,0.6 1.9,0.6 1.2,0 1.9,-0.6 0.8,-0.7 0.8,-1.7 0,-0.8 -0.5,-1.4 -0.5,-0.5 -1.5,-1.1 l -1,-0.4 q -0.9,-0.5 -0.9,-1.1 0,-0.5 0.4,-0.8 0.3,-0.3 0.9,-0.3 0.6,0 0.9,0.3 0.4,0.3 0.4,0.8 h 1.2 v -0.2 q 0,-0.8 -0.7,-1.4 z m 7.8,0 q -0.7,-0.6 -1.7,-0.6 -1.1,0 -1.9,0.6 -0.7,0.7 -0.7,1.7 0,0.7 0.4,1.2 0.5,0.5 1.6,1 1.1,0.5 1.5,0.9 0.4,0.3 0.4,0.8 0,0.5 -0.4,0.9 -0.5,0.3 -1.1,0.3 -0.6,0 -1,-0.3 -0.3,-0.4 -0.4,-0.9 h -1.2 q 0,0.1 0,0.2 0,0.9 0.8,1.5 0.7,0.6 1.8,0.6 1.2,0 1.9,-0.6 0.8,-0.7 0.8,-1.7 0,-0.8 -0.5,-1.4 -0.4,-0.5 -1.5,-1.1 l -1,-0.4 q -0.9,-0.5 -0.9,-1.1 0,-0.5 0.4,-0.8 0.4,-0.3 0.9,-0.3 0.6,0 1,0.3 0.3,0.3 0.3,0.8 h 1.2 v -0.2 q 0,-0.8 -0.7,-1.4 z"
           style="fill:#fbfd41" />
        <path
           id="low-oil-pressure"
           fill-rule="evenodd"
           class="s7"
           d="m 284,114 h 87 v 28 h -87 z m 17.6,1.7 v 8.3 h 5.6 v -1.1 h -4.3 v -7.2 z m 8.1,1.1 q -0.9,1.2 -0.9,3.1 0,1.8 0.8,3 0.9,1.2 2.2,1.2 1.3,0 2.1,-1.2 0.8,-1.2 0.8,-3.1 0,-1.8 -0.8,-3 -0.9,-1.2 -2.1,-1.2 -1.3,0 -2.1,1.2 z m 3.3,0.7 q 0.5,0.9 0.5,2.3 0,1.5 -0.5,2.3 -0.4,0.9 -1.2,0.9 -0.9,0 -1.3,-0.8 -0.5,-0.9 -0.5,-2.3 0,-1.6 0.6,-2.5 0.4,-0.7 1.2,-0.7 0.8,0 1.2,0.8 z m 8.7,6.5 q 0.4,-1.5 0.7,-3.6 0.2,-2 0.2,-3.9 v -0.8 h -1.2 v 0.6 q 0,2.4 -0.4,5.3 v 0.4 l -0.9,-3.1 h -1 l -0.9,3 q -0.4,-2.5 -0.4,-5.8 v -0.4 h -1.2 v 0.8 q 0,1.5 0.2,3.7 0.3,2.2 0.7,3.8 h 1.3 l 0.8,-3 0.8,3 z m 11.4,-7.2 q -0.9,1.2 -0.9,3.1 0,1.8 0.9,3 0.8,1.2 2.1,1.2 1.3,0 2.1,-1.2 0.8,-1.2 0.8,-3.1 0,-1.8 -0.8,-3 -0.8,-1.2 -2.1,-1.2 -1.3,0 -2.1,1.2 z m 3.4,0.7 q 0.4,0.9 0.4,2.3 0,1.5 -0.4,2.3 -0.5,0.9 -1.3,0.9 -0.8,0 -1.3,-0.8 -0.4,-0.9 -0.4,-2.3 0,-1.6 0.5,-2.5 0.4,-0.7 1.2,-0.7 0.8,0 1.3,0.8 z m 8.4,-1.8 h -3.8 v 1.1 h 1.3 v 6.1 h -1.5 v 1.1 h 4.2 v -1.1 h -1.5 v -6.1 h 1.3 z m 3.6,0 v 8.3 h 5.5 v -1.1 h -4.3 v -7.2 z m -46.1,20.2 q 0.7,-0.7 0.7,-1.8 0,-1 -0.6,-1.7 -0.5,-0.4 -0.9,-0.6 -0.4,-0.1 -1.2,-0.1 h -2.9 v 8.3 h 1.2 v -3.4 h 1.6 q 1.4,0 2.1,-0.7 z m -2,-3.1 q 1.5,0 1.5,1.3 0,0.6 -0.4,1 -0.4,0.3 -1.1,0.3 h -1.7 v -2.6 z m 9.1,7.2 h 1.5 l -2.2,-3.7 q 0.8,-0.2 1.2,-0.8 0.5,-0.5 0.5,-1.4 0,-1.1 -0.7,-1.8 -0.7,-0.6 -1.9,-0.6 h -2.6 v 8.3 h 1.3 v -3.5 h 1 z m -1.9,-7.2 q 1.6,0 1.6,1.3 0,1.3 -1.6,1.3 h -1.1 v -2.6 z m 10.7,-1.1 h -5.1 v 8.3 h 5.2 v -1.1 h -3.9 v -2.7 h 3.3 v -1.1 h -3.3 v -2.3 h 3.8 z m 7,0.5 q -0.7,-0.6 -1.7,-0.6 -1.1,0 -1.9,0.6 -0.7,0.7 -0.7,1.7 0,0.7 0.4,1.2 0.5,0.5 1.6,1 1,0.5 1.4,0.9 0.5,0.3 0.5,0.8 0,0.5 -0.5,0.9 -0.4,0.3 -1,0.3 -0.6,0 -1,-0.3 -0.4,-0.3 -0.4,-0.9 h -1.2 q 0,0.1 0,0.2 0,0.9 0.8,1.5 0.7,0.7 1.8,0.7 1.2,0 1.9,-0.7 0.8,-0.7 0.8,-1.7 0,-0.8 -0.5,-1.4 -0.4,-0.5 -1.5,-1 l -1,-0.5 q -0.9,-0.4 -0.9,-1.1 0,-0.5 0.4,-0.8 0.4,-0.3 0.9,-0.3 0.6,0 0.9,0.3 0.4,0.3 0.4,0.8 h 1.2 v -0.2 q 0,-0.8 -0.7,-1.4 z m 7.8,0 q -0.7,-0.6 -1.7,-0.6 -1.1,0 -1.8,0.6 -0.8,0.7 -0.8,1.7 0,0.7 0.5,1.2 0.4,0.5 1.5,1 1.1,0.5 1.5,0.9 0.4,0.3 0.4,0.8 0,0.5 -0.4,0.9 -0.4,0.3 -1.1,0.3 -0.6,0 -0.9,-0.3 -0.4,-0.3 -0.5,-0.9 h -1.2 q 0,0.1 0,0.2 0,0.9 0.8,1.5 0.8,0.7 1.9,0.7 1.1,0 1.9,-0.7 0.7,-0.7 0.7,-1.7 0,-0.8 -0.4,-1.4 -0.5,-0.5 -1.6,-1 l -1,-0.5 q -0.8,-0.4 -0.8,-1.1 0,-0.5 0.3,-0.8 0.4,-0.3 0.9,-0.3 0.6,0 1,0.3 0.3,0.3 0.3,0.8 h 1.2 v -0.2 q 0,-0.8 -0.7,-1.4 z m 3.3,6.4 q 0.2,0.4 0.5,0.8 0.8,0.8 2.2,0.8 1.5,0 2.2,-0.9 0.4,-0.3 0.5,-0.8 0.1,-0.5 0.1,-1.3 v -5.5 h -1.2 v 5.5 q 0,0.6 -0.1,0.9 0,0.2 -0.2,0.4 -0.5,0.5 -1.3,0.5 -0.8,0 -1.2,-0.4 -0.4,-0.4 -0.4,-1.3 v -5.6 h -1.2 v 5.7 q 0,0.7 0.1,1.2 z m 12.2,1.5 h 1.5 l -2.2,-3.8 q 0.8,-0.1 1.2,-0.7 0.5,-0.6 0.5,-1.5 0,-1.1 -0.7,-1.7 -0.7,-0.7 -1.9,-0.7 h -2.6 v 8.4 h 1.3 v -3.5 h 1 z m -1.9,-7.3 q 1.6,0 1.6,1.4 0,1.3 -1.6,1.3 h -1.1 v -2.7 z m 10.7,-1.1 h -5.1 v 8.4 h 5.2 V 139 h -3.9 v -2.7 h 3.3 v -1.1 h -3.3 v -2.4 h 3.8 z"
           style="fill:#fbfd41" />
        <path
           id="thrust"
           fill-rule="evenodd"
           class="s7"
           d="m 284,145 h 87 v 28 h -87 z m 26.8,8.7 h -5.7 v 1.1 h 2.2 v 7.2 h 1.2 v -7.2 h 2.3 z m 7.6,8.3 v -8.3 h -1.2 v 3.4 h -2.9 v -3.4 h -1.2 v 8.3 h 1.2 v -3.7 h 2.9 v 3.7 z m 6.9,0 h 1.4 l -2.2,-3.7 q 0.8,-0.2 1.3,-0.8 0.4,-0.5 0.4,-1.4 0,-1.1 -0.7,-1.8 -0.7,-0.6 -1.9,-0.6 h -2.5 v 8.3 h 1.2 v -3.5 h 1.1 z m -1.9,-7.2 q 1.6,0 1.6,1.3 0,1.3 -1.6,1.3 h -1.1 v -2.6 z m 5.3,5.7 q 0.1,0.5 0.5,0.9 0.8,0.7 2.1,0.7 1.6,0 2.3,-0.8 0.3,-0.4 0.5,-0.8 0.1,-0.5 0.1,-1.3 v -5.5 H 333 v 5.5 q 0,0.6 -0.1,0.8 -0.1,0.3 -0.3,0.5 -0.4,0.5 -1.2,0.5 -0.9,0 -1.3,-0.4 -0.3,-0.4 -0.3,-1.3 v -5.6 h -1.3 v 5.6 q 0,0.8 0.2,1.2 z m 12.3,-6.3 q -0.7,-0.6 -1.7,-0.6 -1.1,0 -1.8,0.6 -0.8,0.7 -0.8,1.7 0,0.7 0.5,1.2 0.4,0.5 1.5,1 1.1,0.5 1.5,0.9 0.4,0.3 0.4,0.8 0,0.5 -0.4,0.9 -0.4,0.3 -1,0.3 -0.6,0 -1,-0.3 -0.4,-0.4 -0.4,-0.9 h -1.2 q -0.1,0.1 -0.1,0.2 0,0.9 0.8,1.5 0.8,0.6 1.9,0.6 1.1,0 1.9,-0.6 0.7,-0.7 0.7,-1.7 0,-0.8 -0.4,-1.4 -0.5,-0.6 -1.6,-1.1 l -0.9,-0.4 q -0.9,-0.5 -0.9,-1.1 0,-0.5 0.3,-0.8 0.4,-0.3 1,-0.3 0.6,0 0.9,0.3 0.3,0.3 0.3,0.8 h 1.2 v -0.2 q 0,-0.8 -0.7,-1.4 z m 8.9,-0.5 h -5.8 v 1.1 h 2.3 v 7.2 h 1.2 v -7.2 h 2.3 z"
           style="fill:#fbfd41" />
        <path
           id="fuel-flow"
           fill-rule="evenodd"
           class="s7"
           d="m 284,176 h 87 v 28 h -87 z m 14.8,8.7 h -4.3 v 8.3 h 1.2 v -3.8 h 2.5 v -1.1 h -2.5 v -2.3 h 3.1 z m 2.6,6.8 q 0.1,0.5 0.5,0.8 0.7,0.8 2.1,0.8 1.5,0 2.3,-0.8 0.3,-0.4 0.4,-0.8 0.1,-0.5 0.1,-1.3 v -5.5 h -1.2 v 5.5 q 0,0.6 0,0.8 -0.1,0.3 -0.3,0.5 -0.5,0.5 -1.3,0.5 -0.8,0 -1.2,-0.4 -0.4,-0.4 -0.4,-1.4 v -5.5 h -1.2 v 5.6 q 0,0.8 0.2,1.2 z m 13.1,-6.8 h -5 v 8.3 h 5.1 v -1.1 h -3.9 v -2.7 h 3.3 v -1.1 h -3.3 v -2.3 h 3.8 z m 2.8,0 v 8.3 h 5.5 v -1.1 h -4.3 v -7.2 z m 20.7,0 h -4.4 v 8.3 h 1.2 v -3.8 h 2.5 v -1.1 h -2.5 v -2.3 h 3.2 z m 2.8,0 v 8.4 h 5.5 v -1.2 H 342 v -7.2 z m 8.1,1.1 q -0.8,1.3 -0.8,3.1 0,1.9 0.8,3.1 0.8,1.2 2.1,1.2 1.3,0 2.2,-1.2 0.8,-1.2 0.8,-3.1 0,-1.8 -0.9,-3.1 -0.8,-1.2 -2.1,-1.2 -1.2,0 -2.1,1.2 z m 3.4,0.8 q 0.5,0.8 0.5,2.2 0,1.6 -0.5,2.4 -0.5,0.8 -1.3,0.8 -0.8,0 -1.3,-0.8 -0.4,-0.8 -0.4,-2.3 0,-1.6 0.5,-2.5 0.4,-0.7 1.2,-0.7 0.8,0 1.3,0.9 z m 8.7,6.5 q 0.4,-1.6 0.6,-3.6 0.3,-2.1 0.3,-3.9 v -0.9 h -1.3 v 0.6 q 0,2.5 -0.3,5.3 v 0.4 l -1,-3.1 h -0.9 l -0.9,3.1 q -0.4,-2.6 -0.4,-5.8 v -0.5 h -1.3 v 0.8 q 0,1.6 0.3,3.8 0.3,2.2 0.6,3.8 h 1.4 l 0.8,-3 0.7,3 z"
           style="fill:#fbfd41" />
      </g>
    </g>
    <g
       id="N2"
       transform="matrix(0.26458333,0,0,0.26458333,-2.1259766e-6,-1.9287109e-6)">
      <path
         id="Shape 12"
         fill-rule="evenodd"
         class="s0"
         d="m 195,264 h 69 v 27 h -69 z m 3,24 h 63 V 267 H 198 Z M 70,264 h 69 v 27 H 70 Z m 3,24 h 63 V 267 H 73 Z"
         style="fill:#ffffff" />
      <path
         id="Shape 11"
         class="s8"
         d="m 159.8,276.9 -10.5,-5.1 1.8,-3.8 10.5,5 z m -125,0 -10.5,-5 1.9,-3.9 10.5,5.1 z"
         style="fill:#ff0000" />
      <path
         id="n2-dial2"
         class="s0"
         d="m 195,296 c 0,-1.1 0.9,-2 2,-2 h 43 c 1.1,0 2,0.9 2,2 0,1.1 -0.9,2 -2,2 h -43 c -1.1,0 -2,-0.9 -2,-2 z"
         style="fill:#ffffff" />
      <text
         xml:space="preserve"
         style="font-size:21.8979px;line-height:125%;font-family:'OCR B MT';-inkscape-font-specification:'OCR B MT';text-align:end;writing-mode:lr-tb;text-anchor:end;fill:#ffffff;fill-opacity:1;stroke-width:0.466923"
         x="315.77911"
         y="238.03058"
         id="n2-text2"
         transform="scale(0.82946746,1.2055928)"
         inkscape:label="n2-text2"><tspan
           sodipodi:role="line"
           id="tspan1801"
           x="315.77911"
           y="238.03058"
           style="stroke-width:0.466923">100.0</tspan></text>
      <text
         xml:space="preserve"
         style="font-size:21.8979px;line-height:125%;font-family:'OCR B MT';-inkscape-font-specification:'OCR B MT';text-align:end;writing-mode:lr-tb;text-anchor:end;fill:#ffffff;fill-opacity:1;stroke-width:0.466923"
         x="165.08008"
         y="238.03058"
         id="n2-text1"
         transform="scale(0.82946745,1.2055928)"
         inkscape:label="n2-text1"><tspan
           sodipodi:role="line"
           id="tspan1794"
           x="165.08008"
           y="238.03058"
           style="stroke-width:0.466923">100.0</tspan></text>
      <path
         id="n2-dial1"
         class="s0"
         d="m 70,296 c 0,-1.1 0.9,-2 2,-2 h 43 c 1.1,0 2,0.9 2,2 0,1.1 -0.9,2 -2,2 H 72 c -1.1,0 -2,-0.9 -2,-2 z"
         style="fill:#ffffff" />
      <path
         id="Shape 10"
         class="s0"
         d="m 197,340 c -24.9,0 -45,-20.1 -45,-45 0,-7.1 1.6,-13.7 4.5,-19.7 l 2.7,1.3 c -2.7,5.6 -4.2,11.8 -4.2,18.4 0,23.2 18.8,42 42,42 22.9,0 41.5,-18.2 42,-41 h 3 c -0.5,24.4 -20.4,44 -45,44 z m -125,0 c -24.9,0 -45,-20.1 -45,-45 0,-7.1 1.6,-13.7 4.5,-19.7 l 2.7,1.3 c -2.7,5.6 -4.2,11.8 -4.2,18.4 0,23.2 18.8,42 42,42 22.9,0 41.5,-18.2 42,-41 h 3 c -0.5,24.4 -20.4,44 -45,44 z"
         style="fill:#ffffff" />
      <path
         id="motoring1"
         fill-rule="evenodd"
         class="s0"
         d="m 37.1,301.7 1.2,4 1.2,-4 h 2.4 V 312 h -1.5 v -8.7 l -1.5,5.3 h -1.2 l -1.5,-5.3 V 312 H 34.7 V 301.7 Z M 48,301.6 q 1.5,0 2.5,1.5 1.1,1.5 1.1,3.7 0,2.4 -1,3.9 -1,1.4 -2.7,1.4 -1.5,0 -2.6,-1.4 -1,-1.5 -1,-3.8 0,-2.3 1.1,-3.8 1,-1.5 2.6,-1.5 z m 0,1.4 q -1,0 -1.5,0.9 -0.7,1.1 -0.7,3 0,1.8 0.6,2.8 0.5,1 1.5,1 1,0 1.6,-1 0.6,-1 0.6,-2.9 0,-1.7 -0.6,-2.8 -0.6,-1 -1.5,-1 z m 13.1,0.1 h -2.8 v 8.9 h -1.5 v -8.9 H 54 v -1.4 h 7.1 z m 6.1,-1.5 q 1.6,0 2.6,1.5 1.1,1.5 1.1,3.8 0,2.3 -1.1,3.8 -1,1.4 -2.6,1.4 -1.6,0 -2.6,-1.4 -1,-1.5 -1,-3.7 0,-2.3 1,-3.9 1.1,-1.5 2.6,-1.5 z m 0,1.4 q -1,0 -1.5,0.9 -0.6,1.1 -0.6,3.1 0,1.8 0.5,2.8 0.6,1 1.6,1 1,0 1.6,-1.1 0.5,-1 0.5,-2.8 0,-1.8 -0.5,-2.9 -0.6,-1 -1.6,-1 z m 9.4,4.7 h -1.3 v 4.3 h -1.5 v -10.2 h 3.1 q 1.5,0 2.3,0.8 0.9,0.8 0.9,2.1 0,1.1 -0.6,1.8 -0.5,0.7 -1.5,0.9 l 2.7,4.6 H 79 Z m -1.4,-4.6 v 3.2 h 1.4 q 2,0 2,-1.6 0,-1.6 -2,-1.6 z m 13.5,0 h -1.6 v 7.5 H 89 v 1.4 h -5.2 v -1.4 h 1.8 v -7.5 h -1.5 v -1.4 h 4.6 z m 5.7,-1.3 3.7,7.5 v -7.5 h 1.4 V 312 H 97.8 L 94,304.1 v 7.9 h -1.4 v -10.2 z m 13.1,8.7 v -2.6 h -2.1 v -1.3 h 3.6 v 5 q -1.5,0.6 -2.9,0.6 -1.9,0 -3,-1.4 -1,-1.4 -1,-3.9 0,-1.7 0.4,-2.7 0.3,-1 1.1,-1.7 1.1,-0.9 2.7,-0.9 1.2,0 1.9,0.7 0.4,0.3 0.6,0.7 0.3,0.4 0.3,0.7 0,0 -0.1,0.1 h -1.5 q -0.2,-0.8 -1.2,-0.8 -1.3,0 -2,0.9 -0.7,1 -0.7,2.9 0,4 2.7,4 0.6,0 1.2,-0.3 z"
         style="fill:#ffffff" />
      <path
         id="motoring2"
         fill-rule="evenodd"
         class="s0"
         d="m 162.1,301.7 1.2,4 1.2,-4 h 2.4 V 312 h -1.5 v -8.7 l -1.5,5.3 h -1.2 l -1.5,-5.3 v 8.7 h -1.5 v -10.3 z m 10.9,-0.1 q 1.5,0 2.5,1.5 1.1,1.5 1.1,3.7 0,2.4 -1,3.9 -1,1.4 -2.7,1.4 -1.5,0 -2.6,-1.4 -1,-1.5 -1,-3.8 0,-2.3 1.1,-3.8 1,-1.5 2.6,-1.5 z m 0,1.4 q -1,0 -1.5,0.9 -0.7,1.1 -0.7,3 0,1.8 0.6,2.8 0.5,1 1.5,1 1,0 1.6,-1 0.6,-1 0.6,-2.9 0,-1.7 -0.6,-2.8 -0.6,-1 -1.5,-1 z m 13.1,0.1 h -2.8 v 8.9 h -1.5 v -8.9 H 179 v -1.4 h 7.1 z m 6.1,-1.5 q 1.6,0 2.6,1.5 1.1,1.5 1.1,3.8 0,2.3 -1.1,3.8 -1,1.4 -2.6,1.4 -1.6,0 -2.6,-1.4 -1,-1.5 -1,-3.7 0,-2.3 1,-3.9 1.1,-1.5 2.6,-1.5 z m 0,1.4 q -1,0 -1.5,0.9 -0.6,1.1 -0.6,3.1 0,1.8 0.5,2.8 0.6,1 1.6,1 1,0 1.6,-1.1 0.5,-1 0.5,-2.8 0,-1.8 -0.5,-2.9 -0.6,-1 -1.6,-1 z m 9.4,4.7 h -1.3 v 4.3 h -1.5 v -10.2 h 3.1 q 1.5,0 2.3,0.8 0.9,0.8 0.9,2.1 0,1.1 -0.6,1.8 -0.5,0.7 -1.5,0.9 l 2.7,4.6 H 204 Z m -1.4,-4.6 v 3.2 h 1.4 q 2,0 2,-1.6 0,-1.6 -2,-1.6 z m 13.5,0 h -1.6 v 7.5 h 1.9 v 1.4 h -5.2 v -1.4 h 1.8 v -7.5 h -1.5 v -1.4 h 4.6 z m 5.7,-1.3 3.7,7.5 v -7.5 h 1.4 V 312 h -1.7 l -3.8,-7.9 v 7.9 h -1.4 v -10.2 z m 13.1,8.7 v -2.6 h -2.1 v -1.3 h 3.6 v 5 q -1.5,0.6 -2.9,0.6 -1.9,0 -3,-1.4 -1,-1.4 -1,-3.9 0,-1.7 0.4,-2.7 0.3,-1 1.1,-1.7 1.1,-0.9 2.7,-0.9 1.2,0 1.9,0.7 0.4,0.3 0.6,0.7 0.3,0.4 0.3,0.7 0,0 -0.1,0.1 h -1.5 q -0.2,-0.8 -1.2,-0.8 -1.3,0 -2,0.9 -0.7,1 -0.7,2.9 0,4 2.7,4 0.6,0 1.2,-0.3 z"
         style="fill:#ffffff" />
    </g>
    <g
       id="egt"
       transform="matrix(0.26458333,0,0,0.26458333,-2.1259766e-6,-1.9287109e-6)">
      <path
         id="path55"
         fill-rule="evenodd"
         class="s0"
         d="m 195,164 h 56 v 27 h -56 z m 3,24 h 50 V 167 H 198 Z M 70,164 h 56 v 27 H 70 Z m 3,24 h 50 V 167 H 73 Z"
         style="fill:#ffffff" />
      <path
         id="path57"
         class="s8"
         d="m 159.8,176.9 -10.5,-5.1 1.8,-3.8 10.5,5 z m -125,0 -10.5,-5 1.9,-3.9 10.5,5.1 z"
         style="fill:#ff0000" />
      <path
         id="Shape 11 copy 3"
         class="s4"
         d="m 32.8,179.9 -8.7,-4.2 1.5,-3.2 8.7,4.2 z m 125,0 -8.7,-4.2 1.5,-3.1 8.7,4.2 z"
         style="fill:#ff7f00" />
      <path
         id="egt-dial2"
         class="s0"
         d="m 195,196 c 0,-1.1 0.9,-2 2,-2 h 43 c 1.1,0 2,0.9 2,2 0,1.1 -0.9,2 -2,2 h -43 c -1.1,0 -2,-0.9 -2,-2 z"
         style="fill:#ffffff" />
      <text
         xml:space="preserve"
         style="font-size:22.1069px;line-height:125%;font-family:'OCR B MT';-inkscape-font-specification:'OCR B MT';text-align:end;writing-mode:lr-tb;text-anchor:end;fill:#ffffff;fill-opacity:1;stroke-width:0.471379"
         x="297.75775"
         y="156.33467"
         id="egt-text2"
         transform="scale(0.83601417,1.196152)"
         inkscape:label="egt-text2"><tspan
           sodipodi:role="line"
           id="tspan3059"
           x="297.75775"
           y="156.33467"
           style="stroke-width:0.471379">999</tspan></text>
      <path
         id="egt-dial1"
         class="s0"
         d="m 70,196 c 0,-1.1 0.9,-2 2,-2 h 43 c 1.1,0 2,0.9 2,2 0,1.1 -0.9,2 -2,2 H 72 c -1.1,0 -2,-0.9 -2,-2 z"
         style="fill:#ffffff" />
      <text
         xml:space="preserve"
         style="font-size:22.1069px;line-height:125%;font-family:'OCR B MT';-inkscape-font-specification:'OCR B MT';text-align:end;writing-mode:lr-tb;text-anchor:end;fill:#ffffff;fill-opacity:1;stroke-width:0.471379"
         x="148.23874"
         y="156.33467"
         id="egt-text1"
         transform="scale(0.83601416,1.196152)"
         inkscape:label="egt-text1"><tspan
           sodipodi:role="line"
           id="tspan3065"
           x="148.23874"
           y="156.33467"
           style="stroke-width:0.471379">999</tspan></text>
      <path
         id="path64"
         class="s0"
         d="m 197,240 c -24.9,0 -45,-20.1 -45,-45 0,-7.1 1.6,-13.7 4.5,-19.7 l 2.7,1.3 c -2.7,5.6 -4.2,11.8 -4.2,18.4 0,23.2 18.8,42 42,42 22.9,0 41.5,-18.2 42,-41 h 3 c -0.5,24.4 -20.4,44 -45,44 z m -125,0 c -24.9,0 -45,-20.1 -45,-45 0,-7.1 1.6,-13.7 4.5,-19.7 l 2.7,1.3 c -2.7,5.6 -4.2,11.8 -4.2,18.4 0,23.2 18.8,42 42,42 22.9,0 41.5,-18.2 42,-41 h 3 c -0.5,24.4 -20.4,44 -45,44 z"
         style="fill:#ffffff" />
    </g>
    <g
       id="N1"
       transform="matrix(0.26458333,0,0,0.26458333,-2.1259766e-6,-1.9287109e-6)">
      <path
         id="path67"
         fill-rule="evenodd"
         class="s0"
         d="m 195,74 h 69 v 27 h -69 z m 3,24 h 63 V 77 H 198 Z M 70,74 h 69 v 27 H 70 Z m 3,24 h 63 V 77 H 73 Z"
         style="fill:#ffffff" />
      <path
         id="path69"
         class="s8"
         d="m 159.8,86.9 -10.5,-5.1 1.8,-3.8 10.5,5 z m -125,0 -10.5,-5 1.9,-3.9 10.5,5.1 z"
         style="fill:#ff0000" />
      <path
         id="n1-dial2"
         class="s0"
         d="m 195,106 c 0,-1.1 0.9,-2 2,-2 h 43 c 1.1,0 2,0.9 2,2 0,1.1 -0.9,2 -2,2 h -43 c -1.1,0 -2,-0.9 -2,-2 z"
         style="fill:#ffffff" />
      <text
         xml:space="preserve"
         style="font-size:21.8979px;line-height:125%;font-family:'OCR B MT';-inkscape-font-specification:'OCR B MT';text-align:end;writing-mode:lr-tb;text-anchor:end;fill:#ffffff;fill-opacity:1;stroke-width:0.466923"
         x="315.77911"
         y="80.431747"
         id="n1-text2"
         transform="scale(0.82946746,1.2055928)"
         inkscape:label="n1-text2"><tspan
           sodipodi:role="line"
           id="tspan1807"
           x="315.77911"
           y="80.431747"
           style="stroke-width:0.466923">100.0</tspan></text>
      <path
         id="n1-dial1"
         class="s0"
         d="m 70,106 c 0,-1.1 0.9,-2 2,-2 h 43 c 1.1,0 2,0.9 2,2 0,1.1 -0.9,2 -2,2 H 72 c -1.1,0 -2,-0.9 -2,-2 z"
         style="fill:#ffffff" />
      <text
         xml:space="preserve"
         style="font-size:21.8979px;line-height:125%;font-family:'OCR B MT';-inkscape-font-specification:'OCR B MT';text-align:end;writing-mode:lr-tb;text-anchor:end;fill:#ffffff;fill-opacity:1;stroke-width:0.466923"
         x="165.08008"
         y="80.431747"
         id="n1-text1"
         transform="scale(0.82946746,1.2055928)"
         inkscape:label="n1-text1"><tspan
           sodipodi:role="line"
           id="tspan1811"
           x="165.08008"
           y="80.431747"
           style="stroke-width:0.466923">100.0</tspan></text>
      <path
         id="10"
         fill-rule="evenodd"
         class="s0"
         d="m 36.9,102 v -7.7 l -1.7,-0.6 -1,1 v -1.4 l -2,-0.7 0.7,-1.9 2.4,0.9 1.4,-1.3 h 1.6 v 2.4 h 0.2 l -0.2,0.6 v 8.7 z m 0,-9.9 z m 9.4,-1.9 q 1.1,0 1.7,0.3 0.7,0.3 1,1 0.6,1.6 0.6,4.7 0,4 -0.9,5.1 -0.7,0.9 -2.7,0.9 -2.1,0 -2.6,-1.1 -0.7,-1.6 -0.7,-5 0,-3.4 0.7,-4.8 0.3,-0.6 1,-0.8 0.7,-0.3 1.9,-0.3 z m 0,1.5 q -0.8,0 -1.2,0.1 -0.4,0.1 -0.5,0.3 -0.2,0.3 -0.4,1.5 -0.1,1.2 -0.1,2.5 0,1.1 0.1,2.3 0.1,1.2 0.2,1.6 0.2,0.4 0.5,0.6 0.4,0.2 1.1,0.2 0.8,0 1.2,-0.2 0.5,-0.1 0.6,-0.4 0.4,-0.9 0.4,-3.7 0,-1.6 -0.1,-2.8 -0.2,-1.3 -0.4,-1.6 -0.2,-0.2 -0.5,-0.3 -0.3,-0.1 -0.9,-0.1 z m -2.2,24.7 -0.2,0.1 0.3,0.3 q 1,0.7 1.5,1.4 0.4,0.7 0.4,1.8 0,1.5 -0.9,2.4 -0.9,0.8 -2.6,0.8 -1.7,0 -2.6,-0.8 -0.9,-0.9 -0.9,-2.4 0,-2.3 2.2,-3.5 -1.1,-0.8 -1.4,-1.3 -0.4,-0.6 -0.4,-1.5 0,-1.1 0.8,-1.8 0.9,-0.7 2.2,-0.7 1.5,0 2.3,0.7 0.8,0.7 0.8,1.9 0,0.8 -0.3,1.3 -0.4,0.6 -1.2,1.3 z m -1.5,-0.6 q 0.7,-0.4 1.2,-0.9 0.4,-0.5 0.4,-1 0,-0.6 -0.4,-0.9 -0.5,-0.4 -1.2,-0.4 -0.8,0 -1.2,0.4 -0.5,0.3 -0.5,0.9 0,1.1 1.7,1.9 z m 0,1.5 -0.3,0.2 q -1,0.6 -1.4,1.1 -0.4,0.5 -0.4,1.3 0,0.8 0.6,1.4 0.6,0.5 1.5,0.5 1,0 1.5,-0.5 0.6,-0.5 0.6,-1.4 0,-0.7 -0.6,-1.4 -0.5,-0.7 -1.5,-1.2 z m 15.6,8 h 1.9 l -0.2,0.2 q -1.8,2 -2.6,3.1 l -0.6,1 q 0,0 -0.2,0.3 0.7,-0.4 1.3,-0.4 1.4,0 2.4,1.1 0.9,1.1 0.9,2.7 0,1.8 -0.9,2.8 -1,1.1 -2.6,1.1 -1.7,0 -2.6,-1 -0.9,-1.1 -0.9,-3 0,-1.2 0.4,-2.2 0.3,-1.1 1.2,-2.5 1,-1.5 2.5,-3.2 z m -0.6,5.7 q -0.9,0 -1.5,0.7 -0.6,0.6 -0.6,1.6 0,1.1 0.6,1.8 0.6,0.6 1.5,0.6 0.9,0 1.5,-0.6 0.6,-0.7 0.6,-1.8 0,-1 -0.6,-1.6 -0.6,-0.7 -1.5,-0.7 z m 23.1,3.6 V 137 H 82 v 1.5 h -1.3 v 2.6 h -1.5 v -2.6 h -4 v -1.7 l 3.1,-7.5 h 1.5 l -3.2,7.7 h 2.6 v -2.4 z m 14.1,-6.2 v 0.2 h 4.8 v 0.7 l 0.7,-0.8 4.1,3.4 c 2.7,-3.2 4.9,-6.8 6.5,-10.7 l -5.3,-1.9 0.7,-1.9 5.3,2 c 1.4,-3.9 2.3,-8 2.5,-12.3 h -6 q 0,0.1 0,0.1 0,4 -0.9,5.1 -0.7,0.9 -2.7,0.9 -2,0 -2.6,-1.1 -0.7,-1.6 -0.7,-5 0,-3.4 0.7,-4.8 0.3,-0.6 1,-0.8 0.7,-0.3 1.9,-0.3 1.1,0 1.8,0.3 0.6,0.3 0.9,1 0.5,1.3 0.6,3.6 h 9 c -0.5,24.4 -20.4,44 -45,44 -24.9,0 -45,-20.1 -45,-45 0,-7.1 1.6,-13.7 4.5,-19.7 l 2.7,1.3 c -2.7,5.6 -4.2,11.8 -4.2,18.4 q 0,0 0,0 h 6 v 2 h -6 c 0.2,4.3 1.1,8.4 2.5,12.3 l 5.3,-1.9 0.7,1.8 -5.3,2 c 1.6,3.8 3.8,7.4 6.5,10.6 l 4.1,-3.4 1.3,1.5 -4.1,3.4 c 2.8,3.1 6,5.7 9.6,7.8 l 2.5,-4.4 1.8,1 -2.6,4.4 c 3.6,1.9 7.5,3.3 11.6,4.1 l 0.9,-4.9 1.9,0.3 -0.8,4.9 q 3,0.5 6.1,0.5 3.1,0 6.1,-0.5 l -0.8,-4.9 1.9,-0.3 0.9,4.9 c 4.1,-0.8 8,-2.2 11.6,-4.1 l -2.6,-4.4 1.8,-1 2.5,4.4 c 3.6,-2.1 6.8,-4.7 9.6,-7.8 l -4,-3.3 h -5.7 q 0,-0.7 0,-1 0,-1.5 0.4,-2.5 0.3,-0.8 0.9,-1.4 0.5,-0.6 1.6,-1.3 1.2,-0.9 1.6,-1.4 0.4,-0.5 0.4,-1.1 0,-0.7 -0.5,-1.3 -0.5,-0.5 -1.2,-0.5 -1.4,0 -3,1.2 v -1.7 q 1.2,-1 2.8,-1 1.5,0 2.4,0.9 0.9,0.9 0.9,2.3 0,1.1 -0.4,1.9 -0.3,0.5 -0.7,0.8 -0.4,0.4 -1.7,1.3 -1.1,0.8 -1.6,1.5 -0.5,0.7 -0.5,1.6 z m 10,-25.7 q -0.8,0 -1.2,0.1 -0.4,0.1 -0.5,0.3 -0.2,0.3 -0.4,1.5 -0.1,1.2 -0.1,2.5 0,1.1 0.1,2.3 0.1,1.2 0.2,1.6 0.2,0.4 0.5,0.6 0.4,0.2 1.1,0.2 0.8,0 1.3,-0.2 0.4,-0.1 0.5,-0.4 0.4,-0.9 0.4,-3.7 0,-1.6 -0.1,-2.8 -0.1,-1.3 -0.4,-1.6 -0.1,-0.2 -0.4,-0.3 -0.4,-0.1 -1,-0.1 z m 57.2,-0.6 v -7.7 l -1.7,-0.6 -1,0.9 v -1.3 l -2,-0.7 0.7,-1.9 2.4,0.9 1.4,-1.4 h 1.6 v 2.5 h 0.2 l -0.2,0.6 v 8.7 z m 0,-10 v 0.1 z m 9.4,-1.9 q 1.1,0 1.7,0.3 0.7,0.3 1,1 0.6,1.5 0.6,4.7 0,4 -0.9,5.1 -0.7,0.9 -2.7,0.9 -2.1,0 -2.6,-1.2 -0.7,-1.5 -0.7,-4.9 0,-3.4 0.7,-4.8 0.3,-0.6 1,-0.8 0.7,-0.3 1.9,-0.3 z m 0,1.5 q -0.8,0 -1.2,0.1 -0.4,0.1 -0.5,0.3 -0.2,0.3 -0.4,1.5 -0.1,1.2 -0.1,2.5 0,1.1 0.1,2.3 0.1,1.2 0.2,1.6 0.2,0.4 0.5,0.6 0.4,0.1 1.1,0.1 0.8,0 1.2,-0.1 0.5,-0.1 0.6,-0.4 0.4,-0.9 0.4,-3.7 0,-1.6 -0.1,-2.8 -0.2,-1.3 -0.4,-1.6 -0.2,-0.3 -0.5,-0.3 -0.3,-0.1 -0.9,-0.1 z m -2.2,24.7 -0.2,0.1 0.3,0.2 q 1,0.8 1.5,1.5 0.4,0.7 0.4,1.7 0,1.6 -0.9,2.4 -0.9,0.9 -2.6,0.9 -1.7,0 -2.6,-0.9 -0.9,-0.8 -0.9,-2.3 0,-2.3 2.2,-3.5 -1.1,-0.8 -1.4,-1.4 -0.4,-0.5 -0.4,-1.4 0,-1.1 0.8,-1.8 0.9,-0.7 2.2,-0.7 1.5,0 2.3,0.7 0.8,0.7 0.8,1.8 0,0.8 -0.3,1.4 -0.4,0.6 -1.2,1.3 z m -1.5,-0.7 q 0.7,-0.3 1.2,-0.8 0.4,-0.5 0.4,-1 0,-0.6 -0.4,-0.9 -0.5,-0.4 -1.2,-0.4 -0.8,0 -1.2,0.4 -0.5,0.3 -0.5,0.9 0,1.1 1.7,1.8 z m 0,1.6 -0.3,0.2 q -1,0.6 -1.4,1.1 -0.4,0.5 -0.4,1.2 0,0.9 0.6,1.4 0.6,0.5 1.5,0.5 1,0 1.5,-0.5 0.6,-0.5 0.6,-1.3 0,-0.8 -0.6,-1.4 -0.5,-0.7 -1.5,-1.2 z m 15.6,8 h 1.9 l -0.2,0.2 q -1.8,2 -2.6,3.1 l -0.6,1 q 0,0 -0.2,0.3 0.7,-0.4 1.3,-0.4 1.4,0 2.4,1.1 0.9,1.1 0.9,2.7 0,1.7 -0.9,2.8 -1,1.1 -2.6,1.1 -1.7,0 -2.6,-1.1 -0.9,-1 -0.9,-2.9 0,-1.2 0.4,-2.3 0.3,-1 1.2,-2.4 1,-1.6 2.5,-3.2 z m -0.6,5.7 q -0.9,0 -1.5,0.6 -0.6,0.7 -0.6,1.7 0,1.1 0.6,1.7 0.6,0.7 1.5,0.7 0.9,0 1.5,-0.7 0.6,-0.6 0.6,-1.7 0,-1 -0.6,-1.6 -0.6,-0.7 -1.5,-0.7 z m 23.1,3.6 v 2.4 h 1.3 v 1.5 h -1.3 v 2.6 h -1.5 v -2.6 h -4 v -1.8 l 3.1,-7.4 h 1.5 l -3.2,7.7 h 2.6 v -2.4 z m 14.1,-6.3 v 0.3 h 4.8 v 0.7 l 0.7,-0.9 4.1,3.5 c 2.7,-3.2 4.9,-6.8 6.5,-10.7 l -5.3,-1.9 0.7,-1.9 5.3,2 c 1.4,-3.9 2.3,-8 2.5,-12.3 h -6 q 0,0 0,0.1 0,4 -0.9,5.1 -0.7,0.9 -2.7,0.9 -2,0 -2.6,-1.2 -0.7,-1.5 -0.7,-4.9 0,-3.4 0.7,-4.8 0.3,-0.6 1,-0.8 0.7,-0.3 1.9,-0.3 1.1,0 1.8,0.3 0.6,0.3 0.9,1 0.5,1.2 0.6,3.6 h 9 c -0.5,24.4 -20.4,44 -45,44 -24.9,0 -45,-20.2 -45,-45 0,-7.1 1.6,-13.8 4.5,-19.7 l 2.7,1.3 c -2.7,5.5 -4.2,11.8 -4.2,18.4 q 0,0 0,0 h 6 v 2 h -6 c 0.2,4.3 1.1,8.4 2.5,12.3 l 5.3,-2 0.7,1.9 -5.3,1.9 c 1.6,3.9 3.8,7.5 6.5,10.7 l 4.1,-3.5 1.3,1.6 -4.1,3.4 c 2.8,3 6,5.7 9.6,7.8 l 2.5,-4.5 1.8,1 -2.6,4.5 c 3.6,1.9 7.5,3.3 11.6,4.1 l 0.9,-5 1.9,0.4 -0.8,4.9 q 3,0.5 6.1,0.5 3.1,0 6.1,-0.5 l -0.8,-4.9 1.9,-0.4 0.9,5 c 4.1,-0.8 8,-2.2 11.6,-4.1 l -2.6,-4.5 1.8,-1 2.5,4.5 c 3.6,-2.1 6.8,-4.8 9.6,-7.8 l -4,-3.3 h -5.7 q 0,-0.7 0,-1 0,-1.6 0.4,-2.5 0.3,-0.8 0.9,-1.4 0.5,-0.6 1.6,-1.4 1.2,-0.8 1.6,-1.3 0.4,-0.5 0.4,-1.1 0,-0.7 -0.5,-1.3 -0.5,-0.5 -1.2,-0.5 -1.4,0 -3,1.2 v -1.7 q 1.2,-1 2.8,-1 1.5,0 2.4,0.9 0.9,0.8 0.9,2.3 0,1.1 -0.4,1.8 -0.3,0.5 -0.7,0.9 -0.4,0.4 -1.7,1.3 -1.1,0.8 -1.6,1.5 -0.5,0.7 -0.5,1.5 z m 10,-25.6 q -0.8,0 -1.2,0.1 -0.4,0.1 -0.5,0.3 -0.2,0.3 -0.4,1.5 -0.1,1.2 -0.1,2.5 0,1.1 0.1,2.3 0.1,1.2 0.2,1.6 0.2,0.4 0.5,0.6 0.4,0.1 1.1,0.1 0.8,0 1.3,-0.1 0.4,-0.1 0.5,-0.4 0.4,-0.9 0.4,-3.7 0,-1.6 -0.1,-2.8 -0.1,-1.3 -0.4,-1.6 -0.1,-0.3 -0.4,-0.3 -0.4,-0.1 -1,-0.1 z"
         style="fill:#ffffff" />
      <path
         id="throttle-n2"
         class="s9"
         d="m 140,100 9,6 -9,6"
         style="fill:none;stroke:#00ff00;stroke-width:4;stroke-linecap:round" />
      <path
         id="throttle-n1"
         class="s9"
         d="m 15,100 9,6 -9,6"
         style="fill:none;stroke:#00ff00;stroke-width:4;stroke-linecap:round" />
      <text
         xml:space="preserve"
         style="font-size:16.6326px;line-height:125%;font-family:'OCR B MT';-inkscape-font-specification:'OCR B MT';text-align:end;writing-mode:lr-tb;text-anchor:end;fill:#00ff00;fill-opacity:1;stroke-width:0.354652"
         x="306.05338"
         y="61.137775"
         id="throttle-num2"
         transform="scale(0.83721288,1.1944393)"
         inkscape:label="throttle-num2"><tspan
           sodipodi:role="line"
           id="tspan3071"
           x="306.05338"
           y="61.137775"
           style="stroke-width:0.354652">90.0</tspan></text>
      <text
         xml:space="preserve"
         style="font-size:16.6326px;line-height:125%;font-family:'OCR B MT';-inkscape-font-specification:'OCR B MT';text-align:end;writing-mode:lr-tb;text-anchor:end;fill:#00ff00;fill-opacity:1;stroke-width:0.354652"
         x="156.74843"
         y="61.137775"
         id="throttle-num1"
         transform="scale(0.83721289,1.1944393)"
         inkscape:label="throttle-num1"><tspan
           sodipodi:role="line"
           id="tspan3284"
           x="156.74843"
           y="61.137775"
           style="stroke-width:0.354652">90.0</tspan></text>
    </g>
    <g
       id="oil"
       transform="matrix(0.26458333,0,0,0.26458333,-2.1259766e-6,-1.9287109e-6)">
      <path
         id="vib-meter2"
         class="s0"
         d="m 156,673 13,4 -13,4 z"
         style="fill:#ffffff" />
      <path
         id="vib-meter1"
         class="s0"
         d="m 111,681 -13,-4 13,-4 z"
         style="fill:#ffffff" />
      <path
         id="oil-temp-meter2"
         class="s0"
         d="m 156,558 13,4 -13,4 z"
         style="fill:#ffffff" />
      <path
         id="oil-temp-meter1"
         class="s0"
         d="m 111,566 -13,-4 13,-4 z"
         style="fill:#ffffff" />
      <path
         id="oil-press-meter2"
         class="s0"
         d="m 156,471 13,4 -13,4 z"
         style="fill:#ffffff" />
      <path
         id="oil-press-meter1"
         class="s0"
         d="m 111,479 -13,-4 13,-4 z"
         style="fill:#ffffff" />
      <text
         xml:space="preserve"
         style="font-size:17.6041px;line-height:125%;font-family:'OCR B MT';-inkscape-font-specification:'OCR B MT';text-align:start;writing-mode:lr-tb;text-anchor:start;fill:#ffffff;fill-opacity:1;stroke-width:0.375367"
         x="211.0873"
         y="555.22107"
         id="vib2"
         transform="scale(0.8463513,1.1815425)"
         inkscape:label="vib2"><tspan
           sodipodi:role="line"
           id="tspan5356"
           x="211.0873"
           y="555.22107"
           style="stroke-width:0.375367">0.0</tspan></text>
      <text
         xml:space="preserve"
         style="font-size:17.6041px;line-height:125%;font-family:'OCR B MT';-inkscape-font-specification:'OCR B MT';text-align:start;writing-mode:lr-tb;text-anchor:start;fill:#ffffff;fill-opacity:1;stroke-width:0.375367"
         x="66.939102"
         y="555.22107"
         id="vib1"
         transform="scale(0.84635129,1.1815425)"
         inkscape:label="vib1"><tspan
           sodipodi:role="line"
           id="tspan5362"
           x="66.939102"
           y="555.22107"
           style="stroke-width:0.375367">0.0</tspan></text>
      <text
         xml:space="preserve"
         style="font-size:17.8223px;line-height:125%;font-family:'OCR B MT';-inkscape-font-specification:'OCR B MT';text-align:start;writing-mode:lr-tb;text-anchor:start;fill:#ffffff;fill-opacity:1;stroke-width:0.38002"
         x="207.26675"
         y="505.55075"
         id="oil-qty2"
         transform="scale(0.85684061,1.1670782)"
         inkscape:label="oil-qty2"><tspan
           sodipodi:role="line"
           id="tspan5368"
           x="207.26675"
           y="505.55075"
           style="stroke-width:0.38002">100</tspan></text>
      <text
         xml:space="preserve"
         style="font-size:17.8223px;line-height:125%;font-family:'OCR B MT';-inkscape-font-specification:'OCR B MT';text-align:start;writing-mode:lr-tb;text-anchor:start;fill:#ffffff;fill-opacity:1;stroke-width:0.38002"
         x="64.766579"
         y="505.55075"
         id="oil-qty1"
         transform="scale(0.85684061,1.1670782)"
         inkscape:label="oil-qty1"><tspan
           sodipodi:role="line"
           id="tspan5375"
           x="64.766579"
           y="505.55075"
           style="stroke-width:0.38002">100</tspan></text>
      <text
         xml:space="preserve"
         style="font-size:17.6004px;line-height:125%;font-family:'OCR B MT';-inkscape-font-specification:'OCR B MT';text-align:start;writing-mode:lr-tb;text-anchor:start;fill:#ffffff;fill-opacity:1;stroke-width:0.375288"
         x="210.95502"
         y="458.29068"
         id="oil-temp2"
         transform="scale(0.84711772,1.1804735)"
         inkscape:label="oil-temp2"><tspan
           sodipodi:role="line"
           id="tspan5381"
           x="210.95502"
           y="458.29068"
           style="stroke-width:0.375288">999</tspan></text>
      <text
         xml:space="preserve"
         style="font-size:17.6004px;line-height:125%;font-family:'OCR B MT';-inkscape-font-specification:'OCR B MT';text-align:start;writing-mode:lr-tb;text-anchor:start;fill:#ffffff;fill-opacity:1;stroke-width:0.375288"
         x="66.937263"
         y="458.29068"
         id="oil-temp1"
         transform="scale(0.84711771,1.1804735)"
         inkscape:label="oil-temp1"><tspan
           sodipodi:role="line"
           id="tspan5387"
           x="66.937263"
           y="458.29068"
           style="stroke-width:0.375288">999</tspan></text>
      <path
         id="Shape 18"
         fill-rule="evenodd"
         class="s0"
         d="m 177,638 h 35 v 21 h -35 z m 2,19 h 31 V 640 H 179 Z M 55,638 h 35 v 21 H 55 Z m 2,19 H 88 V 640 H 57 Z m 120,-85 h 35 v 21 h -35 z m 2,19 h 31 V 574 H 179 Z M 55,572 h 35 v 21 H 55 Z m 2,19 H 88 V 574 H 57 Z m 120,-68 h 35 v 21 h -35 z m 2,19 h 31 V 525 H 179 Z M 55,523 h 35 v 21 H 55 Z m 2,19 H 88 V 525 H 57 Z M 177,438 h 35 v 21 h -35 z m 2,19 h 31 V 440 H 179 Z M 55,438 h 35 v 21 H 55 Z m 2,19 H 88 V 440 H 57 Z"
         style="fill:#ffffff" />
      <path
         id="Shape 14"
         class="s0"
         d="m 94,620 h 3 v 11 h 3 v 3 h -3 v 43 h -3 z m 79,57 h -3 v -43 h -3 v -3 h 3 v -11 h 3 z m -3,-172 h 3 v 57 h -3 z m -76,0 h 3 v 57 h -3 z m 76,-84 h 3 v 57 h -3 z m -76,0 h 3 v 57 h -3 z"
         style="fill:#ffffff" />
      <path
         id="Shape 16"
         class="s8"
         d="m 163,505 h 13 v 3 h -13 z m -72,0 h 13 v 3 H 91 Z m 72,-30 h 13 v 3 h -13 z m -72,0 h 13 v 3 H 91 Z"
         style="fill:#ff0000" />
      <path
         id="Shape 17"
         class="s10"
         d="m 167,508 h 6 v 3 h -6 z m -73,0 h 6 v 3 h -6 z m 73,-45 h 6 v 3 h -6 z m -73,0 h 6 v 3 h -6 z"
         style="fill:#ff8000" />
      <text
         xml:space="preserve"
         style="font-size:17.6004px;line-height:125%;font-family:'OCR B MT';-inkscape-font-specification:'OCR B MT';text-align:start;writing-mode:lr-tb;text-anchor:start;fill:#ffffff;fill-opacity:1;stroke-width:0.375288"
         x="210.95502"
         y="386.28568"
         id="oil-press2"
         transform="scale(0.84711771,1.1804735)"
         inkscape:label="oil-press2"><tspan
           sodipodi:role="line"
           id="tspan5397"
           x="210.95502"
           y="386.28568"
           style="stroke-width:0.375288">999</tspan></text>
      <text
         xml:space="preserve"
         style="font-size:17.6004px;line-height:125%;font-family:'OCR B MT';-inkscape-font-specification:'OCR B MT';text-align:start;writing-mode:lr-tb;text-anchor:start;fill:#ffffff;fill-opacity:1;stroke-width:0.375288"
         x="66.937263"
         y="386.28568"
         id="oil-press1"
         transform="scale(0.84711771,1.1804735)"
         inkscape:label="oil-press1"><tspan
           sodipodi:role="line"
           id="tspan5401"
           x="66.937263"
           y="386.28568"
           style="stroke-width:0.375288">999</tspan></text>
    </g>
    <g
       id="FF"
       transform="matrix(0.26458333,0,0,0.26458333,-2.1259766e-6,-1.9287109e-6)">
      <text
         xml:space="preserve"
         style="font-size:21.9732px;line-height:125%;font-family:'OCR B MT';-inkscape-font-specification:'OCR B MT';text-align:start;writing-mode:lr-tb;text-anchor:start;fill:#ffffff;fill-opacity:1;stroke-width:0.468527"
         x="222.72192"
         y="310.94745"
         id="fuelflow2"
         transform="scale(0.80149554,1.2476676)"
         inkscape:label="fuelflow2"><tspan
           sodipodi:role="line"
           id="tspan5405"
           x="222.72192"
           y="310.94745"
           style="stroke-width:0.468527">1.16</tspan></text>
      <text
         xml:space="preserve"
         style="font-size:21.9732px;line-height:125%;font-family:'OCR B MT';-inkscape-font-specification:'OCR B MT';text-align:start;writing-mode:lr-tb;text-anchor:start;fill:#ffffff;fill-opacity:1;stroke-width:0.468527"
         x="45.553123"
         y="310.94745"
         id="fuelflow1"
         transform="scale(0.80149553,1.2476676)"
         inkscape:label="fuelflow1"><tspan
           sodipodi:role="line"
           id="tspan5411"
           x="45.553123"
           y="310.94745"
           style="stroke-width:0.468527">1.16</tspan></text>
      <path
         id="Shape 19"
         fill-rule="evenodd"
         class="s0"
         d="m 36,365 h 53 v 26 H 36 Z m 2,24 H 87 V 367 H 38 Z m 140,-24 h 53 v 26 h -53 z m 2,24 h 49 v -22 h -49 z"
         style="fill:#ffffff" />
    </g>
    <path
       id="N"
       fill-rule="evenodd"
       class="s1"
       d="m 34.051876,86.889168 1.08479,2.24895 v -2.24895 h 0.39687 v 3.06916 h -0.47625 l -1.13771,-2.35479 v 2.35479 h -0.39687 v -3.06916 z m 2.2225,3.70416 v 0.0529 h 1.32291 v 0.37042 h -1.71979 q -0.0265,-0.15875 -0.0265,-0.23813 0,-0.39687 0.13229,-0.635 0.0794,-0.18521 0.23813,-0.34396 0.15875,-0.13229 0.44979,-0.3175 0.3175,-0.21166 0.44979,-0.34396 0.10584,-0.13229 0.10584,-0.29104 0,-0.15875 -0.1323,-0.3175 -0.15875,-0.13229 -0.34395,-0.13229 -0.39688,0 -0.84667,0.3175 v -0.44979 q 0.34396,-0.23813 0.79375,-0.23813 0.42333,0 0.68792,0.23813 0.23812,0.21167 0.23812,0.58208 0,0.26459 -0.13229,0.44979 -0.0794,0.1323 -0.18521,0.21167 -0.10583,0.0794 -0.44979,0.3175 -0.3175,0.21167 -0.44979,0.37042 -0.13229,0.18521 -0.13229,0.39687 z m -2.16959,-30.26833 h -0.97896 v 0.84667 h 0.84667 v 0.42333 h -0.84667 v 0.97896 h 1.03188 v 0.39687 h -1.32292 v -3.06916 h 1.27 z m 1.71979,2.2225 v -0.79375 h -0.44979 v -0.39688 h 0.76729 v 1.48167 q -0.3175,0.18521 -0.60854,0.18521 -0.39687,0 -0.60854,-0.39688 -0.21167,-0.42333 -0.21167,-1.16416 0,-0.50271 0.0529,-0.79375 0.0794,-0.29104 0.23813,-0.50271 0.23812,-0.26458 0.55562,-0.26458 0.26458,0 0.42333,0.1852 0.0529,0.0794 0.10584,0.21167 0.0529,0.10583 0.0529,0.18521 0,0.0265 0,0.0529 h -0.3175 q -0.0529,-0.23813 -0.23812,-0.23813 -0.29104,0 -0.42333,0.29104 -0.15875,0.26459 -0.15875,0.84667 0,1.16417 0.55562,1.16417 0.13229,0 0.26458,-0.0529 z m 2.3548,-2.2225 h -0.58209 v 2.67229 h -0.3175 v -2.67229 h -0.58208 v -0.39688 h 1.48167 z m -4.1275,-23.70667 1.08479,2.24896 v -2.24896 h 0.39687 v 3.06917 h -0.50271 l -1.11125,-2.35479 v 2.35479 h -0.42333 v -3.06917 z m 2.69875,4.1275 v -2.46062 l -0.74084,0.635 v -0.50271 l 0.71438,-0.58208 h 0.42333 v 2.91041 z m -3.9423,129.222502 0.47625,2.64583 0.4498,-2.64583 h 0.3175 l -0.55563,3.06917 h -0.44979 l -0.55563,-3.06917 z m 2.8575,0.42333 h -0.29104 v 2.24896 h 0.37042 v 0.39688 h -1.05833 v -0.39688 h 0.37041 v -2.24896 h -0.3175 v -0.42333 h 0.92604 z m 1.5875,2.6723 h -0.8202 v -3.06917 h 0.71437 q 0.18521,0 0.3175,0.0529 0.13229,0.0529 0.21167,0.15875 0.18521,0.26458 0.18521,0.635 0,0.44979 -0.26459,0.60854 0.13229,0.0529 0.23813,0.23812 0.0794,0.18521 0.0794,0.42334 0,0.39687 -0.15875,0.66145 -0.18521,0.29105 -0.50271,0.29105 z m -0.5027,-2.6723 v 0.84667 h 0.44979 q 0.21166,0 0.29104,-0.10583 0.0794,-0.13229 0.0794,-0.29104 0,-0.18521 -0.10583,-0.3175 -0.13229,-0.1323 -0.3175,-0.1323 z m 0,1.24355 v 1.00541 h 0.47625 q 0.1852,0 0.29104,-0.13229 0.10583,-0.13229 0.10583,-0.37042 0,-0.21166 -0.10583,-0.37041 -0.0794,-0.13229 -0.3175,-0.13229 z M 27.516666,153.035 q 0.29104,0 0.50271,0.44979 0.21166,0.44979 0.21166,1.08479 0,0.71438 -0.21166,1.13771 -0.18521,0.44979 -0.52917,0.44979 -0.3175,0 -0.50271,-0.42333 -0.21167,-0.44979 -0.21167,-1.11125 0,-0.68792 0.21167,-1.13771 0.21167,-0.44979 0.52917,-0.44979 z m 0,0.39687 q -0.21167,0 -0.3175,0.26459 -0.13229,0.3175 -0.13229,0.92604 0,0.52916 0.13229,0.82021 0.10583,0.3175 0.29104,0.3175 0.21167,0 0.3175,-0.3175 0.13229,-0.3175 0.13229,-0.87313 0,-0.50271 -0.13229,-0.82021 -0.10583,-0.3175 -0.29104,-0.3175 z m 2.38125,0.0265 h -0.3175 v 2.24896 h 0.37041 v 0.42333 h -1.03187 v -0.42333 h 0.37042 v -2.24896 h -0.3175 v -0.39687 h 0.92604 z m 1.19062,-0.39687 v 2.64583 h 1.05834 v 0.39687 h -1.37584 v -3.0427 z m 4.65667,2.35479 0.34396,0.68791 h -0.37042 l -0.18521,-0.34395 q -0.13229,0.1852 -0.34396,0.1852 -0.23812,0 -0.42333,-0.23812 -0.15875,-0.21167 -0.21167,-0.50271 -0.0794,-0.29104 -0.0794,-0.74083 0,-0.66146 0.18521,-1.05834 0.18521,-0.39687 0.50271,-0.39687 0.23812,0 0.42333,0.26458 0.29104,0.37042 0.29104,1.21709 0,0.60854 -0.13229,0.92604 z m -0.42333,-0.79375 0.21166,0.39687 q 0.0529,-0.21166 0.0529,-0.52916 0,-0.50271 -0.10583,-0.79375 -0.10584,-0.26459 -0.29105,-0.26459 -0.1852,0 -0.29104,0.21167 -0.10583,0.29104 -0.10583,0.79375 0,0.52917 0.10583,0.82021 0.10584,0.26458 0.29104,0.26458 0.10584,0 0.18521,-0.10583 l -0.42333,-0.79375 z m 2.56645,-1.16417 h -0.55562 v 2.64583 h -0.29104 v -2.64583 h -0.55563 v -0.39687 h 1.40229 z m 0.82021,-0.42333 0.39688,1.16416 0.42333,-1.16416 h 0.3175 l -0.58208,1.64041 v 1.42875 h -0.29104 v -1.42875 l -0.60855,-1.64041 z m 3.94229,-0.15875 q 0.1323,0 0.23813,0.15875 0.0794,0.15875 0.0794,0.37041 0,0.23813 -0.0794,0.39688 -0.10583,0.15875 -0.26458,0.15875 -0.1323,0 -0.23813,-0.15875 -0.0794,-0.15875 -0.0794,-0.37042 0,-0.23812 0.0794,-0.39687 0.10583,-0.15875 0.26458,-0.15875 z m -0.34395,2.98979 1.21708,-2.98979 h 0.13229 v 0.23812 l -1.16417,2.98979 h -0.1852 z m 0.44979,-2.35479 v -0.18521 q 0,-0.18521 -0.13229,-0.18521 -0.10584,0 -0.10584,0.18521 v 0.15875 q 0,0.21167 0.13229,0.21167 0.10584,0 0.10584,-0.18521 z m 0.58208,1.50812 q 0.15875,0 0.23813,0.15875 0.10583,0.15875 0.10583,0.37042 0,0.23812 -0.10583,0.39687 -0.10584,0.1323 -0.23813,0.1323 -0.15875,0 -0.23812,-0.1323 -0.10584,-0.15875 -0.10584,-0.39687 0,-0.21167 0.10584,-0.37042 0.0794,-0.15875 0.23812,-0.15875 z m 0.13229,0.60854 v -0.15875 q 0,-0.1852 -0.13229,-0.1852 -0.13229,0 -0.13229,0.1852 v 0.15875 q 0,0.10584 0.0265,0.15875 0.0529,0.0529 0.10583,0.0529 0.13229,0 0.13229,-0.21167 z m -10.13354,-17.9652 q 0.29104,0 0.50271,0.44979 0.21167,0.44979 0.21167,1.11125 0,0.68791 -0.18521,1.13771 -0.21167,0.42333 -0.52917,0.42333 -0.3175,0 -0.52917,-0.42333 -0.21166,-0.4498 -0.21166,-1.11125 0,-0.68792 0.21166,-1.13771 0.21167,-0.44979 0.52917,-0.44979 z m 0,0.39687 q -0.21167,0 -0.3175,0.26458 -0.10583,0.34396 -0.10583,0.92605 0,0.52916 0.10583,0.8202 0.10583,0.3175 0.3175,0.3175 0.18521,0 0.3175,-0.3175 0.10583,-0.3175 0.10583,-0.84666 0,-0.52917 -0.13229,-0.84667 -0.10583,-0.3175 -0.29104,-0.3175 z m 2.38125,0.0529 h -0.3175 v 2.2225 h 0.39688 v 0.42333 h -1.05834 v -0.42333 h 0.37042 v -2.2225 h -0.3175 v -0.42334 h 0.92604 z m 1.19063,-0.39688 v 2.64584 h 1.05833 v 0.39687 h -1.37583 v -3.04271 z m -3.81,3.83646 h -0.58209 v 2.64583 h -0.29104 v -2.64583 h -0.55562 v -0.39687 h 1.42875 z m 1.85208,0 h -0.92604 v 0.84667 h 0.82021 v 0.39687 h -0.82021 v 0.97896 h 0.97896 v 0.42333 h -1.27 v -3.06916 h 1.21708 z m 1.03187,-0.39687 0.26459,1.19062 0.23812,-1.19062 h 0.47625 v 3.0427 h -0.29104 v -2.59291 l -0.29104,1.61396 h -0.26458 l -0.29105,-1.61396 v 2.59291 h -0.3175 v -3.0427 z m 2.27542,1.7727 h -0.39687 v 1.27 h -0.3175 v -3.0427 h 0.74083 q 0.18521,0 0.29104,0.0529 0.10583,0.0529 0.21167,0.18521 0.15875,0.26458 0.15875,0.66146 0,0.39687 -0.18521,0.66146 -0.18521,0.21166 -0.50271,0.21166 z m -0.39687,-1.37583 v 0.97896 h 0.39687 q 0.18521,0 0.29104,-0.13229 0.10584,-0.13229 0.10584,-0.34396 0,-0.50271 -0.37042,-0.50271 z m -4.52438,-26.11437 q 0.3175,0 0.52917,0.44979 0.21166,0.44979 0.21166,1.11125 0,0.71437 -0.21166,1.13771 -0.21167,0.44979 -0.52917,0.44979 -0.3175,0 -0.52917,-0.44979 -0.1852,-0.42334 -0.1852,-1.11125 0,-0.66146 0.1852,-1.13771 0.21167,-0.44979 0.52917,-0.44979 z m 0,0.42333 q -0.18521,0 -0.29104,0.26458 -0.13229,0.3175 -0.13229,0.89959 0,0.55562 0.10583,0.84666 0.10583,0.29105 0.3175,0.29105 0.21167,0 0.3175,-0.29105 0.10583,-0.3175 0.10583,-0.87312 0,-0.52917 -0.10583,-0.82021 -0.10583,-0.3175 -0.3175,-0.3175 z m 2.38125,0.0265 h -0.29104 v 2.24896 h 0.37042 v 0.39687 h -1.05834 v -0.39687 h 0.37042 v -2.24896 h -0.3175 v -0.39688 h 0.92604 z m 1.19063,-0.42333 v 2.64583 h 1.05833 v 0.42333 h -1.34938 v -3.06916 z m -5.42396,5.23875 h -0.39688 v 1.27 h -0.3175 v -3.06917 h 0.74084 q 0.1852,0 0.29104,0.0529 0.10583,0.0529 0.21166,0.21166 0.15875,0.26459 0.15875,0.66146 0,0.37042 -0.1852,0.635 -0.18521,0.23813 -0.50271,0.23813 z m -0.39688,-1.37584 v 0.9525 h 0.39688 q 0.18521,0 0.29104,-0.10583 0.10583,-0.13229 0.10583,-0.37042 0,-0.47625 -0.39687,-0.47625 z m 2.19604,1.37584 h -0.23812 v 1.27 h -0.3175 v -3.06917 h 0.635 q 0.29104,0 0.44979,0.23812 0.18521,0.23813 0.18521,0.66146 0,0.3175 -0.10583,0.52917 -0.10584,0.21167 -0.3175,0.26458 l 0.55562,1.37584 h -0.37042 z m -0.23812,-1.37584 v 0.9525 h 0.26458 q 0.39688,0 0.39688,-0.47625 0,-0.47625 -0.39688,-0.47625 z m 2.88396,0 h -0.92604 v 0.84667 h 0.8202 v 0.42333 h -0.8202 v 0.97896 h 0.97895 v 0.39688 h -1.27 v -3.06917 h 1.21709 z m 1.93146,0.29104 v 0.0794 h -0.3175 q 0,-0.18521 -0.0794,-0.29104 -0.0794,-0.10584 -0.23812,-0.10584 -0.1323,0 -0.21167,0.10584 -0.10583,0.10583 -0.10583,0.29104 0,0.23812 0.23812,0.39687 l 0.23813,0.15875 q 0.26458,0.21167 0.37041,0.39688 0.10584,0.21167 0.10584,0.52917 0,0.37041 -0.18521,0.60854 -0.18521,0.23812 -0.44979,0.23812 -0.29105,0 -0.47625,-0.23812 -0.18521,-0.21167 -0.18521,-0.55563 0,-0.0265 0,-0.0794 h 0.29104 q 0.0265,0.21166 0.10583,0.34396 0.10584,0.10583 0.26459,0.10583 0.13229,0 0.23812,-0.10583 0.10583,-0.1323 0.10583,-0.3175 0,-0.18521 -0.10583,-0.3175 -0.10583,-0.1323 -0.34396,-0.3175 -0.29104,-0.18521 -0.39687,-0.34396 -0.10584,-0.18521 -0.10584,-0.47625 0,-0.37042 0.18521,-0.60854 0.18521,-0.21167 0.44979,-0.21167 0.23813,0 0.42334,0.21167 0.18521,0.21166 0.18521,0.5027 z m 1.93145,0 v 0.0794 h -0.3175 q 0,-0.18521 -0.0794,-0.29104 -0.0794,-0.10584 -0.23813,-0.10584 -0.13229,0 -0.21166,0.10584 -0.10584,0.10583 -0.10584,0.29104 0,0.23812 0.23813,0.39687 l 0.23812,0.15875 q 0.26459,0.21167 0.37042,0.39688 0.10583,0.21167 0.10583,0.52917 0,0.37041 -0.1852,0.60854 -0.18521,0.23812 -0.4498,0.23812 -0.29104,0 -0.47625,-0.23812 -0.1852,-0.21167 -0.1852,-0.55563 0,-0.0265 0,-0.0794 h 0.29104 q 0.0265,0.21166 0.10583,0.34396 0.10583,0.10583 0.26458,0.10583 0.1323,0 0.23813,-0.10583 0.10583,-0.1323 0.10583,-0.3175 0,-0.18521 -0.10583,-0.3175 -0.10583,-0.1323 -0.34396,-0.3175 -0.29104,-0.18521 -0.39687,-0.34396 -0.10584,-0.18521 -0.10584,-0.47625 0,-0.37042 0.18521,-0.60854 0.18521,-0.21167 0.44979,-0.21167 0.23813,0 0.42334,0.21167 0.1852,0.21166 0.1852,0.5027 z m -4.81541,-20.663952 h -0.79375 v 0.84666 h 0.635 v 0.423342 h -0.635 v 1.40229 h -0.29104 v -3.069172 h 1.08479 z m 1.93146,0 h -0.79375 v 0.84666 h 0.635 v 0.396882 h -0.635 v 1.40229 h -0.29105 v -3.069172 h 1.0848 z"
       style="fill:#71ffff;stroke-width:0.264583" />
  </g>
</svg>
