<svg version="1.2" xmlns="http://www.w3.org/2000/svg" viewBox="0 0 484 716" width="692" height="1024">
	<title>max eicas</title>
	<style>
		tspan { white-space:pre } 
		.s0 { fill: #000000 } 
		.s1 { fill: #ffffff } 
		.s2 { fill: #71ffff } 
		.s3 { fill: #e9e2f4 } 
		.t4 { font-size: 23px;fill: #ffffff;font-weight: 400;font-family: "OCRB", "OCRB" } 
		.t5 { font-size: 25px;fill: #00ff00;font-weight: 400;font-family: "OCRB", "OCRB" } 
		.t6 { font-size: 22px;fill: #ffffff;font-weight: 400;font-family: "OCRB", "OCRB" } 
		.s7 { fill: #c3adb9 } 
		.s8 { fill: #fbfd41 } 
		.s9 { fill: #ff0000 } 
		.t10 { font-size: 28px;fill: #ffffff;font-weight: 400;font-family: "OCRB", "OCRB" } 
		.s11 { fill: #ff7f00 } 
		.s12 { fill: none;stroke: #00ff00;stroke-linecap: round;stroke-width: 4 } 
		.t13 { font-size: 21px;fill: #00ff00;font-weight: 400;font-family: "OCRB", "OCRB" } 
		.s14 { fill: #ff8000 } 
		.t15 { font-size: 29px;fill: #ffffff;font-weight: 400;font-family: "OCRB", "OCRB" } 
	</style>
	<path id="Shape 2" class="s0" d="m0 0h484v716h-484z"/>
	<g id="flap indicator">
		<path id="Shape 3" fill-rule="evenodd" class="s1" d="m362.5 477c-38.4 0-69.5-30.6-69.5-68.5 0-37.9 31.1-68.5 69.5-68.5 38.4 0 69.5 30.6 69.5 68.5 0 37.9-31.1 68.5-69.5 68.5zm65.5-68.5c0-35.7-29.3-64.5-65.5-64.5-36.2 0-65.5 28.8-65.5 64.5 0 35.7 29.3 64.5 65.5 64.5 36.2 0 65.5-28.8 65.5-64.5z"/>
		<path id="Shape 4" class="s1" d="m355 452.4q3.7 0.6 7.5 0.6c24.6 0 44.5-19.9 44.5-44.5 0-24.6-19.9-44.5-44.5-44.5-24.6 0-44.5 19.9-44.5 44.5q0 3.3 0.5 6.5h-7.5v-12h5.3c0.7-5.4 2.2-10.5 4.5-15.2l-3.6-2.5 7.8-11.3 3.7 2.6c4.9-5.2 11-9.3 17.9-11.8l-0.9-3.9 13.5-2.9 0.8 4.1q1.3-0.1 2.5-0.1 5.4 0 10.5 1.2l1.9-4.4 17.1 7.7-2 4.5c3.9 2.8 7.3 6.3 10.2 10.2l4.9-2.4 6.9 14.2-4.9 2.3q0.8 2.8 1.3 5.7h5.6v16h-5.8q-0.9 5.1-2.9 9.7l1.5-2.6 4.4 2.5-8 13.8-4.4-2.5 0.9-1.5c-2.1 2.9-4.6 5.5-7.3 7.8l0.5-0.4 2.5 4.4-13.8 8-2.5-4.3q-3.9 1.5-8.1 2.3v4.8h-16z"/>
		<path id="flap-dial" fill-rule="evenodd" class="s1" d="m363 428c-9 0-16.5-5.9-19.1-14h-12.9l-13-6 13-6h12.9c2.6-8.1 10.1-14 19.1-14 11.1 0 20 8.9 20 20 0 11.1-8.9 20-20 20zm18-20c0-10-8-18-18-18-10 0-18 8-18 18 0 10 8 18 18 18 10 0 18-8 18-18z"/>
		<path id="FLAPS" fill-rule="evenodd" class="s2" d="m317 432.5h-3.2v3.1h2.5v1.4h-2.5v5h-1.2v-10.9h4.4zm4.1-1.5v9.5h4.3v1.4h-5.6v-10.9zm10.8 10.9l-0.6-3.1h-2.3l-0.7 3.1h-1.2l2.3-10.9h1.7l2.2 10.9zm-2.7-4.6h1.8l-0.8-4.9zm9.2 0.1h-1.7v4.5h-1.2v-10.9h3q0.7 0 1.1 0.2 0.5 0.2 0.9 0.8 0.7 0.9 0.7 2.3 0 1.4-0.8 2.3-0.7 0.8-2 0.8zm-1.7-4.9v3.5h1.7q0.7 0 1.1-0.5 0.5-0.4 0.5-1.2 0-1.8-1.6-1.8zm11.8 1v0.2h-1.3q0-0.6-0.3-1-0.3-0.3-0.9-0.3-0.6 0-1 0.4-0.3 0.4-0.3 1 0 0.8 0.9 1.4l1 0.6q1 0.7 1.5 1.4 0.5 0.8 0.5 1.8 0 1.4-0.8 2.2-0.8 0.9-1.9 0.9-1.1 0-1.9-0.8-0.8-0.8-0.8-2 0-0.1 0-0.3h1.3q0 0.7 0.4 1.2 0.4 0.4 1 0.4 0.6 0 1-0.4 0.4-0.5 0.4-1.2 0-0.6-0.4-1.1-0.4-0.5-1.5-1.1-1.1-0.6-1.5-1.3-0.5-0.6-0.5-1.6 0-1.3 0.8-2.2 0.7-0.8 1.9-0.8 0.9 0 1.7 0.8 0.7 0.7 0.7 1.8z"/>
		<path id="UP" fill-rule="evenodd" class="s1" d="m297.1 411.5v-7.4h1.1v7.3q0 1.2 0.4 1.7 0.3 0.6 1.1 0.6 0.7 0 1.1-0.7 0.2-0.3 0.2-0.6 0.1-0.3 0.1-1.1v-7.2h1.1v7.2q0 1.1-0.1 1.7-0.1 0.6-0.4 1.1-0.7 1-2.1 1-1.2 0-1.9-1-0.3-0.5-0.4-1.1-0.2-0.6-0.2-1.5zm9.9-1h-1.5v4.5h-1.1v-10.9h2.7q0.6 0 1 0.2 0.4 0.2 0.8 0.7 0.6 0.9 0.6 2.3 0 1.4-0.7 2.3-0.6 0.9-1.8 0.9zm-1.5-5v3.5h1.5q0.7 0 1-0.4 0.4-0.5 0.4-1.3 0-1.8-1.4-1.8zm10.4-25.5v-9.3l-2.9 2.4v-1.9l2.7-2.2h1.7v11zm32.2-23.6v0.2h5v1.4h-6.5q0-0.6 0-0.9 0-1.5 0.4-2.4 0.4-0.7 0.9-1.3 0.6-0.5 1.8-1.2 1.2-0.8 1.6-1.3 0.5-0.5 0.5-1.1 0-0.6-0.6-1.2-0.5-0.5-1.2-0.5-1.6 0-3.2 1.2v-1.7q1.3-0.9 3-0.9 1.6 0 2.5 0.9 1 0.8 1 2.2 0 1-0.5 1.7-0.3 0.5-0.7 0.8-0.4 0.3-1.8 1.2-1.2 0.8-1.7 1.4-0.5 0.7-0.5 1.5zm38.8-6.1h-4.3l-0.1 2.2h0.4q2 0 3.1 1 1.1 0.9 1.1 2.6 0 2.4-2.3 3.4-1.3 0.6-3.8 0.6v-1.3h0.1 0.8q0.7 0 1.3-0.2 1.1-0.2 1.8-0.9 0.6-0.7 0.6-1.7 0-2.1-2.7-2.1-0.7 0-1.2 0.1h-0.5q-0.1 0-0.2 0.1l0.3-5.1h5.6zm24.5 36.6v-9.3l-2.2 2.4v-1.9l2.1-2.2h1.2v11zm7.6-11.2q0.9 0 1.4 0.3 0.5 0.3 0.8 1 0.5 1.4 0.5 4.4 0 3.8-0.7 4.8-0.6 0.8-2.2 0.8-1.7 0-2.1-1-0.6-1.5-0.6-4.7 0-3.2 0.6-4.5 0.2-0.6 0.8-0.8 0.5-0.3 1.5-0.3zm0 1.5q-0.6 0-1 0-0.3 0.1-0.4 0.4-0.1 0.2-0.3 1.4-0.1 1.1-0.1 2.3 0 1.1 0.1 2.2 0.1 1.1 0.2 1.5 0.1 0.4 0.4 0.5 0.3 0.2 0.9 0.2 0.7 0 1-0.1 0.3-0.2 0.4-0.4 0.4-0.9 0.4-3.5 0-1.5-0.1-2.7-0.1-1.2-0.3-1.5-0.2-0.2-0.4-0.3-0.3 0-0.8 0zm-2 36.7v-9.3l-2.3 2.4v-1.9l2.2-2.2h1.4v11zm10.3-9.6h-3.4l-0.2 2.2h0.3q1.7 0 2.7 0.9 0.9 0.9 0.9 2.6 0 2.4-2 3.4-1 0.6-3.1 0.6v-1.3h0.1 0.7q0.5 0 1-0.1 1-0.3 1.5-0.9 0.5-0.7 0.5-1.7 0-2.2-2.2-2.2-0.6 0-1 0.1l-0.4 0.1q-0.1 0-0.2 0l0.3-5.1h4.5zm-17.9 34.9v0.2h3.8v1.5h-4.9q-0.1-0.6-0.1-0.9 0-1.6 0.3-2.6 0.3-0.7 0.8-1.3 0.4-0.6 1.3-1.4 0.9-0.8 1.3-1.3 0.3-0.5 0.3-1.1 0-0.8-0.4-1.3-0.4-0.5-1-0.5-1.2 0-2.4 1.2v-1.8q1-0.9 2.3-0.9 1.2 0 1.9 0.8 0.7 0.9 0.7 2.4 0 1-0.3 1.8-0.3 0.5-0.6 0.9-0.3 0.3-1.3 1.3-0.9 0.8-1.3 1.5-0.4 0.7-0.4 1.5zm11-8.5h-3.2l-0.2 2.3h0.3q1.6 0 2.5 1 0.8 1 0.8 2.8 0 2.5-1.8 3.6-1 0.6-2.9 0.6v-1.4h0.1 0.6q0.5 0 1-0.1 0.9-0.3 1.4-1 0.5-0.7 0.5-1.8 0-2.2-2.1-2.2-0.5 0-0.9 0l-0.5 0.1q0 0-0.1 0l0.2-5.4h4.3zm-32.6 26.2l2.1-2.7h-3.5v-1.2h4.9v1.4l-2.1 2.5q1.2 0.1 1.8 0.9 0.6 0.7 0.6 2 0 1.5-0.8 2.4-0.9 0.9-2.2 0.9-1 0-2.2-0.6v-1.4q0.9 0.7 2 0.7 1 0 1.6-0.5 0.5-0.6 0.5-1.6 0-0.7-0.5-1.2-0.5-0.6-1.2-0.6h-1zm8.4-4q0.9 0 1.4 0.3 0.4 0.2 0.7 0.8 0.5 1.3 0.5 4 0 3.4-0.7 4.4-0.6 0.7-2.1 0.7-1.6 0-2.1-1-0.5-1.2-0.5-4.1 0-2.9 0.5-4.1 0.3-0.5 0.8-0.7 0.6-0.3 1.5-0.3zm0 1.3q-0.6 0-0.9 0.1-0.3 0.1-0.4 0.3-0.2 0.2-0.3 1.2-0.1 1-0.1 2.2 0 0.9 0.1 1.9 0 1 0.2 1.4 0.1 0.3 0.3 0.5 0.3 0.1 0.9 0.1 0.6 0 0.9-0.1 0.4-0.1 0.5-0.4 0.3-0.8 0.3-3.1 0-1.4-0.1-2.4-0.1-1.1-0.3-1.4-0.1-0.2-0.4-0.2-0.2-0.1-0.7-0.1zm-36.3 11.1v2.1h1.1v1.4h-1.1v2.2h-1.3v-2.2h-3.4v-1.6l2.7-6.5h1.3l-2.8 6.7h2.2v-2.1zm6.3-4.8q1 0 1.5 0.3 0.5 0.3 0.8 0.9 0.6 1.4 0.6 4.2 0 3.5-0.8 4.5-0.6 0.7-2.4 0.7-1.8 0-2.2-1-0.7-1.3-0.7-4.3 0-3 0.7-4.3 0.2-0.5 0.8-0.7 0.6-0.3 1.7-0.3zm0 1.4q-0.7 0-1.1 0-0.3 0.1-0.4 0.3-0.2 0.3-0.3 1.4-0.2 1-0.2 2.2 0 1 0.1 2 0.1 1 0.3 1.4 0.1 0.4 0.4 0.5 0.3 0.2 0.9 0.2 0.8 0 1.1-0.2 0.4-0.1 0.5-0.3 0.4-0.9 0.4-3.3 0-1.4-0.2-2.5-0.1-1.1-0.3-1.4-0.1-0.2-0.4-0.3-0.3 0-0.8 0z"/>
		<path id="Shape 7" fill-rule="evenodd" class="s3" d="m287 478h75v33h-75zm2 31h71v-29h-71z"/>
		<path id="Shape 7 copy" fill-rule="evenodd" class="s3" d="m363 478h75v33h-75zm2 31h71v-29h-71z"/>
	</g>
	<g id="temperature">
		<path id="TAT" fill-rule="evenodd" class="s2" d="m28.8 35.4h-2.3v10.6h-1.2v-10.6h-2.3v-1.6h5.8zm6.7 10.6l-0.6-3.6h-2.4l-0.6 3.6h-1.3l2.3-12.2h1.8l2.1 12.2zm-2.6-5.2h1.8l-0.9-5.5zm11.7-5.4h-2.3v10.6h-1.2v-10.6h-2.3v-1.6h5.8z"/>
		<text id="air-temp" style="transform: matrix(.78,0,0,1,44.88,32)" >
			<tspan x="0" y="15.9" class="t4">-</tspan><tspan  y="15.9" class="t4">2</tspan><tspan  y="15.9" class="t4">0</tspan><tspan  y="15.9" class="t4">c</tspan><tspan  y="15.9" class="t4">
</tspan>
		</text>
		<text id="flt-mode" style="transform: matrix(.707,0,0,1,119.585,31)" >
			<tspan x="0" y="17.3" class="t5">C</tspan><tspan  y="17.3" class="t5">R</tspan><tspan  y="17.3" class="t5">Z</tspan><tspan  y="17.3" class="t5">
</tspan>
		</text>
	</g>
	<g id="fuel">
		<path id="Shape 1" fill-rule="evenodd" class="s2" d="m258 626c0-3.9 3.1-7 7-7h24v3h-24c-2.2 0-4 1.8-4 4v39c0 2.2 1.8 4 4 4h192c2.2 0 4-1.8 4-4v-39c0-2.2-1.8-4-4-4h-24v-3h24c3.9 0 7 3.1 7 7v39c0 3.9-3.1 7-7 7h-192c-3.9 0-7-3.1-7-7zm38.2-8.9h-2.9v2.8h2.3v1.4h-2.3v4.7h-1.2v-10.3h4.1zm2.2 5.6v-6.9h1.2v6.8q0 1.1 0.3 1.7 0.4 0.5 1.2 0.5 0.8 0 1.2-0.7 0.2-0.2 0.2-0.5 0.1-0.3 0.1-1.1v-6.7h1.1v6.7q0 1-0.1 1.6-0.1 0.6-0.4 1-0.7 1-2.2 1-1.2 0-1.9-0.9-0.4-0.5-0.5-1-0.2-0.6-0.2-1.5zm12.5-5.6h-3.6v2.9h3.1v1.4h-3.1v3.2h3.7v1.4h-4.8v-10.2h4.7zm3.8-1.4v8.9h4v1.3h-5.2v-10.2zm17.6 8l1.4 2.2h-1.4l-0.7-1.1q-0.6 0.6-1.4 0.6-0.8 0-1.5-0.8-0.6-0.7-0.9-1.7-0.2-1-0.2-2.5 0-2.2 0.7-3.5 0.7-1.3 1.9-1.3 0.9 0 1.6 0.8 1.1 1.3 1.1 4.1 0 2-0.6 3.2zm-1.6-2.8l0.9 1.4q0.1-0.7 0.1-1.7 0-1.8-0.4-2.7-0.4-1-1-1-0.8 0-1.1 0.8-0.5 1-0.5 2.7 0 1.7 0.4 2.7 0.4 0.9 1.1 0.9 0.5 0 0.8-0.3l-1.6-2.8zm9.7-3.8h-2.1v8.8h-1.2v-8.8h-2.1v-1.4h5.4zm3.1-1.4l1.5 3.9 1.6-3.9h1.3l-2.3 5.5v4.8h-1.1v-4.8l-2.3-5.5zm7.6 7.3v-1.8h2.6v1.8zm7.3-7.3v4.2l3.2-4.2h1.5l-3.8 4.9 4 5.4h-1.6l-3.3-4.7v4.7h-1.2v-10.3zm10.2 8.8v-2.6h-1.6v-1.4h2.8v5q-1.2 0.6-2.3 0.6-1.4 0-2.2-1.4-0.8-1.3-0.8-3.9 0-1.6 0.3-2.6 0.2-1 0.8-1.7 0.9-0.9 2.1-0.9 0.9 0 1.5 0.6 0.2 0.3 0.4 0.7 0.2 0.4 0.2 0.7 0 0 0 0.1h-1.2q-0.1-0.7-0.9-0.7-1 0-1.5 0.9-0.5 0.9-0.5 2.9 0 3.9 1.9 3.9 0.5 0 1-0.2zm8.3-6.5v0.2h-1.1q0-0.6-0.3-0.9-0.3-0.3-0.9-0.3-0.5 0-0.9 0.3-0.3 0.4-0.3 1 0 0.8 0.8 1.3l0.9 0.6q1.1 0.6 1.5 1.3 0.4 0.7 0.4 1.7 0 1.3-0.7 2.1-0.7 0.8-1.8 0.8-1 0-1.7-0.8-0.7-0.7-0.7-1.8 0-0.1 0-0.3h1.1q0 0.7 0.4 1.1 0.3 0.4 0.9 0.4 0.6 0 1-0.4 0.4-0.4 0.4-1.1 0-0.6-0.4-1-0.4-0.5-1.4-1.1-1-0.6-1.4-1.2-0.4-0.6-0.4-1.5 0-1.2 0.6-2 0.7-0.8 1.8-0.8 0.9 0 1.6 0.7 0.6 0.7 0.6 1.7zm10.8-2.3l1.5 3.6 1.6-3.6h1.2l-2.2 4.9 2.3 5.4h-1.3l-1.6-4-1.6 4h-1.3l2.2-5.2-2.2-5.1zm16.1 10.3v-9.4l-2.2 2.5v-1.9l2.1-2.3h1.3v11.1zm7.5-11.2q0.9 0 1.4 0.3 0.5 0.3 0.8 0.9 0.5 1.5 0.5 4.5 0 3.7-0.7 4.8-0.6 0.8-2.2 0.8-1.7 0-2.1-1.1-0.6-1.4-0.6-4.6 0-3.2 0.6-4.5 0.2-0.6 0.8-0.8 0.5-0.3 1.5-0.3zm0 1.4q-0.7 0-1 0.1-0.3 0.1-0.4 0.3-0.1 0.3-0.3 1.4-0.1 1.1-0.1 2.4 0 1 0.1 2.1 0.1 1.1 0.2 1.5 0.1 0.4 0.4 0.6 0.3 0.1 0.9 0.1 0.6 0 1-0.1 0.3-0.1 0.4-0.4 0.4-0.9 0.4-3.4 0-1.6-0.1-2.7-0.2-1.2-0.4-1.5-0.1-0.2-0.3-0.3-0.3-0.1-0.8-0.1zm7.3-1.4q1 0 1.5 0.3 0.5 0.3 0.7 0.9 0.5 1.5 0.5 4.5 0 3.7-0.7 4.8-0.6 0.8-2.2 0.8-1.7 0-2.1-1.1-0.6-1.4-0.6-4.6 0-3.2 0.6-4.5 0.2-0.6 0.8-0.8 0.6-0.3 1.5-0.3zm0 1.4q-0.6 0-0.9 0.1-0.3 0.1-0.5 0.3-0.1 0.3-0.2 1.4-0.2 1.1-0.2 2.4 0 1 0.1 2.1 0.1 1.1 0.2 1.5 0.2 0.4 0.4 0.6 0.3 0.1 0.9 0.1 0.7 0 1-0.1 0.3-0.1 0.5-0.4 0.3-0.9 0.3-3.4 0-1.6-0.1-2.7-0.1-1.2-0.3-1.5-0.1-0.2-0.4-0.3-0.2-0.1-0.8-0.1zm7.4-1.4q0.9 0 1.4 0.3 0.5 0.3 0.7 0.9 0.6 1.5 0.6 4.5 0 3.7-0.8 4.8-0.5 0.8-2.1 0.8-1.7 0-2.2-1.1-0.5-1.4-0.5-4.6 0-3.2 0.5-4.5 0.3-0.6 0.8-0.8 0.6-0.3 1.6-0.3zm0 1.4q-0.7 0-1 0.1-0.3 0.1-0.4 0.3-0.2 0.3-0.3 1.4-0.1 1.1-0.1 2.4 0 1 0.1 2.1 0.1 1.1 0.2 1.5 0.1 0.4 0.4 0.6 0.3 0.1 0.8 0.1 0.7 0 1-0.1 0.4-0.1 0.5-0.4 0.3-0.9 0.3-3.4 0-1.6-0.1-2.7-0.1-1.2-0.3-1.5-0.1-0.2-0.4-0.3-0.2-0.1-0.7-0.1zm-169.7 65.9h-2.3v8.9h-1.1v-8.9h-2.2v-1.4h5.6zm4.8-1.5q1.2 0 2 1.5 0.8 1.5 0.8 3.7 0 2.4-0.8 3.9-0.8 1.4-2.1 1.4-1.2 0-2-1.4-0.8-1.5-0.8-3.8 0-2.3 0.8-3.8 0.8-1.5 2.1-1.5zm0 1.4q-0.8 0-1.2 0.9-0.5 1.1-0.5 3 0 1.8 0.4 2.8 0.5 1 1.3 1 0.7 0 1.2-1 0.4-1 0.4-2.9 0-1.7-0.4-2.8-0.5-1-1.2-1zm10.3 0.1h-2.2v8.9h-1.2v-8.9h-2.2v-1.4h5.6zm6.5 8.9l-0.6-2.9h-2.3l-0.6 2.9h-1.2l2.2-10.2h1.7l2.1 10.2zm-2.6-4.3h1.8l-0.9-4.6zm7.4-6v8.9h4.2v1.4h-5.4v-10.3z"/>
		<text id="total" style="transform: matrix(.76,0,0,1,273.44,679)" >
			<tspan x="54" y="15.2" class="t6">9</tspan><tspan  y="15.2" class="t6">9</tspan><tspan  y="15.2" class="t6">.</tspan><tspan  y="15.2" class="t6">9
</tspan>
		</text>
		<text id="tank-l" style="transform: matrix(.736,0,0,1,280.264,634)" >
			<tspan x="0" y="15.9" class="t4">9</tspan><tspan  y="15.9" class="t4">.</tspan><tspan  y="15.9" class="t4">9</tspan><tspan  y="15.9" class="t4">9
</tspan>
		</text>
		<text id="tank-c" style="transform: matrix(.736,0,0,1,341.264,634)" >
			<tspan x="0" y="15.9" class="t4">9</tspan><tspan  y="15.9" class="t4">.</tspan><tspan  y="15.9" class="t4">9</tspan><tspan  y="15.9" class="t4">9
</tspan>
		</text>
		<text id="tank-r" style="transform: matrix(.736,0,0,1,402.264,634)" >
			<tspan x="0" y="15.9" class="t4">9</tspan><tspan  y="15.9" class="t4">.</tspan><tspan  y="15.9" class="t4">9</tspan><tspan  y="15.9" class="t4">9
</tspan>
		</text>
	</g>
	<g id="engine warnings">
		<path id="Shape 8" fill-rule="evenodd" class="s3" d="m281 49h93v158h-93zm3 31h87v-28h-87zm0 31h87v-28h-87zm0 31h87v-28h-87zm0 31h87v-28h-87zm0 31h87v-28h-87zm96-155h93v158h-93zm3 31h87v-28h-87zm0 31h87v-28h-87zm0 31h87v-28h-87zm0 31h87v-28h-87zm0 31h87v-28h-87z"/>
		<path id="Shape 9" class="s7" d="m405 32h43v15h-43zm-99 0h43v15h-43z"/>
		<path id="ENG 2" class="s2" d="m414.6 36.1h-3.8v2.9h3.3v1.3h-3.3v3.3h3.9v1.4h-5.1v-10.3h5zm3.8-1.3l2.9 7.5v-7.5h1v10.2h-1.3l-3-7.9v7.9h-1.1v-10.2zm10.5 8.7v-2.6h-1.8v-1.4h2.9v5q-1.2 0.7-2.3 0.6-1.5 0.1-2.4-1.3-0.8-1.4-0.8-3.9 0-1.7 0.3-2.7 0.3-1 0.9-1.7 0.9-0.9 2.1-0.9 1 0 1.6 0.7 0.3 0.3 0.5 0.7 0.2 0.4 0.2 0.7 0 0-0.1 0.1h-1.1q-0.2-0.8-1-0.8-1.1 0-1.6 0.9-0.6 1-0.6 2.9 0 4 2.1 4 0.5 0 1.1-0.3zm12.3-0.1v0.2h3.9v1.4h-5.1q-0.1-0.6-0.1-0.9 0-1.4 0.4-2.4 0.3-0.7 0.7-1.2 0.5-0.6 1.4-1.3 1-0.8 1.3-1.3 0.4-0.5 0.4-1 0-0.7-0.5-1.2-0.4-0.5-0.9-0.5-1.3 0-2.6 1.1v-1.6q1-0.9 2.4-0.9 1.3 0 2 0.8 0.8 0.8 0.8 2.2 0 1-0.4 1.7-0.3 0.5-0.6 0.8-0.3 0.4-1.4 1.2-0.9 0.8-1.3 1.5-0.4 0.6-0.4 1.4zm-125.6-7.3h-3.7v2.9h3.2v1.4h-3.2v3.3h3.9v1.3h-5.1v-10.2h4.9zm3.8-1.4l2.9 7.5v-7.5h1.1v10.3h-1.3l-3-7.9v7.9h-1.1v-10.3zm10.4 8.7v-2.6h-1.7v-1.3h2.9v5q-1.2 0.6-2.3 0.6-1.6 0-2.4-1.4-0.8-1.4-0.8-3.9 0-1.6 0.3-2.6 0.3-1 0.9-1.7 0.8-0.9 2.1-0.9 1 0 1.6 0.6 0.2 0.3 0.4 0.7 0.2 0.4 0.2 0.7 0 0 0 0.1h-1.2q-0.2-0.8-0.9-0.8-1.1 0-1.7 1-0.5 0.9-0.5 2.8 0 4 2.1 4 0.5 0 1-0.3zm13.7 1.6v-9.4l-2.2 2.4v-1.8l2.1-2.3h1.3v11.1z"/>
		<g id="warningN1">
			<path id="start-valve-open" fill-rule="evenodd" class="s8" d="m284 52h87v28h-87zm6.2 2.1q-0.7-0.5-1.7-0.5-1.1 0-1.8 0.6-0.8 0.6-0.8 1.6 0 0.8 0.5 1.3 0.4 0.5 1.5 1 1.1 0.4 1.5 0.8 0.4 0.4 0.4 0.9 0 0.5-0.4 0.8-0.4 0.4-1.1 0.4-0.6 0-0.9-0.4-0.4-0.3-0.5-0.9h-1.2q0 0.2 0 0.3 0 0.9 0.8 1.5 0.8 0.6 1.9 0.6 1.1 0 1.9-0.7 0.7-0.6 0.7-1.6 0-0.8-0.5-1.4-0.4-0.6-1.5-1.1l-1-0.5q-0.8-0.4-0.8-1 0-0.5 0.3-0.8 0.4-0.3 0.9-0.3 0.6 0 1 0.2 0.3 0.3 0.3 0.8h1.2v-0.2q0-0.8-0.7-1.4zm8.9-0.4h-5.8v1.1h2.3v7.2h1.2v-7.2h2.3zm8 8.3l-2.1-8.3h-1.8l-2.3 8.3h1.3l0.6-2.4h2.4l0.5 2.4zm-3-7.3l0.8 3.8h-1.8zm9.6 7.3h1.4l-2.2-3.8q0.8-0.1 1.2-0.7 0.5-0.6 0.5-1.5 0-1.1-0.7-1.7-0.7-0.7-1.9-0.7h-2.6v8.4h1.3v-3.5h1zm-1.9-7.3q1.6 0 1.6 1.4 0 1.3-1.5 1.3h-1.2v-2.7zm10.9-1.1h-5.8v1.1h2.3v7.3h1.2v-7.3h2.3zm9.6 0l2.3 8.4h1.7l2.3-8.4h-1.2l-1.9 7.2-1.9-7.2zm14 8.4l-2.1-8.4h-1.8l-2.2 8.4h1.2l0.6-2.4h2.4l0.6 2.4zm-3.1-7.3l0.9 3.8h-1.8zm4.6-1.1l2.3 8.3h1.7l2.3-8.3h-1.2l-1.9 7.2-1.9-7.2zm8.6 0v8.3h5.5v-1.1h-4.3v-7.2zm12.8 0h-5v8.3h5.2v-1.1h-4v-2.7h3.3v-1.1h-3.3v-2.3h3.8zm-55.6 17.1q-0.8 1.3-0.8 3.1 0 1.9 0.8 3.1 0.8 1.2 2.1 1.2 1.3 0 2.2-1.2 0.8-1.2 0.8-3.1 0-1.8-0.9-3.1-0.8-1.2-2.1-1.2-1.2 0-2.1 1.2zm3.4 0.8q0.5 0.8 0.5 2.2 0 1.6-0.5 2.4-0.5 0.8-1.3 0.8-0.8 0-1.2-0.8-0.5-0.8-0.5-2.3 0-1.6 0.5-2.5 0.4-0.7 1.2-0.7 0.8 0 1.3 0.9zm8.9 2.4q0.8-0.7 0.8-1.8 0-1.1-0.7-1.8-0.4-0.4-0.8-0.5-0.5-0.2-1.2-0.2h-3v8.4h1.3v-3.5h1.6q1.3 0 2-0.6zm-1.9-3.2q1.5 0 1.5 1.4 0 0.6-0.4 0.9-0.4 0.4-1.2 0.4h-1.6v-2.7zm10-1.1h-5v8.4h5.2v-1.2h-4v-2.6h3.3v-1.2h-3.3v-2.3h3.8zm2.4 0v8.4h1.2v-6.4l3 6.4h1.4v-8.4h-1.1v6.2l-3-6.2z"/>
			<path id="oil-filter-bypass" fill-rule="evenodd" class="s8" d="m284 83h87v28h-87zm6.2 2.8q-0.9 1.2-0.9 3.1 0 1.8 0.9 3 0.8 1.2 2.1 1.2 1.3 0 2.1-1.2 0.8-1.2 0.8-3.1 0-1.8-0.8-3-0.9-1.2-2.1-1.2-1.3 0-2.1 1.2zm3.3 0.7q0.5 0.9 0.5 2.3 0 1.5-0.4 2.3-0.5 0.9-1.3 0.9-0.8 0-1.3-0.8-0.4-0.9-0.4-2.3 0-1.6 0.5-2.5 0.4-0.7 1.2-0.7 0.8 0 1.2 0.8zm8.5-1.8h-3.8v1.1h1.3v6.1h-1.5v1.1h4.2v-1.1h-1.5v-6.1h1.3zm3.6 0v8.3h5.5v-1.1h-4.3v-7.2zm20.6 0h-4.3v8.3h1.2v-3.8h2.5v-1.1h-2.5v-2.3h3.1zm7.1 0h-3.8v1.1h1.3v6.1h-1.5v1.1h4.3v-1.1h-1.6v-6.1h1.3zm3.6 0v8.4h5.5v-1.2h-4.3v-7.2zm13.1 0h-5.8v1.1h2.3v7.3h1.2v-7.3h2.3zm7.6 0h-5v8.4h5.1v-1.1h-3.9v-2.7h3.3v-1.1h-3.3v-2.4h3.8zm6.9 8.4h1.4l-2.2-3.8q0.8-0.1 1.2-0.7 0.5-0.6 0.5-1.4 0-1.2-0.7-1.8-0.7-0.7-1.9-0.7h-2.5v8.4h1.2v-3.5h1zm-1.8-7.2q1.5 0 1.5 1.3 0 1.3-1.5 1.3h-1.1v-2.6zm-52.2 22.5q0.7-0.8 0.7-1.8 0-0.7-0.4-1.2-0.4-0.5-1-0.7 1.2-0.4 1.2-1.6 0-1-0.8-1.7-0.4-0.4-0.9-0.5-0.5-0.1-1.3-0.1h-2.8v8.3h3.3q1.3 0 2-0.7zm-2.4-6.5q0.7 0 1.2 0.3 0.4 0.3 0.4 0.9 0 0.4-0.3 0.8-0.3 0.3-1.2 0.3h-1.8v-2.3zm0.1 3.3q0.9 0 1.3 0.4 0.5 0.4 0.5 1 0 0.7-0.5 1-0.4 0.4-1.2 0.4h-1.9v-2.8zm4.7-4.4l2.4 4.4v3.9h1.2v-3.9l2.4-4.4h-1.4l-1.6 3.1-1.7-3.1zm13.2 4.2q0.8-0.7 0.8-1.8 0-1-0.7-1.7-0.4-0.4-0.8-0.6-0.4-0.1-1.2-0.1h-2.9v8.3h1.2v-3.5h1.6q1.3 0 2-0.6zm-1.9-3.1q1.5 0 1.5 1.3 0 0.6-0.4 1-0.4 0.3-1.1 0.3h-1.7v-2.6zm10.5 7.2l-2.1-8.3h-1.8l-2.3 8.3h1.3l0.6-2.4h2.4l0.5 2.4zm-3-7.3l0.8 3.8h-1.8zm9.7-0.6q-0.7-0.6-1.7-0.6-1.2 0-1.9 0.6-0.7 0.7-0.7 1.7 0 0.7 0.4 1.2 0.5 0.5 1.6 1 1 0.5 1.4 0.9 0.4 0.3 0.4 0.8 0 0.5-0.4 0.9-0.4 0.3-1 0.3-0.6 0-1-0.3-0.4-0.4-0.4-0.9h-1.2q0 0.1 0 0.2 0 0.9 0.7 1.5 0.8 0.6 1.9 0.6 1.2 0 1.9-0.6 0.8-0.7 0.8-1.7 0-0.8-0.5-1.4-0.5-0.5-1.5-1.1l-1-0.4q-0.9-0.5-0.9-1.1 0-0.5 0.4-0.8 0.3-0.3 0.9-0.3 0.6 0 0.9 0.3 0.4 0.3 0.4 0.8h1.2v-0.2q0-0.8-0.7-1.4zm7.8 0q-0.7-0.6-1.7-0.6-1.1 0-1.9 0.6-0.7 0.7-0.7 1.7 0 0.7 0.4 1.2 0.5 0.5 1.6 1 1.1 0.5 1.5 0.9 0.4 0.3 0.4 0.8 0 0.5-0.4 0.9-0.5 0.3-1.1 0.3-0.6 0-1-0.3-0.3-0.4-0.4-0.9h-1.2q0 0.1 0 0.2 0 0.9 0.8 1.5 0.7 0.6 1.8 0.6 1.2 0 1.9-0.6 0.8-0.7 0.8-1.7 0-0.8-0.5-1.4-0.4-0.5-1.5-1.1l-1-0.4q-0.9-0.5-0.9-1.1 0-0.5 0.4-0.8 0.4-0.3 0.9-0.3 0.6 0 1 0.3 0.3 0.3 0.3 0.8h1.2v-0.2q0-0.8-0.7-1.4z"/>
			<path id="low-oil-pressure" fill-rule="evenodd" class="s8" d="m284 114h87v28h-87zm17.6 1.7v8.3h5.6v-1.1h-4.3v-7.2zm8.1 1.1q-0.9 1.2-0.9 3.1 0 1.8 0.8 3 0.9 1.2 2.2 1.2 1.3 0 2.1-1.2 0.8-1.2 0.8-3.1 0-1.8-0.8-3-0.9-1.2-2.1-1.2-1.3 0-2.1 1.2zm3.3 0.7q0.5 0.9 0.5 2.3 0 1.5-0.5 2.3-0.4 0.9-1.2 0.9-0.9 0-1.3-0.8-0.5-0.9-0.5-2.3 0-1.6 0.6-2.5 0.4-0.7 1.2-0.7 0.8 0 1.2 0.8zm8.7 6.5q0.4-1.5 0.7-3.6 0.2-2 0.2-3.9v-0.8h-1.2v0.6q0 2.4-0.4 5.3v0.4l-0.9-3.1h-1l-0.9 3q-0.4-2.5-0.4-5.8v-0.4h-1.2v0.8q0 1.5 0.2 3.7 0.3 2.2 0.7 3.8h1.3l0.8-3 0.8 3zm11.4-7.2q-0.9 1.2-0.9 3.1 0 1.8 0.9 3 0.8 1.2 2.1 1.2 1.3 0 2.1-1.2 0.8-1.2 0.8-3.1 0-1.8-0.8-3-0.8-1.2-2.1-1.2-1.3 0-2.1 1.2zm3.4 0.7q0.4 0.9 0.4 2.3 0 1.5-0.4 2.3-0.5 0.9-1.3 0.9-0.8 0-1.3-0.8-0.4-0.9-0.4-2.3 0-1.6 0.5-2.5 0.4-0.7 1.2-0.7 0.8 0 1.3 0.8zm8.4-1.8h-3.8v1.1h1.3v6.1h-1.5v1.1h4.2v-1.1h-1.5v-6.1h1.3zm3.6 0v8.3h5.5v-1.1h-4.3v-7.2zm-46.1 20.2q0.7-0.7 0.7-1.8 0-1-0.6-1.7-0.5-0.4-0.9-0.6-0.4-0.1-1.2-0.1h-2.9v8.3h1.2v-3.4h1.6q1.4 0 2.1-0.7zm-2-3.1q1.5 0 1.5 1.3 0 0.6-0.4 1-0.4 0.3-1.1 0.3h-1.7v-2.6zm9.1 7.2h1.5l-2.2-3.7q0.8-0.2 1.2-0.8 0.5-0.5 0.5-1.4 0-1.1-0.7-1.8-0.7-0.6-1.9-0.6h-2.6v8.3h1.3v-3.5h1zm-1.9-7.2q1.6 0 1.6 1.3 0 1.3-1.6 1.3h-1.1v-2.6zm10.7-1.1h-5.1v8.3h5.2v-1.1h-3.9v-2.7h3.3v-1.1h-3.3v-2.3h3.8zm7 0.5q-0.7-0.6-1.7-0.6-1.1 0-1.9 0.6-0.7 0.7-0.7 1.7 0 0.7 0.4 1.2 0.5 0.5 1.6 1 1 0.5 1.4 0.9 0.5 0.3 0.5 0.8 0 0.5-0.5 0.9-0.4 0.3-1 0.3-0.6 0-1-0.3-0.4-0.3-0.4-0.9h-1.2q0 0.1 0 0.2 0 0.9 0.8 1.5 0.7 0.7 1.8 0.7 1.2 0 1.9-0.7 0.8-0.7 0.8-1.7 0-0.8-0.5-1.4-0.4-0.5-1.5-1l-1-0.5q-0.9-0.4-0.9-1.1 0-0.5 0.4-0.8 0.4-0.3 0.9-0.3 0.6 0 0.9 0.3 0.4 0.3 0.4 0.8h1.2v-0.2q0-0.8-0.7-1.4zm7.8 0q-0.7-0.6-1.7-0.6-1.1 0-1.8 0.6-0.8 0.7-0.8 1.7 0 0.7 0.5 1.2 0.4 0.5 1.5 1 1.1 0.5 1.5 0.9 0.4 0.3 0.4 0.8 0 0.5-0.4 0.9-0.4 0.3-1.1 0.3-0.6 0-0.9-0.3-0.4-0.3-0.5-0.9h-1.2q0 0.1 0 0.2 0 0.9 0.8 1.5 0.8 0.7 1.9 0.7 1.1 0 1.9-0.7 0.7-0.7 0.7-1.7 0-0.8-0.4-1.4-0.5-0.5-1.6-1l-1-0.5q-0.8-0.4-0.8-1.1 0-0.5 0.3-0.8 0.4-0.3 0.9-0.3 0.6 0 1 0.3 0.3 0.3 0.3 0.8h1.2v-0.2q0-0.8-0.7-1.4zm3.3 6.4q0.2 0.4 0.5 0.8 0.8 0.8 2.2 0.8 1.5 0 2.2-0.9 0.4-0.3 0.5-0.8 0.1-0.5 0.1-1.3v-5.5h-1.2v5.5q0 0.6-0.1 0.9 0 0.2-0.2 0.4-0.5 0.5-1.3 0.5-0.8 0-1.2-0.4-0.4-0.4-0.4-1.3v-5.6h-1.2v5.7q0 0.7 0.1 1.2zm12.2 1.5h1.5l-2.2-3.8q0.8-0.1 1.2-0.7 0.5-0.6 0.5-1.5 0-1.1-0.7-1.7-0.7-0.7-1.9-0.7h-2.6v8.4h1.3v-3.5h1zm-1.9-7.3q1.6 0 1.6 1.4 0 1.3-1.6 1.3h-1.1v-2.7zm10.7-1.1h-5.1v8.4h5.2v-1.1h-3.9v-2.7h3.3v-1.1h-3.3v-2.4h3.8z"/>
			<path id="thrust" fill-rule="evenodd" class="s8" d="m284 145h87v28h-87zm26.8 8.7h-5.7v1.1h2.2v7.2h1.2v-7.2h2.3zm7.6 8.3v-8.3h-1.2v3.4h-2.9v-3.4h-1.2v8.3h1.2v-3.7h2.9v3.7zm6.9 0h1.4l-2.2-3.7q0.8-0.2 1.3-0.8 0.4-0.5 0.4-1.4 0-1.1-0.7-1.8-0.7-0.6-1.9-0.6h-2.5v8.3h1.2v-3.5h1.1zm-1.9-7.2q1.6 0 1.6 1.3 0 1.3-1.6 1.3h-1.1v-2.6zm5.3 5.7q0.1 0.5 0.5 0.9 0.8 0.7 2.1 0.7 1.6 0 2.3-0.8 0.3-0.4 0.5-0.8 0.1-0.5 0.1-1.3v-5.5h-1.2v5.5q0 0.6-0.1 0.8-0.1 0.3-0.3 0.5-0.4 0.5-1.2 0.5-0.9 0-1.3-0.4-0.3-0.4-0.3-1.3v-5.6h-1.3v5.6q0 0.8 0.2 1.2zm12.3-6.3q-0.7-0.6-1.7-0.6-1.1 0-1.8 0.6-0.8 0.7-0.8 1.7 0 0.7 0.5 1.2 0.4 0.5 1.5 1 1.1 0.5 1.5 0.9 0.4 0.3 0.4 0.8 0 0.5-0.4 0.9-0.4 0.3-1 0.3-0.6 0-1-0.3-0.4-0.4-0.4-0.9h-1.2q-0.1 0.1-0.1 0.2 0 0.9 0.8 1.5 0.8 0.6 1.9 0.6 1.1 0 1.9-0.6 0.7-0.7 0.7-1.7 0-0.8-0.4-1.4-0.5-0.6-1.6-1.1l-0.9-0.4q-0.9-0.5-0.9-1.1 0-0.5 0.3-0.8 0.4-0.3 1-0.3 0.6 0 0.9 0.3 0.3 0.3 0.3 0.8h1.2v-0.2q0-0.8-0.7-1.4zm8.9-0.5h-5.8v1.1h2.3v7.2h1.2v-7.2h2.3z"/>
			<path id="fuel-flow" fill-rule="evenodd" class="s8" d="m284 176h87v28h-87zm14.8 8.7h-4.3v8.3h1.2v-3.8h2.5v-1.1h-2.5v-2.3h3.1zm2.6 6.8q0.1 0.5 0.5 0.8 0.7 0.8 2.1 0.8 1.5 0 2.3-0.8 0.3-0.4 0.4-0.8 0.1-0.5 0.1-1.3v-5.5h-1.2v5.5q0 0.6 0 0.8-0.1 0.3-0.3 0.5-0.5 0.5-1.3 0.5-0.8 0-1.2-0.4-0.4-0.4-0.4-1.4v-5.5h-1.2v5.6q0 0.8 0.2 1.2zm13.1-6.8h-5v8.3h5.1v-1.1h-3.9v-2.7h3.3v-1.1h-3.3v-2.3h3.8zm2.8 0v8.3h5.5v-1.1h-4.3v-7.2zm20.7 0h-4.4v8.3h1.2v-3.8h2.5v-1.1h-2.5v-2.3h3.2zm2.8 0v8.4h5.5v-1.2h-4.3v-7.2zm8.1 1.1q-0.8 1.3-0.8 3.1 0 1.9 0.8 3.1 0.8 1.2 2.1 1.2 1.3 0 2.2-1.2 0.8-1.2 0.8-3.1 0-1.8-0.9-3.1-0.8-1.2-2.1-1.2-1.2 0-2.1 1.2zm3.4 0.8q0.5 0.8 0.5 2.2 0 1.6-0.5 2.4-0.5 0.8-1.3 0.8-0.8 0-1.3-0.8-0.4-0.8-0.4-2.3 0-1.6 0.5-2.5 0.4-0.7 1.2-0.7 0.8 0 1.3 0.9zm8.7 6.5q0.4-1.6 0.6-3.6 0.3-2.1 0.3-3.9v-0.9h-1.3v0.6q0 2.5-0.3 5.3v0.4l-1-3.1h-0.9l-0.9 3.1q-0.4-2.6-0.4-5.8v-0.5h-1.3v0.8q0 1.6 0.3 3.8 0.3 2.2 0.6 3.8h1.4l0.8-3 0.7 3z"/>
		</g>
		<g id="warningN2">
			<path id="start-valve-open2" fill-rule="evenodd" class="s8" d="m383 52h87v28h-87zm6.2 2.1q-0.7-0.5-1.7-0.5-1.1 0-1.8 0.6-0.8 0.6-0.8 1.6 0 0.8 0.5 1.3 0.4 0.5 1.5 1 1.1 0.4 1.5 0.8 0.4 0.4 0.4 0.9 0 0.5-0.4 0.8-0.4 0.4-1.1 0.4-0.6 0-0.9-0.4-0.4-0.3-0.5-0.9h-1.2q0 0.2 0 0.3 0 0.9 0.8 1.5 0.8 0.6 1.9 0.6 1.1 0 1.9-0.7 0.7-0.6 0.7-1.6 0-0.8-0.5-1.4-0.4-0.6-1.5-1.1l-1-0.5q-0.8-0.4-0.8-1 0-0.5 0.3-0.8 0.4-0.3 0.9-0.3 0.6 0 1 0.2 0.3 0.3 0.3 0.8h1.2v-0.2q0-0.8-0.7-1.4zm8.9-0.4h-5.8v1.1h2.3v7.2h1.2v-7.2h2.3zm8 8.3l-2.1-8.3h-1.8l-2.3 8.3h1.3l0.6-2.4h2.4l0.5 2.4zm-3-7.3l0.8 3.8h-1.8zm9.6 7.3h1.4l-2.2-3.8q0.8-0.1 1.2-0.7 0.5-0.6 0.5-1.5 0-1.1-0.7-1.7-0.7-0.7-1.9-0.7h-2.6v8.4h1.3v-3.5h1zm-1.9-7.3q1.6 0 1.6 1.4 0 1.3-1.5 1.3h-1.2v-2.7zm10.9-1.1h-5.8v1.1h2.3v7.3h1.2v-7.3h2.3zm9.6 0l2.3 8.4h1.7l2.3-8.4h-1.2l-1.9 7.2-1.9-7.2zm14 8.4l-2.1-8.4h-1.8l-2.2 8.4h1.2l0.6-2.4h2.4l0.6 2.4zm-3.1-7.3l0.9 3.8h-1.8zm4.6-1.1l2.3 8.3h1.7l2.3-8.3h-1.2l-1.9 7.2-1.9-7.2zm8.6 0v8.3h5.5v-1.1h-4.3v-7.2zm12.8 0h-5v8.3h5.2v-1.1h-4v-2.7h3.3v-1.1h-3.3v-2.3h3.8zm-55.6 17.1q-0.8 1.3-0.8 3.1 0 1.9 0.8 3.1 0.8 1.2 2.1 1.2 1.3 0 2.2-1.2 0.8-1.2 0.8-3.1 0-1.8-0.9-3.1-0.8-1.2-2.1-1.2-1.2 0-2.1 1.2zm3.4 0.8q0.5 0.8 0.5 2.2 0 1.6-0.5 2.4-0.5 0.8-1.3 0.8-0.8 0-1.2-0.8-0.5-0.8-0.5-2.3 0-1.6 0.5-2.5 0.4-0.7 1.2-0.7 0.8 0 1.3 0.9zm8.9 2.4q0.8-0.7 0.8-1.8 0-1.1-0.7-1.8-0.4-0.4-0.8-0.5-0.5-0.2-1.2-0.2h-3v8.4h1.3v-3.5h1.6q1.3 0 2-0.6zm-1.9-3.2q1.5 0 1.5 1.4 0 0.6-0.4 0.9-0.4 0.4-1.2 0.4h-1.6v-2.7zm10-1.1h-5v8.4h5.2v-1.2h-4v-2.6h3.3v-1.2h-3.3v-2.3h3.8zm2.4 0v8.4h1.2v-6.4l3 6.4h1.4v-8.4h-1.1v6.2l-3-6.2z"/>
			<path id="oil-filter-bypass2" fill-rule="evenodd" class="s8" d="m383 83h87v28h-87zm6.2 2.8q-0.9 1.2-0.9 3.1 0 1.8 0.9 3 0.8 1.2 2.1 1.2 1.3 0 2.1-1.2 0.8-1.2 0.8-3.1 0-1.8-0.8-3-0.9-1.2-2.1-1.2-1.3 0-2.1 1.2zm3.3 0.7q0.5 0.9 0.5 2.3 0 1.5-0.4 2.3-0.5 0.9-1.3 0.9-0.8 0-1.3-0.8-0.4-0.9-0.4-2.3 0-1.6 0.5-2.5 0.4-0.7 1.2-0.7 0.8 0 1.2 0.8zm8.5-1.8h-3.8v1.1h1.3v6.1h-1.5v1.1h4.2v-1.1h-1.5v-6.1h1.3zm3.6 0v8.3h5.5v-1.1h-4.3v-7.2zm20.6 0h-4.3v8.3h1.2v-3.8h2.5v-1.1h-2.5v-2.3h3.1zm7.1 0h-3.7v1.1h1.2v6.1h-1.5v1.1h4.3v-1.1h-1.6v-6.1h1.3zm3.6 0v8.4h5.5v-1.2h-4.3v-7.2zm13.1 0h-5.8v1.1h2.3v7.3h1.2v-7.3h2.3zm7.6 0h-5v8.4h5.1v-1.1h-3.9v-2.7h3.3v-1.1h-3.3v-2.4h3.8zm6.9 8.4h1.4l-2.2-3.8q0.8-0.1 1.2-0.7 0.5-0.6 0.5-1.4 0-1.2-0.7-1.8-0.7-0.7-1.9-0.7h-2.5v8.4h1.2v-3.5h1zm-1.8-7.2q1.5 0 1.5 1.3 0 1.3-1.5 1.3h-1.1v-2.6zm-52.2 22.5q0.7-0.8 0.7-1.8 0-0.7-0.4-1.2-0.4-0.5-1-0.7 1.2-0.4 1.2-1.6 0-1-0.8-1.7-0.4-0.4-0.9-0.5-0.5-0.1-1.3-0.1h-2.8v8.3h3.3q1.3 0 2-0.7zm-2.4-6.5q0.7 0 1.2 0.3 0.4 0.3 0.4 0.9 0 0.4-0.3 0.8-0.3 0.3-1.2 0.3h-1.8v-2.3zm0.1 3.3q0.9 0 1.3 0.4 0.5 0.4 0.5 1 0 0.7-0.5 1-0.4 0.4-1.2 0.4h-1.9v-2.8zm4.7-4.4l2.4 4.4v3.9h1.2v-3.9l2.4-4.4h-1.4l-1.6 3.1-1.7-3.1zm13.2 4.2q0.8-0.7 0.8-1.8 0-1-0.7-1.7-0.4-0.4-0.8-0.6-0.4-0.1-1.2-0.1h-2.9v8.3h1.2v-3.5h1.6q1.3 0 2-0.6zm-1.9-3.1q1.5 0 1.5 1.3 0 0.6-0.4 1-0.4 0.3-1.1 0.3h-1.7v-2.6zm10.5 7.2l-2.1-8.3h-1.8l-2.3 8.3h1.3l0.6-2.4h2.4l0.5 2.4zm-3-7.3l0.8 3.8h-1.8zm9.7-0.6q-0.7-0.6-1.7-0.6-1.2 0-1.9 0.6-0.7 0.7-0.7 1.7 0 0.7 0.4 1.2 0.5 0.5 1.6 1 1 0.5 1.4 0.9 0.4 0.3 0.4 0.8 0 0.5-0.4 0.9-0.4 0.3-1 0.3-0.6 0-1-0.3-0.4-0.4-0.4-0.9h-1.2q0 0.1 0 0.2 0 0.9 0.7 1.5 0.8 0.6 1.9 0.6 1.2 0 1.9-0.6 0.8-0.7 0.8-1.7 0-0.8-0.5-1.4-0.5-0.5-1.5-1.1l-1-0.4q-0.9-0.5-0.9-1.1 0-0.5 0.4-0.8 0.3-0.3 0.9-0.3 0.6 0 0.9 0.3 0.4 0.3 0.4 0.8h1.2v-0.2q0-0.8-0.7-1.4zm7.8 0q-0.7-0.6-1.7-0.6-1.1 0-1.9 0.6-0.7 0.7-0.7 1.7 0 0.7 0.4 1.2 0.5 0.5 1.6 1 1.1 0.5 1.5 0.9 0.4 0.3 0.4 0.8 0 0.5-0.4 0.9-0.5 0.3-1.1 0.3-0.6 0-1-0.3-0.3-0.4-0.4-0.9h-1.2q0 0.1 0 0.2 0 0.9 0.8 1.5 0.7 0.6 1.8 0.6 1.2 0 1.9-0.6 0.8-0.7 0.8-1.7 0-0.8-0.5-1.4-0.4-0.5-1.5-1.1l-1-0.4q-0.9-0.5-0.9-1.1 0-0.5 0.4-0.8 0.4-0.3 0.9-0.3 0.6 0 1 0.3 0.3 0.3 0.3 0.8h1.2v-0.2q0-0.8-0.7-1.4z"/>
			<path id="low-oil-pressure2" fill-rule="evenodd" class="s8" d="m383 114h87v28h-87zm17.6 1.7v8.3h5.6v-1.1h-4.3v-7.2zm8.1 1.1q-0.9 1.2-0.9 3.1 0 1.8 0.8 3 0.9 1.2 2.2 1.2 1.3 0 2.1-1.2 0.8-1.2 0.8-3.1 0-1.8-0.8-3-0.9-1.2-2.1-1.2-1.3 0-2.1 1.2zm3.3 0.7q0.5 0.9 0.5 2.3 0 1.5-0.5 2.3-0.4 0.9-1.2 0.9-0.9 0-1.3-0.8-0.5-0.9-0.5-2.3 0-1.6 0.6-2.5 0.4-0.7 1.2-0.7 0.8 0 1.2 0.8zm8.7 6.5q0.4-1.5 0.7-3.6 0.2-2 0.2-3.9v-0.8h-1.2v0.6q0 2.4-0.4 5.3v0.4l-0.9-3.1h-1l-0.9 3q-0.4-2.5-0.4-5.8v-0.4h-1.2v0.8q0 1.5 0.2 3.7 0.3 2.2 0.7 3.8h1.3l0.8-3 0.8 3zm11.4-7.2q-0.9 1.2-0.9 3.1 0 1.8 0.9 3 0.8 1.2 2.1 1.2 1.3 0 2.1-1.2 0.8-1.2 0.8-3.1 0-1.8-0.8-3-0.8-1.2-2.1-1.2-1.3 0-2.1 1.2zm3.4 0.7q0.4 0.9 0.4 2.3 0 1.5-0.4 2.3-0.5 0.9-1.3 0.9-0.8 0-1.3-0.8-0.4-0.9-0.4-2.3 0-1.6 0.5-2.5 0.4-0.7 1.2-0.7 0.8 0 1.3 0.8zm8.4-1.8h-3.8v1.1h1.3v6.1h-1.5v1.1h4.2v-1.1h-1.5v-6.1h1.3zm3.6 0v8.3h5.5v-1.1h-4.3v-7.2zm-46.1 20.2q0.7-0.7 0.7-1.8 0-1-0.6-1.7-0.5-0.4-0.9-0.6-0.4-0.1-1.2-0.1h-2.9v8.3h1.2v-3.4h1.6q1.4 0 2.1-0.7zm-2-3.1q1.5 0 1.5 1.3 0 0.6-0.4 1-0.4 0.3-1.1 0.3h-1.7v-2.6zm9.1 7.2h1.5l-2.2-3.7q0.8-0.2 1.2-0.8 0.5-0.5 0.5-1.4 0-1.1-0.7-1.8-0.7-0.6-1.9-0.6h-2.6v8.3h1.3v-3.5h1zm-1.9-7.2q1.6 0 1.6 1.3 0 1.3-1.6 1.3h-1.1v-2.6zm10.7-1.1h-5.1v8.3h5.2v-1.1h-3.9v-2.7h3.3v-1.1h-3.3v-2.3h3.8zm7 0.5q-0.7-0.6-1.7-0.6-1.1 0-1.9 0.6-0.7 0.7-0.7 1.7 0 0.7 0.4 1.2 0.5 0.5 1.6 1 1 0.5 1.4 0.9 0.5 0.3 0.5 0.8 0 0.5-0.5 0.9-0.4 0.3-1 0.3-0.6 0-1-0.3-0.4-0.3-0.4-0.9h-1.2q0 0.1 0 0.2 0 0.9 0.8 1.5 0.7 0.7 1.8 0.7 1.2 0 1.9-0.7 0.8-0.7 0.8-1.7 0-0.8-0.5-1.4-0.4-0.5-1.5-1l-1-0.5q-0.9-0.4-0.9-1.1 0-0.5 0.4-0.8 0.4-0.3 0.9-0.3 0.6 0 0.9 0.3 0.4 0.3 0.4 0.8h1.2v-0.2q0-0.8-0.7-1.4zm7.8 0q-0.7-0.6-1.7-0.6-1.1 0-1.8 0.6-0.8 0.7-0.8 1.7 0 0.7 0.5 1.2 0.4 0.5 1.5 1 1.1 0.5 1.5 0.9 0.4 0.3 0.4 0.8 0 0.5-0.4 0.9-0.4 0.3-1.1 0.3-0.6 0-0.9-0.3-0.4-0.3-0.5-0.9h-1.2q0 0.1 0 0.2 0 0.9 0.8 1.5 0.8 0.7 1.9 0.7 1.1 0 1.9-0.7 0.7-0.7 0.7-1.7 0-0.8-0.4-1.4-0.5-0.5-1.6-1l-1-0.5q-0.8-0.4-0.8-1.1 0-0.5 0.3-0.8 0.4-0.3 0.9-0.3 0.6 0 1 0.3 0.3 0.3 0.3 0.8h1.2v-0.2q0-0.8-0.7-1.4zm3.3 6.4q0.2 0.4 0.5 0.8 0.8 0.8 2.2 0.8 1.5 0 2.2-0.9 0.4-0.3 0.5-0.8 0.1-0.5 0.1-1.3v-5.5h-1.2v5.5q0 0.6-0.1 0.9 0 0.2-0.2 0.4-0.5 0.5-1.3 0.5-0.8 0-1.2-0.4-0.4-0.4-0.4-1.3v-5.6h-1.2v5.7q0 0.7 0.1 1.2zm12.2 1.5h1.5l-2.2-3.8q0.8-0.1 1.2-0.7 0.5-0.6 0.5-1.5 0-1.1-0.7-1.7-0.7-0.7-1.9-0.7h-2.6v8.4h1.3v-3.5h1zm-1.9-7.3q1.6 0 1.6 1.4 0 1.3-1.6 1.3h-1.1v-2.7zm10.7-1.1h-5.1v8.4h5.2v-1.1h-3.9v-2.7h3.3v-1.1h-3.3v-2.4h3.8z"/>
			<path id="thrust2" fill-rule="evenodd" class="s8" d="m383 145h87v28h-87zm26.8 8.7h-5.7v1.1h2.2v7.2h1.2v-7.2h2.3zm7.6 8.3v-8.3h-1.2v3.4h-2.9v-3.4h-1.2v8.3h1.2v-3.7h2.9v3.7zm6.9 0h1.4l-2.2-3.7q0.8-0.2 1.3-0.8 0.4-0.5 0.4-1.4 0-1.1-0.7-1.8-0.7-0.6-1.9-0.6h-2.5v8.3h1.2v-3.5h1.1zm-1.9-7.2q1.6 0 1.6 1.3 0 1.3-1.6 1.3h-1.1v-2.6zm5.3 5.7q0.1 0.5 0.5 0.9 0.8 0.7 2.1 0.7 1.6 0 2.3-0.8 0.3-0.4 0.5-0.8 0.1-0.5 0.1-1.3v-5.5h-1.2v5.5q0 0.6-0.1 0.8-0.1 0.3-0.3 0.5-0.4 0.5-1.2 0.5-0.9 0-1.3-0.4-0.3-0.4-0.3-1.3v-5.6h-1.3v5.6q0 0.8 0.2 1.2zm12.3-6.3q-0.7-0.6-1.7-0.6-1.1 0-1.8 0.6-0.8 0.7-0.8 1.7 0 0.7 0.5 1.2 0.4 0.5 1.5 1 1.1 0.5 1.5 0.9 0.4 0.3 0.4 0.8 0 0.5-0.4 0.9-0.4 0.3-1 0.3-0.6 0-1-0.3-0.4-0.4-0.4-0.9h-1.2q-0.1 0.1-0.1 0.2 0 0.9 0.8 1.5 0.8 0.6 1.9 0.6 1.1 0 1.9-0.6 0.7-0.7 0.7-1.7 0-0.8-0.4-1.4-0.5-0.6-1.6-1.1l-0.9-0.4q-0.9-0.5-0.9-1.1 0-0.5 0.3-0.8 0.4-0.3 1-0.3 0.6 0 0.9 0.3 0.3 0.3 0.3 0.8h1.2v-0.2q0-0.8-0.7-1.4zm8.9-0.5h-5.8v1.1h2.3v7.2h1.2v-7.2h2.3z"/>
			<path id="fuel-flow2" fill-rule="evenodd" class="s8" d="m383 176h87v28h-87zm14.8 8.7h-4.3v8.3h1.2v-3.8h2.5v-1.1h-2.5v-2.3h3.1zm2.6 6.8q0.1 0.5 0.5 0.8 0.7 0.8 2.1 0.8 1.5 0 2.3-0.8 0.3-0.4 0.4-0.8 0.1-0.5 0.1-1.3v-5.5h-1.2v5.5q0 0.6 0 0.8-0.1 0.3-0.3 0.5-0.5 0.5-1.3 0.5-0.8 0-1.2-0.4-0.4-0.4-0.4-1.4v-5.5h-1.2v5.6q0 0.8 0.2 1.2zm13.1-6.8h-5v8.3h5.1v-1.1h-3.9v-2.7h3.3v-1.1h-3.3v-2.3h3.8zm2.8 0v8.3h5.5v-1.1h-4.3v-7.2zm20.7 0h-4.4v8.3h1.2v-3.8h2.5v-1.1h-2.5v-2.3h3.2zm2.8 0v8.4h5.5v-1.2h-4.3v-7.2zm8.1 1.1q-0.8 1.3-0.8 3.1 0 1.9 0.8 3.1 0.8 1.2 2.1 1.2 1.3 0 2.2-1.2 0.8-1.2 0.8-3.1 0-1.8-0.9-3.1-0.8-1.2-2.1-1.2-1.2 0-2.1 1.2zm3.4 0.8q0.5 0.8 0.5 2.2 0 1.6-0.5 2.4-0.5 0.8-1.3 0.8-0.8 0-1.3-0.8-0.4-0.8-0.4-2.3 0-1.6 0.5-2.5 0.4-0.7 1.2-0.7 0.8 0 1.3 0.9zm8.7 6.5q0.4-1.6 0.6-3.6 0.3-2.1 0.3-3.9v-0.9h-1.3v0.6q0 2.5-0.3 5.3v0.4l-1-3.1h-0.9l-0.9 3.1q-0.4-2.6-0.4-5.8v-0.5h-1.3v0.8q0 1.6 0.3 3.8 0.3 2.2 0.6 3.8h1.4l0.8-3 0.7 3z"/>
		</g>
	</g>
	<g id="N2">
		<path id="Shape 12" fill-rule="evenodd" class="s1" d="m195 267h69v27h-69zm3 24h63v-21h-63zm-128-24h69v27h-69zm3 24h63v-21h-63z"/>
		<path id="Shape 11" class="s9" d="m159.8 276.9l-10.5-5.1 1.8-3.8 10.5 5zm-125 0l-10.5-5 1.9-3.9 10.5 5.1z"/>
		<path id="n2-dial2" class="s1" d="m195 296c0-1.1 0.9-2 2-2h43c1.1 0 2 0.9 2 2 0 1.1-0.9 2-2 2h-43c-1.1 0-2-0.9-2-2z"/>
		<text id="n2-text2" style="transform: matrix(.762,0,0,1,185,271)" >
			<tspan x="15.7" y="19.3" class="t10">1</tspan><tspan  y="19.3" class="t10">0</tspan><tspan  y="19.3" class="t10">0</tspan><tspan  y="19.3" class="t10">.</tspan><tspan  y="19.3" class="t10">0</tspan><tspan  y="19.3" class="t10">
</tspan>
		</text>
		<path id="n2-dial1" class="s1" d="m70 296c0-1.1 0.9-2 2-2h43c1.1 0 2 0.9 2 2 0 1.1-0.9 2-2 2h-43c-1.1 0-2-0.9-2-2z"/>
		<text id="n2-text1" style="transform: matrix(.762,0,0,1,60,271)" >
			<tspan x="15.7" y="19.3" class="t10">1</tspan><tspan  y="19.3" class="t10">0</tspan><tspan  y="19.3" class="t10">0</tspan><tspan  y="19.3" class="t10">.</tspan><tspan  y="19.3" class="t10">0</tspan><tspan  y="19.3" class="t10">
</tspan>
		</text>
		<path id="Shape 10" class="s1" d="m197 340c-24.9 0-45-20.1-45-45 0-7.1 1.6-13.7 4.5-19.7l2.7 1.3c-2.7 5.6-4.2 11.8-4.2 18.4 0 23.2 18.8 42 42 42 22.9 0 41.5-18.2 42-41h3c-0.5 24.4-20.4 44-45 44zm-125 0c-24.9 0-45-20.1-45-45 0-7.1 1.6-13.7 4.5-19.7l2.7 1.3c-2.7 5.6-4.2 11.8-4.2 18.4 0 23.2 18.8 42 42 42 22.9 0 41.5-18.2 42-41h3c-0.5 24.4-20.4 44-45 44z"/>
		<path id="motoring1" fill-rule="evenodd" class="s1" d="m37.1 301.7l1.2 4 1.2-4h2.4v10.3h-1.5v-8.7l-1.5 5.3h-1.2l-1.5-5.3v8.7h-1.5v-10.3zm10.9-0.1q1.5 0 2.5 1.5 1.1 1.5 1.1 3.7 0 2.4-1 3.9-1 1.4-2.7 1.4-1.5 0-2.6-1.4-1-1.5-1-3.8 0-2.3 1.1-3.8 1-1.5 2.6-1.5zm0 1.4q-1 0-1.5 0.9-0.7 1.1-0.7 3 0 1.8 0.6 2.8 0.5 1.1 1.5 1.1 1 0 1.6-1.1 0.6-1 0.6-2.9 0-1.7-0.6-2.8-0.6-1-1.5-1zm13.1 0.1h-2.8v8.9h-1.5v-8.9h-2.8v-1.4h7.1zm6.1-1.5q1.6 0 2.6 1.5 1.1 1.5 1.1 3.8 0 2.3-1.1 3.8-1 1.5-2.6 1.5-1.6 0-2.6-1.5-1-1.5-1-3.7 0-2.3 1-3.8 1.1-1.6 2.6-1.6zm0 1.4q-1 0-1.5 0.9-0.6 1.1-0.6 3.1 0 1.8 0.5 2.8 0.6 1 1.6 1 1 0 1.6-1.1 0.5-1 0.5-2.8 0-1.8-0.5-2.9-0.6-1-1.6-1zm9.4 4.7h-1.3v4.3h-1.5v-10.2h3.1q1.5 0 2.3 0.8 0.9 0.8 0.9 2.1 0 1.1-0.6 1.8-0.5 0.7-1.5 0.9l2.7 4.6h-1.7zm-1.4-4.6v3.2h1.4q2 0 2-1.6 0-1.6-2-1.6zm13.5 0h-1.6v7.5h1.9v1.4h-5.2v-1.4h1.8v-7.5h-1.5v-1.4h4.6zm5.7-1.3l3.7 7.5v-7.5h1.4v10.2h-1.7l-3.8-7.9v7.9h-1.4v-10.2zm13.1 8.7v-2.6h-2.1v-1.3h3.6v5q-1.5 0.6-2.9 0.6-1.9 0-3-1.4-1-1.4-1-3.9 0-1.7 0.4-2.6 0.3-1 1.1-1.8 1.1-0.9 2.7-0.9 1.2 0 1.9 0.7 0.4 0.3 0.6 0.7 0.3 0.4 0.3 0.7 0 0-0.1 0.1h-1.5q-0.2-0.8-1.2-0.8-1.3 0-2 0.9-0.7 1-0.7 2.9 0 4 2.7 4 0.6 0 1.2-0.3z"/>
		<path id="motoring2" fill-rule="evenodd" class="s1" d="m162.1 301.7l1.2 4 1.2-4h2.4v10.3h-1.5v-8.7l-1.5 5.3h-1.2l-1.5-5.3v8.7h-1.5v-10.3zm10.9-0.1q1.5 0 2.5 1.5 1.1 1.5 1.1 3.7 0 2.4-1 3.9-1 1.4-2.7 1.4-1.5 0-2.6-1.4-1-1.5-1-3.8 0-2.3 1.1-3.8 1-1.5 2.6-1.5zm0 1.4q-1 0-1.5 0.9-0.7 1.1-0.7 3 0 1.8 0.6 2.8 0.5 1.1 1.5 1.1 1 0 1.6-1.1 0.6-1 0.6-2.9 0-1.7-0.6-2.8-0.6-1-1.5-1zm13.1 0.1h-2.8v8.9h-1.5v-8.9h-2.8v-1.4h7.1zm6.1-1.5q1.6 0 2.6 1.5 1.1 1.5 1.1 3.8 0 2.3-1.1 3.8-1 1.5-2.6 1.5-1.6 0-2.6-1.5-1-1.5-1-3.7 0-2.3 1-3.8 1.1-1.6 2.6-1.6zm0 1.4q-1 0-1.5 0.9-0.6 1.1-0.6 3.1 0 1.8 0.5 2.8 0.6 1 1.6 1 1 0 1.6-1.1 0.5-1 0.5-2.8 0-1.8-0.5-2.9-0.6-1-1.6-1zm9.4 4.7h-1.3v4.3h-1.5v-10.2h3.1q1.5 0 2.3 0.8 0.9 0.8 0.9 2.1 0 1.1-0.6 1.8-0.5 0.7-1.5 0.9l2.7 4.6h-1.7zm-1.3-4.6v3.2h1.3q2 0 2-1.6 0-1.6-2-1.6zm13.5 0h-1.6v7.5h1.9v1.4h-5.2v-1.4h1.8v-7.5h-1.5v-1.4h4.6zm5.7-1.3l3.7 7.5v-7.5h1.4v10.2h-1.7l-3.8-7.9v7.9h-1.4v-10.2zm13.1 8.7v-2.6h-2.1v-1.3h3.6v5q-1.5 0.6-2.9 0.6-1.9 0-3-1.4-1-1.4-1-3.9 0-1.7 0.4-2.6 0.3-1 1.1-1.8 1.1-0.9 2.7-0.9 1.2 0 1.9 0.7 0.4 0.3 0.6 0.7 0.3 0.4 0.3 0.7 0 0-0.1 0.1h-1.5q-0.2-0.8-1.2-0.8-1.3 0-2 0.9-0.7 1-0.7 2.9 0 4 2.7 4 0.6 0 1.2-0.3z"/>
	</g>
	<g id="egt">
		<path id="Shape 12" fill-rule="evenodd" class="s1" d="m195 166h56v27h-56zm3 24h50v-21h-50zm-128-24h56v27h-56zm3 24h50v-21h-50z"/>
		<path id="Shape 11" class="s9" d="m159.8 176.9l-10.5-5.1 1.8-3.8 10.5 5zm-125 0l-10.5-5 1.9-3.9 10.5 5.1z"/>
		<path id="Shape 11 copy 3" class="s11" d="m32.8 179.9l-8.7-4.2 1.5-3.2 8.7 4.2zm125 0l-8.7-4.2 1.5-3.1 8.7 4.2z"/>
		<path id="egt-dial2" class="s1" d="m195 196c0-1.1 0.9-2 2-2h43c1.1 0 2 0.9 2 2 0 1.1-0.9 2-2 2h-43c-1.1 0-2-0.9-2-2z"/>
		<text id="egt-text2" style="transform: matrix(.762,0,0,1,172,170)" >
			<tspan x="49.4" y="19.3" class="t10">9</tspan><tspan  y="19.3" class="t10">9</tspan><tspan  y="19.3" class="t10">9
</tspan>
		</text>
		<path id="egt-dial1" class="s1" d="m70 196c0-1.1 0.9-2 2-2h43c1.1 0 2 0.9 2 2 0 1.1-0.9 2-2 2h-43c-1.1 0-2-0.9-2-2z"/>
		<text id="egt-text1" style="transform: matrix(.762,0,0,1,47,170)" >
			<tspan x="49.4" y="19.3" class="t10">9</tspan><tspan  y="19.3" class="t10">9</tspan><tspan  y="19.3" class="t10">9
</tspan>
		</text>
		<path id="Shape 10" class="s1" d="m197 240c-24.9 0-45-20.1-45-45 0-7.1 1.6-13.7 4.5-19.7l2.7 1.3c-2.7 5.6-4.2 11.8-4.2 18.4 0 23.2 18.8 42 42 42 22.9 0 41.5-18.2 42-41h3c-0.5 24.4-20.4 44-45 44zm-125 0c-24.9 0-45-20.1-45-45 0-7.1 1.6-13.7 4.5-19.7l2.7 1.3c-2.7 5.6-4.2 11.8-4.2 18.4 0 23.2 18.8 42 42 42 22.9 0 41.5-18.2 42-41h3c-0.5 24.4-20.4 44-45 44z"/>
	</g>
	<g id="N1">
		<path id="Shape 12" fill-rule="evenodd" class="s1" d="m195 74h69v27h-69zm3 24h63v-21h-63zm-128-24h69v27h-69zm3 24h63v-21h-63z"/>
		<path id="Shape 11" class="s9" d="m159.8 86.9l-10.5-5.1 1.8-3.8 10.5 5zm-125 0l-10.5-5 1.9-3.9 10.5 5.1z"/>
		<path id="egt-dial2" class="s1" d="m195 106c0-1.1 0.9-2 2-2h43c1.1 0 2 0.9 2 2 0 1.1-0.9 2-2 2h-43c-1.1 0-2-0.9-2-2z"/>
		<text id="egt-text2" style="transform: matrix(.762,0,0,1,185,78)" >
			<tspan x="15.7" y="19.3" class="t10">1</tspan><tspan  y="19.3" class="t10">0</tspan><tspan  y="19.3" class="t10">0</tspan><tspan  y="19.3" class="t10">.</tspan><tspan  y="19.3" class="t10">0
</tspan>
		</text>
		<path id="egt-dial1" class="s1" d="m70 106c0-1.1 0.9-2 2-2h43c1.1 0 2 0.9 2 2 0 1.1-0.9 2-2 2h-43c-1.1 0-2-0.9-2-2z"/>
		<text id="egt-text1" style="transform: matrix(.762,0,0,1,60,78)" >
			<tspan x="15.7" y="19.3" class="t10">1</tspan><tspan  y="19.3" class="t10">0</tspan><tspan  y="19.3" class="t10">0</tspan><tspan  y="19.3" class="t10">.</tspan><tspan  y="19.3" class="t10">0
</tspan>
		</text>
		<path id="Shape 13" fill-rule="evenodd" class="s1" d="m114 107c-0.2 4.3-1.1 8.4-2.5 12.3l-5.3-1.9-0.7 1.8 5.3 2c-1.6 3.9-3.8 7.4-6.5 10.6l-4.1-3.4-1.3 1.5 4.1 3.4c-2.8 3.1-6 5.7-9.6 7.8l-2.5-4.4-1.8 1 2.6 4.4c-3.6 1.9-7.5 3.3-11.6 4.1l-0.9-4.9-1.9 0.3 0.8 5q-3 0.4-6.1 0.4-3.1 0-6.1-0.4l0.8-5-1.9-0.3-0.9 4.9c-4.1-0.8-8-2.2-11.6-4.1l2.6-4.4-1.8-1-2.5 4.4c-3.6-2.1-6.8-4.7-9.6-7.8l4.1-3.4-1.3-1.5-4.1 3.4c-2.7-3.2-4.9-6.7-6.5-10.6l5.3-1.9-0.7-1.9-5.3 1.9c-1.4-3.9-2.3-8-2.5-12.3h6v-2h-6q0 0 0 0c0-6.6 1.5-12.8 4.2-18.4l-2.7-1.3c-2.9 6-4.5 12.6-4.5 19.7 0 24.9 20.1 45 45 45 24.6 0 44.5-19.6 45-44h-9v1zm-75.4-14.3l-0.7 1.9-5.7-2 0.7-1.9zm194.5 14.2v-1h9c-0.5 24.5-20.4 44-45 44-24.9 0-45-20.1-45-45 0-7 1.6-13.7 4.5-19.6l2.7 1.3c-2.7 5.5-4.2 11.8-4.2 18.3q0 0.1 0 0.1h6v2h-5.9c0.2 4.3 1 8.4 2.4 12.3l5.3-2 0.7 1.9-5.3 1.9c1.6 3.9 3.8 7.5 6.5 10.7l4.1-3.5 1.3 1.6-4.1 3.4c2.8 3 6 5.7 9.6 7.8l2.5-4.5 1.8 1-2.6 4.5c3.6 1.9 7.5 3.3 11.6 4.1l0.9-5 1.9 0.4-0.8 4.9q3 0.4 6.1 0.4 3.1 0 6.1-0.4l-0.8-4.9 1.9-0.4 0.9 5c4.1-0.8 8-2.2 11.6-4.1l-2.5-4.5 1.7-1 2.6 4.5c3.5-2.1 6.7-4.8 9.5-7.8l-4.1-3.4 1.3-1.6 4.1 3.5c2.7-3.2 4.9-6.8 6.5-10.7l-5.3-1.9 0.7-1.9 5.3 2c1.4-3.9 2.3-8 2.5-12.4zm-69.5-14.2l-0.7 1.9-5.6-2.1 0.6-1.9z"/>
		<path id="throttle-n1" class="s12" d="m15 100l9 6-9 6"/>
		<path id="throttle-n2" class="s12" d="m140 100l9 6-9 6"/>
		<text id="n1-text" style="transform: matrix(.776,0,0,1,91.224,58)" >
			<tspan x=".4" y="14.5" class="t13">9</tspan><tspan  y="14.5" class="t13">0</tspan><tspan  y="14.5" class="t13">.</tspan><tspan  y="14.5" class="t13">0
</tspan>
		</text>
		<text id="n2-text" style="transform: matrix(.776,0,0,1,216.224,58)" >
			<tspan x=".4" y="14.5" class="t13">9</tspan><tspan  y="14.5" class="t13">0</tspan><tspan  y="14.5" class="t13">.</tspan><tspan  y="14.5" class="t13">0
</tspan>
		</text>
	</g>
	<g id="oil">
		<path id="vib-meter1" class="s1" d="m111 681l-13-4 13-4z"/>
		<path id="vib-meter2" class="s1" d="m156 673l13 4-13 4z"/>
		<path id="oil-temp-meter1" class="s1" d="m111 566l-13-4 13-4z"/>
		<path id="oil-temp-meter2" class="s1" d="m156 558l13 4-13 4z"/>
		<path id="oil-press-meter1" class="s1" d="m111 479l-13-4 13-4z"/>
		<path id="oil-press-meter2" class="s1" d="m156 471l13 4-13 4z"/>
		<text id="vib2" style="transform: matrix(.784,0,0,1,179.216,641)" >
			<tspan x="0" y="15.2" class="t6">9</tspan><tspan  y="15.2" class="t6">.</tspan><tspan  y="15.2" class="t6">9
</tspan>
		</text>
		<text id="vib1" style="transform: matrix(.784,0,0,1,57.216,641)" >
			<tspan x="0" y="15.2" class="t6">9</tspan><tspan  y="15.2" class="t6">.</tspan><tspan  y="15.2" class="t6">9
</tspan>
		</text>
		<text id="oil-qty2" style="transform: matrix(.784,0,0,1,179.216,575)" >
			<tspan x="0" y="15.2" class="t6">9</tspan><tspan  y="15.2" class="t6">9</tspan><tspan  y="15.2" class="t6">9
</tspan>
		</text>
		<text id="oil-qty1" style="transform: matrix(.784,0,0,1,57.216,575)" >
			<tspan x="0" y="15.2" class="t6">9</tspan><tspan  y="15.2" class="t6">9</tspan><tspan  y="15.2" class="t6">9
</tspan>
		</text>
		<text id="oil-temp2" style="transform: matrix(.784,0,0,1,179.216,526)" >
			<tspan x="0" y="15.2" class="t6">9</tspan><tspan  y="15.2" class="t6">9</tspan><tspan  y="15.2" class="t6">9
</tspan>
		</text>
		<text id="oil-temp1" style="transform: matrix(.784,0,0,1,57.216,526)" >
			<tspan x="0" y="15.2" class="t6">9</tspan><tspan  y="15.2" class="t6">9</tspan><tspan  y="15.2" class="t6">9
</tspan>
		</text>
		<text id="oil-press2" style="transform: matrix(.784,0,0,1,179.216,441)" >
			<tspan x="0" y="15.2" class="t6">9</tspan><tspan  y="15.2" class="t6">9</tspan><tspan  y="15.2" class="t6">9
</tspan>
		</text>
		<text id="oil-press1" style="transform: matrix(.784,0,0,1,57.216,441)" >
			<tspan x="0" y="15.2" class="t6">9</tspan><tspan  y="15.2" class="t6">9</tspan><tspan  y="15.2" class="t6">9
</tspan>
		</text>
		<path id="Shape 18" fill-rule="evenodd" class="s1" d="m177 638h35v21h-35zm2 19h31v-17h-31zm-124-19h35v21h-35zm2 19h31v-17h-31zm120-85h35v21h-35zm2 19h31v-17h-31zm-124-19h35v21h-35zm2 19h31v-17h-31zm120-68h35v21h-35zm2 19h31v-17h-31zm-124-19h35v21h-35zm2 19h31v-17h-31zm120-104h35v21h-35zm2 19h31v-17h-31zm-124-19h35v21h-35zm2 19h31v-17h-31z"/>
		<path id="Shape 14" class="s1" d="m94 620h3v11h3v3h-3v43h-3zm79 57h-3v-43h-3v-3h3v-11h3zm-3-172h3v57h-3zm-76 0h3v57h-3zm76-84h3v57h-3zm-76 0h3v57h-3z"/>
		<path id="Shape 16" class="s9" d="m163 505h13v3h-13zm-72 0h13v3h-13zm72-30h13v3h-13zm-72 0h13v3h-13z"/>
		<path id="Shape 17" class="s14" d="m167 508h6v3h-6zm-73 0h6v3h-6zm73-45h6v3h-6zm-73 0h6v3h-6z"/>
	</g>
	<g id="FF">
		<text id="fuel-flow2" style="transform: matrix(.712,0,0,1,27.606,368)" >
			<tspan x="13.2" y="20" class="t15">1</tspan><tspan  y="20" class="t15">.</tspan><tspan  y="20" class="t15">1</tspan><tspan  y="20" class="t15">6
</tspan>
		</text>
		<text id="fuel-flow1" style="transform: matrix(.712,0,0,1,169.606,368)" >
			<tspan x="13.2" y="20" class="t15">1</tspan><tspan  y="20" class="t15">.</tspan><tspan  y="20" class="t15">1</tspan><tspan  y="20" class="t15">6
</tspan>
		</text>
		<path id="Shape 19" fill-rule="evenodd" class="s1" d="m36 365h53v26h-53zm2 24h49v-22h-49zm140-24h53v26h-53zm2 24h49v-22h-49z"/>
	</g>
	<path id="N" fill-rule="evenodd" class="s2" d="m128.7 328.4l4.1 8.5v-8.5h1.5v11.6h-1.8l-4.3-8.9v8.9h-1.5v-11.6zm8.4 14v0.2h5v1.4h-6.5q-0.1-0.6-0.1-0.9 0-1.5 0.5-2.4 0.3-0.7 0.9-1.3 0.6-0.5 1.7-1.2 1.2-0.8 1.7-1.3 0.4-0.5 0.4-1.1 0-0.6-0.5-1.2-0.6-0.5-1.3-0.5-1.5 0-3.2 1.2v-1.7q1.3-0.9 3-0.9 1.6 0 2.6 0.9 0.9 0.8 0.9 2.2 0 1-0.5 1.7-0.3 0.5-0.7 0.8-0.4 0.3-1.7 1.2-1.2 0.8-1.7 1.4-0.5 0.7-0.5 1.5zm-8.2-114.4h-3.7v3.2h3.2v1.6h-3.2v3.7h3.9v1.5h-5v-11.6h4.8zm6.5 8.4v-3h-1.7v-1.5h2.9v5.6q-1.2 0.7-2.3 0.7-1.5 0-2.3-1.5-0.8-1.6-0.8-4.4 0-1.9 0.2-3 0.3-1.1 0.9-1.9 0.9-1 2.1-1 1 0 1.6 0.7 0.2 0.3 0.4 0.8 0.2 0.4 0.2 0.7 0 0.1 0 0.2h-1.2q-0.2-0.9-0.9-0.9-1.1 0-1.6 1.1-0.6 1-0.6 3.2 0 4.4 2.1 4.4 0.5 0 1-0.2zm8.9-8.4h-2.2v10.1h-1.2v-10.1h-2.2v-1.5h5.6zm-15.6-89.6l4.1 8.5v-8.5h1.5v11.6h-1.9l-4.2-8.9v8.9h-1.6v-11.6zm10.2 15.6v-9.3l-2.8 2.4v-1.9l2.7-2.2h1.6v11zm-14.9 488.4l1.8 10 1.7-10h1.2l-2.1 11.6h-1.7l-2.1-11.6zm10.8 1.6h-1.1v8.5h1.4v1.5h-4v-1.5h1.4v-8.5h-1.2v-1.6h3.5zm6 10.1h-3.1v-11.6h2.7q0.7 0 1.2 0.2 0.5 0.2 0.8 0.6 0.7 1 0.7 2.4 0 1.7-1 2.3 0.5 0.2 0.9 0.9 0.3 0.7 0.3 1.6 0 1.5-0.6 2.5-0.7 1.1-1.9 1.1zm-1.9-10.1v3.2h1.7q0.8 0 1.1-0.4 0.3-0.5 0.3-1.1 0-0.7-0.4-1.2-0.5-0.5-1.2-0.5zm0 4.7v3.8h1.8q0.7 0 1.1-0.5 0.4-0.5 0.4-1.4 0-0.8-0.4-1.4-0.3-0.5-1.2-0.5zm-34.9-70.3q1.1 0 1.9 1.7 0.8 1.7 0.8 4.1 0 2.7-0.8 4.3-0.7 1.7-2 1.7-1.2 0-1.9-1.6-0.8-1.7-0.8-4.2 0-2.6 0.8-4.3 0.8-1.7 2-1.7zm0 1.5q-0.8 0-1.2 1-0.5 1.2-0.5 3.5 0 2 0.5 3.1 0.4 1.2 1.1 1.2 0.8 0 1.2-1.2 0.5-1.2 0.5-3.3 0-1.9-0.5-3.1-0.4-1.2-1.1-1.2zm9 0.1h-1.2v8.5h1.4v1.6h-3.9v-1.6h1.4v-8.5h-1.2v-1.5h3.5zm4.5-1.5v10h4v1.5h-5.2v-11.5zm17.6 8.9l1.3 2.6h-1.4l-0.7-1.3q-0.5 0.7-1.3 0.7-0.9 0-1.6-0.9-0.6-0.8-0.8-1.9-0.3-1.1-0.3-2.8 0-2.5 0.7-4 0.7-1.5 1.9-1.5 0.9 0 1.6 1 1.1 1.4 1.1 4.6 0 2.3-0.5 3.5zm-1.6-3l0.8 1.5q0.2-0.8 0.2-2 0-1.9-0.4-3-0.4-1-1.1-1-0.7 0-1.1 0.8-0.4 1.1-0.4 3 0 2 0.4 3.1 0.4 1 1.1 1 0.4 0 0.7-0.4l-1.6-3zm9.7-4.4h-2.1v10h-1.1v-10h-2.1v-1.5h5.3zm3.1-1.6l1.5 4.4 1.6-4.4h1.2l-2.2 6.2v5.4h-1.1v-5.4l-2.3-6.2zm14.9-0.6q0.5 0 0.9 0.6 0.3 0.6 0.3 1.4 0 0.9-0.3 1.5-0.4 0.6-1 0.6-0.5 0-0.9-0.6-0.3-0.6-0.3-1.4 0-0.9 0.3-1.5 0.4-0.6 1-0.6zm-1.3 11.3l4.6-11.3h0.5v0.9l-4.4 11.3h-0.7zm1.7-8.9v-0.7q0-0.7-0.5-0.7-0.4 0-0.4 0.7v0.6q0 0.8 0.5 0.8 0.4 0 0.4-0.7zm2.2 5.7q0.6 0 0.9 0.6 0.4 0.6 0.4 1.4 0 0.9-0.4 1.5-0.4 0.5-0.9 0.5-0.6 0-0.9-0.5-0.4-0.6-0.4-1.5 0-0.8 0.4-1.4 0.3-0.6 0.9-0.6zm0.5 2.3v-0.6q0-0.7-0.5-0.7-0.5 0-0.5 0.7v0.6q0 0.4 0.1 0.6 0.2 0.2 0.4 0.2 0.5 0 0.5-0.8zm-38.3-67.9q1.1 0 1.9 1.7 0.8 1.7 0.8 4.2 0 2.6-0.7 4.3-0.8 1.6-2 1.6-1.2 0-2-1.6-0.8-1.7-0.8-4.2 0-2.6 0.8-4.3 0.8-1.7 2-1.7zm0 1.5q-0.8 0-1.2 1-0.4 1.3-0.4 3.5 0 2 0.4 3.1 0.4 1.2 1.2 1.2 0.7 0 1.2-1.2 0.4-1.2 0.4-3.2 0-2-0.5-3.2-0.4-1.2-1.1-1.2zm9 0.2h-1.2v8.4h1.5v1.6h-4v-1.6h1.4v-8.4h-1.2v-1.6h3.5zm4.5-1.5v10h4v1.5h-5.2v-11.5zm-14.4 14.5h-2.2v10h-1.1v-10h-2.1v-1.5h5.4zm7 0h-3.5v3.2h3.1v1.5h-3.1v3.7h3.7v1.6h-4.8v-11.6h4.6zm3.9-1.5l1 4.5 0.9-4.5h1.8v11.5h-1.1v-9.8l-1.1 6.1h-1l-1.1-6.1v9.8h-1.2v-11.5zm8.6 6.7h-1.5v4.8h-1.2v-11.5h2.8q0.7 0 1.1 0.2 0.4 0.2 0.8 0.7 0.6 1 0.6 2.5 0 1.5-0.7 2.5-0.7 0.8-1.9 0.8zm-1.5-5.2v3.7h1.5q0.7 0 1.1-0.5 0.4-0.5 0.4-1.3 0-1.9-1.4-1.9zm-17.1-98.7q1.2 0 2 1.7 0.8 1.7 0.8 4.2 0 2.7-0.8 4.3-0.8 1.7-2 1.7-1.2 0-2-1.7-0.7-1.6-0.7-4.2 0-2.5 0.7-4.3 0.8-1.7 2-1.7zm0 1.6q-0.7 0-1.1 1-0.5 1.2-0.5 3.4 0 2.1 0.4 3.2 0.4 1.1 1.2 1.1 0.8 0 1.2-1.1 0.4-1.2 0.4-3.3 0-2-0.4-3.1-0.4-1.2-1.2-1.2zm9 0.1h-1.1v8.5h1.4v1.5h-4v-1.5h1.4v-8.5h-1.2v-1.5h3.5zm4.5-1.6v10h4v1.6h-5.1v-11.6zm-20.5 19.8h-1.5v4.8h-1.2v-11.6h2.8q0.7 0 1.1 0.2 0.4 0.2 0.8 0.8 0.6 1 0.6 2.5 0 1.4-0.7 2.4-0.7 0.9-1.9 0.9zm-1.5-5.2v3.6h1.5q0.7 0 1.1-0.4 0.4-0.5 0.4-1.4 0-1.8-1.5-1.8zm8.3 5.2h-0.9v4.8h-1.2v-11.6h2.4q1.1 0 1.7 0.9 0.7 0.9 0.7 2.5 0 1.2-0.4 2-0.4 0.8-1.2 1l2.1 5.2h-1.4zm-0.9-5.2v3.6h1q1.5 0 1.5-1.8 0-1.8-1.5-1.8zm10.9 0h-3.5v3.2h3.1v1.6h-3.1v3.7h3.7v1.5h-4.8v-11.6h4.6zm7.3 1.1v0.3h-1.2q0-0.7-0.3-1.1-0.3-0.4-0.9-0.4-0.5 0-0.8 0.4-0.4 0.4-0.4 1.1 0 0.9 0.9 1.5l0.9 0.6q1 0.8 1.4 1.5 0.4 0.8 0.4 2 0 1.4-0.7 2.3-0.7 0.9-1.7 0.9-1.1 0-1.8-0.9-0.7-0.8-0.7-2.1 0-0.1 0-0.3h1.1q0.1 0.8 0.4 1.3 0.4 0.4 1 0.4 0.5 0 0.9-0.4 0.4-0.5 0.4-1.2 0-0.7-0.4-1.2-0.4-0.5-1.3-1.2-1.1-0.7-1.5-1.3-0.4-0.7-0.4-1.8 0-1.4 0.7-2.3 0.7-0.8 1.7-0.8 0.9 0 1.6 0.8 0.7 0.8 0.7 1.9zm7.3 0v0.3h-1.2q0-0.7-0.3-1.1-0.3-0.4-0.9-0.4-0.5 0-0.8 0.4-0.4 0.4-0.4 1.1 0 0.9 0.9 1.5l0.9 0.6q1 0.8 1.4 1.5 0.4 0.8 0.4 2 0 1.4-0.7 2.3-0.7 0.9-1.7 0.9-1.1 0-1.8-0.9-0.7-0.8-0.7-2.1 0-0.1 0-0.3h1.1q0.1 0.8 0.4 1.3 0.4 0.4 1 0.4 0.5 0 0.9-0.4 0.4-0.5 0.4-1.2 0-0.7-0.4-1.2-0.4-0.5-1.3-1.2-1.1-0.7-1.5-1.3-0.4-0.7-0.4-1.8 0-1.4 0.7-2.3 0.7-0.8 1.7-0.8 0.9 0 1.6 0.8 0.7 0.8 0.7 1.9zm-18.2-78.1h-3v3.2h2.4v1.6h-2.4v5.3h-1.1v-11.6h4.1zm7.3 0h-3v3.2h2.4v1.5h-2.4v5.3h-1.1v-11.6h4.1z"/>
</svg>