<?xml version="1.0" encoding="UTF-8" standalone="no"?>
<svg
   version="1.2"
   viewBox="0 0 484 716"
   width="1024"
   height="1515"
   id="svg1143"
   xml:space="preserve"
   sodipodi:docname="EICAS.svg"
   inkscape:version="1.1 (c68e22c387, 2021-05-23)"
   xmlns:inkscape="http://www.inkscape.org/namespaces/inkscape"
   xmlns:sodipodi="http://sodipodi.sourceforge.net/DTD/sodipodi-0.dtd"
   xmlns="http://www.w3.org/2000/svg"
   xmlns:svg="http://www.w3.org/2000/svg"
   xmlns:rdf="http://www.w3.org/1999/02/22-rdf-syntax-ns#"
   xmlns:cc="http://creativecommons.org/ns#"
   xmlns:dc="http://purl.org/dc/elements/1.1/"><sodipodi:namedview
     id="namedview387"
     pagecolor="#505050"
     bordercolor="#eeeeee"
     borderopacity="1"
     inkscape:showpageshadow="0"
     inkscape:pageopacity="0"
     inkscape:pagecheckerboard="0"
     inkscape:deskcolor="#505050"
     showgrid="false"
     inkscape:zoom="0.53865735"
     inkscape:cx="697.10364"
     inkscape:cy="603.35202"
     inkscape:window-width="1920"
     inkscape:window-height="986"
     inkscape:window-x="-11"
     inkscape:window-y="-11"
     inkscape:window-maximized="1"
     inkscape:current-layer="svg1143"
     inkscape:pageshadow="0" /><defs
     id="defs1147"><rect
       x="547.65798"
       y="1259.1492"
       width="111.38806"
       height="43.626992"
       id="rect3605" /><rect
       x="591.74909"
       y="1333.8721"
       width="98.39279"
       height="49.660512"
       id="rect3599" /><rect
       x="23.03391"
       y="180.28464"
       width="148.83449"
       height="69.987648"
       id="rect3727" /><rect
       x="65.11509"
       y="114.72659"
       width="143.07601"
       height="61.571412"
       id="rect3537" /><rect
       x="108.08219"
       y="989.57219"
       width="115.61251"
       height="52.269256"
       id="rect2832" /><rect
       x="383.16023"
       y="850.03985"
       width="143.51897"
       height="63.786211"
       id="rect2312" /><rect
       x="98.559289"
       y="118.06581"
       width="108.31255"
       height="56.209594"
       id="rect2813" /><rect
       x="634.75627"
       y="1431.973"
       width="119.13768"
       height="41.195334"
       id="rect1402" /><rect
       x="383.16023"
       y="850.03985"
       width="143.51897"
       height="63.786211"
       id="rect2660" /><rect
       x="108.08219"
       y="989.57219"
       width="115.61251"
       height="52.269256"
       id="rect2842" /><rect
       x="108.08219"
       y="989.57219"
       width="115.61251"
       height="52.269256"
       id="rect2854" /><rect
       x="108.08219"
       y="989.57219"
       width="115.61251"
       height="52.269256"
       id="rect2856" /><rect
       x="108.08219"
       y="989.57219"
       width="115.61251"
       height="52.269256"
       id="rect2870" /><rect
       x="108.08219"
       y="989.57219"
       width="115.61251"
       height="52.269256"
       id="rect2872" /><rect
       x="108.08219"
       y="989.57219"
       width="115.61251"
       height="52.269256"
       id="rect2886" /><rect
       x="108.08219"
       y="989.57219"
       width="115.61251"
       height="52.269256"
       id="rect2888" /><rect
       x="65.11509"
       y="114.72659"
       width="143.07601"
       height="61.571412"
       id="rect3547" /><rect
       x="23.03391"
       y="180.28464"
       width="148.83449"
       height="69.987648"
       id="rect3875" /></defs><title
     id="title856">EICAS</title><style
     id="style858">
		tspan { white-space:pre } 
		.s0 { fill: #000000 } 
		.s1 { fill: #ffffff } 
		.s2 { fill: #71ffff } 
		.s3 { fill: #e9e2f4 } 
		.s4 { fill: #4eef27 } 
		.s5 { fill: #ff7f00 } 
		.t6 { font-size: 23px;fill: #ffffff;font-weight: 400;font-family: &quot;OCRB&quot;, &quot;OCRB&quot; } 
		.t7 { font-size: 25px;fill: #00ff00;font-weight: 400;font-family: &quot;OCRB&quot;, &quot;OCRB&quot; } 
		.t8 { font-size: 22px;fill: #ffffff;font-weight: 400;font-family: &quot;OCRB&quot;, &quot;OCRB&quot; } 
		.s9 { fill: #c3adb9 } 
		.s10 { fill: #fbfd41 } 
		.s11 { fill: #ff0000 } 
		.t12 { font-size: 28px;fill: #ffffff;font-weight: 400;font-family: &quot;OCRB&quot;, &quot;OCRB&quot; } 
		.s13 { fill: none;stroke: #00ff00;stroke-linecap: round;stroke-width: 4 } 
		.t14 { font-size: 21px;fill: #00ff00;font-weight: 400;font-family: &quot;OCRB&quot;, &quot;OCRB&quot; } 
		.s15 { fill: #ff8000 } 
		.t16 { font-size: 29px;fill: #ffffff;font-weight: 400;font-family: &quot;OCRB&quot;, &quot;OCRB&quot; } 
	</style><path
     id="Shape 2"
     class="s0"
     d="M 0,0 H 484 V 716 H 0 Z" /><g
     id="flap indicator"><path
       id="Shape 3"
       fill-rule="evenodd"
       class="s1"
       d="m 362.5,477 c -38.4,0 -69.5,-30.6 -69.5,-68.5 0,-37.9 31.1,-68.5 69.5,-68.5 38.4,0 69.5,30.6 69.5,68.5 0,37.9 -31.1,68.5 -69.5,68.5 z M 428,408.5 c 0,-35.7 -29.3,-64.5 -65.5,-64.5 -36.2,0 -65.5,28.8 -65.5,64.5 0,35.7 29.3,64.5 65.5,64.5 36.2,0 65.5,-28.8 65.5,-64.5 z" /><path
       id="Shape 4"
       class="s1"
       d="m 355,452.4 q 3.7,0.6 7.5,0.6 C 387.1,453 407,433.1 407,408.5 407,383.9 387.1,364 362.5,364 337.9,364 318,383.9 318,408.5 q 0,3.3 0.5,6.5 H 311 v -12 h 5.3 c 0.7,-5.4 2.2,-10.5 4.5,-15.2 l -3.6,-2.5 7.8,-11.3 3.7,2.6 c 4.9,-5.2 11,-9.3 17.9,-11.8 l -0.9,-3.9 13.5,-2.9 0.8,4.1 q 1.3,-0.1 2.5,-0.1 5.4,0 10.5,1.2 l 1.9,-4.4 17.1,7.7 -2,4.5 c 3.9,2.8 7.3,6.3 10.2,10.2 l 4.9,-2.4 6.9,14.2 -4.9,2.3 q 0.8,2.8 1.3,5.7 h 5.6 v 16 h -5.8 q -0.9,5.1 -2.9,9.7 l 1.5,-2.6 4.4,2.5 -8,13.8 -4.4,-2.5 0.9,-1.5 c -2.1,2.9 -4.6,5.5 -7.3,7.8 l 0.5,-0.4 2.5,4.4 -13.8,8 -2.5,-4.3 q -3.9,1.5 -8.1,2.3 v 4.8 h -16 z" /><path
       id="flap-dial"
       fill-rule="evenodd"
       class="s1"
       d="m 363,428 c -9,0 -16.5,-5.9 -19.1,-14 H 331 l -13,-6 13,-6 h 12.9 c 2.6,-8.1 10.1,-14 19.1,-14 11.1,0 20,8.9 20,20 0,11.1 -8.9,20 -20,20 z m 18,-20 c 0,-10 -8,-18 -18,-18 -10,0 -18,8 -18,18 0,10 8,18 18,18 10,0 18,-8 18,-18 z" /><path
       id="FLAPS"
       fill-rule="evenodd"
       class="s2"
       d="m 317,432.5 h -3.2 v 3.1 h 2.5 v 1.4 h -2.5 v 5 h -1.2 v -10.9 h 4.4 z m 4.1,-1.5 v 9.5 h 4.3 v 1.4 h -5.6 V 431 Z m 10.8,10.9 -0.6,-3.1 H 329 l -0.7,3.1 h -1.2 l 2.3,-10.9 h 1.7 l 2.2,10.9 z m -2.7,-4.6 h 1.8 l -0.8,-4.9 z m 9.2,0.1 h -1.7 v 4.5 h -1.2 V 431 h 3 q 0.7,0 1.1,0.2 0.5,0.2 0.9,0.8 0.7,0.9 0.7,2.3 0,1.4 -0.8,2.3 -0.7,0.8 -2,0.8 z m -1.7,-4.9 v 3.5 h 1.7 q 0.7,0 1.1,-0.5 0.5,-0.4 0.5,-1.2 0,-1.8 -1.6,-1.8 z m 11.8,1 v 0.2 h -1.3 q 0,-0.6 -0.3,-1 -0.3,-0.3 -0.9,-0.3 -0.6,0 -1,0.4 -0.3,0.4 -0.3,1 0,0.8 0.9,1.4 l 1,0.6 q 1,0.7 1.5,1.4 0.5,0.8 0.5,1.8 0,1.4 -0.8,2.2 -0.8,0.9 -1.9,0.9 -1.1,0 -1.9,-0.8 -0.8,-0.8 -0.8,-2 0,-0.1 0,-0.3 h 1.3 q 0,0.7 0.4,1.2 0.4,0.4 1,0.4 0.6,0 1,-0.4 0.4,-0.5 0.4,-1.2 0,-0.6 -0.4,-1.1 -0.4,-0.5 -1.5,-1.1 -1.1,-0.6 -1.5,-1.3 -0.5,-0.6 -0.5,-1.6 0,-1.3 0.8,-2.2 0.7,-0.8 1.9,-0.8 0.9,0 1.7,0.8 0.7,0.7 0.7,1.8 z" /><path
       id="UP"
       fill-rule="evenodd"
       class="s1"
       d="m 297.1,411.5 v -7.4 h 1.1 v 7.3 q 0,1.2 0.4,1.7 0.3,0.6 1.1,0.6 0.7,0 1.1,-0.7 0.2,-0.3 0.2,-0.6 0.1,-0.3 0.1,-1.1 v -7.2 h 1.1 v 7.2 q 0,1.1 -0.1,1.7 -0.1,0.6 -0.4,1.1 -0.7,1 -2.1,1 -1.2,0 -1.9,-1 -0.3,-0.5 -0.4,-1.1 -0.2,-0.6 -0.2,-1.5 z m 9.9,-1 h -1.5 v 4.5 h -1.1 v -10.9 h 2.7 q 0.6,0 1,0.2 0.4,0.2 0.8,0.7 0.6,0.9 0.6,2.3 0,1.4 -0.7,2.3 -0.6,0.9 -1.8,0.9 z m -1.5,-5 v 3.5 h 1.5 q 0.7,0 1,-0.4 0.4,-0.5 0.4,-1.3 0,-1.8 -1.4,-1.8 z M 315.9,380 v -9.3 l -2.9,2.4 v -1.9 l 2.7,-2.2 h 1.7 v 11 z m 32.2,-23.6 v 0.2 h 5 v 1.4 h -6.5 q 0,-0.6 0,-0.9 0,-1.5 0.4,-2.4 0.4,-0.7 0.9,-1.3 0.6,-0.5 1.8,-1.2 1.2,-0.8 1.6,-1.3 0.5,-0.5 0.5,-1.1 0,-0.6 -0.6,-1.2 -0.5,-0.5 -1.2,-0.5 -1.6,0 -3.2,1.2 v -1.7 q 1.3,-0.9 3,-0.9 1.6,0 2.5,0.9 1,0.8 1,2.2 0,1 -0.5,1.7 -0.3,0.5 -0.7,0.8 -0.4,0.3 -1.8,1.2 -1.2,0.8 -1.7,1.4 -0.5,0.7 -0.5,1.5 z m 38.8,-6.1 h -4.3 l -0.1,2.2 h 0.4 q 2,0 3.1,1 1.1,0.9 1.1,2.6 0,2.4 -2.3,3.4 -1.3,0.6 -3.8,0.6 v -1.3 h 0.1 0.8 q 0.7,0 1.3,-0.2 1.1,-0.2 1.8,-0.9 0.6,-0.7 0.6,-1.7 0,-2.1 -2.7,-2.1 -0.7,0 -1.2,0.1 h -0.5 q -0.1,0 -0.2,0.1 l 0.3,-5.1 h 5.6 z m 24.5,36.6 v -9.3 l -2.2,2.4 v -1.9 l 2.1,-2.2 h 1.2 v 11 z m 7.6,-11.2 q 0.9,0 1.4,0.3 0.5,0.3 0.8,1 0.5,1.4 0.5,4.4 0,3.8 -0.7,4.8 -0.6,0.8 -2.2,0.8 -1.7,0 -2.1,-1 -0.6,-1.5 -0.6,-4.7 0,-3.2 0.6,-4.5 0.2,-0.6 0.8,-0.8 0.5,-0.3 1.5,-0.3 z m 0,1.5 q -0.6,0 -1,0 -0.3,0.1 -0.4,0.4 -0.1,0.2 -0.3,1.4 -0.1,1.1 -0.1,2.3 0,1.1 0.1,2.2 0.1,1.1 0.2,1.5 0.1,0.4 0.4,0.5 0.3,0.2 0.9,0.2 0.7,0 1,-0.1 0.3,-0.2 0.4,-0.4 0.4,-0.9 0.4,-3.5 0,-1.5 -0.1,-2.7 -0.1,-1.2 -0.3,-1.5 -0.2,-0.2 -0.4,-0.3 -0.3,0 -0.8,0 z m -2,36.7 v -9.3 l -2.3,2.4 v -1.9 l 2.2,-2.2 h 1.4 v 11 z m 10.3,-9.6 h -3.4 l -0.2,2.2 h 0.3 q 1.7,0 2.7,0.9 0.9,0.9 0.9,2.6 0,2.4 -2,3.4 -1,0.6 -3.1,0.6 v -1.3 h 0.1 0.7 q 0.5,0 1,-0.1 1,-0.3 1.5,-0.9 0.5,-0.7 0.5,-1.7 0,-2.2 -2.2,-2.2 -0.6,0 -1,0.1 l -0.4,0.1 q -0.1,0 -0.2,0 l 0.3,-5.1 h 4.5 z m -17.9,34.9 v 0.2 h 3.8 v 1.5 h -4.9 q -0.1,-0.6 -0.1,-0.9 0,-1.6 0.3,-2.6 0.3,-0.7 0.8,-1.3 0.4,-0.6 1.3,-1.4 0.9,-0.8 1.3,-1.3 0.3,-0.5 0.3,-1.1 0,-0.8 -0.4,-1.3 -0.4,-0.5 -1,-0.5 -1.2,0 -2.4,1.2 v -1.8 q 1,-0.9 2.3,-0.9 1.2,0 1.9,0.8 0.7,0.9 0.7,2.4 0,1 -0.3,1.8 -0.3,0.5 -0.6,0.9 -0.3,0.3 -1.3,1.3 -0.9,0.8 -1.3,1.5 -0.4,0.7 -0.4,1.5 z m 11,-8.5 h -3.2 L 417,433 h 0.3 q 1.6,0 2.5,1 0.8,1 0.8,2.8 0,2.5 -1.8,3.6 -1,0.6 -2.9,0.6 v -1.4 h 0.1 0.6 q 0.5,0 1,-0.1 0.9,-0.3 1.4,-1 0.5,-0.7 0.5,-1.8 0,-2.2 -2.1,-2.2 -0.5,0 -0.9,0 l -0.5,0.1 q 0,0 -0.1,0 l 0.2,-5.4 h 4.3 z m -32.6,26.2 2.1,-2.7 h -3.5 V 453 h 4.9 v 1.4 l -2.1,2.5 q 1.2,0.1 1.8,0.9 0.6,0.7 0.6,2 0,1.5 -0.8,2.4 -0.9,0.9 -2.2,0.9 -1,0 -2.2,-0.6 v -1.4 q 0.9,0.7 2,0.7 1,0 1.6,-0.5 0.5,-0.6 0.5,-1.6 0,-0.7 -0.5,-1.2 -0.5,-0.6 -1.2,-0.6 h -1 z m 8.4,-4 q 0.9,0 1.4,0.3 0.4,0.2 0.7,0.8 0.5,1.3 0.5,4 0,3.4 -0.7,4.4 -0.6,0.7 -2.1,0.7 -1.6,0 -2.1,-1 -0.5,-1.2 -0.5,-4.1 0,-2.9 0.5,-4.1 0.3,-0.5 0.8,-0.7 0.6,-0.3 1.5,-0.3 z m 0,1.3 q -0.6,0 -0.9,0.1 -0.3,0.1 -0.4,0.3 -0.2,0.2 -0.3,1.2 -0.1,1 -0.1,2.2 0,0.9 0.1,1.9 0,1 0.2,1.4 0.1,0.3 0.3,0.5 0.3,0.1 0.9,0.1 0.6,0 0.9,-0.1 0.4,-0.1 0.5,-0.4 0.3,-0.8 0.3,-3.1 0,-1.4 -0.1,-2.4 -0.1,-1.1 -0.3,-1.4 -0.1,-0.2 -0.4,-0.2 -0.2,-0.1 -0.7,-0.1 z m -36.3,11.1 v 2.1 h 1.1 v 1.4 h -1.1 v 2.2 h -1.3 v -2.2 h -3.4 v -1.6 l 2.7,-6.5 h 1.3 l -2.8,6.7 h 2.2 v -2.1 z m 6.3,-4.8 q 1,0 1.5,0.3 0.5,0.3 0.8,0.9 0.6,1.4 0.6,4.2 0,3.5 -0.8,4.5 -0.6,0.7 -2.4,0.7 -1.8,0 -2.2,-1 -0.7,-1.3 -0.7,-4.3 0,-3 0.7,-4.3 0.2,-0.5 0.8,-0.7 0.6,-0.3 1.7,-0.3 z m 0,1.4 q -0.7,0 -1.1,0 -0.3,0.1 -0.4,0.3 -0.2,0.3 -0.3,1.4 -0.2,1 -0.2,2.2 0,1 0.1,2 0.1,1 0.3,1.4 0.1,0.4 0.4,0.5 0.3,0.2 0.9,0.2 0.8,0 1.1,-0.2 0.4,-0.1 0.5,-0.3 0.4,-0.9 0.4,-3.3 0,-1.4 -0.2,-2.5 -0.1,-1.1 -0.3,-1.4 -0.1,-0.2 -0.4,-0.3 -0.3,0 -0.8,0 z" /><path
       id="Shape 7"
       fill-rule="evenodd"
       class="s3"
       d="m 287,478 h 75 v 33 h -75 z m 2,31 h 71 v -29 h -71 z m 74,-31 h 75 v 33 h -75 z m 2,31 h 71 v -29 h -71 z" /><path
       id="flap-ext"
       fill-rule="evenodd"
       class="s4"
       d="m 365,480 h 71 v 29 h -71 z m 3.4,2 v 9 h 6 v -1.2 h -4.6 V 482 Z m 13.8,0 h -5.4 v 9 h 5.5 v -1.2 h -4.2 v -2.9 h 3.6 v -1.2 h -3.6 v -2.5 h 4.1 z m 16.8,0 h -4.7 v 9 h 1.3 v -4.1 h 2.7 v -1.2 h -2.7 v -2.5 h 3.4 z m 3.1,0 v 9 h 5.9 v -1.2 h -4.6 V 482 Z m 14.3,9 -2.3,-9 h -1.9 l -2.5,9 h 1.4 l 0.7,-2.6 h 2.5 l 0.6,2.6 z m -3.3,-7.8 1,4 h -2 z m 11,3.4 q 0.8,-0.7 0.8,-1.9 0,-1.2 -0.7,-1.9 -0.5,-0.4 -0.9,-0.6 -0.5,-0.2 -1.3,-0.2 h -3.2 v 9 h 1.3 v -3.7 h 1.8 q 1.4,0 2.2,-0.7 z m -2.2,-3.4 q 1.7,0 1.7,1.5 0,0.7 -0.4,1 -0.5,0.4 -1.3,0.4 h -1.8 v -2.9 z m 10,-0.6 q -0.8,-0.7 -1.8,-0.7 -1.2,0 -2,0.7 -0.8,0.7 -0.8,1.8 0,0.8 0.5,1.3 0.4,0.6 1.6,1.1 1.2,0.5 1.6,0.9 0.4,0.4 0.4,0.9 0,0.6 -0.4,1 -0.4,0.3 -1.1,0.3 -0.7,0 -1.1,-0.3 -0.4,-0.4 -0.4,-1 h -1.3 q 0,0.2 0,0.2 0,1 0.8,1.7 0.8,0.6 2,0.6 1.2,0 2.1,-0.7 0.8,-0.7 0.8,-1.8 0,-0.8 -0.5,-1.5 -0.5,-0.6 -1.7,-1.1 l -1,-0.5 q -1,-0.5 -1,-1.2 0,-0.5 0.4,-0.8 0.4,-0.4 1,-0.4 0.6,0 1,0.3 0.4,0.3 0.4,0.9 h 1.3 v -0.2 q 0,-0.9 -0.8,-1.5 z M 394.8,498 h -5.4 v 9 h 5.6 v -1.2 h -4.3 V 503 h 3.6 v -1.3 h -3.6 v -2.5 h 4.1 z m 2.3,0 2.5,4.5 -2.5,4.5 h 1.5 l 1.8,-3.4 1.9,3.4 h 1.4 l -2.5,-4.7 2.4,-4.3 h -1.3 l -1.9,3.2 -1.7,-3.2 z m 14.8,0 h -6.2 v 1.2 h 2.4 v 7.8 h 1.4 v -7.8 h 2.4 z" /><path
       id="flap-trans"
       fill-rule="evenodd"
       class="s5"
       d="m 289,480 h 71 v 29 h -71 z m 3.4,2 v 9 h 6 v -1.2 h -4.6 V 482 Z m 13.8,0 h -5.4 v 9 h 5.5 v -1.2 h -4.2 v -2.9 h 3.6 v -1.2 h -3.6 v -2.5 h 4.1 z m 16.8,0 h -4.7 v 9 h 1.3 v -4.1 h 2.7 v -1.2 h -2.7 v -2.5 h 3.4 z m 3.1,0 v 9 h 5.9 v -1.2 h -4.6 V 482 Z m 14.3,9 -2.3,-9 h -1.9 l -2.5,9 h 1.4 l 0.7,-2.6 h 2.5 l 0.6,2.6 z m -3.3,-7.8 1,4 h -2 z m 11,3.4 q 0.8,-0.7 0.8,-1.9 0,-1.2 -0.7,-1.9 -0.5,-0.4 -0.9,-0.6 -0.5,-0.2 -1.3,-0.2 h -3.2 v 9 h 1.3 v -3.7 h 1.8 q 1.4,0 2.2,-0.7 z m -2.2,-3.4 q 1.7,0 1.7,1.5 0,0.7 -0.4,1 -0.5,0.4 -1.3,0.4 h -1.8 v -2.9 z m 10,-0.6 q -0.8,-0.7 -1.8,-0.7 -1.2,0 -2,0.7 -0.8,0.7 -0.8,1.8 0,0.8 0.5,1.3 0.4,0.6 1.6,1.1 1.2,0.5 1.6,0.9 0.4,0.4 0.4,0.9 0,0.6 -0.4,1 -0.4,0.3 -1.1,0.3 -0.7,0 -1.1,-0.3 -0.4,-0.4 -0.4,-1 h -1.3 q 0,0.2 0,0.2 0,1 0.8,1.7 0.8,0.6 2,0.6 1.2,0 2.1,-0.7 0.8,-0.7 0.8,-1.8 0,-0.8 -0.5,-1.5 -0.5,-0.6 -1.7,-1.1 l -1,-0.5 q -1,-0.5 -1,-1.2 0,-0.5 0.4,-0.8 0.4,-0.4 1,-0.4 0.6,0 1,0.3 0.4,0.3 0.4,0.9 h 1.3 v -0.2 q 0,-0.9 -0.8,-1.5 z M 302.2,498 H 296 v 1.2 h 2.5 v 7.8 h 1.3 v -7.8 h 2.4 z m 7.2,9 h 1.5 l -2.3,-4 q 0.8,-0.2 1.3,-0.8 0.5,-0.6 0.5,-1.5 0,-1.2 -0.8,-1.9 -0.7,-0.8 -2,-0.8 h -2.7 v 9 h 1.3 v -3.7 h 1.1 z m -2,-7.8 q 1.7,0 1.7,1.4 0,1.4 -1.7,1.4 h -1.2 v -2.8 z m 11.9,7.8 -2.3,-9 h -1.8 l -2.5,9 h 1.3 l 0.7,-2.6 h 2.6 l 0.6,2.6 z m -3.3,-7.8 0.9,4 h -2 z m 5.5,-1.2 v 9 h 1.2 v -6.9 l 3.3,6.9 h 1.4 v -9 h -1.2 v 6.6 l -3.1,-6.6 z m 13.4,0.6 q -0.8,-0.7 -1.9,-0.7 -1.2,0 -2,0.7 -0.8,0.7 -0.8,1.8 0,0.8 0.5,1.3 0.5,0.6 1.7,1.1 1.1,0.5 1.6,0.9 0.4,0.4 0.4,0.9 0,0.6 -0.5,0.9 -0.4,0.4 -1.1,0.4 -0.6,0 -1,-0.3 -0.4,-0.4 -0.5,-1 H 330 q 0,0.1 0,0.2 0,1 0.8,1.7 0.9,0.6 2.1,0.6 1.2,0 2,-0.7 0.8,-0.7 0.8,-1.8 0,-0.9 -0.5,-1.5 -0.5,-0.6 -1.6,-1.1 l -1.1,-0.6 q -0.9,-0.4 -0.9,-1.1 0,-0.5 0.4,-0.9 0.3,-0.3 0.9,-0.3 0.7,0 1,0.3 0.4,0.3 0.4,0.9 h 1.3 v -0.2 q 0,-0.9 -0.7,-1.5 z m 8.4,-0.6 h -4 v 1.2 h 1.3 v 6.6 H 339 v 1.2 h 4.6 v -1.2 h -1.7 v -6.6 h 1.4 z m 9.5,0 h -6.2 v 1.2 h 2.5 v 7.8 h 1.3 v -7.8 h 2.4 z" /></g><g
     id="temperature"><path
   id="TAT"
   fill-rule="evenodd"
   class="s2"
   d="M 28.8,35.4 H 26.5 V 46 H 25.3 V 35.4 H 23 v -1.6 h 5.8 z M 35.5,46 34.9,42.4 H 32.5 L 31.9,46 h -1.3 l 2.3,-12.2 h 1.8 L 36.8,46 Z m -2.6,-5.2 h 1.8 L 33.8,35.3 Z M 44.6,35.4 H 42.3 V 46 H 41.1 V 35.4 h -2.3 v -1.6 h 5.8 z" /><text
   id="flt-mode"
   style="font-style:normal;font-variant:normal;font-weight:normal;font-stretch:normal;font-size:18.8862px;line-height:0%;font-family:'OCR B MT';-inkscape-font-specification:'OCR B MT, Normal';font-variant-ligatures:normal;font-variant-caps:normal;font-variant-numeric:normal;font-variant-east-asian:normal;stroke-width:1.57384"
   x="153.28575"
   y="10.169086"
   transform="scale(0.78656689,1.2713477)"><tspan
     x="153.28575"
     y="37.396545"
     class="t7"
     id="tspan882"
     style="font-style:normal;font-variant:normal;font-weight:normal;font-stretch:normal;font-size:18.8862px;font-family:'OCR B MT';-inkscape-font-specification:'OCR B MT, Normal';font-variant-ligatures:normal;font-variant-caps:normal;font-variant-numeric:normal;font-variant-east-asian:normal;stroke-width:1.57384">CRZ</tspan></text>
<text
   xml:space="preserve"
   style="line-height:0%;font-family:'OCR B MT';-inkscape-font-specification:'OCR B MT, Normal';fill:#ffffff;stroke-width:0.71061"
   x="57.102455"
   y="38.236927"
   id="air-temp"
   transform="scale(0.79982865,1.2502678)"
   inkscape:label="air-temp"><tspan
     sodipodi:role="line"
     id="tspan2817"
     style="font-size:18.0413px;line-height:1.25;stroke-width:0.71061"
     x="57.102455"
     y="38.236927">-20c</tspan></text>
</g><g
     id="fuel"><path
   id="Shape 1"
   fill-rule="evenodd"
   class="s2"
   d="m 258,626 c 0,-3.9 3.1,-7 7,-7 h 24 v 3 h -24 c -2.2,0 -4,1.8 -4,4 v 39 c 0,2.2 1.8,4 4,4 h 192 c 2.2,0 4,-1.8 4,-4 v -39 c 0,-2.2 -1.8,-4 -4,-4 h -24 v -3 h 24 c 3.9,0 7,3.1 7,7 v 39 c 0,3.9 -3.1,7 -7,7 H 265 c -3.9,0 -7,-3.1 -7,-7 z m 38.2,-8.9 h -2.9 v 2.8 h 2.3 v 1.4 h -2.3 v 4.7 h -1.2 v -10.3 h 4.1 z m 2.2,5.6 v -6.9 h 1.2 v 6.8 q 0,1.1 0.3,1.7 0.4,0.5 1.2,0.5 0.8,0 1.2,-0.7 0.2,-0.2 0.2,-0.5 0.1,-0.3 0.1,-1.1 v -6.7 h 1.1 v 6.7 q 0,1 -0.1,1.6 -0.1,0.6 -0.4,1 -0.7,1 -2.2,1 -1.2,0 -1.9,-0.9 -0.4,-0.5 -0.5,-1 -0.2,-0.6 -0.2,-1.5 z m 12.5,-5.6 h -3.6 v 2.9 h 3.1 v 1.4 h -3.1 v 3.2 h 3.7 v 1.4 h -4.8 v -10.2 h 4.7 z m 3.8,-1.4 v 8.9 h 4 v 1.3 h -5.2 v -10.2 z m 17.6,8 1.4,2.2 h -1.4 l -0.7,-1.1 q -0.6,0.6 -1.4,0.6 -0.8,0 -1.5,-0.8 -0.6,-0.7 -0.9,-1.7 -0.2,-1 -0.2,-2.5 0,-2.2 0.7,-3.5 0.7,-1.3 1.9,-1.3 0.9,0 1.6,0.8 1.1,1.3 1.1,4.1 0,2 -0.6,3.2 z m -1.6,-2.8 0.9,1.4 q 0.1,-0.7 0.1,-1.7 0,-1.8 -0.4,-2.7 -0.4,-1 -1,-1 -0.8,0 -1.1,0.8 -0.5,1 -0.5,2.7 0,1.7 0.4,2.7 0.4,0.9 1.1,0.9 0.5,0 0.8,-0.3 l -1.6,-2.8 z m 9.7,-3.8 h -2.1 v 8.8 h -1.2 v -8.8 H 335 v -1.4 h 5.4 z m 3.1,-1.4 1.5,3.9 1.6,-3.9 h 1.3 l -2.3,5.5 v 4.8 h -1.1 v -4.8 l -2.3,-5.5 z m 7.6,7.3 v -1.8 h 2.6 v 1.8 z m 7.3,-7.3 v 4.2 l 3.2,-4.2 h 1.5 l -3.8,4.9 4,5.4 h -1.6 l -3.3,-4.7 v 4.7 h -1.2 v -10.3 z m 10.2,8.8 v -2.6 H 367 v -1.4 h 2.8 v 5 q -1.2,0.6 -2.3,0.6 -1.4,0 -2.2,-1.4 -0.8,-1.3 -0.8,-3.9 0,-1.6 0.3,-2.6 0.2,-1 0.8,-1.7 0.9,-0.9 2.1,-0.9 0.9,0 1.5,0.6 0.2,0.3 0.4,0.7 0.2,0.4 0.2,0.7 0,0 0,0.1 h -1.2 q -0.1,-0.7 -0.9,-0.7 -1,0 -1.5,0.9 -0.5,0.9 -0.5,2.9 0,3.9 1.9,3.9 0.5,0 1,-0.2 z m 8.3,-6.5 v 0.2 h -1.1 q 0,-0.6 -0.3,-0.9 -0.3,-0.3 -0.9,-0.3 -0.5,0 -0.9,0.3 -0.3,0.4 -0.3,1 0,0.8 0.8,1.3 l 0.9,0.6 q 1.1,0.6 1.5,1.3 0.4,0.7 0.4,1.7 0,1.3 -0.7,2.1 -0.7,0.8 -1.8,0.8 -1,0 -1.7,-0.8 -0.7,-0.7 -0.7,-1.8 0,-0.1 0,-0.3 h 1.1 q 0,0.7 0.4,1.1 0.3,0.4 0.9,0.4 0.6,0 1,-0.4 0.4,-0.4 0.4,-1.1 0,-0.6 -0.4,-1 -0.4,-0.5 -1.4,-1.1 -1,-0.6 -1.4,-1.2 -0.4,-0.6 -0.4,-1.5 0,-1.2 0.6,-2 0.7,-0.8 1.8,-0.8 0.9,0 1.6,0.7 0.6,0.7 0.6,1.7 z m 10.8,-2.3 1.5,3.6 1.6,-3.6 h 1.2 l -2.2,4.9 2.3,5.4 h -1.3 l -1.6,-4 -1.6,4 h -1.3 l 2.2,-5.2 -2.2,-5.1 z m 16.1,10.3 v -9.4 l -2.2,2.5 v -1.9 l 2.1,-2.3 H 405 V 626 Z m 7.5,-11.2 q 0.9,0 1.4,0.3 0.5,0.3 0.8,0.9 0.5,1.5 0.5,4.5 0,3.7 -0.7,4.8 -0.6,0.8 -2.2,0.8 -1.7,0 -2.1,-1.1 -0.6,-1.4 -0.6,-4.6 0,-3.2 0.6,-4.5 0.2,-0.6 0.8,-0.8 0.5,-0.3 1.5,-0.3 z m 0,1.4 q -0.7,0 -1,0.1 -0.3,0.1 -0.4,0.3 -0.1,0.3 -0.3,1.4 -0.1,1.1 -0.1,2.4 0,1 0.1,2.1 0.1,1.1 0.2,1.5 0.1,0.4 0.4,0.6 0.3,0.1 0.9,0.1 0.6,0 1,-0.1 0.3,-0.1 0.4,-0.4 0.4,-0.9 0.4,-3.4 0,-1.6 -0.1,-2.7 -0.2,-1.2 -0.4,-1.5 -0.1,-0.2 -0.3,-0.3 -0.3,-0.1 -0.8,-0.1 z m 7.3,-1.4 q 1,0 1.5,0.3 0.5,0.3 0.7,0.9 0.5,1.5 0.5,4.5 0,3.7 -0.7,4.8 -0.6,0.8 -2.2,0.8 -1.7,0 -2.1,-1.1 -0.6,-1.4 -0.6,-4.6 0,-3.2 0.6,-4.5 0.2,-0.6 0.8,-0.8 0.6,-0.3 1.5,-0.3 z m 0,1.4 q -0.6,0 -0.9,0.1 -0.3,0.1 -0.5,0.3 -0.1,0.3 -0.2,1.4 -0.2,1.1 -0.2,2.4 0,1 0.1,2.1 0.1,1.1 0.2,1.5 0.2,0.4 0.4,0.6 0.3,0.1 0.9,0.1 0.7,0 1,-0.1 0.3,-0.1 0.5,-0.4 0.3,-0.9 0.3,-3.4 0,-1.6 -0.1,-2.7 -0.1,-1.2 -0.3,-1.5 -0.1,-0.2 -0.4,-0.3 -0.2,-0.1 -0.8,-0.1 z m 7.4,-1.4 q 0.9,0 1.4,0.3 0.5,0.3 0.7,0.9 0.6,1.5 0.6,4.5 0,3.7 -0.8,4.8 -0.5,0.8 -2.1,0.8 -1.7,0 -2.2,-1.1 -0.5,-1.4 -0.5,-4.6 0,-3.2 0.5,-4.5 0.3,-0.6 0.8,-0.8 0.6,-0.3 1.6,-0.3 z m 0,1.4 q -0.7,0 -1,0.1 -0.3,0.1 -0.4,0.3 -0.2,0.3 -0.3,1.4 -0.1,1.1 -0.1,2.4 0,1 0.1,2.1 0.1,1.1 0.2,1.5 0.1,0.4 0.4,0.6 0.3,0.1 0.8,0.1 0.7,0 1,-0.1 0.4,-0.1 0.5,-0.4 0.3,-0.9 0.3,-3.4 0,-1.6 -0.1,-2.7 -0.1,-1.2 -0.3,-1.5 -0.1,-0.2 -0.4,-0.3 -0.2,-0.1 -0.7,-0.1 z M 256.3,682.1 H 254 v 8.9 h -1.1 v -8.9 h -2.2 v -1.4 h 5.6 z m 4.8,-1.5 q 1.2,0 2,1.5 0.8,1.5 0.8,3.7 0,2.4 -0.8,3.9 -0.8,1.4 -2.1,1.4 -1.2,0 -2,-1.4 -0.8,-1.5 -0.8,-3.8 0,-2.3 0.8,-3.8 0.8,-1.5 2.1,-1.5 z m 0,1.4 q -0.8,0 -1.2,0.9 -0.5,1.1 -0.5,3 0,1.8 0.4,2.8 0.5,1 1.3,1 0.7,0 1.2,-1 0.4,-1 0.4,-2.9 0,-1.7 -0.4,-2.8 -0.5,-1 -1.2,-1 z m 10.3,0.1 h -2.2 V 691 H 268 v -8.9 h -2.2 v -1.4 h 5.6 z m 6.5,8.9 -0.6,-2.9 H 275 l -0.6,2.9 h -1.2 l 2.2,-10.2 h 1.7 l 2.1,10.2 z m -2.6,-4.3 h 1.8 l -0.9,-4.6 z m 7.4,-6 v 8.9 h 4.2 v 1.4 h -5.4 v -10.3 z" />



</g><g
     id="engine warnings"><path
       id="Shape 8"
       fill-rule="evenodd"
       class="s3"
       d="m 281,49 h 93 v 158 h -93 z m 3,31 h 87 V 52 h -87 z m 0,31 h 87 V 83 h -87 z m 0,31 h 87 v -28 h -87 z m 0,31 h 87 v -28 h -87 z m 0,31 h 87 V 176 H 284 Z M 380,49 h 93 v 158 h -93 z m 3,31 h 87 V 52 h -87 z m 0,31 h 87 V 83 h -87 z m 0,31 h 87 v -28 h -87 z m 0,31 h 87 v -28 h -87 z m 0,31 h 87 v -28 h -87 z" /><path
       id="Shape 9"
       class="s9"
       d="m 405,32 h 43 v 15 h -43 z m -99,0 h 43 v 15 h -43 z" /><path
       id="ENG 2"
       class="s2"
       d="m 414.6,36.1 h -3.8 V 39 h 3.3 v 1.3 h -3.3 v 3.3 h 3.9 V 45 h -5.1 V 34.7 h 5 z m 3.8,-1.3 2.9,7.5 v -7.5 h 1 V 45 H 421 l -3,-7.9 V 45 h -1.1 V 34.8 Z m 10.5,8.7 v -2.6 h -1.8 v -1.4 h 2.9 v 5 q -1.2,0.7 -2.3,0.6 -1.5,0.1 -2.4,-1.3 -0.8,-1.4 -0.8,-3.9 0,-1.7 0.3,-2.7 0.3,-1 0.9,-1.7 0.9,-0.9 2.1,-0.9 1,0 1.6,0.7 0.3,0.3 0.5,0.7 0.2,0.4 0.2,0.7 0,0 -0.1,0.1 h -1.1 q -0.2,-0.8 -1,-0.8 -1.1,0 -1.6,0.9 -0.6,1 -0.6,2.9 0,4 2.1,4 0.5,0 1.1,-0.3 z m 12.3,-0.1 v 0.2 h 3.9 V 45 H 440 q -0.1,-0.6 -0.1,-0.9 0,-1.4 0.4,-2.4 0.3,-0.7 0.7,-1.2 0.5,-0.6 1.4,-1.3 1,-0.8 1.3,-1.3 0.4,-0.5 0.4,-1 0,-0.7 -0.5,-1.2 -0.4,-0.5 -0.9,-0.5 -1.3,0 -2.6,1.1 v -1.6 q 1,-0.9 2.4,-0.9 1.3,0 2,0.8 0.8,0.8 0.8,2.2 0,1 -0.4,1.7 -0.3,0.5 -0.6,0.8 -0.3,0.4 -1.4,1.2 -0.9,0.8 -1.3,1.5 -0.4,0.6 -0.4,1.4 z M 315.6,36.1 h -3.7 V 39 h 3.2 v 1.4 h -3.2 v 3.3 h 3.9 V 45 h -5.1 V 34.8 h 4.9 z m 3.8,-1.4 2.9,7.5 v -7.5 h 1.1 V 45 h -1.3 l -3,-7.9 V 45 H 318 V 34.7 Z m 10.4,8.7 v -2.6 h -1.7 v -1.3 h 2.9 v 5 q -1.2,0.6 -2.3,0.6 -1.6,0 -2.4,-1.4 -0.8,-1.4 -0.8,-3.9 0,-1.6 0.3,-2.6 0.3,-1 0.9,-1.7 0.8,-0.9 2.1,-0.9 1,0 1.6,0.6 0.2,0.3 0.4,0.7 0.2,0.4 0.2,0.7 0,0 0,0.1 h -1.2 q -0.2,-0.8 -0.9,-0.8 -1.1,0 -1.7,1 -0.5,0.9 -0.5,2.8 0,4 2.1,4 0.5,0 1,-0.3 z m 13.7,1.6 v -9.4 l -2.2,2.4 v -1.8 l 2.1,-2.3 h 1.3 V 45 Z" /><g
       id="warningN2"><path
         id="start-valve-open2"
         fill-rule="evenodd"
         class="s10"
         d="m 383,52 h 87 v 28 h -87 z m 6.2,2.1 q -0.7,-0.5 -1.7,-0.5 -1.1,0 -1.8,0.6 -0.8,0.6 -0.8,1.6 0,0.8 0.5,1.3 0.4,0.5 1.5,1 1.1,0.4 1.5,0.8 0.4,0.4 0.4,0.9 0,0.5 -0.4,0.8 -0.4,0.4 -1.1,0.4 -0.6,0 -0.9,-0.4 -0.4,-0.3 -0.5,-0.9 h -1.2 q 0,0.2 0,0.3 0,0.9 0.8,1.5 0.8,0.6 1.9,0.6 1.1,0 1.9,-0.7 0.7,-0.6 0.7,-1.6 0,-0.8 -0.5,-1.4 -0.4,-0.6 -1.5,-1.1 l -1,-0.5 q -0.8,-0.4 -0.8,-1 0,-0.5 0.3,-0.8 0.4,-0.3 0.9,-0.3 0.6,0 1,0.2 0.3,0.3 0.3,0.8 h 1.2 v -0.2 q 0,-0.8 -0.7,-1.4 z m 8.9,-0.4 h -5.8 v 1.1 h 2.3 V 62 h 1.2 v -7.2 h 2.3 z m 8,8.3 -2.1,-8.3 h -1.8 l -2.3,8.3 h 1.3 l 0.6,-2.4 h 2.4 l 0.5,2.4 z m -3,-7.3 0.8,3.8 h -1.8 z m 9.6,7.3 h 1.4 l -2.2,-3.8 q 0.8,-0.1 1.2,-0.7 0.5,-0.6 0.5,-1.5 0,-1.1 -0.7,-1.7 -0.7,-0.7 -1.9,-0.7 h -2.6 V 62 h 1.3 v -3.5 h 1 z m -1.9,-7.3 q 1.6,0 1.6,1.4 0,1.3 -1.5,1.3 h -1.2 v -2.7 z m 10.9,-1.1 h -5.8 v 1.1 h 2.3 V 62 h 1.2 v -7.3 h 2.3 z m 9.6,0 2.3,8.4 h 1.7 l 2.3,-8.4 h -1.2 l -1.9,7.2 -1.9,-7.2 z m 14,8.4 -2.1,-8.4 h -1.8 l -2.2,8.4 h 1.2 l 0.6,-2.4 h 2.4 L 444,62 Z m -3.1,-7.3 0.9,3.8 h -1.8 z m 4.6,-1.1 2.3,8.3 h 1.7 l 2.3,-8.3 h -1.2 l -1.9,7.2 -1.9,-7.2 z m 8.6,0 v 8.3 h 5.5 v -1.1 h -4.3 v -7.2 z m 12.8,0 h -5 v 8.3 h 5.2 v -1.1 h -4 v -2.7 h 3.3 V 57 h -3.3 v -2.3 h 3.8 z m -55.6,17.1 q -0.8,1.3 -0.8,3.1 0,1.9 0.8,3.1 0.8,1.2 2.1,1.2 1.3,0 2.2,-1.2 0.8,-1.2 0.8,-3.1 0,-1.8 -0.9,-3.1 -0.8,-1.2 -2.1,-1.2 -1.2,0 -2.1,1.2 z m 3.4,0.8 q 0.5,0.8 0.5,2.2 0,1.6 -0.5,2.4 -0.5,0.8 -1.3,0.8 -0.8,0 -1.2,-0.8 -0.5,-0.8 -0.5,-2.3 0,-1.6 0.5,-2.5 0.4,-0.7 1.2,-0.7 0.8,0 1.3,0.9 z m 8.9,2.4 q 0.8,-0.7 0.8,-1.8 0,-1.1 -0.7,-1.8 -0.4,-0.4 -0.8,-0.5 -0.5,-0.2 -1.2,-0.2 h -3 V 78 h 1.3 v -3.5 h 1.6 q 1.3,0 2,-0.6 z M 423,70.7 q 1.5,0 1.5,1.4 0,0.6 -0.4,0.9 -0.4,0.4 -1.2,0.4 h -1.6 v -2.7 z m 10,-1.1 h -5 V 78 h 5.2 v -1.2 h -4 v -2.6 h 3.3 V 73 h -3.3 v -2.3 h 3.8 z m 2.4,0 V 78 h 1.2 v -6.4 l 3,6.4 h 1.4 v -8.4 h -1.1 v 6.2 l -3,-6.2 z" /><path
         id="oil-filter-bypass2"
         fill-rule="evenodd"
         class="s10"
         d="m 383,83 h 87 v 28 h -87 z m 6.2,2.8 q -0.9,1.2 -0.9,3.1 0,1.8 0.9,3 0.8,1.2 2.1,1.2 1.3,0 2.1,-1.2 0.8,-1.2 0.8,-3.1 0,-1.8 -0.8,-3 -0.9,-1.2 -2.1,-1.2 -1.3,0 -2.1,1.2 z m 3.3,0.7 q 0.5,0.9 0.5,2.3 0,1.5 -0.4,2.3 -0.5,0.9 -1.3,0.9 -0.8,0 -1.3,-0.8 -0.4,-0.9 -0.4,-2.3 0,-1.6 0.5,-2.5 0.4,-0.7 1.2,-0.7 0.8,0 1.2,0.8 z m 8.5,-1.8 h -3.8 v 1.1 h 1.3 v 6.1 H 397 V 93 h 4.2 v -1.1 h -1.5 v -6.1 h 1.3 z m 3.6,0 V 93 h 5.5 v -1.1 h -4.3 v -7.2 z m 20.6,0 h -4.3 V 93 h 1.2 v -3.8 h 2.5 v -1.1 h -2.5 v -2.3 h 3.1 z m 7.1,0 h -3.7 v 1.1 h 1.2 v 6.1 h -1.5 V 93 h 4.3 V 91.9 H 431 v -6.1 h 1.3 z m 3.6,0 v 8.4 h 5.5 v -1.2 h -4.3 v -7.2 z m 13.1,0 h -5.8 v 1.1 h 2.3 v 7.3 h 1.2 v -7.3 h 2.3 z m 7.6,0 h -5 v 8.4 h 5.1 V 92 h -3.9 v -2.7 h 3.3 v -1.1 h -3.3 v -2.4 h 3.8 z m 6.9,8.4 h 1.4 l -2.2,-3.8 q 0.8,-0.1 1.2,-0.7 0.5,-0.6 0.5,-1.4 0,-1.2 -0.7,-1.8 -0.7,-0.7 -1.9,-0.7 h -2.5 v 8.4 h 1.2 v -3.5 h 1 z m -1.8,-7.2 q 1.5,0 1.5,1.3 0,1.3 -1.5,1.3 h -1.1 v -2.6 z m -52.2,22.5 q 0.7,-0.8 0.7,-1.8 0,-0.7 -0.4,-1.2 -0.4,-0.5 -1,-0.7 1.2,-0.4 1.2,-1.6 0,-1 -0.8,-1.7 -0.4,-0.4 -0.9,-0.5 -0.5,-0.1 -1.3,-0.1 h -2.8 v 8.3 h 3.3 q 1.3,0 2,-0.7 z m -2.4,-6.5 q 0.7,0 1.2,0.3 0.4,0.3 0.4,0.9 0,0.4 -0.3,0.8 -0.3,0.3 -1.2,0.3 h -1.8 v -2.3 z m 0.1,3.3 q 0.9,0 1.3,0.4 0.5,0.4 0.5,1 0,0.7 -0.5,1 -0.4,0.4 -1.2,0.4 h -1.9 v -2.8 z m 4.7,-4.4 2.4,4.4 v 3.9 h 1.2 v -3.9 l 2.4,-4.4 h -1.4 l -1.6,3.1 -1.7,-3.1 z m 13.2,4.2 q 0.8,-0.7 0.8,-1.8 0,-1 -0.7,-1.7 -0.4,-0.4 -0.8,-0.6 -0.4,-0.1 -1.2,-0.1 h -2.9 v 8.3 h 1.2 v -3.5 h 1.6 q 1.3,0 2,-0.6 z m -1.9,-3.1 q 1.5,0 1.5,1.3 0,0.6 -0.4,1 -0.4,0.3 -1.1,0.3 h -1.7 v -2.6 z m 10.5,7.2 -2.1,-8.3 h -1.8 l -2.3,8.3 h 1.3 l 0.6,-2.4 h 2.4 l 0.5,2.4 z m -3,-7.3 0.8,3.8 h -1.8 z m 9.7,-0.6 q -0.7,-0.6 -1.7,-0.6 -1.2,0 -1.9,0.6 -0.7,0.7 -0.7,1.7 0,0.7 0.4,1.2 0.5,0.5 1.6,1 1,0.5 1.4,0.9 0.4,0.3 0.4,0.8 0,0.5 -0.4,0.9 -0.4,0.3 -1,0.3 -0.6,0 -1,-0.3 -0.4,-0.4 -0.4,-0.9 h -1.2 q 0,0.1 0,0.2 0,0.9 0.7,1.5 0.8,0.6 1.9,0.6 1.2,0 1.9,-0.6 0.8,-0.7 0.8,-1.7 0,-0.8 -0.5,-1.4 -0.5,-0.5 -1.5,-1.1 l -1,-0.4 q -0.9,-0.5 -0.9,-1.1 0,-0.5 0.4,-0.8 0.3,-0.3 0.9,-0.3 0.6,0 0.9,0.3 0.4,0.3 0.4,0.8 h 1.2 v -0.2 q 0,-0.8 -0.7,-1.4 z m 7.8,0 q -0.7,-0.6 -1.7,-0.6 -1.1,0 -1.9,0.6 -0.7,0.7 -0.7,1.7 0,0.7 0.4,1.2 0.5,0.5 1.6,1 1.1,0.5 1.5,0.9 0.4,0.3 0.4,0.8 0,0.5 -0.4,0.9 -0.5,0.3 -1.1,0.3 -0.6,0 -1,-0.3 -0.3,-0.4 -0.4,-0.9 h -1.2 q 0,0.1 0,0.2 0,0.9 0.8,1.5 0.7,0.6 1.8,0.6 1.2,0 1.9,-0.6 0.8,-0.7 0.8,-1.7 0,-0.8 -0.5,-1.4 -0.4,-0.5 -1.5,-1.1 l -1,-0.4 q -0.9,-0.5 -0.9,-1.1 0,-0.5 0.4,-0.8 0.4,-0.3 0.9,-0.3 0.6,0 1,0.3 0.3,0.3 0.3,0.8 h 1.2 v -0.2 q 0,-0.8 -0.7,-1.4 z" /><path
         id="low-oil-pressure2"
         fill-rule="evenodd"
         class="s10"
         d="m 383,114 h 87 v 28 h -87 z m 17.6,1.7 v 8.3 h 5.6 v -1.1 h -4.3 v -7.2 z m 8.1,1.1 q -0.9,1.2 -0.9,3.1 0,1.8 0.8,3 0.9,1.2 2.2,1.2 1.3,0 2.1,-1.2 0.8,-1.2 0.8,-3.1 0,-1.8 -0.8,-3 -0.9,-1.2 -2.1,-1.2 -1.3,0 -2.1,1.2 z m 3.3,0.7 q 0.5,0.9 0.5,2.3 0,1.5 -0.5,2.3 -0.4,0.9 -1.2,0.9 -0.9,0 -1.3,-0.8 -0.5,-0.9 -0.5,-2.3 0,-1.6 0.6,-2.5 0.4,-0.7 1.2,-0.7 0.8,0 1.2,0.8 z m 8.7,6.5 q 0.4,-1.5 0.7,-3.6 0.2,-2 0.2,-3.9 v -0.8 h -1.2 v 0.6 q 0,2.4 -0.4,5.3 v 0.4 l -0.9,-3.1 h -1 l -0.9,3 q -0.4,-2.5 -0.4,-5.8 v -0.4 h -1.2 v 0.8 q 0,1.5 0.2,3.7 0.3,2.2 0.7,3.8 h 1.3 l 0.8,-3 0.8,3 z m 11.4,-7.2 q -0.9,1.2 -0.9,3.1 0,1.8 0.9,3 0.8,1.2 2.1,1.2 1.3,0 2.1,-1.2 0.8,-1.2 0.8,-3.1 0,-1.8 -0.8,-3 -0.8,-1.2 -2.1,-1.2 -1.3,0 -2.1,1.2 z m 3.4,0.7 q 0.4,0.9 0.4,2.3 0,1.5 -0.4,2.3 -0.5,0.9 -1.3,0.9 -0.8,0 -1.3,-0.8 -0.4,-0.9 -0.4,-2.3 0,-1.6 0.5,-2.5 0.4,-0.7 1.2,-0.7 0.8,0 1.3,0.8 z m 8.4,-1.8 h -3.8 v 1.1 h 1.3 v 6.1 h -1.5 v 1.1 h 4.2 v -1.1 h -1.5 v -6.1 h 1.3 z m 3.6,0 v 8.3 h 5.5 v -1.1 h -4.3 v -7.2 z m -46.1,20.2 q 0.7,-0.7 0.7,-1.8 0,-1 -0.6,-1.7 -0.5,-0.4 -0.9,-0.6 -0.4,-0.1 -1.2,-0.1 h -2.9 v 8.3 h 1.2 v -3.4 h 1.6 q 1.4,0 2.1,-0.7 z m -2,-3.1 q 1.5,0 1.5,1.3 0,0.6 -0.4,1 -0.4,0.3 -1.1,0.3 h -1.7 v -2.6 z m 9.1,7.2 h 1.5 l -2.2,-3.7 q 0.8,-0.2 1.2,-0.8 0.5,-0.5 0.5,-1.4 0,-1.1 -0.7,-1.8 -0.7,-0.6 -1.9,-0.6 h -2.6 v 8.3 h 1.3 v -3.5 h 1 z m -1.9,-7.2 q 1.6,0 1.6,1.3 0,1.3 -1.6,1.3 h -1.1 v -2.6 z m 10.7,-1.1 h -5.1 v 8.3 h 5.2 v -1.1 h -3.9 v -2.7 h 3.3 v -1.1 h -3.3 v -2.3 h 3.8 z m 7,0.5 q -0.7,-0.6 -1.7,-0.6 -1.1,0 -1.9,0.6 -0.7,0.7 -0.7,1.7 0,0.7 0.4,1.2 0.5,0.5 1.6,1 1,0.5 1.4,0.9 0.5,0.3 0.5,0.8 0,0.5 -0.5,0.9 -0.4,0.3 -1,0.3 -0.6,0 -1,-0.3 -0.4,-0.3 -0.4,-0.9 h -1.2 q 0,0.1 0,0.2 0,0.9 0.8,1.5 0.7,0.7 1.8,0.7 1.2,0 1.9,-0.7 0.8,-0.7 0.8,-1.7 0,-0.8 -0.5,-1.4 -0.4,-0.5 -1.5,-1 l -1,-0.5 q -0.9,-0.4 -0.9,-1.1 0,-0.5 0.4,-0.8 0.4,-0.3 0.9,-0.3 0.6,0 0.9,0.3 0.4,0.3 0.4,0.8 h 1.2 v -0.2 q 0,-0.8 -0.7,-1.4 z m 7.8,0 q -0.7,-0.6 -1.7,-0.6 -1.1,0 -1.8,0.6 -0.8,0.7 -0.8,1.7 0,0.7 0.5,1.2 0.4,0.5 1.5,1 1.1,0.5 1.5,0.9 0.4,0.3 0.4,0.8 0,0.5 -0.4,0.9 -0.4,0.3 -1.1,0.3 -0.6,0 -0.9,-0.3 -0.4,-0.3 -0.5,-0.9 h -1.2 q 0,0.1 0,0.2 0,0.9 0.8,1.5 0.8,0.7 1.9,0.7 1.1,0 1.9,-0.7 0.7,-0.7 0.7,-1.7 0,-0.8 -0.4,-1.4 -0.5,-0.5 -1.6,-1 l -1,-0.5 q -0.8,-0.4 -0.8,-1.1 0,-0.5 0.3,-0.8 0.4,-0.3 0.9,-0.3 0.6,0 1,0.3 0.3,0.3 0.3,0.8 h 1.2 v -0.2 q 0,-0.8 -0.7,-1.4 z m 3.3,6.4 q 0.2,0.4 0.5,0.8 0.8,0.8 2.2,0.8 1.5,0 2.2,-0.9 0.4,-0.3 0.5,-0.8 0.1,-0.5 0.1,-1.3 v -5.5 h -1.2 v 5.5 q 0,0.6 -0.1,0.9 0,0.2 -0.2,0.4 -0.5,0.5 -1.3,0.5 -0.8,0 -1.2,-0.4 -0.4,-0.4 -0.4,-1.3 v -5.6 h -1.2 v 5.7 q 0,0.7 0.1,1.2 z m 12.2,1.5 h 1.5 l -2.2,-3.8 q 0.8,-0.1 1.2,-0.7 0.5,-0.6 0.5,-1.5 0,-1.1 -0.7,-1.7 -0.7,-0.7 -1.9,-0.7 h -2.6 v 8.4 h 1.3 v -3.5 h 1 z m -1.9,-7.3 q 1.6,0 1.6,1.4 0,1.3 -1.6,1.3 h -1.1 v -2.7 z m 10.7,-1.1 h -5.1 v 8.4 h 5.2 V 139 h -3.9 v -2.7 h 3.3 v -1.1 h -3.3 v -2.4 h 3.8 z" /><path
         id="thrust2"
         fill-rule="evenodd"
         class="s10"
         d="m 383,145 h 87 v 28 h -87 z m 26.8,8.7 h -5.7 v 1.1 h 2.2 v 7.2 h 1.2 v -7.2 h 2.3 z m 7.6,8.3 v -8.3 h -1.2 v 3.4 h -2.9 v -3.4 h -1.2 v 8.3 h 1.2 v -3.7 h 2.9 v 3.7 z m 6.9,0 h 1.4 l -2.2,-3.7 q 0.8,-0.2 1.3,-0.8 0.4,-0.5 0.4,-1.4 0,-1.1 -0.7,-1.8 -0.7,-0.6 -1.9,-0.6 h -2.5 v 8.3 h 1.2 v -3.5 h 1.1 z m -1.9,-7.2 q 1.6,0 1.6,1.3 0,1.3 -1.6,1.3 h -1.1 v -2.6 z m 5.3,5.7 q 0.1,0.5 0.5,0.9 0.8,0.7 2.1,0.7 1.6,0 2.3,-0.8 0.3,-0.4 0.5,-0.8 0.1,-0.5 0.1,-1.3 v -5.5 H 432 v 5.5 q 0,0.6 -0.1,0.8 -0.1,0.3 -0.3,0.5 -0.4,0.5 -1.2,0.5 -0.9,0 -1.3,-0.4 -0.3,-0.4 -0.3,-1.3 v -5.6 h -1.3 v 5.6 q 0,0.8 0.2,1.2 z m 12.3,-6.3 q -0.7,-0.6 -1.7,-0.6 -1.1,0 -1.8,0.6 -0.8,0.7 -0.8,1.7 0,0.7 0.5,1.2 0.4,0.5 1.5,1 1.1,0.5 1.5,0.9 0.4,0.3 0.4,0.8 0,0.5 -0.4,0.9 -0.4,0.3 -1,0.3 -0.6,0 -1,-0.3 -0.4,-0.4 -0.4,-0.9 h -1.2 q -0.1,0.1 -0.1,0.2 0,0.9 0.8,1.5 0.8,0.6 1.9,0.6 1.1,0 1.9,-0.6 0.7,-0.7 0.7,-1.7 0,-0.8 -0.4,-1.4 -0.5,-0.6 -1.6,-1.1 l -0.9,-0.4 q -0.9,-0.5 -0.9,-1.1 0,-0.5 0.3,-0.8 0.4,-0.3 1,-0.3 0.6,0 0.9,0.3 0.3,0.3 0.3,0.8 h 1.2 v -0.2 q 0,-0.8 -0.7,-1.4 z m 8.9,-0.5 h -5.8 v 1.1 h 2.3 v 7.2 h 1.2 v -7.2 h 2.3 z" /><path
         id="fuel-flow2"
         fill-rule="evenodd"
         class="s10"
         d="m 383,176 h 87 v 28 h -87 z m 14.8,8.7 h -4.3 v 8.3 h 1.2 v -3.8 h 2.5 v -1.1 h -2.5 v -2.3 h 3.1 z m 2.6,6.8 q 0.1,0.5 0.5,0.8 0.7,0.8 2.1,0.8 1.5,0 2.3,-0.8 0.3,-0.4 0.4,-0.8 0.1,-0.5 0.1,-1.3 v -5.5 h -1.2 v 5.5 q 0,0.6 0,0.8 -0.1,0.3 -0.3,0.5 -0.5,0.5 -1.3,0.5 -0.8,0 -1.2,-0.4 -0.4,-0.4 -0.4,-1.4 v -5.5 h -1.2 v 5.6 q 0,0.8 0.2,1.2 z m 13.1,-6.8 h -5 v 8.3 h 5.1 v -1.1 h -3.9 v -2.7 h 3.3 v -1.1 h -3.3 v -2.3 h 3.8 z m 2.8,0 v 8.3 h 5.5 v -1.1 h -4.3 v -7.2 z m 20.7,0 h -4.4 v 8.3 h 1.2 v -3.8 h 2.5 v -1.1 h -2.5 v -2.3 h 3.2 z m 2.8,0 v 8.4 h 5.5 v -1.2 H 441 v -7.2 z m 8.1,1.1 q -0.8,1.3 -0.8,3.1 0,1.9 0.8,3.1 0.8,1.2 2.1,1.2 1.3,0 2.2,-1.2 0.8,-1.2 0.8,-3.1 0,-1.8 -0.9,-3.1 -0.8,-1.2 -2.1,-1.2 -1.2,0 -2.1,1.2 z m 3.4,0.8 q 0.5,0.8 0.5,2.2 0,1.6 -0.5,2.4 -0.5,0.8 -1.3,0.8 -0.8,0 -1.3,-0.8 -0.4,-0.8 -0.4,-2.3 0,-1.6 0.5,-2.5 0.4,-0.7 1.2,-0.7 0.8,0 1.3,0.9 z m 8.7,6.5 q 0.4,-1.6 0.6,-3.6 0.3,-2.1 0.3,-3.9 v -0.9 h -1.3 v 0.6 q 0,2.5 -0.3,5.3 v 0.4 l -1,-3.1 h -0.9 l -0.9,3.1 q -0.4,-2.6 -0.4,-5.8 v -0.5 h -1.3 v 0.8 q 0,1.6 0.3,3.8 0.3,2.2 0.6,3.8 h 1.4 l 0.8,-3 0.7,3 z" /></g><g
       id="warningN1"><path
         id="start-valve-open"
         fill-rule="evenodd"
         class="s10"
         d="m 284,52 h 87 v 28 h -87 z m 6.2,2.1 q -0.7,-0.5 -1.7,-0.5 -1.1,0 -1.8,0.6 -0.8,0.6 -0.8,1.6 0,0.8 0.5,1.3 0.4,0.5 1.5,1 1.1,0.4 1.5,0.8 0.4,0.4 0.4,0.9 0,0.5 -0.4,0.8 -0.4,0.4 -1.1,0.4 -0.6,0 -0.9,-0.4 -0.4,-0.3 -0.5,-0.9 h -1.2 q 0,0.2 0,0.3 0,0.9 0.8,1.5 0.8,0.6 1.9,0.6 1.1,0 1.9,-0.7 0.7,-0.6 0.7,-1.6 0,-0.8 -0.5,-1.4 -0.4,-0.6 -1.5,-1.1 l -1,-0.5 q -0.8,-0.4 -0.8,-1 0,-0.5 0.3,-0.8 0.4,-0.3 0.9,-0.3 0.6,0 1,0.2 0.3,0.3 0.3,0.8 h 1.2 v -0.2 q 0,-0.8 -0.7,-1.4 z m 8.9,-0.4 h -5.8 v 1.1 h 2.3 V 62 h 1.2 v -7.2 h 2.3 z m 8,8.3 -2.1,-8.3 h -1.8 l -2.3,8.3 h 1.3 l 0.6,-2.4 h 2.4 l 0.5,2.4 z m -3,-7.3 0.8,3.8 h -1.8 z m 9.6,7.3 h 1.4 l -2.2,-3.8 q 0.8,-0.1 1.2,-0.7 0.5,-0.6 0.5,-1.5 0,-1.1 -0.7,-1.7 -0.7,-0.7 -1.9,-0.7 h -2.6 V 62 h 1.3 v -3.5 h 1 z m -1.9,-7.3 q 1.6,0 1.6,1.4 0,1.3 -1.5,1.3 h -1.2 v -2.7 z m 10.9,-1.1 h -5.8 v 1.1 h 2.3 V 62 h 1.2 v -7.3 h 2.3 z m 9.6,0 2.3,8.4 h 1.7 l 2.3,-8.4 h -1.2 l -1.9,7.2 -1.9,-7.2 z m 14,8.4 -2.1,-8.4 h -1.8 l -2.2,8.4 h 1.2 l 0.6,-2.4 h 2.4 L 345,62 Z m -3.1,-7.3 0.9,3.8 h -1.8 z m 4.6,-1.1 2.3,8.3 h 1.7 l 2.3,-8.3 h -1.2 l -1.9,7.2 -1.9,-7.2 z m 8.6,0 v 8.3 h 5.5 v -1.1 h -4.3 v -7.2 z m 12.8,0 h -5 v 8.3 h 5.2 v -1.1 h -4 v -2.7 h 3.3 V 57 h -3.3 v -2.3 h 3.8 z m -55.6,17.1 q -0.8,1.3 -0.8,3.1 0,1.9 0.8,3.1 0.8,1.2 2.1,1.2 1.3,0 2.2,-1.2 0.8,-1.2 0.8,-3.1 0,-1.8 -0.9,-3.1 -0.8,-1.2 -2.1,-1.2 -1.2,0 -2.1,1.2 z m 3.4,0.8 q 0.5,0.8 0.5,2.2 0,1.6 -0.5,2.4 -0.5,0.8 -1.3,0.8 -0.8,0 -1.2,-0.8 -0.5,-0.8 -0.5,-2.3 0,-1.6 0.5,-2.5 0.4,-0.7 1.2,-0.7 0.8,0 1.3,0.9 z m 8.9,2.4 q 0.8,-0.7 0.8,-1.8 0,-1.1 -0.7,-1.8 -0.4,-0.4 -0.8,-0.5 -0.5,-0.2 -1.2,-0.2 h -3 V 78 h 1.3 v -3.5 h 1.6 q 1.3,0 2,-0.6 z M 324,70.7 q 1.5,0 1.5,1.4 0,0.6 -0.4,0.9 -0.4,0.4 -1.2,0.4 h -1.6 v -2.7 z m 10,-1.1 h -5 V 78 h 5.2 v -1.2 h -4 v -2.6 h 3.3 V 73 h -3.3 v -2.3 h 3.8 z m 2.4,0 V 78 h 1.2 v -6.4 l 3,6.4 h 1.4 v -8.4 h -1.1 v 6.2 l -3,-6.2 z" /><path
         id="oil-filter-bypass"
         fill-rule="evenodd"
         class="s10"
         d="m 284,83 h 87 v 28 h -87 z m 6.2,2.8 q -0.9,1.2 -0.9,3.1 0,1.8 0.9,3 0.8,1.2 2.1,1.2 1.3,0 2.1,-1.2 0.8,-1.2 0.8,-3.1 0,-1.8 -0.8,-3 -0.9,-1.2 -2.1,-1.2 -1.3,0 -2.1,1.2 z m 3.3,0.7 q 0.5,0.9 0.5,2.3 0,1.5 -0.4,2.3 -0.5,0.9 -1.3,0.9 -0.8,0 -1.3,-0.8 -0.4,-0.9 -0.4,-2.3 0,-1.6 0.5,-2.5 0.4,-0.7 1.2,-0.7 0.8,0 1.2,0.8 z m 8.5,-1.8 h -3.8 v 1.1 h 1.3 v 6.1 H 298 V 93 h 4.2 v -1.1 h -1.5 v -6.1 h 1.3 z m 3.6,0 V 93 h 5.5 v -1.1 h -4.3 v -7.2 z m 20.6,0 h -4.3 V 93 h 1.2 v -3.8 h 2.5 v -1.1 h -2.5 v -2.3 h 3.1 z m 7.1,0 h -3.8 v 1.1 h 1.3 v 6.1 h -1.5 V 93 h 4.3 V 91.9 H 332 v -6.1 h 1.3 z m 3.6,0 v 8.4 h 5.5 v -1.2 h -4.3 v -7.2 z m 13.1,0 h -5.8 v 1.1 h 2.3 v 7.3 h 1.2 v -7.3 h 2.3 z m 7.6,0 h -5 v 8.4 h 5.1 V 92 h -3.9 v -2.7 h 3.3 v -1.1 h -3.3 v -2.4 h 3.8 z m 6.9,8.4 h 1.4 l -2.2,-3.8 q 0.8,-0.1 1.2,-0.7 0.5,-0.6 0.5,-1.4 0,-1.2 -0.7,-1.8 -0.7,-0.7 -1.9,-0.7 h -2.5 v 8.4 h 1.2 v -3.5 h 1 z m -1.8,-7.2 q 1.5,0 1.5,1.3 0,1.3 -1.5,1.3 h -1.1 v -2.6 z m -52.2,22.5 q 0.7,-0.8 0.7,-1.8 0,-0.7 -0.4,-1.2 -0.4,-0.5 -1,-0.7 1.2,-0.4 1.2,-1.6 0,-1 -0.8,-1.7 -0.4,-0.4 -0.9,-0.5 -0.5,-0.1 -1.3,-0.1 h -2.8 v 8.3 h 3.3 q 1.3,0 2,-0.7 z m -2.4,-6.5 q 0.7,0 1.2,0.3 0.4,0.3 0.4,0.9 0,0.4 -0.3,0.8 -0.3,0.3 -1.2,0.3 h -1.8 v -2.3 z m 0.1,3.3 q 0.9,0 1.3,0.4 0.5,0.4 0.5,1 0,0.7 -0.5,1 -0.4,0.4 -1.2,0.4 h -1.9 v -2.8 z m 4.7,-4.4 2.4,4.4 v 3.9 h 1.2 v -3.9 l 2.4,-4.4 h -1.4 l -1.6,3.1 -1.7,-3.1 z m 13.2,4.2 q 0.8,-0.7 0.8,-1.8 0,-1 -0.7,-1.7 -0.4,-0.4 -0.8,-0.6 -0.4,-0.1 -1.2,-0.1 h -2.9 v 8.3 h 1.2 v -3.5 h 1.6 q 1.3,0 2,-0.6 z m -1.9,-3.1 q 1.5,0 1.5,1.3 0,0.6 -0.4,1 -0.4,0.3 -1.1,0.3 h -1.7 v -2.6 z m 10.5,7.2 -2.1,-8.3 h -1.8 l -2.3,8.3 h 1.3 l 0.6,-2.4 h 2.4 l 0.5,2.4 z m -3,-7.3 0.8,3.8 h -1.8 z m 9.7,-0.6 q -0.7,-0.6 -1.7,-0.6 -1.2,0 -1.9,0.6 -0.7,0.7 -0.7,1.7 0,0.7 0.4,1.2 0.5,0.5 1.6,1 1,0.5 1.4,0.9 0.4,0.3 0.4,0.8 0,0.5 -0.4,0.9 -0.4,0.3 -1,0.3 -0.6,0 -1,-0.3 -0.4,-0.4 -0.4,-0.9 h -1.2 q 0,0.1 0,0.2 0,0.9 0.7,1.5 0.8,0.6 1.9,0.6 1.2,0 1.9,-0.6 0.8,-0.7 0.8,-1.7 0,-0.8 -0.5,-1.4 -0.5,-0.5 -1.5,-1.1 l -1,-0.4 q -0.9,-0.5 -0.9,-1.1 0,-0.5 0.4,-0.8 0.3,-0.3 0.9,-0.3 0.6,0 0.9,0.3 0.4,0.3 0.4,0.8 h 1.2 v -0.2 q 0,-0.8 -0.7,-1.4 z m 7.8,0 q -0.7,-0.6 -1.7,-0.6 -1.1,0 -1.9,0.6 -0.7,0.7 -0.7,1.7 0,0.7 0.4,1.2 0.5,0.5 1.6,1 1.1,0.5 1.5,0.9 0.4,0.3 0.4,0.8 0,0.5 -0.4,0.9 -0.5,0.3 -1.1,0.3 -0.6,0 -1,-0.3 -0.3,-0.4 -0.4,-0.9 h -1.2 q 0,0.1 0,0.2 0,0.9 0.8,1.5 0.7,0.6 1.8,0.6 1.2,0 1.9,-0.6 0.8,-0.7 0.8,-1.7 0,-0.8 -0.5,-1.4 -0.4,-0.5 -1.5,-1.1 l -1,-0.4 q -0.9,-0.5 -0.9,-1.1 0,-0.5 0.4,-0.8 0.4,-0.3 0.9,-0.3 0.6,0 1,0.3 0.3,0.3 0.3,0.8 h 1.2 v -0.2 q 0,-0.8 -0.7,-1.4 z" /><path
         id="low-oil-pressure"
         fill-rule="evenodd"
         class="s10"
         d="m 284,114 h 87 v 28 h -87 z m 17.6,1.7 v 8.3 h 5.6 v -1.1 h -4.3 v -7.2 z m 8.1,1.1 q -0.9,1.2 -0.9,3.1 0,1.8 0.8,3 0.9,1.2 2.2,1.2 1.3,0 2.1,-1.2 0.8,-1.2 0.8,-3.1 0,-1.8 -0.8,-3 -0.9,-1.2 -2.1,-1.2 -1.3,0 -2.1,1.2 z m 3.3,0.7 q 0.5,0.9 0.5,2.3 0,1.5 -0.5,2.3 -0.4,0.9 -1.2,0.9 -0.9,0 -1.3,-0.8 -0.5,-0.9 -0.5,-2.3 0,-1.6 0.6,-2.5 0.4,-0.7 1.2,-0.7 0.8,0 1.2,0.8 z m 8.7,6.5 q 0.4,-1.5 0.7,-3.6 0.2,-2 0.2,-3.9 v -0.8 h -1.2 v 0.6 q 0,2.4 -0.4,5.3 v 0.4 l -0.9,-3.1 h -1 l -0.9,3 q -0.4,-2.5 -0.4,-5.8 v -0.4 h -1.2 v 0.8 q 0,1.5 0.2,3.7 0.3,2.2 0.7,3.8 h 1.3 l 0.8,-3 0.8,3 z m 11.4,-7.2 q -0.9,1.2 -0.9,3.1 0,1.8 0.9,3 0.8,1.2 2.1,1.2 1.3,0 2.1,-1.2 0.8,-1.2 0.8,-3.1 0,-1.8 -0.8,-3 -0.8,-1.2 -2.1,-1.2 -1.3,0 -2.1,1.2 z m 3.4,0.7 q 0.4,0.9 0.4,2.3 0,1.5 -0.4,2.3 -0.5,0.9 -1.3,0.9 -0.8,0 -1.3,-0.8 -0.4,-0.9 -0.4,-2.3 0,-1.6 0.5,-2.5 0.4,-0.7 1.2,-0.7 0.8,0 1.3,0.8 z m 8.4,-1.8 h -3.8 v 1.1 h 1.3 v 6.1 h -1.5 v 1.1 h 4.2 v -1.1 h -1.5 v -6.1 h 1.3 z m 3.6,0 v 8.3 h 5.5 v -1.1 h -4.3 v -7.2 z m -46.1,20.2 q 0.7,-0.7 0.7,-1.8 0,-1 -0.6,-1.7 -0.5,-0.4 -0.9,-0.6 -0.4,-0.1 -1.2,-0.1 h -2.9 v 8.3 h 1.2 v -3.4 h 1.6 q 1.4,0 2.1,-0.7 z m -2,-3.1 q 1.5,0 1.5,1.3 0,0.6 -0.4,1 -0.4,0.3 -1.1,0.3 h -1.7 v -2.6 z m 9.1,7.2 h 1.5 l -2.2,-3.7 q 0.8,-0.2 1.2,-0.8 0.5,-0.5 0.5,-1.4 0,-1.1 -0.7,-1.8 -0.7,-0.6 -1.9,-0.6 h -2.6 v 8.3 h 1.3 v -3.5 h 1 z m -1.9,-7.2 q 1.6,0 1.6,1.3 0,1.3 -1.6,1.3 h -1.1 v -2.6 z m 10.7,-1.1 h -5.1 v 8.3 h 5.2 v -1.1 h -3.9 v -2.7 h 3.3 v -1.1 h -3.3 v -2.3 h 3.8 z m 7,0.5 q -0.7,-0.6 -1.7,-0.6 -1.1,0 -1.9,0.6 -0.7,0.7 -0.7,1.7 0,0.7 0.4,1.2 0.5,0.5 1.6,1 1,0.5 1.4,0.9 0.5,0.3 0.5,0.8 0,0.5 -0.5,0.9 -0.4,0.3 -1,0.3 -0.6,0 -1,-0.3 -0.4,-0.3 -0.4,-0.9 h -1.2 q 0,0.1 0,0.2 0,0.9 0.8,1.5 0.7,0.7 1.8,0.7 1.2,0 1.9,-0.7 0.8,-0.7 0.8,-1.7 0,-0.8 -0.5,-1.4 -0.4,-0.5 -1.5,-1 l -1,-0.5 q -0.9,-0.4 -0.9,-1.1 0,-0.5 0.4,-0.8 0.4,-0.3 0.9,-0.3 0.6,0 0.9,0.3 0.4,0.3 0.4,0.8 h 1.2 v -0.2 q 0,-0.8 -0.7,-1.4 z m 7.8,0 q -0.7,-0.6 -1.7,-0.6 -1.1,0 -1.8,0.6 -0.8,0.7 -0.8,1.7 0,0.7 0.5,1.2 0.4,0.5 1.5,1 1.1,0.5 1.5,0.9 0.4,0.3 0.4,0.8 0,0.5 -0.4,0.9 -0.4,0.3 -1.1,0.3 -0.6,0 -0.9,-0.3 -0.4,-0.3 -0.5,-0.9 h -1.2 q 0,0.1 0,0.2 0,0.9 0.8,1.5 0.8,0.7 1.9,0.7 1.1,0 1.9,-0.7 0.7,-0.7 0.7,-1.7 0,-0.8 -0.4,-1.4 -0.5,-0.5 -1.6,-1 l -1,-0.5 q -0.8,-0.4 -0.8,-1.1 0,-0.5 0.3,-0.8 0.4,-0.3 0.9,-0.3 0.6,0 1,0.3 0.3,0.3 0.3,0.8 h 1.2 v -0.2 q 0,-0.8 -0.7,-1.4 z m 3.3,6.4 q 0.2,0.4 0.5,0.8 0.8,0.8 2.2,0.8 1.5,0 2.2,-0.9 0.4,-0.3 0.5,-0.8 0.1,-0.5 0.1,-1.3 v -5.5 h -1.2 v 5.5 q 0,0.6 -0.1,0.9 0,0.2 -0.2,0.4 -0.5,0.5 -1.3,0.5 -0.8,0 -1.2,-0.4 -0.4,-0.4 -0.4,-1.3 v -5.6 h -1.2 v 5.7 q 0,0.7 0.1,1.2 z m 12.2,1.5 h 1.5 l -2.2,-3.8 q 0.8,-0.1 1.2,-0.7 0.5,-0.6 0.5,-1.5 0,-1.1 -0.7,-1.7 -0.7,-0.7 -1.9,-0.7 h -2.6 v 8.4 h 1.3 v -3.5 h 1 z m -1.9,-7.3 q 1.6,0 1.6,1.4 0,1.3 -1.6,1.3 h -1.1 v -2.7 z m 10.7,-1.1 h -5.1 v 8.4 h 5.2 V 139 h -3.9 v -2.7 h 3.3 v -1.1 h -3.3 v -2.4 h 3.8 z" /><path
         id="thrust"
         fill-rule="evenodd"
         class="s10"
         d="m 284,145 h 87 v 28 h -87 z m 26.8,8.7 h -5.7 v 1.1 h 2.2 v 7.2 h 1.2 v -7.2 h 2.3 z m 7.6,8.3 v -8.3 h -1.2 v 3.4 h -2.9 v -3.4 h -1.2 v 8.3 h 1.2 v -3.7 h 2.9 v 3.7 z m 6.9,0 h 1.4 l -2.2,-3.7 q 0.8,-0.2 1.3,-0.8 0.4,-0.5 0.4,-1.4 0,-1.1 -0.7,-1.8 -0.7,-0.6 -1.9,-0.6 h -2.5 v 8.3 h 1.2 v -3.5 h 1.1 z m -1.9,-7.2 q 1.6,0 1.6,1.3 0,1.3 -1.6,1.3 h -1.1 v -2.6 z m 5.3,5.7 q 0.1,0.5 0.5,0.9 0.8,0.7 2.1,0.7 1.6,0 2.3,-0.8 0.3,-0.4 0.5,-0.8 0.1,-0.5 0.1,-1.3 v -5.5 H 333 v 5.5 q 0,0.6 -0.1,0.8 -0.1,0.3 -0.3,0.5 -0.4,0.5 -1.2,0.5 -0.9,0 -1.3,-0.4 -0.3,-0.4 -0.3,-1.3 v -5.6 h -1.3 v 5.6 q 0,0.8 0.2,1.2 z m 12.3,-6.3 q -0.7,-0.6 -1.7,-0.6 -1.1,0 -1.8,0.6 -0.8,0.7 -0.8,1.7 0,0.7 0.5,1.2 0.4,0.5 1.5,1 1.1,0.5 1.5,0.9 0.4,0.3 0.4,0.8 0,0.5 -0.4,0.9 -0.4,0.3 -1,0.3 -0.6,0 -1,-0.3 -0.4,-0.4 -0.4,-0.9 h -1.2 q -0.1,0.1 -0.1,0.2 0,0.9 0.8,1.5 0.8,0.6 1.9,0.6 1.1,0 1.9,-0.6 0.7,-0.7 0.7,-1.7 0,-0.8 -0.4,-1.4 -0.5,-0.6 -1.6,-1.1 l -0.9,-0.4 q -0.9,-0.5 -0.9,-1.1 0,-0.5 0.3,-0.8 0.4,-0.3 1,-0.3 0.6,0 0.9,0.3 0.3,0.3 0.3,0.8 h 1.2 v -0.2 q 0,-0.8 -0.7,-1.4 z m 8.9,-0.5 h -5.8 v 1.1 h 2.3 v 7.2 h 1.2 v -7.2 h 2.3 z" /><path
         id="fuel-flow"
         fill-rule="evenodd"
         class="s10"
         d="m 284,176 h 87 v 28 h -87 z m 14.8,8.7 h -4.3 v 8.3 h 1.2 v -3.8 h 2.5 v -1.1 h -2.5 v -2.3 h 3.1 z m 2.6,6.8 q 0.1,0.5 0.5,0.8 0.7,0.8 2.1,0.8 1.5,0 2.3,-0.8 0.3,-0.4 0.4,-0.8 0.1,-0.5 0.1,-1.3 v -5.5 h -1.2 v 5.5 q 0,0.6 0,0.8 -0.1,0.3 -0.3,0.5 -0.5,0.5 -1.3,0.5 -0.8,0 -1.2,-0.4 -0.4,-0.4 -0.4,-1.4 v -5.5 h -1.2 v 5.6 q 0,0.8 0.2,1.2 z m 13.1,-6.8 h -5 v 8.3 h 5.1 v -1.1 h -3.9 v -2.7 h 3.3 v -1.1 h -3.3 v -2.3 h 3.8 z m 2.8,0 v 8.3 h 5.5 v -1.1 h -4.3 v -7.2 z m 20.7,0 h -4.4 v 8.3 h 1.2 v -3.8 h 2.5 v -1.1 h -2.5 v -2.3 h 3.2 z m 2.8,0 v 8.4 h 5.5 v -1.2 H 342 v -7.2 z m 8.1,1.1 q -0.8,1.3 -0.8,3.1 0,1.9 0.8,3.1 0.8,1.2 2.1,1.2 1.3,0 2.2,-1.2 0.8,-1.2 0.8,-3.1 0,-1.8 -0.9,-3.1 -0.8,-1.2 -2.1,-1.2 -1.2,0 -2.1,1.2 z m 3.4,0.8 q 0.5,0.8 0.5,2.2 0,1.6 -0.5,2.4 -0.5,0.8 -1.3,0.8 -0.8,0 -1.3,-0.8 -0.4,-0.8 -0.4,-2.3 0,-1.6 0.5,-2.5 0.4,-0.7 1.2,-0.7 0.8,0 1.3,0.9 z m 8.7,6.5 q 0.4,-1.6 0.6,-3.6 0.3,-2.1 0.3,-3.9 v -0.9 h -1.3 v 0.6 q 0,2.5 -0.3,5.3 v 0.4 l -1,-3.1 h -0.9 l -0.9,3.1 q -0.4,-2.6 -0.4,-5.8 v -0.5 h -1.3 v 0.8 q 0,1.6 0.3,3.8 0.3,2.2 0.6,3.8 h 1.4 l 0.8,-3 0.7,3 z" /></g></g><g
     id="N2"><path
   id="Shape 12"
   fill-rule="evenodd"
   class="s1"
   d="m 195,264 h 69 v 27 h -69 z m 3,24 h 63 V 267 H 198 Z M 70,264 h 69 v 27 H 70 Z m 3,24 h 63 V 267 H 73 Z" /><path
   id="Shape 11"
   class="s11"
   d="m 159.8,276.9 -10.5,-5.1 1.8,-3.8 10.5,5 z m -125,0 -10.5,-5 1.9,-3.9 10.5,5.1 z" /><path
   id="n2-dial2"
   class="s1"
   d="m 195,296 c 0,-1.1 0.9,-2 2,-2 h 43 c 1.1,0 2,0.9 2,2 0,1.1 -0.9,2 -2,2 h -43 c -1.1,0 -2,-0.9 -2,-2 z" />
<path
   id="n2-dial1"
   class="s1"
   d="m 70,296 c 0,-1.1 0.9,-2 2,-2 h 43 c 1.1,0 2,0.9 2,2 0,1.1 -0.9,2 -2,2 H 72 c -1.1,0 -2,-0.9 -2,-2 z" />
<path
   id="Shape 10"
   class="s1"
   d="m 197,340 c -24.9,0 -45,-20.1 -45,-45 0,-7.1 1.6,-13.7 4.5,-19.7 l 2.7,1.3 c -2.7,5.6 -4.2,11.8 -4.2,18.4 0,23.2 18.8,42 42,42 22.9,0 41.5,-18.2 42,-41 h 3 c -0.5,24.4 -20.4,44 -45,44 z m -125,0 c -24.9,0 -45,-20.1 -45,-45 0,-7.1 1.6,-13.7 4.5,-19.7 l 2.7,1.3 c -2.7,5.6 -4.2,11.8 -4.2,18.4 0,23.2 18.8,42 42,42 22.9,0 41.5,-18.2 42,-41 h 3 c -0.5,24.4 -20.4,44 -45,44 z" /><path
   id="motoring1"
   fill-rule="evenodd"
   class="s1"
   d="m 37.1,301.7 1.2,4 1.2,-4 h 2.4 V 312 h -1.5 v -8.7 l -1.5,5.3 h -1.2 l -1.5,-5.3 V 312 H 34.7 V 301.7 Z M 48,301.6 q 1.5,0 2.5,1.5 1.1,1.5 1.1,3.7 0,2.4 -1,3.9 -1,1.4 -2.7,1.4 -1.5,0 -2.6,-1.4 -1,-1.5 -1,-3.8 0,-2.3 1.1,-3.8 1,-1.5 2.6,-1.5 z m 0,1.4 q -1,0 -1.5,0.9 -0.7,1.1 -0.7,3 0,1.8 0.6,2.8 0.5,1 1.5,1 1,0 1.6,-1 0.6,-1 0.6,-2.9 0,-1.7 -0.6,-2.8 -0.6,-1 -1.5,-1 z m 13.1,0.1 h -2.8 v 8.9 h -1.5 v -8.9 H 54 v -1.4 h 7.1 z m 6.1,-1.5 q 1.6,0 2.6,1.5 1.1,1.5 1.1,3.8 0,2.3 -1.1,3.8 -1,1.4 -2.6,1.4 -1.6,0 -2.6,-1.4 -1,-1.5 -1,-3.7 0,-2.3 1,-3.9 1.1,-1.5 2.6,-1.5 z m 0,1.4 q -1,0 -1.5,0.9 -0.6,1.1 -0.6,3.1 0,1.8 0.5,2.8 0.6,1 1.6,1 1,0 1.6,-1.1 0.5,-1 0.5,-2.8 0,-1.8 -0.5,-2.9 -0.6,-1 -1.6,-1 z m 9.4,4.7 h -1.3 v 4.3 h -1.5 v -10.2 h 3.1 q 1.5,0 2.3,0.8 0.9,0.8 0.9,2.1 0,1.1 -0.6,1.8 -0.5,0.7 -1.5,0.9 l 2.7,4.6 H 79 Z m -1.4,-4.6 v 3.2 h 1.4 q 2,0 2,-1.6 0,-1.6 -2,-1.6 z m 13.5,0 h -1.6 v 7.5 H 89 v 1.4 h -5.2 v -1.4 h 1.8 v -7.5 h -1.5 v -1.4 h 4.6 z m 5.7,-1.3 3.7,7.5 v -7.5 h 1.4 V 312 H 97.8 L 94,304.1 v 7.9 h -1.4 v -10.2 z m 13.1,8.7 v -2.6 h -2.1 v -1.3 h 3.6 v 5 q -1.5,0.6 -2.9,0.6 -1.9,0 -3,-1.4 -1,-1.4 -1,-3.9 0,-1.7 0.4,-2.7 0.3,-1 1.1,-1.7 1.1,-0.9 2.7,-0.9 1.2,0 1.9,0.7 0.4,0.3 0.6,0.7 0.3,0.4 0.3,0.7 0,0 -0.1,0.1 h -1.5 q -0.2,-0.8 -1.2,-0.8 -1.3,0 -2,0.9 -0.7,1 -0.7,2.9 0,4 2.7,4 0.6,0 1.2,-0.3 z" /><path
   id="motoring2"
   fill-rule="evenodd"
   class="s1"
   d="m 162.1,301.7 1.2,4 1.2,-4 h 2.4 V 312 h -1.5 v -8.7 l -1.5,5.3 h -1.2 l -1.5,-5.3 v 8.7 h -1.5 v -10.3 z m 10.9,-0.1 q 1.5,0 2.5,1.5 1.1,1.5 1.1,3.7 0,2.4 -1,3.9 -1,1.4 -2.7,1.4 -1.5,0 -2.6,-1.4 -1,-1.5 -1,-3.8 0,-2.3 1.1,-3.8 1,-1.5 2.6,-1.5 z m 0,1.4 q -1,0 -1.5,0.9 -0.7,1.1 -0.7,3 0,1.8 0.6,2.8 0.5,1 1.5,1 1,0 1.6,-1 0.6,-1 0.6,-2.9 0,-1.7 -0.6,-2.8 -0.6,-1 -1.5,-1 z m 13.1,0.1 h -2.8 v 8.9 h -1.5 v -8.9 H 179 v -1.4 h 7.1 z m 6.1,-1.5 q 1.6,0 2.6,1.5 1.1,1.5 1.1,3.8 0,2.3 -1.1,3.8 -1,1.4 -2.6,1.4 -1.6,0 -2.6,-1.4 -1,-1.5 -1,-3.7 0,-2.3 1,-3.9 1.1,-1.5 2.6,-1.5 z m 0,1.4 q -1,0 -1.5,0.9 -0.6,1.1 -0.6,3.1 0,1.8 0.5,2.8 0.6,1 1.6,1 1,0 1.6,-1.1 0.5,-1 0.5,-2.8 0,-1.8 -0.5,-2.9 -0.6,-1 -1.6,-1 z m 9.4,4.7 h -1.3 v 4.3 h -1.5 v -10.2 h 3.1 q 1.5,0 2.3,0.8 0.9,0.8 0.9,2.1 0,1.1 -0.6,1.8 -0.5,0.7 -1.5,0.9 l 2.7,4.6 H 204 Z m -1.4,-4.6 v 3.2 h 1.4 q 2,0 2,-1.6 0,-1.6 -2,-1.6 z m 13.5,0 h -1.6 v 7.5 h 1.9 v 1.4 h -5.2 v -1.4 h 1.8 v -7.5 h -1.5 v -1.4 h 4.6 z m 5.7,-1.3 3.7,7.5 v -7.5 h 1.4 V 312 h -1.7 l -3.8,-7.9 v 7.9 h -1.4 v -10.2 z m 13.1,8.7 v -2.6 h -2.1 v -1.3 h 3.6 v 5 q -1.5,0.6 -2.9,0.6 -1.9,0 -3,-1.4 -1,-1.4 -1,-3.9 0,-1.7 0.4,-2.7 0.3,-1 1.1,-1.7 1.1,-0.9 2.7,-0.9 1.2,0 1.9,0.7 0.4,0.3 0.6,0.7 0.3,0.4 0.3,0.7 0,0 -0.1,0.1 h -1.5 q -0.2,-0.8 -1.2,-0.8 -1.3,0 -2,0.9 -0.7,1 -0.7,2.9 0,4 2.7,4 0.6,0 1.2,-0.3 z" /></g><g
     id="egt"><path
   id="path980"
   fill-rule="evenodd"
   class="s1"
   d="m 195,164 h 56 v 27 h -56 z m 3,24 h 50 V 167 H 198 Z M 70,164 h 56 v 27 H 70 Z m 3,24 h 50 V 167 H 73 Z" /><path
   id="path982"
   class="s11"
   d="m 159.8,176.9 -10.5,-5.1 1.8,-3.8 10.5,5 z m -125,0 -10.5,-5 1.9,-3.9 10.5,5.1 z" /><path
   id="Shape 11 copy 3"
   class="s5"
   d="m 32.8,179.9 -8.7,-4.2 1.5,-3.2 8.7,4.2 z m 125,0 -8.7,-4.2 1.5,-3.1 8.7,4.2 z" /><path
   id="egt-dial2"
   class="s1"
   d="m 195,196 c 0,-1.1 0.9,-2 2,-2 h 43 c 1.1,0 2,0.9 2,2 0,1.1 -0.9,2 -2,2 h -43 c -1.1,0 -2,-0.9 -2,-2 z" />
<path
   id="egt-dial1"
   class="s1"
   d="m 70,196 c 0,-1.1 0.9,-2 2,-2 h 43 c 1.1,0 2,0.9 2,2 0,1.1 -0.9,2 -2,2 H 72 c -1.1,0 -2,-0.9 -2,-2 z" />
<path
   id="path1001"
   class="s1"
   d="m 197,240 c -24.9,0 -45,-20.1 -45,-45 0,-7.1 1.6,-13.7 4.5,-19.7 l 2.7,1.3 c -2.7,5.6 -4.2,11.8 -4.2,18.4 0,23.2 18.8,42 42,42 22.9,0 41.5,-18.2 42,-41 h 3 c -0.5,24.4 -20.4,44 -45,44 z m -125,0 c -24.9,0 -45,-20.1 -45,-45 0,-7.1 1.6,-13.7 4.5,-19.7 l 2.7,1.3 c -2.7,5.6 -4.2,11.8 -4.2,18.4 0,23.2 18.8,42 42,42 22.9,0 41.5,-18.2 42,-41 h 3 c -0.5,24.4 -20.4,44 -45,44 z" /></g><g
     id="N1"><path
   id="path1004"
   fill-rule="evenodd"
   class="s1"
   d="m 195,74 h 69 v 27 h -69 z m 3,24 h 63 V 77 H 198 Z M 70,74 h 69 v 27 H 70 Z m 3,24 h 63 V 77 H 73 Z" /><path
   id="path1006"
   class="s11"
   d="m 159.8,86.9 -10.5,-5.1 1.8,-3.8 10.5,5 z m -125,0 -10.5,-5 1.9,-3.9 10.5,5.1 z" /><path
   id="n1-dial2"
   class="s1"
   d="m 195,106 c 0,-1.1 0.9,-2 2,-2 h 43 c 1.1,0 2,0.9 2,2 0,1.1 -0.9,2 -2,2 h -43 c -1.1,0 -2,-0.9 -2,-2 z" /><path
   id="n1-dial1"
   class="s1"
   d="m 70,106 c 0,-1.1 0.9,-2 2,-2 h 43 c 1.1,0 2,0.9 2,2 0,1.1 -0.9,2 -2,2 H 72 c -1.1,0 -2,-0.9 -2,-2 z" />

<path
   id="10"
   fill-rule="evenodd"
   class="s1"
   d="m 36.9,102 v -7.7 l -1.7,-0.6 -1,1 v -1.4 l -2,-0.7 0.7,-1.9 2.4,0.9 1.4,-1.3 h 1.6 v 2.4 h 0.2 l -0.2,0.6 v 8.7 z m 0,-9.9 z m 9.4,-1.9 q 1.1,0 1.7,0.3 0.7,0.3 1,1 0.6,1.6 0.6,4.7 0,4 -0.9,5.1 -0.7,0.9 -2.7,0.9 -2.1,0 -2.6,-1.1 -0.7,-1.6 -0.7,-5 0,-3.4 0.7,-4.8 0.3,-0.6 1,-0.8 0.7,-0.3 1.9,-0.3 z m 0,1.5 q -0.8,0 -1.2,0.1 -0.4,0.1 -0.5,0.3 -0.2,0.3 -0.4,1.5 -0.1,1.2 -0.1,2.5 0,1.1 0.1,2.3 0.1,1.2 0.2,1.6 0.2,0.4 0.5,0.6 0.4,0.2 1.1,0.2 0.8,0 1.2,-0.2 0.5,-0.1 0.6,-0.4 0.4,-0.9 0.4,-3.7 0,-1.6 -0.1,-2.8 -0.2,-1.3 -0.4,-1.6 -0.2,-0.2 -0.5,-0.3 -0.3,-0.1 -0.9,-0.1 z m -2.2,24.7 -0.2,0.1 0.3,0.3 q 1,0.7 1.5,1.4 0.4,0.7 0.4,1.8 0,1.5 -0.9,2.4 -0.9,0.8 -2.6,0.8 -1.7,0 -2.6,-0.8 -0.9,-0.9 -0.9,-2.4 0,-2.3 2.2,-3.5 -1.1,-0.8 -1.4,-1.3 -0.4,-0.6 -0.4,-1.5 0,-1.1 0.8,-1.8 0.9,-0.7 2.2,-0.7 1.5,0 2.3,0.7 0.8,0.7 0.8,1.9 0,0.8 -0.3,1.3 -0.4,0.6 -1.2,1.3 z m -1.5,-0.6 q 0.7,-0.4 1.2,-0.9 0.4,-0.5 0.4,-1 0,-0.6 -0.4,-0.9 -0.5,-0.4 -1.2,-0.4 -0.8,0 -1.2,0.4 -0.5,0.3 -0.5,0.9 0,1.1 1.7,1.9 z m 0,1.5 -0.3,0.2 q -1,0.6 -1.4,1.1 -0.4,0.5 -0.4,1.3 0,0.8 0.6,1.4 0.6,0.5 1.5,0.5 1,0 1.5,-0.5 0.6,-0.5 0.6,-1.4 0,-0.7 -0.6,-1.4 -0.5,-0.7 -1.5,-1.2 z m 15.6,8 h 1.9 l -0.2,0.2 q -1.8,2 -2.6,3.1 l -0.6,1 q 0,0 -0.2,0.3 0.7,-0.4 1.3,-0.4 1.4,0 2.4,1.1 0.9,1.1 0.9,2.7 0,1.8 -0.9,2.8 -1,1.1 -2.6,1.1 -1.7,0 -2.6,-1 -0.9,-1.1 -0.9,-3 0,-1.2 0.4,-2.2 0.3,-1.1 1.2,-2.5 1,-1.5 2.5,-3.2 z m -0.6,5.7 q -0.9,0 -1.5,0.7 -0.6,0.6 -0.6,1.6 0,1.1 0.6,1.8 0.6,0.6 1.5,0.6 0.9,0 1.5,-0.6 0.6,-0.7 0.6,-1.8 0,-1 -0.6,-1.6 -0.6,-0.7 -1.5,-0.7 z m 23.1,3.6 V 137 H 82 v 1.5 h -1.3 v 2.6 h -1.5 v -2.6 h -4 v -1.7 l 3.1,-7.5 h 1.5 l -3.2,7.7 h 2.6 v -2.4 z m 14.1,-6.2 v 0.2 h 4.8 v 0.7 l 0.7,-0.8 4.1,3.4 c 2.7,-3.2 4.9,-6.8 6.5,-10.7 l -5.3,-1.9 0.7,-1.9 5.3,2 c 1.4,-3.9 2.3,-8 2.5,-12.3 h -6 q 0,0.1 0,0.1 0,4 -0.9,5.1 -0.7,0.9 -2.7,0.9 -2,0 -2.6,-1.1 -0.7,-1.6 -0.7,-5 0,-3.4 0.7,-4.8 0.3,-0.6 1,-0.8 0.7,-0.3 1.9,-0.3 1.1,0 1.8,0.3 0.6,0.3 0.9,1 0.5,1.3 0.6,3.6 h 9 c -0.5,24.4 -20.4,44 -45,44 -24.9,0 -45,-20.1 -45,-45 0,-7.1 1.6,-13.7 4.5,-19.7 l 2.7,1.3 c -2.7,5.6 -4.2,11.8 -4.2,18.4 q 0,0 0,0 h 6 v 2 h -6 c 0.2,4.3 1.1,8.4 2.5,12.3 l 5.3,-1.9 0.7,1.8 -5.3,2 c 1.6,3.8 3.8,7.4 6.5,10.6 l 4.1,-3.4 1.3,1.5 -4.1,3.4 c 2.8,3.1 6,5.7 9.6,7.8 l 2.5,-4.4 1.8,1 -2.6,4.4 c 3.6,1.9 7.5,3.3 11.6,4.1 l 0.9,-4.9 1.9,0.3 -0.8,4.9 q 3,0.5 6.1,0.5 3.1,0 6.1,-0.5 l -0.8,-4.9 1.9,-0.3 0.9,4.9 c 4.1,-0.8 8,-2.2 11.6,-4.1 l -2.6,-4.4 1.8,-1 2.5,4.4 c 3.6,-2.1 6.8,-4.7 9.6,-7.8 l -4,-3.3 h -5.7 q 0,-0.7 0,-1 0,-1.5 0.4,-2.5 0.3,-0.8 0.9,-1.4 0.5,-0.6 1.6,-1.3 1.2,-0.9 1.6,-1.4 0.4,-0.5 0.4,-1.1 0,-0.7 -0.5,-1.3 -0.5,-0.5 -1.2,-0.5 -1.4,0 -3,1.2 v -1.7 q 1.2,-1 2.8,-1 1.5,0 2.4,0.9 0.9,0.9 0.9,2.3 0,1.1 -0.4,1.9 -0.3,0.5 -0.7,0.8 -0.4,0.4 -1.7,1.3 -1.1,0.8 -1.6,1.5 -0.5,0.7 -0.5,1.6 z m 10,-25.7 q -0.8,0 -1.2,0.1 -0.4,0.1 -0.5,0.3 -0.2,0.3 -0.4,1.5 -0.1,1.2 -0.1,2.5 0,1.1 0.1,2.3 0.1,1.2 0.2,1.6 0.2,0.4 0.5,0.6 0.4,0.2 1.1,0.2 0.8,0 1.3,-0.2 0.4,-0.1 0.5,-0.4 0.4,-0.9 0.4,-3.7 0,-1.6 -0.1,-2.8 -0.1,-1.3 -0.4,-1.6 -0.1,-0.2 -0.4,-0.3 -0.4,-0.1 -1,-0.1 z m 57.2,-0.6 v -7.7 l -1.7,-0.6 -1,0.9 v -1.3 l -2,-0.7 0.7,-1.9 2.4,0.9 1.4,-1.4 h 1.6 v 2.5 h 0.2 l -0.2,0.6 v 8.7 z m 0,-10 v 0.1 z m 9.4,-1.9 q 1.1,0 1.7,0.3 0.7,0.3 1,1 0.6,1.5 0.6,4.7 0,4 -0.9,5.1 -0.7,0.9 -2.7,0.9 -2.1,0 -2.6,-1.2 -0.7,-1.5 -0.7,-4.9 0,-3.4 0.7,-4.8 0.3,-0.6 1,-0.8 0.7,-0.3 1.9,-0.3 z m 0,1.5 q -0.8,0 -1.2,0.1 -0.4,0.1 -0.5,0.3 -0.2,0.3 -0.4,1.5 -0.1,1.2 -0.1,2.5 0,1.1 0.1,2.3 0.1,1.2 0.2,1.6 0.2,0.4 0.5,0.6 0.4,0.1 1.1,0.1 0.8,0 1.2,-0.1 0.5,-0.1 0.6,-0.4 0.4,-0.9 0.4,-3.7 0,-1.6 -0.1,-2.8 -0.2,-1.3 -0.4,-1.6 -0.2,-0.3 -0.5,-0.3 -0.3,-0.1 -0.9,-0.1 z m -2.2,24.7 -0.2,0.1 0.3,0.2 q 1,0.8 1.5,1.5 0.4,0.7 0.4,1.7 0,1.6 -0.9,2.4 -0.9,0.9 -2.6,0.9 -1.7,0 -2.6,-0.9 -0.9,-0.8 -0.9,-2.3 0,-2.3 2.2,-3.5 -1.1,-0.8 -1.4,-1.4 -0.4,-0.5 -0.4,-1.4 0,-1.1 0.8,-1.8 0.9,-0.7 2.2,-0.7 1.5,0 2.3,0.7 0.8,0.7 0.8,1.8 0,0.8 -0.3,1.4 -0.4,0.6 -1.2,1.3 z m -1.5,-0.7 q 0.7,-0.3 1.2,-0.8 0.4,-0.5 0.4,-1 0,-0.6 -0.4,-0.9 -0.5,-0.4 -1.2,-0.4 -0.8,0 -1.2,0.4 -0.5,0.3 -0.5,0.9 0,1.1 1.7,1.8 z m 0,1.6 -0.3,0.2 q -1,0.6 -1.4,1.1 -0.4,0.5 -0.4,1.2 0,0.9 0.6,1.4 0.6,0.5 1.5,0.5 1,0 1.5,-0.5 0.6,-0.5 0.6,-1.3 0,-0.8 -0.6,-1.4 -0.5,-0.7 -1.5,-1.2 z m 15.6,8 h 1.9 l -0.2,0.2 q -1.8,2 -2.6,3.1 l -0.6,1 q 0,0 -0.2,0.3 0.7,-0.4 1.3,-0.4 1.4,0 2.4,1.1 0.9,1.1 0.9,2.7 0,1.7 -0.9,2.8 -1,1.1 -2.6,1.1 -1.7,0 -2.6,-1.1 -0.9,-1 -0.9,-2.9 0,-1.2 0.4,-2.3 0.3,-1 1.2,-2.4 1,-1.6 2.5,-3.2 z m -0.6,5.7 q -0.9,0 -1.5,0.6 -0.6,0.7 -0.6,1.7 0,1.1 0.6,1.7 0.6,0.7 1.5,0.7 0.9,0 1.5,-0.7 0.6,-0.6 0.6,-1.7 0,-1 -0.6,-1.6 -0.6,-0.7 -1.5,-0.7 z m 23.1,3.6 v 2.4 h 1.3 v 1.5 h -1.3 v 2.6 h -1.5 v -2.6 h -4 v -1.8 l 3.1,-7.4 h 1.5 l -3.2,7.7 h 2.6 v -2.4 z m 14.1,-6.3 v 0.3 h 4.8 v 0.7 l 0.7,-0.9 4.1,3.5 c 2.7,-3.2 4.9,-6.8 6.5,-10.7 l -5.3,-1.9 0.7,-1.9 5.3,2 c 1.4,-3.9 2.3,-8 2.5,-12.3 h -6 q 0,0 0,0.1 0,4 -0.9,5.1 -0.7,0.9 -2.7,0.9 -2,0 -2.6,-1.2 -0.7,-1.5 -0.7,-4.9 0,-3.4 0.7,-4.8 0.3,-0.6 1,-0.8 0.7,-0.3 1.9,-0.3 1.1,0 1.8,0.3 0.6,0.3 0.9,1 0.5,1.2 0.6,3.6 h 9 c -0.5,24.4 -20.4,44 -45,44 -24.9,0 -45,-20.2 -45,-45 0,-7.1 1.6,-13.8 4.5,-19.7 l 2.7,1.3 c -2.7,5.5 -4.2,11.8 -4.2,18.4 q 0,0 0,0 h 6 v 2 h -6 c 0.2,4.3 1.1,8.4 2.5,12.3 l 5.3,-2 0.7,1.9 -5.3,1.9 c 1.6,3.9 3.8,7.5 6.5,10.7 l 4.1,-3.5 1.3,1.6 -4.1,3.4 c 2.8,3 6,5.7 9.6,7.8 l 2.5,-4.5 1.8,1 -2.6,4.5 c 3.6,1.9 7.5,3.3 11.6,4.1 l 0.9,-5 1.9,0.4 -0.8,4.9 q 3,0.5 6.1,0.5 3.1,0 6.1,-0.5 l -0.8,-4.9 1.9,-0.4 0.9,5 c 4.1,-0.8 8,-2.2 11.6,-4.1 l -2.6,-4.5 1.8,-1 2.5,4.5 c 3.6,-2.1 6.8,-4.8 9.6,-7.8 l -4,-3.3 h -5.7 q 0,-0.7 0,-1 0,-1.6 0.4,-2.5 0.3,-0.8 0.9,-1.4 0.5,-0.6 1.6,-1.4 1.2,-0.8 1.6,-1.3 0.4,-0.5 0.4,-1.1 0,-0.7 -0.5,-1.3 -0.5,-0.5 -1.2,-0.5 -1.4,0 -3,1.2 v -1.7 q 1.2,-1 2.8,-1 1.5,0 2.4,0.9 0.9,0.8 0.9,2.3 0,1.1 -0.4,1.8 -0.3,0.5 -0.7,0.9 -0.4,0.4 -1.7,1.3 -1.1,0.8 -1.6,1.5 -0.5,0.7 -0.5,1.5 z m 10,-25.6 q -0.8,0 -1.2,0.1 -0.4,0.1 -0.5,0.3 -0.2,0.3 -0.4,1.5 -0.1,1.2 -0.1,2.5 0,1.1 0.1,2.3 0.1,1.2 0.2,1.6 0.2,0.4 0.5,0.6 0.4,0.1 1.1,0.1 0.8,0 1.3,-0.1 0.4,-0.1 0.5,-0.4 0.4,-0.9 0.4,-3.7 0,-1.6 -0.1,-2.8 -0.1,-1.3 -0.4,-1.6 -0.1,-0.3 -0.4,-0.3 -0.4,-0.1 -1,-0.1 z" /><path
   id="throttle-n2"
   class="s13"
   d="m 140,100 9,6 -9,6" /><path
   id="throttle-n1"
   class="s13"
   d="m 15,100 9,6 -9,6" />

</g><g
     id="oil"><path
   id="vib-meter2"
   class="s1"
   d="m 156,673 13,4 -13,4 z" /><path
   id="vib-meter1"
   class="s1"
   d="m 111,681 -13,-4 13,-4 z" /><path
   id="oil-temp-meter2"
   class="s1"
   d="m 156,558 13,4 -13,4 z" /><path
   id="oil-temp-meter1"
   class="s1"
   d="m 111,566 -13,-4 13,-4 z" /><path
   id="oil-press-meter2"
   class="s1"
   d="m 156,471 13,4 -13,4 z" /><path
   id="oil-press-meter1"
   class="s1"
   d="m 111,479 -13,-4 13,-4 z" />







<path
   id="Shape 18"
   fill-rule="evenodd"
   class="s1"
   d="m 177,638 h 35 v 21 h -35 z m 2,19 h 31 V 640 H 179 Z M 55,638 h 35 v 21 H 55 Z m 2,19 H 88 V 640 H 57 Z m 120,-85 h 35 v 21 h -35 z m 2,19 h 31 V 574 H 179 Z M 55,572 h 35 v 21 H 55 Z m 2,19 H 88 V 574 H 57 Z m 120,-68 h 35 v 21 h -35 z m 2,19 h 31 V 525 H 179 Z M 55,523 h 35 v 21 H 55 Z m 2,19 H 88 V 525 H 57 Z M 177,438 h 35 v 21 h -35 z m 2,19 h 31 V 440 H 179 Z M 55,438 h 35 v 21 H 55 Z m 2,19 H 88 V 440 H 57 Z" /><path
   id="Shape 14"
   class="s1"
   d="m 94,620 h 3 v 11 h 3 v 3 h -3 v 43 h -3 z m 79,57 h -3 v -43 h -3 v -3 h 3 v -11 h 3 z m -3,-172 h 3 v 57 h -3 z m -76,0 h 3 v 57 h -3 z m 76,-84 h 3 v 57 h -3 z m -76,0 h 3 v 57 h -3 z" /><path
   id="Shape 16"
   class="s11"
   d="m 163,505 h 13 v 3 h -13 z m -72,0 h 13 v 3 H 91 Z m 72,-30 h 13 v 3 h -13 z m -72,0 h 13 v 3 H 91 Z" /><path
   id="Shape 17"
   class="s15"
   d="m 167,508 h 6 v 3 h -6 z m -73,0 h 6 v 3 h -6 z m 73,-45 h 6 v 3 h -6 z m -73,0 h 6 v 3 h -6 z" /></g><g
     id="FF">

<path
   id="Shape 19"
   fill-rule="evenodd"
   class="s1"
   d="m 36,365 h 53 v 26 H 36 Z m 2,24 H 87 V 367 H 38 Z m 140,-24 h 53 v 26 h -53 z m 2,24 h 49 v -22 h -49 z" /></g><path
     id="N"
     fill-rule="evenodd"
     class="s2"
     d="m 128.7,328.4 4.1,8.5 v -8.5 h 1.5 V 340 h -1.8 l -4.3,-8.9 v 8.9 h -1.5 v -11.6 z m 8.4,14 v 0.2 h 5 v 1.4 h -6.5 q -0.1,-0.6 -0.1,-0.9 0,-1.5 0.5,-2.4 0.3,-0.7 0.9,-1.3 0.6,-0.5 1.7,-1.2 1.2,-0.8 1.7,-1.3 0.4,-0.5 0.4,-1.1 0,-0.6 -0.5,-1.2 -0.6,-0.5 -1.3,-0.5 -1.5,0 -3.2,1.2 v -1.7 q 1.3,-0.9 3,-0.9 1.6,0 2.6,0.9 0.9,0.8 0.9,2.2 0,1 -0.5,1.7 -0.3,0.5 -0.7,0.8 -0.4,0.3 -1.7,1.2 -1.2,0.8 -1.7,1.4 -0.5,0.7 -0.5,1.5 z M 128.9,228 h -3.7 v 3.2 h 3.2 v 1.6 h -3.2 v 3.7 h 3.9 v 1.5 h -5 v -11.6 h 4.8 z m 6.5,8.4 v -3 h -1.7 v -1.5 h 2.9 v 5.6 q -1.2,0.7 -2.3,0.7 -1.5,0 -2.3,-1.5 -0.8,-1.6 -0.8,-4.4 0,-1.9 0.2,-3 0.3,-1.1 0.9,-1.9 0.9,-1 2.1,-1 1,0 1.6,0.7 0.2,0.3 0.4,0.8 0.2,0.4 0.2,0.7 0,0.1 0,0.2 h -1.2 q -0.2,-0.9 -0.9,-0.9 -1.1,0 -1.6,1.1 -0.6,1 -0.6,3.2 0,4.4 2.1,4.4 0.5,0 1,-0.2 z m 8.9,-8.4 h -2.2 v 10.1 h -1.2 V 228 h -2.2 v -1.5 h 5.6 z m -15.6,-89.6 4.1,8.5 v -8.5 h 1.5 V 150 h -1.9 l -4.2,-8.9 v 8.9 h -1.6 v -11.6 z m 10.2,15.6 v -9.3 l -2.8,2.4 v -1.9 l 2.7,-2.2 h 1.6 v 11 z m -14.9,488.4 1.8,10 1.7,-10 h 1.2 l -2.1,11.6 h -1.7 l -2.1,-11.6 z m 10.8,1.6 h -1.1 v 8.5 h 1.4 v 1.5 h -4 v -1.5 h 1.4 V 644 h -1.2 v -1.6 h 3.5 z m 6,10.1 h -3.1 v -11.6 h 2.7 q 0.7,0 1.2,0.2 0.5,0.2 0.8,0.6 0.7,1 0.7,2.4 0,1.7 -1,2.3 0.5,0.2 0.9,0.9 0.3,0.7 0.3,1.6 0,1.5 -0.6,2.5 -0.7,1.1 -1.9,1.1 z M 138.9,644 v 3.2 h 1.7 q 0.8,0 1.1,-0.4 0.3,-0.5 0.3,-1.1 0,-0.7 -0.4,-1.2 -0.5,-0.5 -1.2,-0.5 z m 0,4.7 v 3.8 h 1.8 q 0.7,0 1.1,-0.5 0.4,-0.5 0.4,-1.4 0,-0.8 -0.4,-1.4 -0.3,-0.5 -1.2,-0.5 z M 104,578.4 q 1.1,0 1.9,1.7 0.8,1.7 0.8,4.1 0,2.7 -0.8,4.3 -0.7,1.7 -2,1.7 -1.2,0 -1.9,-1.6 -0.8,-1.7 -0.8,-4.2 0,-2.6 0.8,-4.3 0.8,-1.7 2,-1.7 z m 0,1.5 q -0.8,0 -1.2,1 -0.5,1.2 -0.5,3.5 0,2 0.5,3.1 0.4,1.2 1.1,1.2 0.8,0 1.2,-1.2 0.5,-1.2 0.5,-3.3 0,-1.9 -0.5,-3.1 -0.4,-1.2 -1.1,-1.2 z m 9,0.1 h -1.2 v 8.5 h 1.4 v 1.6 h -3.9 v -1.6 h 1.4 V 580 h -1.2 v -1.5 h 3.5 z m 4.5,-1.5 v 10 h 4 v 1.5 h -5.2 v -11.5 z m 17.6,8.9 1.3,2.6 H 135 l -0.7,-1.3 q -0.5,0.7 -1.3,0.7 -0.9,0 -1.6,-0.9 -0.6,-0.8 -0.8,-1.9 -0.3,-1.1 -0.3,-2.8 0,-2.5 0.7,-4 0.7,-1.5 1.9,-1.5 0.9,0 1.6,1 1.1,1.4 1.1,4.6 0,2.3 -0.5,3.5 z m -1.6,-3 0.8,1.5 q 0.2,-0.8 0.2,-2 0,-1.9 -0.4,-3 -0.4,-1 -1.1,-1 -0.7,0 -1.1,0.8 -0.4,1.1 -0.4,3 0,2 0.4,3.1 0.4,1 1.1,1 0.4,0 0.7,-0.4 l -1.6,-3 z m 9.7,-4.4 h -2.1 v 10 H 140 v -10 h -2.1 v -1.5 h 5.3 z m 3.1,-1.6 1.5,4.4 1.6,-4.4 h 1.2 l -2.2,6.2 v 5.4 h -1.1 v -5.4 l -2.3,-6.2 z m 14.9,-0.6 q 0.5,0 0.9,0.6 0.3,0.6 0.3,1.4 0,0.9 -0.3,1.5 -0.4,0.6 -1,0.6 -0.5,0 -0.9,-0.6 -0.3,-0.6 -0.3,-1.4 0,-0.9 0.3,-1.5 0.4,-0.6 1,-0.6 z m -1.3,11.3 4.6,-11.3 h 0.5 v 0.9 l -4.4,11.3 h -0.7 z m 1.7,-8.9 v -0.7 q 0,-0.7 -0.5,-0.7 -0.4,0 -0.4,0.7 v 0.6 q 0,0.8 0.5,0.8 0.4,0 0.4,-0.7 z m 2.2,5.7 q 0.6,0 0.9,0.6 0.4,0.6 0.4,1.4 0,0.9 -0.4,1.5 -0.4,0.5 -0.9,0.5 -0.6,0 -0.9,-0.5 -0.4,-0.6 -0.4,-1.5 0,-0.8 0.4,-1.4 0.3,-0.6 0.9,-0.6 z m 0.5,2.3 v -0.6 q 0,-0.7 -0.5,-0.7 -0.5,0 -0.5,0.7 v 0.6 q 0,0.4 0.1,0.6 0.2,0.2 0.4,0.2 0.5,0 0.5,-0.8 z M 126,520.3 q 1.1,0 1.9,1.7 0.8,1.7 0.8,4.2 0,2.6 -0.7,4.3 -0.8,1.6 -2,1.6 -1.2,0 -2,-1.6 -0.8,-1.7 -0.8,-4.2 0,-2.6 0.8,-4.3 0.8,-1.7 2,-1.7 z m 0,1.5 q -0.8,0 -1.2,1 -0.4,1.3 -0.4,3.5 0,2 0.4,3.1 0.4,1.2 1.2,1.2 0.7,0 1.2,-1.2 0.4,-1.2 0.4,-3.2 0,-2 -0.5,-3.2 -0.4,-1.2 -1.1,-1.2 z m 9,0.2 h -1.2 v 8.4 h 1.5 v 1.6 h -4 v -1.6 h 1.4 V 522 h -1.2 v -1.6 h 3.5 z m 4.5,-1.5 v 10 h 4 v 1.5 h -5.2 V 520.5 Z M 125.1,535 h -2.2 v 10 h -1.1 v -10 h -2.1 v -1.5 h 5.4 z m 7,0 h -3.5 v 3.2 h 3.1 v 1.5 h -3.1 v 3.7 h 3.7 v 1.6 h -4.8 v -11.6 h 4.6 z m 3.9,-1.5 1,4.5 0.9,-4.5 h 1.8 V 545 h -1.1 v -9.8 l -1.1,6.1 h -1 l -1.1,-6.1 v 9.8 h -1.2 v -11.5 z m 8.6,6.7 h -1.5 v 4.8 h -1.2 v -11.5 h 2.8 q 0.7,0 1.1,0.2 0.4,0.2 0.8,0.7 0.6,1 0.6,2.5 0,1.5 -0.7,2.5 -0.7,0.8 -1.9,0.8 z m -1.5,-5.2 v 3.7 h 1.5 q 0.7,0 1.1,-0.5 0.4,-0.5 0.4,-1.3 0,-1.9 -1.4,-1.9 z M 126,436.3 q 1.2,0 2,1.7 0.8,1.7 0.8,4.2 0,2.7 -0.8,4.3 -0.8,1.7 -2,1.7 -1.2,0 -2,-1.7 -0.7,-1.6 -0.7,-4.2 0,-2.5 0.7,-4.3 0.8,-1.7 2,-1.7 z m 0,1.6 q -0.7,0 -1.1,1 -0.5,1.2 -0.5,3.4 0,2.1 0.4,3.2 0.4,1.1 1.2,1.1 0.8,0 1.2,-1.1 0.4,-1.2 0.4,-3.3 0,-2 -0.4,-3.1 -0.4,-1.2 -1.2,-1.2 z m 9,0.1 h -1.1 v 8.5 h 1.4 v 1.5 h -4 v -1.5 h 1.4 V 438 h -1.2 v -1.5 h 3.5 z m 4.5,-1.6 v 10 h 4 v 1.6 h -5.1 V 436.4 Z M 119,456.2 h -1.5 v 4.8 h -1.2 v -11.6 h 2.8 q 0.7,0 1.1,0.2 0.4,0.2 0.8,0.8 0.6,1 0.6,2.5 0,1.4 -0.7,2.4 -0.7,0.9 -1.9,0.9 z m -1.5,-5.2 v 3.6 h 1.5 q 0.7,0 1.1,-0.4 0.4,-0.5 0.4,-1.4 0,-1.8 -1.5,-1.8 z m 8.3,5.2 h -0.9 v 4.8 h -1.2 v -11.6 h 2.4 q 1.1,0 1.7,0.9 0.7,0.9 0.7,2.5 0,1.2 -0.4,2 -0.4,0.8 -1.2,1 l 2.1,5.2 h -1.4 z m -0.9,-5.2 v 3.6 h 1 q 1.5,0 1.5,-1.8 0,-1.8 -1.5,-1.8 z m 10.9,0 h -3.5 v 3.2 h 3.1 v 1.6 h -3.1 v 3.7 h 3.7 v 1.5 h -4.8 v -11.6 h 4.6 z m 7.3,1.1 v 0.3 h -1.2 q 0,-0.7 -0.3,-1.1 -0.3,-0.4 -0.9,-0.4 -0.5,0 -0.8,0.4 -0.4,0.4 -0.4,1.1 0,0.9 0.9,1.5 l 0.9,0.6 q 1,0.8 1.4,1.5 0.4,0.8 0.4,2 0,1.4 -0.7,2.3 -0.7,0.9 -1.7,0.9 -1.1,0 -1.8,-0.9 -0.7,-0.8 -0.7,-2.1 0,-0.1 0,-0.3 h 1.1 q 0.1,0.8 0.4,1.3 0.4,0.4 1,0.4 0.5,0 0.9,-0.4 0.4,-0.5 0.4,-1.2 0,-0.7 -0.4,-1.2 -0.4,-0.5 -1.3,-1.2 -1.1,-0.7 -1.5,-1.3 -0.4,-0.7 -0.4,-1.8 0,-1.4 0.7,-2.3 0.7,-0.8 1.7,-0.8 0.9,0 1.6,0.8 0.7,0.8 0.7,1.9 z m 7.3,0 v 0.3 h -1.2 q 0,-0.7 -0.3,-1.1 -0.3,-0.4 -0.9,-0.4 -0.5,0 -0.8,0.4 -0.4,0.4 -0.4,1.1 0,0.9 0.9,1.5 l 0.9,0.6 q 1,0.8 1.4,1.5 0.4,0.8 0.4,2 0,1.4 -0.7,2.3 -0.7,0.9 -1.7,0.9 -1.1,0 -1.8,-0.9 -0.7,-0.8 -0.7,-2.1 0,-0.1 0,-0.3 h 1.1 q 0.1,0.8 0.4,1.3 0.4,0.4 1,0.4 0.5,0 0.9,-0.4 0.4,-0.5 0.4,-1.2 0,-0.7 -0.4,-1.2 -0.4,-0.5 -1.3,-1.2 -1.1,-0.7 -1.5,-1.3 -0.4,-0.7 -0.4,-1.8 0,-1.4 0.7,-2.3 0.7,-0.8 1.7,-0.8 0.9,0 1.6,0.8 0.7,0.8 0.7,1.9 z M 132.2,374 h -3 v 3.2 h 2.4 v 1.6 h -2.4 v 5.3 h -1.1 v -11.6 h 4.1 z m 7.3,0 h -3 v 3.2 h 2.4 v 1.5 h -2.4 v 5.3 h -1.1 v -11.6 h 4.1 z"
     inkscape:label="N" /><g
     id="g3267"><text
       xml:space="preserve"
       transform="scale(0.79251814,1.2618007)"
       id="fuel-flow-num2"
       style="font-style:normal;font-variant:normal;font-weight:normal;font-stretch:normal;font-size:21.8109px;line-height:0%;font-family:'OCR B MT';-inkscape-font-specification:'OCR B MT, Normal';font-variant-ligatures:normal;font-variant-caps:normal;font-variant-numeric:normal;font-variant-east-asian:normal;white-space:pre;display:inline;fill:#ffffff;stroke-width:0.472657"
       x="226.56688"
       y="307.23639"><tspan
         id="tspan2314"
         inkscape:label="fuel-flow-num2"
         style="stroke-width:0.472657">1.16</tspan></text><text
       xml:space="preserve"
       transform="scale(0.79251814,1.2618007)"
       id="fuel-flow-num1"
       style="font-style:normal;font-variant:normal;font-weight:normal;font-stretch:normal;font-size:21.8109px;line-height:0%;font-family:'OCR B MT';-inkscape-font-specification:'OCR B MT, Normal';font-variant-ligatures:normal;font-variant-caps:normal;font-variant-numeric:normal;font-variant-east-asian:normal;white-space:pre;display:inline;fill:#ffffff;stroke-width:0.472657"
       inkscape:label="fuel-flow-num1"
       x="47.648075"
       y="307.23639"><tspan
         id="tspan2656"
         inkscape:label="fuel-flow-num2"
         style="stroke-width:0.472657">1.16</tspan></text><text
       xml:space="preserve"
       transform="scale(0.81926548,1.2206056)"
       id="vib2"
       style="font-style:normal;font-variant:normal;font-weight:normal;font-stretch:normal;font-size:16.8275px;line-height:0%;font-family:'OCR B MT';-inkscape-font-specification:'OCR B MT, Normal';white-space:pre;display:inline;fill:#ffffff;stroke-width:0.364664"
       inkscape:label="vib2"
       x="220.10835"
       y="537.29321"><tspan
         id="tspan2878"
         inkscape:label="oil-press1"
         style="white-space:pre;stroke-width:0.364664">0.0</tspan></text><text
       xml:space="preserve"
       transform="scale(0.81926548,1.2206056)"
       id="vib1"
       style="font-style:normal;font-variant:normal;font-weight:normal;font-stretch:normal;font-size:16.8275px;line-height:0%;font-family:'OCR B MT';-inkscape-font-specification:'OCR B MT, Normal';font-variant-ligatures:normal;font-variant-caps:normal;font-variant-numeric:normal;font-variant-east-asian:normal;white-space:pre;display:inline;fill:#ffffff;stroke-width:0.364664"
       inkscape:label="vib1"
       x="71.316605"
       y="537.29321"><tspan
         id="tspan2882"
         inkscape:label="oil-press1"
         style="stroke-width:0.364664">0.0</tspan></text><text
       xml:space="preserve"
       transform="scale(0.81926548,1.2206056)"
       id="oil-qty2"
       style="font-style:normal;font-variant:normal;font-weight:normal;font-stretch:normal;font-size:16.8275px;line-height:0%;font-family:'OCR B MT';-inkscape-font-specification:'OCR B MT, Normal';font-variant-ligatures:normal;font-variant-caps:normal;font-variant-numeric:normal;font-variant-east-asian:normal;white-space:pre;display:inline;fill:#ffffff;stroke-width:0.364664"
       inkscape:label="oil-qty2"
       x="220.10835"
       y="483.30545"><tspan
         id="tspan2862"
         inkscape:label="oil-press1"
         style="stroke-width:0.364664">100</tspan></text><text
       xml:space="preserve"
       transform="scale(0.81926548,1.2206056)"
       id="oil-qty1"
       style="font-style:normal;font-variant:normal;font-weight:normal;font-stretch:normal;font-size:16.8275px;line-height:0%;font-family:'OCR B MT';-inkscape-font-specification:'OCR B MT, Normal';font-variant-ligatures:normal;font-variant-caps:normal;font-variant-numeric:normal;font-variant-east-asian:normal;white-space:pre;display:inline;fill:#ffffff;stroke-width:0.364664"
       inkscape:label="oil-qty1"
       x="71.316605"
       y="483.30545"><tspan
         id="tspan2866"
         inkscape:label="oil-press1"
         style="stroke-width:0.364664">100</tspan></text><text
       xml:space="preserve"
       transform="scale(0.81926548,1.2206056)"
       id="oil-temp2"
       style="font-style:normal;font-variant:normal;font-weight:normal;font-stretch:normal;font-size:16.8275px;line-height:0%;font-family:'OCR B MT';-inkscape-font-specification:'OCR B MT, Normal';font-variant-ligatures:normal;font-variant-caps:normal;font-variant-numeric:normal;font-variant-east-asian:normal;white-space:pre;display:inline;fill:#ffffff;stroke-width:0.364664"
       inkscape:label="oil-temp2"
       x="220.10835"
       y="443.20343"><tspan
         id="tspan2846"
         inkscape:label="oil-press1"
         style="stroke-width:0.364664">999</tspan></text><text
       xml:space="preserve"
       transform="scale(0.81926548,1.2206056)"
       id="oil-temp1"
       style="font-style:normal;font-variant:normal;font-weight:normal;font-stretch:normal;font-size:16.8275px;line-height:0%;font-family:'OCR B MT';-inkscape-font-specification:'OCR B MT, Normal';font-variant-ligatures:normal;font-variant-caps:normal;font-variant-numeric:normal;font-variant-east-asian:normal;white-space:pre;display:inline;fill:#ffffff;stroke-width:0.364664"
       inkscape:label="oil-temp1"
       x="71.316605"
       y="443.20343"><tspan
         id="tspan2850"
         inkscape:label="oil-press1"
         style="stroke-width:0.364664">999</tspan></text><text
       xml:space="preserve"
       transform="scale(0.81926548,1.2206056)"
       id="oil-press2"
       style="font-style:normal;font-variant:normal;font-weight:normal;font-stretch:normal;font-size:16.8275px;line-height:0%;font-family:'OCR B MT';-inkscape-font-specification:'OCR B MT, Normal';font-variant-ligatures:normal;font-variant-caps:normal;font-variant-numeric:normal;font-variant-east-asian:normal;white-space:pre;display:inline;fill:#ffffff;stroke-width:0.364664"
       inkscape:label="oil-press2"
       x="220.10835"
       y="373.23776"><tspan
         id="tspan2838"
         inkscape:label="oil-press1"
         style="stroke-width:0.364664">999</tspan></text><text
       xml:space="preserve"
       transform="scale(0.81926548,1.2206056)"
       id="text2830"
       style="font-style:normal;font-variant:normal;font-weight:normal;font-stretch:normal;font-size:16.8275px;line-height:0%;font-family:'OCR B MT';-inkscape-font-specification:'OCR B MT, Normal';font-variant-ligatures:normal;font-variant-caps:normal;font-variant-numeric:normal;font-variant-east-asian:normal;white-space:pre;display:inline;fill:#ffffff;stroke-width:0.364664"
       inkscape:label="oil-press2"
       x="71.316605"
       y="373.23776"><tspan
         id="oil-press1"
         inkscape:label="oil-press1"
         style="stroke-width:0.364664">999</tspan></text><text
       xml:space="preserve"
       transform="scale(0.82620331,1.2103558)"
       id="n1.text2"
       style="font-style:normal;font-variant:normal;font-weight:normal;font-stretch:normal;font-size:21.0589px;line-height:0%;font-family:'OCR B MT';-inkscape-font-specification:'OCR B MT, Normal';font-variant-ligatures:normal;font-variant-caps:normal;font-variant-numeric:normal;font-variant-east-asian:normal;white-space:pre;fill:#ffffff;fill-opacity:1;stroke-width:0.60084"
       inkscape:label="n1-text2"
       x="481.16498"
       y="50.853802"><tspan
         id="n1-text2"
         style="display:inline;fill:#ffffff;fill-opacity:1;stroke-width:0.60084"
         x="239.66396"
         y="79.884918">100.0</tspan></text><text
       xml:space="preserve"
       transform="scale(0.82620331,1.2103558)"
       id="n1.text1"
       style="font-style:normal;font-variant:normal;font-weight:normal;font-stretch:normal;font-size:21.0589px;line-height:0%;font-family:'OCR B MT';-inkscape-font-specification:'OCR B MT, Normal';font-variant-ligatures:normal;font-variant-caps:normal;font-variant-numeric:normal;font-variant-east-asian:normal;white-space:pre;fill:#ffffff;fill-opacity:1;stroke-width:0.60084"
       inkscape:label="n1-text1"
       x="170.90352"
       y="50.853802"><tspan
         id="n1-text1"
         style="fill:#ffffff;fill-opacity:1;stroke-width:0.60084"
         x="88.336761"
         y="79.884918">100.0</tspan></text><text
       xml:space="preserve"
       id="throttle-num2"
       style="font-style:normal;font-variant:normal;font-weight:normal;font-stretch:normal;font-size:16.5663px;line-height:0%;font-family:'OCR B MT';-inkscape-font-specification:'OCR B MT, Normal';font-variant-ligatures:normal;font-variant-caps:normal;font-variant-numeric:normal;font-variant-east-asian:normal;white-space:pre;display:inline;fill:#00ff00;fill-opacity:1;stroke-width:0.472659"
       transform="scale(0.79640612,1.2556408)"
       x="272.40274"
       y="57.995136"><tspan
         id="tspan3543"
         style="stroke-width:0.472659">90.0</tspan></text><text
       xml:space="preserve"
       id="throttle-num1"
       style="font-style:normal;font-variant:normal;font-weight:normal;font-stretch:normal;font-size:16.5663px;line-height:0%;font-family:'OCR B MT';-inkscape-font-specification:'OCR B MT, Normal';font-variant-ligatures:normal;font-variant-caps:normal;font-variant-numeric:normal;font-variant-east-asian:normal;white-space:pre;display:inline;fill:#00ff00;fill-opacity:1;stroke-width:0.472659"
       transform="scale(0.79640612,1.2556407)"
       x="116.15497"
       y="57.995136"><tspan
         id="tspan3539"
         style="stroke-width:0.472659">90.0</tspan></text><text
       id="egt-text2"
       style="font-style:normal;font-variant:normal;font-weight:normal;font-stretch:normal;font-size:21.2975px;line-height:0%;font-family:'OCR B MT';-inkscape-font-specification:'OCR B MT, Normal';font-variant-ligatures:normal;font-variant-caps:normal;font-variant-numeric:normal;font-variant-east-asian:normal;stroke-width:1.7748"
       x="167.99409"
       transform="scale(0.82577296,1.2109866)"
       y="120.03873"><tspan
         x="255.66913"
         y="154.29233"
         class="t12"
         id="tspan986"
         style="font-style:normal;font-variant:normal;font-weight:normal;font-stretch:normal;font-size:21.2975px;font-family:'OCR B MT';-inkscape-font-specification:'OCR B MT, Normal';font-variant-ligatures:normal;font-variant-caps:normal;font-variant-numeric:normal;font-variant-east-asian:normal;stroke-width:1.7748">9</tspan><tspan
         y="154.29233"
         class="t12"
         id="tspan988"
         style="font-style:normal;font-variant:normal;font-weight:normal;font-stretch:normal;font-size:21.2975px;font-family:'OCR B MT';-inkscape-font-specification:'OCR B MT, Normal';font-variant-ligatures:normal;font-variant-caps:normal;font-variant-numeric:normal;font-variant-east-asian:normal;stroke-width:1.7748">99</tspan><tspan
         y="154.29233"
         class="t12"
         id="tspan990"
         style="font-style:normal;font-variant:normal;font-weight:normal;font-stretch:normal;font-size:21.2975px;font-family:'OCR B MT';-inkscape-font-specification:'OCR B MT, Normal';font-variant-ligatures:normal;font-variant-caps:normal;font-variant-numeric:normal;font-variant-east-asian:normal;stroke-width:1.7748" /></text><text
       id="egt-text1"
       style="font-style:normal;font-variant:normal;font-weight:normal;font-stretch:normal;font-size:21.2976px;line-height:0%;font-family:'OCR B MT';-inkscape-font-specification:'OCR B MT, Normal';font-variant-ligatures:normal;font-variant-caps:normal;font-variant-numeric:normal;font-variant-east-asian:normal;stroke-width:1.77479"
       x="16.68379"
       y="120.03911"
       transform="scale(0.82577438,1.2109845)"><tspan
         x="104.35876"
         y="154.29268"
         class="t12"
         id="tspan994"
         style="font-style:normal;font-variant:normal;font-weight:normal;font-stretch:normal;font-size:21.2976px;font-family:'OCR B MT';-inkscape-font-specification:'OCR B MT, Normal';font-variant-ligatures:normal;font-variant-caps:normal;font-variant-numeric:normal;font-variant-east-asian:normal;stroke-width:1.77479">9</tspan><tspan
         y="154.29268"
         class="t12"
         id="tspan996"
         style="font-style:normal;font-variant:normal;font-weight:normal;font-stretch:normal;font-size:21.2976px;font-family:'OCR B MT';-inkscape-font-specification:'OCR B MT, Normal';font-variant-ligatures:normal;font-variant-caps:normal;font-variant-numeric:normal;font-variant-east-asian:normal;stroke-width:1.77479">99</tspan><tspan
         y="154.29268"
         class="t12"
         id="tspan998"
         style="font-style:normal;font-variant:normal;font-weight:normal;font-stretch:normal;font-size:21.2976px;font-family:'OCR B MT';-inkscape-font-specification:'OCR B MT, Normal';font-variant-ligatures:normal;font-variant-caps:normal;font-variant-numeric:normal;font-variant-east-asian:normal;stroke-width:1.77479" /></text><text
       id="n2-text2"
       style="font-style:normal;font-variant:normal;font-weight:normal;font-stretch:normal;font-size:21.0589px;line-height:0%;font-family:'OCR B MT';-inkscape-font-specification:'OCR B MT, Normal';font-variant-ligatures:normal;font-variant-caps:normal;font-variant-numeric:normal;font-variant-east-asian:normal;display:inline;stroke-width:1.7549"
       x="212.11168"
       transform="scale(0.82620407,1.2103547)"
       y="203.08522"><tspan
         x="239.66374"
         y="236.95494"
         class="t12"
         id="tspan949"
         style="font-style:normal;font-variant:normal;font-weight:normal;font-stretch:normal;font-size:21.0589px;font-family:'OCR B MT';-inkscape-font-specification:'OCR B MT, Normal';font-variant-ligatures:normal;font-variant-caps:normal;font-variant-numeric:normal;font-variant-east-asian:normal;stroke-width:1.7549">100.0</tspan></text><text
       id="n2-text1"
       style="font-style:normal;font-variant:normal;font-weight:normal;font-stretch:normal;font-size:21.0589px;line-height:0%;font-family:'OCR B MT';-inkscape-font-specification:'OCR B MT, Normal';font-variant-ligatures:normal;font-variant-caps:normal;font-variant-numeric:normal;font-variant-east-asian:normal;display:inline;stroke-width:1.75492"
       x="60.78474"
       transform="scale(0.82620355,1.2103555)"
       y="203.08514"><tspan
         x="88.336739"
         y="236.9548"
         class="t12"
         id="tspan963"
         style="font-style:normal;font-variant:normal;font-weight:normal;font-stretch:normal;font-size:21.0589px;font-family:'OCR B MT';-inkscape-font-specification:'OCR B MT, Normal';font-variant-ligatures:normal;font-variant-caps:normal;font-variant-numeric:normal;font-variant-east-asian:normal;stroke-width:1.75492">100.0</tspan></text><text
       id="tank-total"
       style="font-style:normal;font-variant:normal;font-weight:normal;font-stretch:normal;font-size:17.8648px;line-height:0%;font-family:'OCR B MT';-inkscape-font-specification:'OCR B MT, Normal';font-variant-ligatures:normal;font-variant-caps:normal;font-variant-numeric:normal;font-variant-east-asian:normal;stroke-width:1.48873"
       y="517.73834"
       x="324.44037"
       transform="scale(0.7782006,1.2850157)"><tspan
         x="404.83209"
         y="540.367"
         class="t8"
         id="tspan893"
         style="font-style:normal;font-variant:normal;font-weight:normal;font-stretch:normal;font-size:17.8648px;font-family:'OCR B MT';-inkscape-font-specification:'OCR B MT, Normal';font-variant-ligatures:normal;font-variant-caps:normal;font-variant-numeric:normal;font-variant-east-asian:normal;stroke-width:1.48873">9</tspan><tspan
         y="540.367"
         class="t8"
         id="tspan895"
         style="font-style:normal;font-variant:normal;font-weight:normal;font-stretch:normal;font-size:17.8648px;font-family:'OCR B MT';-inkscape-font-specification:'OCR B MT, Normal';font-variant-ligatures:normal;font-variant-caps:normal;font-variant-numeric:normal;font-variant-east-asian:normal;stroke-width:1.48873">9</tspan><tspan
         y="540.367"
         class="t8"
         id="tspan897"
         style="font-style:normal;font-variant:normal;font-weight:normal;font-stretch:normal;font-size:17.8648px;font-family:'OCR B MT';-inkscape-font-specification:'OCR B MT, Normal';font-variant-ligatures:normal;font-variant-caps:normal;font-variant-numeric:normal;font-variant-east-asian:normal;stroke-width:1.48873">.</tspan><tspan
         y="540.367"
         class="t8"
         id="tspan899"
         style="font-style:normal;font-variant:normal;font-weight:normal;font-stretch:normal;font-size:17.8648px;font-family:'OCR B MT';-inkscape-font-specification:'OCR B MT, Normal';font-variant-ligatures:normal;font-variant-caps:normal;font-variant-numeric:normal;font-variant-east-asian:normal;stroke-width:1.48873">9
</tspan></text><text
       id="tank-left"
       style="font-style:normal;font-variant:normal;font-weight:normal;font-stretch:normal;font-size:17.8648px;line-height:0%;font-family:'OCR B MT';-inkscape-font-specification:'OCR B MT, Normal';font-variant-ligatures:normal;font-variant-caps:normal;font-variant-numeric:normal;font-variant-east-asian:normal;display:inline;stroke-width:1.48873"
       y="482.14603"
       x="361.5192"
       transform="scale(0.7782011,1.2850149)"><tspan
         y="505.81696"
         class="t6"
         id="tspan922"
         style="font-style:normal;font-variant:normal;font-weight:normal;font-stretch:normal;font-size:17.8648px;font-family:'OCR B MT';-inkscape-font-specification:'OCR B MT, Normal';font-variant-ligatures:normal;font-variant-caps:normal;font-variant-numeric:normal;font-variant-east-asian:normal;stroke-width:1.48873">9.99
</tspan></text><text
       id="tank-center"
       style="font-style:normal;font-variant:normal;font-weight:normal;font-stretch:normal;font-size:17.8648px;line-height:0%;font-family:'OCR B MT';-inkscape-font-specification:'OCR B MT, Normal';font-variant-ligatures:normal;font-variant-caps:normal;font-variant-numeric:normal;font-variant-east-asian:normal;display:inline;stroke-width:1.48873"
       y="482.14615"
       x="439.75351"
       transform="scale(0.7782011,1.2850149)"
       inkscape:label="tank-c"><tspan
         y="505.81708"
         class="t6"
         id="tspan922-3"
         style="font-style:normal;font-variant:normal;font-weight:normal;font-stretch:normal;font-size:17.8648px;font-family:'OCR B MT';-inkscape-font-specification:'OCR B MT, Normal';font-variant-ligatures:normal;font-variant-caps:normal;font-variant-numeric:normal;font-variant-east-asian:normal;stroke-width:1.48873">9.99</tspan></text><text
       id="tank-right"
       style="font-style:normal;font-variant:normal;font-weight:normal;font-stretch:normal;font-size:17.8648px;line-height:0%;font-family:'OCR B MT';-inkscape-font-specification:'OCR B MT, Normal';font-variant-ligatures:normal;font-variant-caps:normal;font-variant-numeric:normal;font-variant-east-asian:normal;display:inline;stroke-width:1.48873"
       y="482.14615"
       x="517.98767"
       transform="scale(0.7782011,1.2850149)"
       inkscape:label="tank-r"><tspan
         y="505.81708"
         class="t6"
         id="tank-r"
         style="font-style:normal;font-variant:normal;font-weight:normal;font-stretch:normal;font-size:17.8648px;font-family:'OCR B MT';-inkscape-font-specification:'OCR B MT, Normal';font-variant-ligatures:normal;font-variant-caps:normal;font-variant-numeric:normal;font-variant-east-asian:normal;stroke-width:1.48873">9.99</tspan></text></g><metadata
     id="metadata547"><rdf:RDF><cc:Work
         rdf:about=""><dc:title>EICAS</dc:title><dc:format>image/svg+xml</dc:format><dc:type
           rdf:resource="http://purl.org/dc/dcmitype/StillImage" /></cc:Work></rdf:RDF></metadata></svg>
