<?xml version="1.0" encoding="UTF-8" standalone="no"?>
<!-- Created with Inkscape (http://www.inkscape.org/) -->

<svg
   width="880"
   height="660"
   viewBox="0 0 880 660"
   version="1.1"
   id="svg5"
   inkscape:version="1.2.1 (9c6d41e410, 2022-07-14)"
   sodipodi:docname="NDWide.svg"
   xmlns:inkscape="http://www.inkscape.org/namespaces/inkscape"
   xmlns:sodipodi="http://sodipodi.sourceforge.net/DTD/sodipodi-0.dtd"
   xmlns="http://www.w3.org/2000/svg"
   xmlns:svg="http://www.w3.org/2000/svg">
  <sodipodi:namedview
     id="namedview7"
     pagecolor="#505050"
     bordercolor="#eeeeee"
     borderopacity="1"
     inkscape:showpageshadow="0"
     inkscape:pageopacity="0"
     inkscape:pagecheckerboard="0"
     inkscape:deskcolor="#505050"
     inkscape:document-units="px"
     showgrid="false"
     inkscape:zoom="1.1489099"
     inkscape:cx="397.33317"
     inkscape:cy="337.27624"
     inkscape:window-width="1920"
     inkscape:window-height="1001"
     inkscape:window-x="-9"
     inkscape:window-y="-9"
     inkscape:window-maximized="1"
     inkscape:current-layer="radial"
     showguides="false" />
  <defs
     id="defs2" />
  <g
     inkscape:label="Layer 1"
     inkscape:groupmode="layer"
     id="layer1">
    <path
       id="Shape 4"
       class="s0"
       d="M 0,0 H 879.99996 V 660 H 0 Z"
       style="fill:#000000" />
    <g
       id="radial">
      <path
         id="Shape 1 copy 3"
         class="s1"
         d="M 440,972 C 194.5,972 -4,773.5 -4,528 -4,282.5 194.5,84 440,84 685.5,84 884,282.5 884,528 884,773.5 685.5,972 440,972 Z"
         style="fill:none;stroke:#ffffff;stroke-width:2" />
      <path
         id="compass"
         fill-rule="evenodd"
         class="s2"
         d="m 440,84 h 2 v 18 h -2 z m 38.7,1.7 2,0.2 -0.8,8.9 -2,-0.1 z m 38.4,5 2,0.4 -3.1,17.7 -2,-0.4 z m 37.8,8.4 1.9,0.5 -2.3,8.7 -1.9,-0.5 z m 36.9,11.7 1.9,0.6 -6.2,17 -1.8,-0.7 z m 35.7,14.8 1.9,0.8 -3.8,8.2 -1.9,-0.8 z m 34.4,17.8 1.7,1 -9,15.6 -1.7,-1 z m 32.7,20.8 1.6,1.2 -5.2,7.4 -1.6,-1.2 z m 30.7,23.6 1.6,1.3 -11.6,13.8 -1.5,-1.3 z m 28.5,26.2 1.4,1.4 -6.3,6.3 -1.4,-1.4 z m 26.1,28.6 1.3,1.5 -13.8,11.6 -1.3,-1.6 z m 23.6,30.8 1.2,1.6 -7.4,5.2 -1.2,-1.7 z m 20.9,32.7 1,1.7 -15.6,9 -1,-1.7 z m 17.9,34.4 0.8,1.8 -8.2,3.8 -0.8,-1.8 z m 14.8,35.7 0.7,1.9 -16.9,6.2 -0.7,-1.9 z m 11.7,36.9 0.5,2 -8.7,2.3 -0.5,-1.9 z m 8.3,37.8 0.4,2 -17.7,3.1 -0.4,-2 z m 5.1,38.4 0.1,2 -8.9,0.8 -0.2,-2 z m 1.7,38.7 v 2 h -18 v -2 z m -1.7,38.7 -0.2,2 -8.9,-0.8 0.1,-2 z m -5,38.4 -0.4,2 -17.7,-3.1 0.4,-2 z m -8.4,37.8 -0.5,1.9 -8.7,-2.3 0.5,-1.9 z m -11.7,36.9 -0.6,1.9 -17,-6.2 0.7,-1.8 z m -14.8,35.7 -0.8,1.9 -8.2,-3.8 0.8,-1.9 z m -17.8,34.4 -1,1.7 -15.6,-9 1,-1.7 z m -20.8,32.7 -1.2,1.6 -7.4,-5.2 1.2,-1.6 z m -23.6,30.7 -1.3,1.6 -13.8,-11.6 1.3,-1.5 z m -26.2,28.5 -1.4,1.4 -6.3,-6.3 1.4,-1.4 z m -28.6,26.1 -1.5,1.3 -11.6,-13.8 1.6,-1.3 z m -30.8,23.6 -1.6,1.2 -5.2,-7.4 1.7,-1.2 z m -32.7,20.9 -1.7,1 -9,-15.6 1.7,-1 z m -34.4,17.9 -1.8,0.8 -3.8,-8.2 1.8,-0.8 z m -35.8,14.8 -1.8,0.7 -6.2,-16.9 1.9,-0.7 z m -36.9,11.7 -2,0.5 -2.3,-8.7 1.9,-0.5 z m -37.8,8.3 -2,0.4 -3.1,-17.7 2,-0.4 z m -38.4,5.1 -2,0.2 -0.8,-9 2,-0.2 z m -38.7,1.7 h -2 v -18 h 2 z m -38.7,-1.7 -2,-0.2 0.8,-8.9 2,0.1 z m -38.4,-5 -2,-0.4 3.1,-17.7 2,0.4 z m -37.8,-8.4 -1.9,-0.5 2.3,-8.7 1.9,0.5 z m -36.9,-11.7 -1.9,-0.6 6.2,-17 1.8,0.7 z m -35.8,-14.8 -1.8,-0.8 3.8,-8.2 1.9,0.8 z m -34.4,-17.8 -1.7,-1 9,-15.6 1.7,1 z m -32.7,-20.8 -1.6,-1.2 5.2,-7.4 1.6,1.2 z m -30.7,-23.6 -1.6,-1.3 11.6,-13.8 1.5,1.3 z m -28.5,-26.2 -1.4,-1.4 6.3,-6.3 1.4,1.4 z m -26.1,-28.6 -1.3,-1.5 13.8,-11.6 1.3,1.6 z m -23.6,-30.8 -1.2,-1.6 7.4,-5.2 1.1,1.7 z m -20.8,-32.7 -1,-1.7 15.6,-9 1,1.7 z m -17.9,-34.4 -0.8,-1.8 8.2,-3.8 0.8,1.8 z m -14.8,-35.7 -0.7,-1.9 16.9,-6.2 0.7,1.9 z M 11,642.8 l -0.5,-2 8.7,-2.3 0.5,1.9 z M 2.7,605 2.3,603 20,599.9 l 0.4,2 z m -5.1,-38.4 -0.2,-2 9,-0.8 0.2,2 z m -1.7,-38.7 v -2 h 18 v 2 z m 1.7,-38.7 0.2,-2 8.9,0.8 -0.1,2 z m 5,-38.4 0.4,-2 17.7,3.1 -0.4,2 z M 11,413 l 0.5,-1.9 8.7,2.3 -0.5,1.9 z m 11.7,-36.9 0.6,-1.9 17,6.2 -0.7,1.8 z m 14.8,-35.7 0.8,-1.9 8.2,3.8 -0.8,1.9 z m 17.8,-34.4 1,-1.7 15.6,9 -1,1.7 z m 20.8,-32.7 1.2,-1.6 7.4,5.2 -1.2,1.6 z m 23.6,-30.7 1.3,-1.6 13.8,11.6 -1.3,1.5 z m 26.1,-28.5 1.5,-1.4 6.3,6.3 -1.4,1.4 z m 28.6,-26.1 1.5,-1.3 11.6,13.8 -1.6,1.3 z m 30.8,-23.6 1.6,-1.2 5.2,7.4 -1.7,1.2 z m 32.7,-20.9 1.7,-1 9,15.6 -1.7,1 z m 34.4,-17.9 1.8,-0.8 3.8,8.2 -1.8,0.8 z m 35.7,-14.8 1.9,-0.7 6.2,16.9 -1.9,0.7 z m 36.9,-11.7 2,-0.5 2.3,8.7 -1.9,0.5 z m 37.8,-8.3 2,-0.4 3.1,17.7 -2,0.4 z m 38.4,-5.1 2,-0.2 0.8,9 -2,0.2 z m 32.4,21.7 3.2,-3.3 h -5.3 v -1.5 h 7.5 v 1.7 l -3.2,3.1 q 1.8,0.2 2.8,1.1 0.9,1 0.9,2.6 0,1.8 -1.3,2.9 -1.3,1.1 -3.4,1.1 -1.6,0 -3.3,-0.7 v -1.7 q 1.4,0.9 3.1,0.9 1.5,0 2.3,-0.7 0.9,-0.7 0.9,-1.9 0,-1 -0.8,-1.6 -0.7,-0.6 -1.9,-0.6 h -1.5 z m 13.4,-4.9 h 2.3 l -0.2,0.2 q -2.2,2.1 -3.1,3.3 l -0.7,1 q -0.1,0 -0.3,0.3 0.9,-0.4 1.6,-0.4 1.6,0 2.8,1.2 1.1,1.1 1.1,2.8 0,1.9 -1.1,3 -1.2,1.1 -3.1,1.1 -2,0 -3.1,-1.1 -1.1,-1.1 -1.1,-3.1 0,-1.2 0.5,-2.4 0.4,-1.1 1.5,-2.5 1.2,-1.7 2.9,-3.4 z m -0.7,6 q -1,0 -1.8,0.7 -0.7,0.7 -0.7,1.7 0,1.2 0.7,1.9 0.7,0.7 1.8,0.7 1.1,0 1.8,-0.7 0.7,-0.7 0.7,-1.9 0,-1 -0.7,-1.7 -0.7,-0.7 -1.8,-0.7 z m 202.9,55.1 4.4,-1.2 -4.6,-2.7 0.8,-1.3 6.5,3.7 -0.9,1.5 -4.3,1.1 q 1.5,1.1 1.8,2.4 0.4,1.3 -0.4,2.7 -0.9,1.5 -2.6,1.8 -1.7,0.4 -3.5,-0.7 -1.4,-0.8 -2.5,-2.3 l 0.8,-1.5 q 0.8,1.5 2.3,2.4 1.3,0.7 2.4,0.5 1.1,-0.1 1.7,-1.2 0.4,-0.8 0.1,-1.8 -0.3,-0.9 -1.4,-1.5 l -1.3,-0.7 z m 159.7,153.2 1.1,2 -0.3,-0.1 q -2.9,-0.9 -4.4,-1 l -1.2,-0.2 q -0.1,0 -0.4,0 0.7,0.6 1.1,1.2 0.8,1.4 0.4,3 -0.4,1.5 -1.9,2.4 -1.6,0.9 -3.2,0.5 -1.5,-0.5 -2.5,-2.1 -1,-1.7 -0.6,-3.2 0.5,-1.5 2.2,-2.5 1.1,-0.7 2.3,-0.8 1.2,-0.2 2.9,0 2.1,0.2 4.5,0.8 z m -5.6,2.4 q -0.5,-0.9 -1.5,-1.2 -0.9,-0.2 -1.9,0.3 -0.9,0.6 -1.2,1.5 -0.3,1 0.3,1.9 0.5,1 1.5,1.2 1,0.3 1.9,-0.3 0.9,-0.5 1.2,-1.5 0.2,-0.9 -0.3,-1.9 z m 49.5,209.2 -0.3,-0.3 v -2.2 q 2.7,2.9 4.8,4.2 -0.3,-0.8 -0.3,-1.6 0,-1.6 1.1,-2.7 1.2,-1.2 2.8,-1.2 1.9,0 3,1.2 1.2,1.2 1.2,3 0,1.9 -1.2,3.1 -1.1,1.1 -3.1,1.1 -1.7,0 -3.5,-1 -1.8,-1.1 -4.5,-3.6 z m 10.7,0.4 q 0,-1.1 -0.7,-1.8 -0.7,-0.7 -1.8,-0.7 -1.1,0 -1.8,0.7 -0.6,0.7 -0.6,1.9 0,1 0.6,1.7 0.8,0.7 1.9,0.7 0.9,0 1.7,-0.6 0.7,-0.7 0.7,-1.9 z m -64,201.4 9.1,5.2 -0.8,-4.1 1.9,1.1 0.7,3.8 -1,1.7 -10.7,-6.3 z m -2.9,8.6 -0.2,-0.1 -2.8,4.9 -1.4,-0.8 3.7,-6.3 q 0.6,0.2 0.9,0.4 1.4,0.8 2.1,1.8 0.5,0.7 0.7,1.6 0.2,0.9 0.3,2.4 0,1.6 0.3,2.3 0.2,0.7 0.8,1 0.6,0.4 1.4,0.2 0.8,-0.2 1.2,-0.9 0.9,-1.5 0.7,-3.8 l 1.6,0.9 q 0.1,1.8 -0.8,3.5 -0.9,1.5 -2.3,2 -1.3,0.4 -2.6,-0.3 -1,-0.6 -1.4,-1.5 -0.3,-0.6 -0.4,-1.1 -0.1,-0.6 -0.2,-2.4 -0.1,-1.6 -0.5,-2.5 -0.3,-0.9 -1.1,-1.3 z M 650,882.9 l 5.3,9.1 1.4,-3.9 1,1.8 -1.3,3.7 -1.6,0.9 -6.2,-10.7 z m -6.9,16.5 4.1,-2.4 -1,-2.2 -0.4,0.2 q -2,1.1 -3.6,0.9 -1.7,-0.3 -2.6,-1.9 -1.4,-2.4 0.4,-4.7 0.9,-1.3 3.4,-2.7 l 0.7,1.3 -0.1,0.1 -0.8,0.4 q -0.7,0.4 -1.2,0.8 -1,0.9 -1.2,1.9 -0.3,1.1 0.3,2 1.2,2.1 3.9,0.6 0.6,-0.4 1.1,-0.8 l 0.5,-0.3 q 0,-0.1 0.2,-0.2 l 2.5,5.2 -5.4,3.1 z m -198.8,41.5 v 10.5 l 3.1,-2.7 v 2.1 l -3,2.6 h -1.9 v -12.5 z m -12.7,7.1 0.2,-0.2 -0.3,-0.2 q -1.3,-0.8 -1.8,-1.5 -0.5,-0.8 -0.5,-1.9 0,-1.6 1.1,-2.5 1.1,-0.9 3.1,-0.9 2,0 3,0.9 1.1,0.9 1.1,2.5 0,2.5 -2.6,3.6 1.3,0.9 1.7,1.5 0.4,0.6 0.4,1.6 0,1.1 -1,1.9 -1,0.7 -2.6,0.7 -1.7,0 -2.7,-0.7 -1,-0.8 -1,-2 0,-0.8 0.4,-1.5 0.5,-0.6 1.5,-1.3 z m 1.8,0.7 q -0.9,0.4 -1.5,0.9 -0.5,0.5 -0.5,1 0,0.6 0.5,1 0.6,0.4 1.5,0.4 0.9,0 1.4,-0.4 0.6,-0.3 0.6,-1 0,-1.1 -2,-1.9 z m 0,-1.7 0.3,-0.2 q 1.2,-0.6 1.7,-1.2 0.4,-0.5 0.4,-1.3 0,-0.9 -0.7,-1.4 -0.6,-0.6 -1.8,-0.6 -1.1,0 -1.8,0.6 -0.6,0.5 -0.6,1.4 0,0.8 0.6,1.5 0.7,0.7 1.9,1.2 z m -195.1,-56.9 0.1,-0.2 -4.9,-2.8 0.8,-1.4 6.3,3.6 q -0.3,0.7 -0.4,0.9 -0.9,1.5 -1.8,2.1 -0.7,0.5 -1.6,0.7 -0.9,0.3 -2.4,0.3 -1.7,0.1 -2.3,0.3 -0.7,0.2 -1.1,0.8 -0.3,0.7 -0.1,1.5 0.2,0.8 0.9,1.2 1.5,0.8 3.8,0.6 l -0.9,1.6 q -1.8,0.2 -3.5,-0.8 -1.5,-0.9 -2,-2.2 -0.5,-1.3 0.3,-2.7 0.6,-0.9 1.5,-1.4 0.5,-0.3 1.1,-0.4 0.6,-0.1 2.4,-0.1 1.6,-0.1 2.5,-0.5 0.8,-0.4 1.3,-1.1 z m -10.2,-8 -5.3,9.1 4.1,-0.8 -1,1.9 -3.9,0.6 -1.6,-0.9 6.2,-10.8 z M 84.2,740.9 l 0.2,-0.2 -2.8,-4.8 1.4,-0.8 3.6,6.3 q -0.5,0.4 -0.8,0.5 -1.5,0.9 -2.6,1 -0.9,0 -1.8,-0.2 -0.8,-0.3 -2.2,-1 -1.4,-0.7 -2.1,-0.9 -0.7,-0.1 -1.3,0.2 -0.7,0.4 -0.9,1.2 -0.2,0.8 0.2,1.5 0.9,1.5 2.9,2.5 l -1.6,0.9 q -1.6,-0.8 -2.5,-2.4 -0.9,-1.6 -0.7,-3 0.3,-1.4 1.7,-2.1 0.9,-0.6 1.9,-0.5 0.6,0 1.2,0.2 0.6,0.2 2.2,1 1.4,0.7 2.3,0.9 1,0.1 1.7,-0.3 z M 72.1,730 l 2.2,-1.3 -0.7,-1.3 1.3,-0.8 0.8,1.3 2.4,-1.3 0.8,1.5 -2.3,1.3 2.3,4.1 -1.6,0.9 -8.6,0.8 -0.9,-1.5 8.9,-0.8 -1.5,-2.7 -2.2,1.3 z M 25.3,534.5 h 0.3 v -5.6 h 1.6 v 7.3 q -0.7,0.1 -1,0.1 -1.7,0 -2.7,-0.5 -0.8,-0.4 -1.4,-1.1 -0.7,-0.6 -1.5,-1.9 -0.9,-1.4 -1.4,-1.9 -0.5,-0.5 -1.2,-0.5 -0.8,0 -1.3,0.6 -0.6,0.6 -0.6,1.4 0,1.8 1.3,3.6 h -1.9 q -1,-1.4 -1,-3.4 0,-1.7 0.9,-2.8 1,-1.1 2.5,-1.1 1.1,0 2,0.6 0.5,0.3 0.9,0.8 0.3,0.4 1.3,2 0.9,1.3 1.6,1.9 0.8,0.5 1.6,0.5 z m -9,-15.1 v 6.1 h -1.6 v -8.1 h 0.5 q 0.9,0 1.6,0.3 0.7,0.3 1.8,1.3 2.1,1.8 3.5,2.4 1.3,0.6 2.9,0.6 h 2.2 v 1.8 H 25 q -1.6,0 -3.3,-0.8 -1.7,-0.8 -3.3,-2.1 l -1,-0.9 q -0.6,-0.5 -1.1,-0.6 z m 56.4,-196 -1.2,-4.5 -2.7,4.6 -1.3,-0.8 3.7,-6.5 1.5,0.9 1.2,4.3 q 1,-1.4 2.3,-1.8 1.3,-0.3 2.7,0.5 1.6,0.9 1.9,2.6 0.3,1.6 -0.8,3.5 -0.8,1.3 -2.3,2.5 l -1.4,-0.9 q 1.4,-0.8 2.3,-2.2 0.7,-1.3 0.6,-2.4 -0.2,-1.1 -1.3,-1.7 -0.8,-0.5 -1.7,-0.1 -1,0.3 -1.6,1.3 l -0.7,1.3 z m 2.1,-13.7 q 0.7,-1.1 1.3,-1.6 0.7,-0.5 1.5,-0.4 1.8,0.1 4.7,1.8 3.6,2.1 4.2,3.6 0.3,1.2 -0.9,3.3 -1.2,2.1 -2.6,2.1 -1.8,-0.1 -4.9,-1.9 -3.1,-1.8 -4,-3.3 -0.4,-0.6 -0.2,-1.4 0.2,-0.9 0.9,-2.2 z m 1.4,0.9 q -0.5,0.8 -0.7,1.2 -0.1,0.4 0,0.8 0.2,0.3 1.2,1.1 1,0.8 2.2,1.5 1,0.6 2.2,1.1 1.1,0.5 1.6,0.6 0.5,0 0.8,-0.2 0.4,-0.3 0.8,-1.1 0.5,-0.8 0.6,-1.3 0.2,-0.5 0,-0.8 -0.6,-1 -3.1,-2.4 -1.5,-0.9 -2.8,-1.4 -1.2,-0.5 -1.6,-0.4 -0.3,0 -0.6,0.3 -0.2,0.3 -0.6,1 z m 147.9,-143.3 1.2,-4.5 -4.6,2.7 -0.8,-1.3 6.5,-3.8 0.8,1.5 -1.1,4.3 q 1.6,-0.7 2.9,-0.4 1.3,0.3 2.1,1.8 0.9,1.5 0.3,3.1 -0.5,1.6 -2.4,2.7 -1.3,0.8 -3.2,1 l -0.8,-1.5 q 1.6,0.1 3.1,-0.8 1.3,-0.7 1.7,-1.7 0.4,-1 -0.2,-2.1 -0.5,-0.8 -1.5,-1 -1,-0.2 -2,0.4 l -1.3,0.8 z m 9.4,-5.4 1.1,-4.5 -4.6,2.6 -0.8,-1.3 6.5,-3.8 0.9,1.5 -1.2,4.3 q 1.7,-0.7 2.9,-0.4 1.3,0.4 2.2,1.8 0.9,1.5 0.3,3.2 -0.6,1.6 -2.4,2.6 -1.4,0.8 -3.3,1 l -0.8,-1.4 q 1.7,0 3.1,-0.8 1.3,-0.8 1.7,-1.8 0.4,-1 -0.2,-2.1 -0.5,-0.8 -1.5,-1 -0.9,-0.2 -2,0.4 l -1.3,0.8 z"
         style="fill:#ffffff" />
      <path
         id="Shape 1 copy 2"
         class="s1"
         d="M 440,861 C 255.9,861 107,712.1 107,528 107,343.9 255.9,195 440,195 c 184.1,0 333,148.9 333,333 0,184.1 -148.9,333 -333,333 z"
         style="fill:none;stroke:#ffffff;stroke-width:2" />
      <path
         id="Shape 1"
         class="s1"
         d="m 440,639 c -61.4,0 -111,-49.6 -111,-111 0,-61.4 49.6,-111 111,-111 61.4,0 111,49.6 111,111 0,61.4 -49.6,111 -111,111 z"
         style="fill:none;stroke:#ffffff;stroke-width:2" />
      <path
         id="Shape 1 copy"
         class="s1"
         d="m 440,750 c -122.8,0 -222,-99.2 -222,-222 0,-122.8 99.2,-222 222,-222 122.8,0 222,99.2 222,222 0,122.8 -99.2,222 -222,222 z"
         style="fill:none;stroke:#ffffff;stroke-width:2" />
      <path
         id="overlay-norm"
         fill-rule="evenodd"
         class="s0"
         d="M 880,0 V 394 660 H 0 V 0 Z M 440,83 C 246.7,83 82.6,205.7 21,377.5 V 528 H 859 V 377.5 C 797.4,205.7 633.3,83 440,83 Z"
         style="fill:#000000" />
      <text
         xml:space="preserve"
         style="font-size:15.0235px;line-height:125%;font-family:'OCR B MT';-inkscape-font-specification:'OCR B MT';text-align:center;writing-mode:lr-tb;text-anchor:middle;fill:#f9f9f9;fill-opacity:1;stroke-width:0"
         x="454.0079"
         y="294.28372"
         id="range-half"
         transform="scale(0.97134874,1.0294964)"
         inkscape:label="range-half"><tspan
           sodipodi:role="line"
           id="tspan2356"
           x="454.0079"
           y="294.28372"
           style="stroke-width:0">80</tspan></text>
      <path
         id="hdg-track"
         class="s1"
         d="M 441,529 V 84"
         style="fill:none;stroke:#ffffff;stroke-width:2" />
      <path
         id="hdg-ap"
         class="s3"
         d="M 441,529 V 84"
         style="fill:none;stroke:#ff00ff;stroke-width:2;stroke-dasharray:12, 12" />
    </g>
    <path
       id="FMC L"
       class="s4"
       aria-label="FMC L"
       d="m 306.3,641.1 h -2.7 v 2.8 h 2.2 v 1.4 h -2.2 v 4.7 h -1.1 v -10.3 h 3.8 z m 3.7,-1.3 0.9,4 0.89996,-4 h 1.7 V 650 h -1.1 v -8.7 L 311.4,646.7 h -0.9 l -1.1,-5.4 v 8.7 h -1.1 v -10.2 z m 10.09996,2.2 h -1 q -0.1,-0.4 -0.4,-0.7 -0.2,-0.3 -0.6,-0.3 -0.6,0 -1,1.1 -0.4,1 -0.4,2.7 0,1.8 0.4,2.9 0.4,1.1 1,1.1 0.4,0 0.6,-0.3 0.3,-0.4 0.4,-0.9 h 1.1 v 0.2 q 0,0.9 -0.6,1.6 -0.6,0.7 -1.4,0.7 -1.2,0 -1.9,-1.4 -0.7,-1.4 -0.7,-3.7 0,-2.5 0.7,-4 0.7,-1.4 1.9,-1.4 0.8,0 1.4,0.7 0.5,0.7 0.5,1.7 z m 10.5,-2.2 v 8.8 h 3.8 v 1.4 h -4.8 v -10.2 z"
       style="fill:#00ff00" />
    <g
       id="performance">
      <text
         xml:space="preserve"
         style="font-size:11.5947px;line-height:125%;font-family:'OCR B MT';-inkscape-font-specification:'OCR B MT';text-align:center;writing-mode:lr-tb;text-anchor:middle;fill:#00ff00;fill-opacity:1;stroke-width:0"
         x="514.98151"
         y="529.05402"
         id="rnp"
         transform="scale(0.8127107,1.2304502)"
         inkscape:label="rnp"><tspan
           sodipodi:role="line"
           id="tspan2320"
           x="514.98151"
           y="529.05402"
           style="stroke-width:0;fill:#00ff00">2.00</tspan></text>
      <path
         id="RNP"
         fill-rule="evenodd"
         class="s4"
         d="m 411.7,635 h -0.9 v 4 h -1.1 v -9.6 h 2.2 q 1,0 1.6,0.7 0.6,0.8 0.6,2.1 0,1 -0.4,1.6 -0.4,0.7 -1,0.9 l 1.8,4.3 h -1.2 z m -0.9,-4.3 v 3 h 1 q 1.3,0 1.3,-1.5 0,-1.5 -1.3,-1.5 z m 6.6,-1.3 2.5,7.1 v -7.1 h 0.9 v 9.6 h -1.1 l -2.6,-7.4 v 7.4 h -1 v -9.6 z m 8.1,5.6 h -1.4 v 4 H 423 v -9.6 h 2.6 q 0.6,0 0.9,0.2 0.4,0.1 0.8,0.6 0.5,0.8 0.5,2 0,1.3 -0.6,2.1 -0.6,0.7 -1.7,0.7 z m -1.4,-4.3 v 3 h 1.4 q 0.6,0 1,-0.4 0.3,-0.4 0.3,-1.1 0,-1.5 -1.3,-1.5 z"
         style="fill:#00ff00" />
      <text
         xml:space="preserve"
         style="font-size:11.5947px;line-height:125%;font-family:'OCR B MT';-inkscape-font-specification:'OCR B MT';text-align:center;writing-mode:lr-tb;text-anchor:middle;fill:#00ff00;fill-opacity:1;stroke-width:0"
         x="570.10577"
         y="529.05402"
         id="anp"
         transform="scale(0.81271068,1.2304502)"
         inkscape:label="anp"><tspan
           sodipodi:role="line"
           id="tspan2326"
           x="570.10577"
           y="529.05402"
           style="fill:#00ff00;stroke-width:0">2.00</tspan></text>
      <path
         id="ANP"
         fill-rule="evenodd"
         class="s4"
         d="m 458.3,639 -0.5,-2.8 h -2 l -0.5,2.8 h -1.1 l 2,-9.6 h 1.5 l 1.8,9.6 z m -2.3,-4.1 h 1.6 l -0.8,-4.3 z m 6.4,-5.5 2.5,7 v -7 h 0.9 v 9.6 h -1.1 l -2.6,-7.4 v 7.4 h -1 v -9.6 z m 8.1,5.6 h -1.4 v 4 H 468 v -9.6 h 2.5 q 0.7,0 1,0.1 0.4,0.2 0.7,0.7 0.6,0.8 0.6,2 0,1.2 -0.6,2.1 -0.6,0.7 -1.7,0.7 z m -1.4,-4.4 v 3.1 h 1.4 q 0.6,0 1,-0.4 0.3,-0.4 0.3,-1.1 0,-1.6 -1.3,-1.6 z"
         style="fill:#00ff00" />
    </g>
    <g
       id="vor-dme">
      <path
         id="DME"
         fill-rule="evenodd"
         class="s4"
         d="m 15.4,648 h -0.9 v -9.3 h 0.7 q 1.5,0 2.5,1.3 0.6,0.7 0.9,1.6 0.3,1 0.3,1.9 0,2 -1,3.3 -1,1.2 -2.5,1.2 z m 0.1,-8 v 6.7 q 1.1,0 1.7,-0.8 0.7,-0.9 0.7,-2.4 0,-1.4 -0.7,-2.5 -0.7,-1 -1.7,-1 z m 6.9,-1.3 0.9,3.6 0.8,-3.6 h 1.7 v 9.3 h -1 v -7.9 l -1,4.9 h -0.9 l -1.1,-4.9 v 7.9 h -1 v -9.3 z m 9.9,1.2 H 29 v 2.6 h 2.9 v 1.3 H 29 v 3 h 3.4 v 1.2 h -4.5 v -9.3 h 4.4 z"
         style="fill:#00ff00" />
      <path
         id="VOR 1"
         fill-rule="evenodd"
         class="s4"
         d="m 15.1,606.2 2.2,11 2.1,-11 h 1.4 L 18.2,619 h -1.9 l -2.6,-12.8 z m 11,-0.2 q 1.4,0 2.3,1.9 1,1.9 1,4.6 0,3 -0.9,4.8 -1,1.9 -2.4,1.9 -1.5,0 -2.4,-1.9 -1,-1.8 -1,-4.6 0,-2.9 1,-4.8 0.9,-1.9 2.4,-1.9 z m 0,1.7 q -0.9,0 -1.4,1.1 -0.6,1.4 -0.6,3.9 0,2.2 0.5,3.5 0.5,1.2 1.5,1.2 0.9,0 1.4,-1.3 0.5,-1.3 0.5,-3.6 0,-2.2 -0.5,-3.5 -0.5,-1.3 -1.4,-1.3 z m 8.5,5.9 h -1.2 v 5.4 h -1.3 v -12.8 h 2.8 q 1.4,0 2.2,1 0.8,1 0.8,2.7 0,1.3 -0.6,2.2 -0.5,0.9 -1.4,1.1 l 2.5,5.8 h -1.6 z m -1.2,-5.8 v 4.1 h 1.3 q 1.7,0 1.7,-2 0,-2.1 -1.7,-2.1 z M 52.3,619 v -11.7 l -2.6,3 V 608 l 2.5,-2.9 h 1.5 V 619 Z"
         style="fill:#00ff00" />
      <path
         id="VOR 2"
         fill-rule="evenodd"
         class="s4"
         d="m 826.1,606.2 2.2,11 2.1,-11 h 1.4 l -2.6,12.8 h -1.9 l -2.6,-12.8 z m 11,-0.2 q 1.4,0 2.3,1.9 1,1.9 1,4.6 0,3 -0.9,4.8 -1,1.9 -2.4,1.9 -1.5,0 -2.4,-1.9 -1,-1.8 -1,-4.6 0,-2.9 1,-4.8 0.9,-1.9 2.4,-1.9 z m 0,1.7 q -0.9,0 -1.4,1.1 -0.6,1.4 -0.6,3.9 0,2.2 0.5,3.5 0.5,1.2 1.5,1.2 0.9,0 1.4,-1.3 0.5,-1.3 0.5,-3.6 0,-2.2 -0.5,-3.5 -0.5,-1.3 -1.4,-1.3 z m 8.5,5.9 h -1.2 v 5.4 h -1.3 v -12.8 h 2.8 q 1.4,0 2.2,1 0.8,1 0.8,2.7 0,1.3 -0.6,2.2 -0.5,0.9 -1.4,1.1 l 2.5,5.8 h -1.6 z m -1.2,-5.8 v 4.1 h 1.3 q 1.7,0 1.7,-2 0,-2.1 -1.7,-2.1 z m 17.3,9.1 v 0.3 h 4.6 v 1.8 h -6 q 0,-0.8 0,-1.2 0,-1.8 0.4,-3 0.3,-0.8 0.8,-1.5 0.5,-0.7 1.6,-1.7 1.1,-0.9 1.5,-1.5 0.4,-0.6 0.4,-1.4 0,-0.8 -0.5,-1.4 -0.5,-0.7 -1.1,-0.7 -1.4,0 -2.9,1.5 V 606 q 1.1,-1.1 2.7,-1.1 1.5,0 2.3,1 0.9,1 0.9,2.8 0,1.2 -0.4,2.1 -0.3,0.6 -0.7,1 -0.4,0.4 -1.6,1.5 -1.1,1 -1.6,1.8 -0.4,0.9 -0.4,1.8 z"
         style="fill:#00ff00" />
      <path
         id="DME copy"
         fill-rule="evenodd"
         class="s4"
         d="M 811.9,648 H 811 v -9.3 h 0.8 q 1.4,0 2.5,1.3 0.5,0.7 0.8,1.6 0.3,1 0.3,1.9 0,2 -1,3.3 -0.9,1.2 -2.5,1.2 z m 0.2,-8 v 6.7 q 1,0 1.6,-0.8 0.7,-0.9 0.7,-2.4 0,-1.4 -0.7,-2.5 -0.7,-1 -1.6,-1 z m 6.9,-1.3 0.8,3.6 0.9,-3.6 h 1.7 v 9.3 h -1.1 v -7.9 l -1,4.9 h -0.9 l -1.1,-4.9 v 7.9 h -1 v -9.3 z m 9.9,1.2 h -3.3 v 2.6 h 2.9 v 1.3 h -2.9 v 3 h 3.4 v 1.2 h -4.4 v -9.3 h 4.3 z"
         style="fill:#00ff00" />
      <text
         xml:space="preserve"
         style="font-size:16.4608px;line-height:125%;font-family:'OCR B MT';-inkscape-font-specification:'OCR B MT';text-align:center;writing-mode:lr-tb;text-anchor:middle;fill:#00ff00;fill-opacity:1;stroke-width:0"
         x="54.38781"
         y="468.61032"
         id="vor1"
         transform="scale(0.73735207,1.3562042)"
         inkscape:label="vor1"><tspan
           sodipodi:role="line"
           id="tspan2336"
           x="54.38781"
           y="468.61032"
           style="stroke-width:0">------</tspan></text>
      <text
         xml:space="preserve"
         style="font-size:15.9013px;line-height:125%;font-family:'OCR B MT';-inkscape-font-specification:'OCR B MT';text-align:center;writing-mode:lr-tb;text-anchor:middle;fill:#00ff00;fill-opacity:1;stroke-width:0"
         x="77.500488"
         y="462.65414"
         id="dme1"
         transform="scale(0.71228926,1.403924)"
         inkscape:label="dme1"><tspan
           sodipodi:role="line"
           id="tspan2342"
           x="77.500488"
           y="462.65414"
           style="stroke-width:0">---</tspan></text>
      <path
         id="vor2hdg"
         class="s5"
         d="m 438,79 3,-6 3,6 v 33 h 3 v 4 h -12 v -4 h 3 z"
         style="fill:none;stroke:#00ff00;stroke-width:2" />
      <path
         id="vor1hdg"
         fill-rule="evenodd"
         class="s5"
         d="m 438,77 3,-3 v 40 m 3,-37 -3,-3 m -4,40 h 8"
         style="fill:none;stroke:#00ff00;stroke-width:2" />
      <text
         xml:space="preserve"
         style="font-size:16.4608px;line-height:125%;font-family:'OCR B MT';-inkscape-font-specification:'OCR B MT';text-align:center;writing-mode:lr-tb;text-anchor:middle;fill:#00ff00;fill-opacity:1;stroke-width:0"
         x="1136.6388"
         y="468.61032"
         id="vor2"
         transform="scale(0.73735208,1.3562042)"
         inkscape:label="vor2"><tspan
           sodipodi:role="line"
           id="tspan2348"
           x="1136.6388"
           y="468.61032"
           style="stroke-width:0">------</tspan></text>
      <text
         xml:space="preserve"
         style="font-size:15.9013px;line-height:125%;font-family:'OCR B MT';-inkscape-font-specification:'OCR B MT';text-align:center;writing-mode:lr-tb;text-anchor:middle;fill:#00ff00;fill-opacity:1;stroke-width:0"
         x="1195.726"
         y="462.65414"
         id="dme2"
         transform="scale(0.71228926,1.403924)"
         inkscape:label="dme2"><tspan
           sodipodi:role="line"
           id="tspan2352"
           x="1195.726"
           y="462.65414"
           style="stroke-width:0">---</tspan></text>
    </g>
    <g
       id="modes">
      <path
         id="WX-A"
         class="s6"
         aria-label="WX-A"
         d="m 17.7,543 -0.9,-4.4 -0.9,4.4 h -1.5 q -0.5,-2.3 -0.8,-5.6 -0.3,-3.3 -0.3,-5.6 v -1.2 h 1.5 v 0.7 q 0,4.8 0.4,8.6 l 1.1,-4.5 h 1.1 l 1,4.6 0.1,-0.6 q 0.4,-4.3 0.4,-7.9 v -0.9 h 1.4 v 1.3 q 0,2.7 -0.3,5.8 -0.3,3 -0.7,5.3 z m 6.2,-12.4 1.9,4.3 1.9,-4.3 h 1.4 l -2.6,5.8 2.8,6.6 h -1.6 l -1.9,-4.8 -2,4.8 h -1.6 l 2.7,-6.3 -2.7,-6.1 z m 9.2,8.8 v -2.1 h 3.3 v 2.1 z m 12.6,3.6 -0.6,-3.6 h -2.7 l -0.7,3.6 h -1.5 l 2.6,-12.4 h 2.1 l 2.4,12.4 z m -3.1,-5.2 h 2.1 l -1,-5.6 z"
         style="fill:#00ffff" />
      <path
         id="TERR"
         class="s6"
         aria-label="TERR"
         d="M 20.1,532.2 H 17.5 V 543 h -1.4 v -10.8 h -2.6 v -1.6 h 6.6 z m 8.7,0 h -4.3 v 3.4 h 3.8 v 1.7 h -3.8 v 4 H 29 v 1.6 h -5.9 v -12.4 h 5.7 z m 5.7,5.6 h -1.2 v 5.2 h -1.4 v -12.4 h 3 q 1.3,0 2.1,0.9 0.8,1 0.8,2.7 0,1.3 -0.5,2.1 -0.5,0.9 -1.4,1.1 l 2.5,5.6 h -1.6 z m -1.3,-5.6 v 3.9 h 1.3 q 1.8,0 1.8,-1.9 0,-2 -1.8,-2 z m 10.2,5.6 h -1.2 v 5.2 h -1.4 v -12.5 h 2.9 q 1.4,0 2.2,1 0.8,1 0.8,2.6 0,1.3 -0.5,2.2 -0.5,0.8 -1.4,1.1 l 2.5,5.6 h -1.6 z m -1.3,-5.6 v 3.9 h 1.3 q 1.8,0 1.8,-2 0,-1.9 -1.8,-1.9 z"
         style="fill:#00ffff" />
      <path
         id="ARPT"
         class="s6"
         aria-label="ARPT"
         d="m 18.3,502 -0.5,-2.7 H 15.7 L 15.1,502 H 14 l 2,-9.5 h 1.6 l 1.9,9.5 z m -2.4,-4 h 1.6 l -0.7,-4.3 z m 7.5,0.1 h -0.9 v 3.9 h -1.1 v -9.5 h 2.2 q 1.1,0 1.7,0.8 0.6,0.7 0.6,2 0,1 -0.4,1.6 -0.4,0.7 -1.1,0.9 l 1.9,4.2 h -1.2 z m -0.9,-4.2 v 3 h 0.9 q 1.4,0 1.4,-1.5 0,-1.5 -1.4,-1.5 z m 8.4,4.3 h -1.5 v 3.9 h -1.1 v -9.5 h 2.6 q 0.7,0 1.1,0.2 0.4,0.1 0.7,0.6 0.6,0.8 0.6,2 0,1.2 -0.7,2 -0.6,0.8 -1.7,0.8 z m -1.5,-4.3 v 3 h 1.5 q 0.6,0 1,-0.4 0.3,-0.4 0.3,-1.1 0,-1.5 -1.3,-1.5 z m 10.6,0 h -2 v 8.2 h -1.1 v -8.2 h -2 v -1.3 H 40 Z"
         style="fill:#00ffff" />
      <path
         id="WPT"
         class="s6"
         aria-label="WPT"
         d="m 17.4,516 -0.6,-3.4 -0.7,3.4 h -1.2 q -0.3,-1.8 -0.6,-4.3 -0.2,-2.5 -0.2,-4.3 v -0.9 h 1.1 v 0.5 q 0,3.7 0.4,6.6 l 0.7,-3.5 h 0.9 l 0.8,3.6 v -0.5 q 0.3,-3.2 0.3,-6 v -0.7 h 1.1 v 1 q 0,2.1 -0.2,4.4 -0.2,2.4 -0.6,4.1 z m 6.6,-3.9 h -1.5 v 3.9 h -1.1 v -9.5 H 24 q 0.7,0 1.1,0.2 0.4,0.1 0.7,0.6 0.6,0.8 0.6,2 0,1.2 -0.7,2 -0.6,0.8 -1.7,0.8 z m -1.5,-4.3 v 3 H 24 q 0.6,0 1,-0.4 0.3,-0.4 0.3,-1.1 0,-1.5 -1.3,-1.5 z m 10.6,0 H 31 v 8.2 h -1 v -8.2 h -2 v -1.3 h 5.1 z"
         style="fill:#00ffff" />
      <path
         id="TFC"
         class="s6"
         aria-label="TFC"
         d="m 19.3,578.8 h -2 v 8.2 h -1.1 v -8.2 h -2 v -1.3 h 5.1 z m 6.6,0 h -2.7 v 2.6 h 2.2 v 1.3 h -2.2 v 4.3 h -1.1 v -9.5 h 3.8 z m 6.9,0.9 h -1 q -0.1,-0.5 -0.4,-0.7 -0.2,-0.3 -0.6,-0.3 -0.6,0 -1,1 -0.4,0.9 -0.4,2.5 0,1.7 0.4,2.7 0.4,1 1,1 0.4,0 0.6,-0.3 0.3,-0.3 0.4,-0.8 h 1.1 v 0.2 q 0,0.9 -0.6,1.5 -0.6,0.7 -1.4,0.7 -1.2,0 -1.9,-1.3 -0.7,-1.3 -0.7,-3.5 0,-2.4 0.7,-3.7 0.7,-1.3 1.9,-1.3 0.8,0 1.4,0.7 0.5,0.6 0.5,1.6 z"
         style="fill:#00ffff" />
    </g>
    <path
       id="Shape 7"
       class="s1"
       d="m 429.99996,559 11,-30 11,30 z"
       style="fill:none;stroke:#ffffff;stroke-width:2" />
    <g
       id="hdg">
      <path
         id="heading-ap"
         class="s7"
         d="m 434,84 v -5.5 h 4 l 3,5.5 z m 7,0 3,-5.5 h 4 V 84 Z"
         style="fill:none;stroke:#ff00ff;stroke-width:2" />
      <text
         xml:space="preserve"
         style="font-size:16.1378px;line-height:125%;font-family:'OCR B MT';-inkscape-font-specification:'OCR B MT';text-align:center;writing-mode:lr-tb;text-anchor:middle;fill:#00ff00;fill-opacity:1;stroke-width:0"
         x="469.69708"
         y="57.022564"
         id="hdg-mode"
         transform="scale(0.85066119,1.1755562)"
         inkscape:label="hdg-mode"><tspan
           sodipodi:role="line"
           id="tspan989"
           x="469.69708"
           y="57.022564"
           style="stroke-width:0">HDG</tspan></text>
      <path
         id="heading-mode"
         class="s4"
         aria-label="MAG"
         d="m 471.2,54.3 1.2,5 1.2,-5 h 2.3 V 67 h -1.5 V 56.2 l -1.4,6.7 h -1.2 l -1.5,-6.7 V 67 h -1.4 V 54.3 Z m 12.6,12.7 -0.7,-3.7 h -2.8 l -0.7,3.7 h -1.5 l 2.7,-12.7 h 2.1 l 2.6,12.7 z m -3.2,-5.4 h 2.2 l -1.1,-5.7 z m 12.4,3.6 v -3.3 h -2.1 v -1.6 h 3.5 v 6.1 q -1.5,0.8 -2.8,0.8 -1.9,0 -2.9,-1.7 -1,-1.7 -1,-4.9 0,-2 0.3,-3.2 0.4,-1.2 1.1,-2.1 1.1,-1.1 2.6,-1.1 1.2,0 1.9,0.7 0.4,0.4 0.6,0.9 0.2,0.5 0.2,0.9 0,0 0,0.1 H 493 q -0.3,-0.9 -1.2,-0.9 -1.4,0 -2,1.1 -0.7,1.2 -0.7,3.6 0,4.9 2.6,4.9 0.6,0 1.3,-0.3 z"
         style="fill:#00ff00" />
      <text
         xml:space="preserve"
         style="font-size:18.9071px;line-height:125%;font-family:'OCR B MT';-inkscape-font-specification:'OCR B MT';text-align:center;writing-mode:lr-tb;text-anchor:middle;fill:#ffffff;stroke-width:0"
         x="494.62555"
         y="58.912971"
         id="heading"
         transform="scale(0.89261951,1.1202982)"
         inkscape:label="heading"><tspan
           sodipodi:role="line"
           id="tspan983"
           x="494.62555"
           y="58.912971"
           style="stroke-width:0">999</tspan></text>
      <path
         id="Shape 8"
         class="s1"
         d="M 465,46 V 71 H 417 V 46"
         style="fill:none;stroke:#ffffff;stroke-width:2" />
      <path
         id="path292"
         class="s1"
         d="m 435,73 h 12 l -6,11 z"
         style="fill:none;stroke:#ffffff;stroke-width:2" />
    </g>
    <g
       id="waypoint">
      <path
         id="NM"
         class="s2"
         d="m 858.5,81.4 2.5,7 v -7 h 1 V 91 h -1.2 l -2.6,-7.4 V 91 h -1 v -9.6 z m 7,0 0.9,3.7 0.8,-3.7 h 1.7 V 91 h -1 v -8.2 l -1.1,5.1 H 866 l -1.1,-5.1 V 91 h -1 v -9.6 z"
         style="fill:#ffffff" />
      <text
         xml:space="preserve"
         style="font-size:14.9628px;line-height:125%;font-family:'OCR B MT';-inkscape-font-specification:'OCR B MT';text-align:end;writing-mode:lr-tb;text-anchor:end;fill:#ffffff;fill-opacity:1;stroke-width:0"
         x="1025.1858"
         y="75.956718"
         id="wpt-distance"
         transform="scale(0.83521674,1.197294)"
         inkscape:label="wpt-distance"><tspan
           sodipodi:role="line"
           id="tspan2308"
           x="1025.1858"
           y="75.956718"
           style="stroke-width:0;fill:#ffffff">13.7</tspan></text>
      <text
         xml:space="preserve"
         style="font-size:14.7271px;line-height:125%;font-family:'OCR B MT';-inkscape-font-specification:'OCR B MT';text-align:end;writing-mode:lr-tb;text-anchor:end;fill:#ffffff;fill-opacity:1;stroke-width:0"
         x="1057.054"
         y="62.598274"
         id="wpt-time"
         transform="scale(0.82428016,1.2131798)"
         inkscape:label="wpt-time"><tspan
           sodipodi:role="line"
           id="tspan2302"
           x="1057.054"
           y="62.598274"
           style="stroke-width:0;fill:#ffffff">1618.5z</tspan></text>
      <text
         xml:space="preserve"
         style="font-size:17.1363px;line-height:125%;font-family:'OCR B MT';-inkscape-font-specification:'OCR B MT';text-align:end;writing-mode:lr-tb;text-anchor:end;fill:#ff00ff;fill-opacity:1;stroke-width:0"
         x="1070.6195"
         y="49.658508"
         id="wpt-next"
         transform="scale(0.81274165,1.2304033)"
         inkscape:label="wpt-next"><tspan
           sodipodi:role="line"
           id="tspan2069"
           x="1070.6195"
           y="49.658508"
           style="font-size:17.1363px;text-align:end;text-anchor:end;fill:#ff00ff;fill-opacity:1;stroke-width:0">AAAAA</tspan></text>
    </g>
    <g
       id="wind and range">
      <path
         id="Shape 6"
         fill-rule="evenodd"
         class="s2"
         d="m 115,48 h 43 v 32 h -43 z m 2,30 h 39 V 50 h -39 z m 5.4,-21.2 h -0.9 V 61 h -1.1 V 50.9 h 2.3 q 1,0 1.6,0.8 0.7,0.8 0.7,2.1 0,1.1 -0.4,1.8 -0.4,0.7 -1.1,0.9 l 1.9,4.5 h -1.2 z m -1,-4.5 v 3.1 h 1 q 1.4,0 1.4,-1.5 0,-1.6 -1.4,-1.6 z m 9.6,8.7 -0.5,-2.9 h -2.1 l -0.5,2.9 h -1.2 l 2.1,-10.1 h 1.5 l 1.9,10.1 z m -2.3,-4.3 h 1.6 l -0.8,-4.5 z m 6.7,-5.8 2.6,7.4 v -7.4 h 1 V 61 h -1.2 L 135,53.2 V 61 h -1 V 50.9 Z m 9.5,8.6 V 57 h -1.5 v -1.4 h 2.6 v 4.9 q -1.1,0.6 -2.1,0.6 -1.4,0 -2.2,-1.3 -0.7,-1.4 -0.7,-3.9 0,-1.6 0.3,-2.6 0.2,-0.9 0.8,-1.6 0.8,-0.9 1.9,-0.9 0.9,0 1.4,0.6 0.3,0.3 0.5,0.7 0.1,0.4 0.1,0.7 0,0 0,0.1 h -1.1 q -0.1,-0.8 -0.8,-0.8 -1,0 -1.5,0.9 -0.5,1 -0.5,2.9 0,3.9 1.9,3.9 0.4,0 0.9,-0.3 z m 8,-7.3 h -3.4 V 55 h 3 v 1.4 h -3 v 3.2 H 153 V 61 h -4.6 V 50.9 h 4.5 z"
         style="fill:#ffffff" />
      <text
         xml:space="preserve"
         style="font-size:14.7662px;line-height:125%;font-family:'OCR B MT';-inkscape-font-specification:'OCR B MT';text-align:center;writing-mode:lr-tb;text-anchor:middle;fill:#ffffff;stroke-width:0"
         x="156.64537"
         y="67.103119"
         id="range"
         transform="scale(0.87202198,1.1467601)"><tspan
           sodipodi:role="line"
           id="tspan911"
           x="156.64537"
           y="67.103119"
           style="stroke-width:0">160</tspan></text>
      <path
         id="TAS"
         fill-rule="evenodd"
         class="s2"
         d="m 70.5,55.2 h -2 v 8.9 h -1.1 v -8.9 h -1.9 v -1.4 h 5 z m 5.7,8.9 -0.5,-3 h -2 l -0.6,3 h -1 L 74,53.8 h 1.5 l 1.9,10.3 z m -2.3,-4.3 h 1.5 l -0.7,-4.7 z m 9.7,-3.6 v 0.3 h -1 q 0,-0.7 -0.3,-1 -0.3,-0.3 -0.8,-0.3 -0.5,0 -0.8,0.3 -0.3,0.4 -0.3,1 0,0.8 0.8,1.3 l 0.8,0.6 q 0.9,0.6 1.3,1.3 0.4,0.7 0.4,1.8 0,1.2 -0.6,2 -0.7,0.8 -1.7,0.8 -0.9,0 -1.6,-0.7 -0.6,-0.8 -0.6,-1.9 0,-0.1 0,-0.3 h 1 q 0,0.7 0.4,1.1 0.3,0.5 0.8,0.5 0.5,0 0.9,-0.5 0.4,-0.4 0.4,-1 0,-0.6 -0.4,-1.1 -0.3,-0.5 -1.2,-1 -1,-0.6 -1.4,-1.3 -0.4,-0.6 -0.4,-1.5 0,-1.2 0.7,-2 0.6,-0.8 1.6,-0.8 0.8,0 1.4,0.7 0.6,0.7 0.6,1.7 z M 18.9,62.6 V 60 h -1.5 v -1.3 h 2.5 v 4.9 q -1,0.6 -2,0.6 -1.3,0 -2,-1.3 -0.7,-1.4 -0.7,-3.9 0,-1.6 0.2,-2.6 0.2,-1 0.8,-1.7 0.7,-0.9 1.8,-0.9 0.9,0 1.4,0.6 0.2,0.3 0.4,0.7 0.1,0.4 0.1,0.7 0,0.1 0,0.1 h -1 q -0.2,-0.7 -0.8,-0.7 -1,0 -1.5,0.9 -0.4,0.9 -0.4,2.9 0,3.9 1.8,3.9 0.4,0 0.9,-0.3 z m 7.5,-6.4 v 0.3 h -1 q 0,-0.7 -0.3,-1 -0.3,-0.3 -0.8,-0.3 -0.5,0 -0.8,0.4 -0.3,0.3 -0.3,0.9 0,0.8 0.8,1.3 l 0.8,0.6 q 0.9,0.6 1.3,1.3 0.4,0.7 0.4,1.7 0,1.2 -0.6,2 -0.7,0.8 -1.7,0.8 -0.9,0 -1.6,-0.7 -0.6,-0.8 -0.6,-1.9 0,-0.1 0,-0.3 h 1 q 0.1,0.7 0.4,1.1 0.3,0.5 0.8,0.5 0.5,0 0.9,-0.5 0.4,-0.4 0.4,-1 0,-0.6 -0.4,-1.1 -0.3,-0.4 -1.2,-1 -1,-0.6 -1.4,-1.2 -0.3,-0.6 -0.3,-1.5 0,-1.2 0.6,-2 0.6,-0.8 1.6,-0.8 0.8,0 1.4,0.7 0.6,0.8 0.6,1.7 z"
         style="fill:#ffffff" />
      <path
         id="wind-arrow"
         class="s2"
         d="M 34,113 H 32 V 84 l -1,1.3 c -0.4,0.5 -1.2,0.5 -1.7,0 -0.4,-0.5 -0.4,-1.3 0,-1.8 l 2.9,-3.1 c 0.4,-0.5 1.2,-0.5 1.6,0 l 2.9,3.1 c 0.4,0.5 0.4,1.3 0,1.8 -0.5,0.5 -1.3,0.5 -1.7,0 L 34,84 Z"
         style="fill:#ffffff" />
      <path
         id="slash"
         fill-rule="evenodd"
         class="s2"
         d="m 44.2,66.2 q 0.9,0 1.5,0.8 0.6,0.8 0.6,1.8 0,1.1 -0.6,1.9 -0.6,0.8 -1.5,0.8 -0.8,0 -1.4,-0.8 -0.6,-0.8 -0.6,-1.9 0,-1 0.6,-1.8 0.6,-0.8 1.4,-0.8 z m 0,1.3 q -0.4,0 -0.7,0.4 -0.3,0.4 -0.3,0.9 0,0.6 0.3,1 0.3,0.4 0.7,0.4 0.5,0 0.8,-0.4 0.3,-0.4 0.3,-1 0,-0.5 -0.3,-0.9 -0.3,-0.4 -0.8,-0.4 z m 5.9,10.6 4.1,-12.7 h 1.4 l -4.1,12.7 z"
         style="fill:#ffffff" />
      <text
         xml:space="preserve"
         style="font-size:14.301px;line-height:125%;font-family:'OCR B MT';-inkscape-font-specification:'OCR B MT';writing-mode:lr-tb;fill:#009696;stroke-width:0"
         x="32.047333"
         y="56.066406"
         id="ground-speed"
         transform="scale(0.87603772,1.1415034)"
         inkscape:label="ground-speed"><tspan
           sodipodi:role="line"
           id="tspan735"
           x="32.047333"
           y="56.066406"
           style="fill:#ffffff;stroke-width:0">999</tspan></text>
      <text
         xml:space="preserve"
         style="font-size:14.301px;line-height:125%;font-family:'OCR B MT';-inkscape-font-specification:'OCR B MT';writing-mode:lr-tb;fill:#009696;stroke-width:0"
         x="97.227173"
         y="56.066406"
         id="true-airspeed"
         transform="scale(0.8760377,1.1415034)"
         inkscape:label="true-airspeed"><tspan
           sodipodi:role="line"
           id="tspan893"
           x="97.227173"
           y="56.066406"
           style="fill:#ffffff;stroke-width:0">999</tspan></text>
      <text
         xml:space="preserve"
         style="font-size:14.301px;line-height:125%;font-family:'OCR B MT';-inkscape-font-specification:'OCR B MT';writing-mode:lr-tb;fill:#009696;stroke-width:0"
         x="15.837984"
         y="67.805321"
         id="wind-heading"
         transform="scale(0.87603769,1.1415034)"
         inkscape:label="wind-heading"><tspan
           sodipodi:role="line"
           id="tspan897"
           x="15.837984"
           y="67.805321"
           style="fill:#ffffff;stroke-width:0">999</tspan></text>
      <text
         xml:space="preserve"
         style="font-size:14.301px;line-height:125%;font-family:'OCR B MT';-inkscape-font-specification:'OCR B MT';writing-mode:lr-tb;fill:#009696;stroke-width:0"
         x="64.92263"
         y="67.805321"
         id="wind-speed"
         transform="scale(0.87603769,1.1415034)"
         inkscape:label="wind-speed"><tspan
           sodipodi:role="line"
           id="tspan907"
           x="64.92263"
           y="67.805321"
           style="fill:#ffffff;stroke-width:0">999</tspan></text>
    </g>
  </g>
</svg>
