<?xml version="1.0" encoding="UTF-8" standalone="no"?>
<!-- Created with Inkscape (http://www.inkscape.org/) -->

<svg
   width="1024"
   height="1024"
   viewBox="0 0 1024 1024"
   version="1.1"
   id="svg5"
   inkscape:version="1.2.1 (9c6d41e410, 2022-07-14)"
   sodipodi:docname="pedestal.svg"
   xmlns:inkscape="http://www.inkscape.org/namespaces/inkscape"
   xmlns:sodipodi="http://sodipodi.sourceforge.net/DTD/sodipodi-0.dtd"
   xmlns="http://www.w3.org/2000/svg"
   xmlns:svg="http://www.w3.org/2000/svg">
  <sodipodi:namedview
     id="namedview7"
     pagecolor="#505050"
     bordercolor="#eeeeee"
     borderopacity="1"
     inkscape:showpageshadow="0"
     inkscape:pageopacity="0"
     inkscape:pagecheckerboard="0"
     inkscape:deskcolor="#505050"
     inkscape:document-units="mm"
     showgrid="false"
     inkscape:zoom="1.4247195"
     inkscape:cx="417.27512"
     inkscape:cy="615.91072"
     inkscape:window-width="1920"
     inkscape:window-height="1001"
     inkscape:window-x="-9"
     inkscape:window-y="-9"
     inkscape:window-maximized="1"
     inkscape:current-layer="layer1" />
  <defs
     id="defs2" />
  <g
     inkscape:label="Layer 1"
     inkscape:groupmode="layer"
     id="layer1">
    <path
       id="Shape 1"
       class="s0"
       d="M 0,0 H 1024 V 1024.0001 H 0 Z"
       style="fill:#000000" />
    <text
       xml:space="preserve"
       style="font-style:normal;font-variant:normal;font-weight:normal;font-stretch:normal;font-size:70.0448px;line-height:125%;font-family:Std7SegCustom;-inkscape-font-specification:Std7SegCustom;text-align:end;writing-mode:lr-tb;text-anchor:end;fill:#ffffff;stroke-width:0"
       x="815.57092"
       y="677.46613"
       id="adfsty2"
       transform="scale(0.99921263,1.000788)"
       inkscape:label="adfsty2"><tspan
         sodipodi:role="line"
         id="tspan4272"
         x="815.57092"
         y="677.46613"
         style="stroke-width:0">9999.9</tspan></text>
    <text
       xml:space="preserve"
       style="font-style:normal;font-variant:normal;font-weight:normal;font-stretch:normal;font-size:70.0448px;line-height:125%;font-family:Std7SegCustom;-inkscape-font-specification:Std7SegCustom;text-align:end;writing-mode:lr-tb;text-anchor:end;fill:#ffffff;stroke-width:0"
       x="815.57092"
       y="786.38031"
       id="adfsty1"
       transform="scale(0.99921263,1.000788)"
       inkscape:label="adfsty1"><tspan
         sodipodi:role="line"
         id="tspan4266"
         x="815.57092"
         y="786.38031"
         style="stroke-width:0">9999.9</tspan></text>
    <text
       xml:space="preserve"
       style="font-style:normal;font-variant:normal;font-weight:normal;font-stretch:normal;font-size:70.0448px;line-height:125%;font-family:Std7SegCustom;-inkscape-font-specification:Std7SegCustom;text-align:end;writing-mode:lr-tb;text-anchor:end;fill:#ffffff;stroke-width:0"
       x="815.57092"
       y="895.29449"
       id="navsty2"
       transform="scale(0.99921263,1.000788)"
       inkscape:label="navsty2"><tspan
         sodipodi:role="line"
         id="tspan4244"
         x="815.57092"
         y="895.29449"
         style="stroke-width:0">999.99</tspan></text>
    <text
       xml:space="preserve"
       style="font-style:normal;font-variant:normal;font-weight:normal;font-stretch:normal;font-size:70.0448px;line-height:125%;font-family:Std7SegCustom;-inkscape-font-specification:Std7SegCustom;text-align:end;writing-mode:lr-tb;text-anchor:end;fill:#ffffff;stroke-width:0"
       x="462.29279"
       y="786.38031"
       id="navsty1"
       transform="scale(0.99921263,1.000788)"
       inkscape:label="navsty1"><tspan
         sodipodi:role="line"
         id="tspan4238"
         x="462.29279"
         y="786.38031"
         style="stroke-width:0">999.99</tspan></text>
    <text
       xml:space="preserve"
       style="font-style:normal;font-variant:normal;font-weight:normal;font-stretch:normal;font-size:70.0936px;line-height:125%;font-family:Std7SegCustom;-inkscape-font-specification:Std7SegCustom;text-align:end;writing-mode:lr-tb;text-anchor:end;fill:#ffffff;stroke-width:0"
       x="462.63062"
       y="894.74127"
       id="commsty2"
       transform="scale(0.99848371,1.0015186)"
       inkscape:label="commsty2"><tspan
         sodipodi:role="line"
         id="tspan4214"
         x="462.63058"
         y="894.74127"
         style="stroke-width:0">999.999</tspan></text>
    <text
       xml:space="preserve"
       style="font-style:normal;font-variant:normal;font-weight:normal;font-stretch:normal;font-size:70.0936px;line-height:125%;font-family:Std7SegCustom;-inkscape-font-specification:Std7SegCustom;text-align:end;writing-mode:lr-tb;text-anchor:end;fill:#ffffff;stroke-width:0"
       x="816.16669"
       y="1003.576"
       id="commsty1"
       transform="scale(0.99848371,1.0015186)"
       inkscape:label="commsty1"><tspan
         sodipodi:role="line"
         id="tspan4220"
         x="816.16669"
         y="1003.576"
         style="stroke-width:0">999.999</tspan></text>
    <text
       xml:space="preserve"
       style="font-style:normal;font-variant:normal;font-weight:normal;font-stretch:normal;font-size:70.0448px;line-height:125%;font-family:Std7SegCustom;-inkscape-font-specification:Std7SegCustom;text-align:end;writing-mode:lr-tb;text-anchor:end;fill:#ffffff;stroke-width:0"
       x="815.57092"
       y="567.5528"
       id="adfact2"
       transform="scale(0.99921263,1.000788)"
       inkscape:label="adfact2"><tspan
         sodipodi:role="line"
         id="tspan4250"
         x="815.57092"
         y="567.5528"
         style="stroke-width:0">9999.9</tspan></text>
    <text
       xml:space="preserve"
       style="font-style:normal;font-variant:normal;font-weight:normal;font-stretch:normal;font-size:70.0448px;line-height:125%;font-family:Std7SegCustom;-inkscape-font-specification:Std7SegCustom;text-align:end;writing-mode:lr-tb;text-anchor:end;fill:#ffffff;stroke-width:0"
       x="462.29294"
       y="677.46619"
       id="adfact1"
       transform="scale(0.99921265,1.000788)"
       inkscape:label="adfact1"><tspan
         sodipodi:role="line"
         id="tspan4256"
         x="462.29294"
         y="677.46619"
         style="stroke-width:0">9999.9</tspan></text>
    <text
       xml:space="preserve"
       style="font-style:normal;font-variant:normal;font-weight:normal;font-stretch:normal;font-size:70.0448px;line-height:125%;font-family:Std7SegCustom;-inkscape-font-specification:Std7SegCustom;text-align:end;writing-mode:lr-tb;text-anchor:end;fill:#ffffff;stroke-width:0"
       x="463.29358"
       y="458.63861"
       id="navact2"
       transform="scale(0.99921264,1.000788)"
       inkscape:label="navact2"><tspan
         sodipodi:role="line"
         id="tspan4232"
         x="463.29358"
         y="458.63861"
         style="stroke-width:0">999.99</tspan></text>
    <text
       xml:space="preserve"
       style="font-style:normal;font-variant:normal;font-weight:normal;font-stretch:normal;font-size:70.0448px;line-height:125%;font-family:Std7SegCustom;-inkscape-font-specification:Std7SegCustom;text-align:end;writing-mode:lr-tb;text-anchor:end;fill:#ffffff;stroke-width:0"
       x="815.57117"
       y="458.63861"
       id="navact1"
       transform="scale(0.99921265,1.000788)"
       inkscape:label="navact1"><tspan
         sodipodi:role="line"
         id="tspan4226"
         x="815.57117"
         y="458.63861"
         style="stroke-width:0">999.99</tspan></text>
    <text
       xml:space="preserve"
       style="font-style:normal;font-variant:normal;font-weight:normal;font-stretch:normal;font-size:70.0936px;line-height:125%;font-family:Std7SegCustom;-inkscape-font-specification:Std7SegCustom;text-align:end;writing-mode:lr-tb;text-anchor:end;fill:#ffffff;stroke-width:0"
       x="462.63065"
       y="567.23865"
       id="commact2"
       transform="scale(0.99848371,1.0015186)"
       inkscape:label="commact2"><tspan
         sodipodi:role="line"
         id="tspan4208"
         x="462.63062"
         y="567.23865"
         style="stroke-width:0">999.999</tspan></text>
    <text
       xml:space="preserve"
       style="font-style:normal;font-variant:normal;font-weight:normal;font-stretch:normal;font-size:70.0936px;line-height:125%;font-family:Std7SegCustom;-inkscape-font-specification:Std7SegCustom;text-align:end;writing-mode:lr-tb;text-anchor:end;fill:#ffffff;stroke-width:0"
       x="783.11615"
       y="271.68744"
       id="commact1"
       transform="scale(0.99848374,1.0015186)"
       inkscape:label="commact1"><tspan
         sodipodi:role="line"
         id="tspan4202"
         x="783.11615"
         y="271.68744"
         style="stroke-width:0">999.999</tspan></text>
    <path
       id="adf2"
       fill-rule="evenodd"
       class="s1"
       d="m 477,498.00005 h 48 v 30 h -48 z m 7.3,21.5 h 5.2 l 1.1,4.5 h 3.1 l -5.3,-22.8 h -2.9 l -5.3,22.8 h 3.1 z m 0.5,-2.6 2.1,-9.8 2,9.8 z m 21.8,4.5 q 1.9,-2.6 1.9,-8.8 0,-6.3 -1.9,-8.9 -1.9,-2.5 -6.6,-2.5 h -4 v 22.8 h 4 q 4.7,0 6.6,-2.6 z m -5.9,-17.4 q 2.6,0 3.6,2 1.1,1.9 1.1,6.5 0,4.7 -1.1,6.6 -1,1.9 -3.6,1.9 h -1.6 v -17 z m 14.2,9.5 h 5.7 v -2.8 h -5.7 v -6.8 h 6.2 v -2.7 h -9.3 v 22.8 h 3.1 z m -38,94.5 h 48 v 30 h -48 z m 7.4,21.5 h 5.2 l 1.1,4.5 h 3.1 l -5.4,-22.8 h -2.9 l -5.3,22.8 h 3.1 z m 0.6,-2.6 2,-9.8 2.1,9.8 z m 21.7,4.5 q 1.9,-2.6 1.9,-8.8 0,-6.3 -1.9,-8.9 -1.9,-2.5 -6.5,-2.5 H 496 v 22.8 h 4.1 q 4.6,0 6.5,-2.6 z m -5.9,-17.3 q 2.7,0 3.7,1.9 1,1.9 1,6.5 0,4.7 -1,6.6 -1,1.9 -3.7,1.9 h -1.6 v -16.9 z m 14.2,9.4 h 5.8 v -2.8 h -5.8 v -6.8 h 6.3 v -2.7 h -9.4 v 22.8 h 3.1 z"
       style="fill:#ffffff" />
    <path
       id="ant2"
       fill-rule="evenodd"
       class="s1"
       d="m 477,538.00005 h 48 v 30 h -48 z m 7.4,21.5 h 5.2 l 1.1,4.5 h 3.1 l -5.4,-22.8 h -2.9 l -5.3,22.8 h 3.1 z m 0.6,-2.6 2,-9.8 2.1,9.8 z m 14,-8.9 6,16 h 2.9 v -22.8 H 505 v 15.8 l -6.1,-15.8 h -2.8 v 22.8 h 2.9 z m 18.6,-4 h 4.2 v -2.9 h -11.6 v 2.9 h 4.2 v 19.9 h 3.2 z m -40.6,104 h 48 v 30 h -48 z m 7.4,21.5 h 5.2 l 1.1,4.5 h 3.1 l -5.3,-22.8 h -2.9 l -5.4,22.8 h 3.1 z m 0.6,-2.5 2.1,-9.9 2,9.9 z m 14,-9 6,16 h 2.9 v -22.8 H 505 v 15.8 l -6,-15.8 h -2.9 v 22.8 h 2.9 z m 18.6,-4 h 4.2 v -2.9 h -11.5 v 2.9 h 4.2 v 20 h 3.1 z"
       style="fill:#ffffff" />
    <path
       id="adf1"
       fill-rule="evenodd"
       class="s1"
       d="m 477,717.00005 h 48 v 30 h -48 z m 7.3,21.5 h 5.2 l 1.1,4.5 h 3.1 l -5.3,-22.8 h -2.9 l -5.3,22.8 h 3.1 z m 0.5,-2.6 2.1,-9.8 2,9.8 z m 21.8,4.5 q 1.9,-2.6 1.9,-8.8 0,-6.3 -1.9,-8.9 -1.9,-2.5 -6.6,-2.5 h -4 v 22.8 h 4 q 4.7,0 6.6,-2.6 z m -5.9,-17.4 q 2.6,0 3.6,2 1.1,1.9 1.1,6.5 0,4.7 -1.1,6.6 -1,1.9 -3.6,1.9 h -1.6 v -17 z m 14.2,9.5 h 5.7 v -2.8 h -5.7 v -6.8 h 6.2 v -2.7 h -9.3 v 22.8 h 3.1 z m -391,-124.5 h 48 v 30 h -48 z m 7.4,21.5 h 5.2 l 1.1,4.5 h 3.1 l -5.4,-22.8 h -2.9 l -5.3,22.8 h 3.1 z m 0.6,-2.6 2,-9.8 2.1,9.8 z m 21.7,4.5 q 1.9,-2.6 1.9,-8.8 0,-6.3 -1.9,-8.9 -1.9,-2.5 -6.5,-2.5 H 143 v 22.8 h 4.1 q 4.6,0 6.5,-2.6 z m -5.9,-17.3 q 2.7,0 3.7,1.9 1,1.9 1,6.5 0,4.7 -1,6.6 -1,1.9 -3.7,1.9 h -1.6 v -16.9 z m 14.2,9.4 h 5.8 v -2.8 h -5.8 v -6.8 h 6.3 v -2.7 h -9.4 v 22.8 h 3.1 z"
       style="fill:#ffffff" />
    <path
       id="ant1"
       fill-rule="evenodd"
       class="s1"
       d="m 477,757.00005 h 48 v 30 h -48 z m 7.4,21.5 h 5.2 l 1.1,4.5 h 3.1 l -5.4,-22.8 h -2.9 l -5.3,22.8 h 3.1 z m 0.6,-2.6 2,-9.8 2.1,9.8 z m 14,-8.9 6,16 h 2.9 v -22.8 H 505 v 15.8 l -6.1,-15.8 h -2.8 v 22.8 h 2.9 z m 18.6,-4 h 4.2 v -2.9 h -11.6 v 2.9 h 4.2 v 19.9 h 3.2 z m -393.6,-115 h 48 v 30 h -48 z m 7.4,21.5 h 5.2 l 1.1,4.5 h 3.1 l -5.3,-22.8 h -2.9 l -5.4,22.8 h 3.1 z m 0.6,-2.5 2.1,-9.9 2,9.9 z m 14,-9 6,16 h 2.9 v -22.8 H 152 v 15.8 l -6,-15.8 h -2.9 v 22.8 h 2.9 z m 18.6,-4 h 4.2 v -2.9 h -11.5 v 2.9 h 4.2 v 20 h 3.1 z"
       style="fill:#ffffff" />
    <g
       id="transponder">
      <path
         id="ATC   1   2"
         fill-rule="evenodd"
         class="s1"
         d="m 132.7,228 h -6.2 l 10.7,-36.4 h 5.7 l 10.6,36.4 h -6.2 l -2.1,-7.1 h -10.4 z m 11.4,-11.3 -4.1,-15.7 -4.1,15.7 z m 23.4,11.3 h -6.1 v -31.9 h -8.5 v -4.5 h 23 v 4.5 h -8.4 z m 30.7,-5.6 v 4.8 q -2.9,1.3 -6.3,1.3 -13.9,0 -13.9,-18.3 0,-19 14.6,-19 3.2,0 5.6,1 v 4.6 q -2.6,-1 -4.7,-1 -5,0 -7.2,3.5 -2.2,3.5 -2.2,10.9 0,13.6 8.7,13.6 2.5,0 5.4,-1.4 z"
         style="fill:#ffffff" />
      <path
         id="atc1"
         class="s1"
         d="m 252.2,228 h -5.6 V 196 H 241 v -4.4 h 11.2 z"
         style="fill:#ffffff" />
      <path
         id="atc2"
         class="s1"
         d="M 319.6,228 H 299 l 12.1,-19.3 q 3.2,-5.1 3.2,-8.5 0,-4.8 -4.2,-4.8 -2.4,0 -3.4,1.7 -0.9,1.5 -0.9,5.1 v 1.3 H 300 q 0,-0.6 0,-1.9 0,-10.4 10.4,-10.4 4.7,0 7.4,2.4 2.7,2.3 2.7,6.6 0,4.7 -4.6,11.3 l -8.1,11.9 h 11.8 z"
         style="fill:#ffffff" />
      <text
         xml:space="preserve"
         style="font-style:normal;font-variant:normal;font-weight:normal;font-stretch:normal;font-size:69.7988px;line-height:125%;font-family:Std7SegCustom;-inkscape-font-specification:Std7SegCustom;text-align:end;writing-mode:lr-tb;text-anchor:end;fill:#ffffff;stroke-width:0"
         x="398.11575"
         y="335.99496"
         id="transponder-code"
         transform="scale(0.9999856,1.0000144)"
         inkscape:label="transponder-code"><tspan
           sodipodi:role="line"
           id="tspan4042"
           x="398.11575"
           y="335.99496"
           style="stroke-width:0">9999</tspan></text>
    </g>
    <g
       id="rudder trim">
      <path
         id="rudder-trim"
         class="s1"
         d="M 530,135 H 494 L 512,92 Z"
         style="fill:#ffffff" />
      <path
         id="LEFT             RIGHT"
         fill-rule="evenodd"
         class="s1"
         d="m 305.3,149.7 v 15.8 h 9.4 v 2.5 h -12.1 v -18.3 z m 27.6,2.5 h -8.1 v 5 h 7.1 v 2.5 h -7.1 v 5.8 h 8.5 V 168 H 322 v -18.3 h 10.9 z m 19.4,0 h -6.8 v 4.9 h 5.5 v 2.6 h -5.5 v 8.3 h -2.8 v -18.4 h 9.6 z m 20.1,0 h -4.9 V 168 h -2.8 v -15.8 h -5 v -2.5 h 12.7 z m 265.4,8.2 h -2.2 v 7.6 h -2.8 v -18.3 h 5.4 q 2.7,0 4.3,1.4 1.6,1.4 1.6,3.9 0,1.9 -1,3.2 -1,1.3 -2.7,1.6 l 4.8,8.2 H 642 Z m -2.2,-8.2 v 5.6 h 2.1 q 1.9,0 2.8,-0.7 0.8,-0.7 0.8,-2.2 0,-1.4 -0.8,-2.1 -0.8,-0.6 -2.9,-0.6 z m 26.3,0 h -2.7 v 13.2 h 3.3 v 2.5 h -9.4 v -2.5 h 3.3 v -13.2 h -2.8 v -2.6 h 8.3 z m 18.6,13.1 v -4.6 h -3.8 v -2.5 h 6.5 v 8.9 q -2.6,1.1 -5.2,1.1 -3.5,0 -5.3,-2.4 -1.8,-2.4 -1.8,-7 0,-4.6 1.9,-7 1.8,-2.3 5.5,-2.3 1.9,0 3.4,1.1 1.5,1.1 1.5,2.6 v 0.2 h -2.7 q -0.2,-0.8 -0.7,-1.1 -0.5,-0.3 -1.5,-0.3 -2.4,0 -3.5,1.5 -1.1,1.5 -1.1,5.1 0,3.8 1.1,5.4 1.1,1.7 3.4,1.7 1.2,0 2.3,-0.4 z m 19.2,2.7 v -8.2 h -6.1 v 8.2 h -2.8 v -18.3 h 2.8 v 7.5 h 6.1 v -7.5 h 2.8 V 168 Z m 22.7,-15.8 h -4.9 V 168 h -2.8 v -15.8 h -4.9 v -2.5 h 12.6 z M 112.9,135 h 798 v 2 h -798 z m 0,-44 h 125 V 78 h 4 v 13 h 12 V 78 h 4 v 13 h 12 V 66 h 4 v 25 h 12 V 78 h 4 v 13 h 12 V 78 h 4 v 13 h 12 V 78 h 4 v 13 h 12 V 78 h 4 v 13 h 12 V 66 h 4 v 25 h 12 V 78 h 4 v 13 h 12 V 78 h 4 v 13 h 12 V 78 h 4 v 13 h 12 V 78 h 4 v 13 h 12 V 66 h 4 v 25 h 12 V 78 h 4 v 13 h 12 V 78 h 4 v 13 h 12 V 78 h 4 v 13 h 12 V 78 h 4 v 13 h 12 V 66 h 4 v 25 h 12 V 78 h 4 v 13 h 12 V 78 h 4 v 13 h 12 V 78 h 4 v 13 h 12 V 78 h 4 v 13 h 12 V 66 h 4 v 25 h 12 V 78 h 4 v 13 h 12 V 78 h 4 v 13 h 12 V 78 h 4 v 13 h 12 V 78 h 4 v 13 h 12 V 66 h 4 v 25 h 12 V 78 h 4 v 13 h 12 V 78 h 4 v 13 h 12 V 78 h 4 v 13 h 12 V 78 h 4 v 13 h 12 V 66 h 4 v 25 h 12 V 78 h 4 v 13 h 12 V 78 h 4 v 13 h 125 v 1 h -798 z M 414.2,21.4 H 412 V 29 h -2.8 V 10.6 h 5.3 q 2.8,0 4.3,1.5 1.6,1.4 1.6,3.9 0,1.9 -1,3.2 -0.9,1.3 -2.6,1.6 l 4.8,8.2 h -3.2 z M 412,13.2 v 5.6 h 2 q 2,0 2.8,-0.7 0.9,-0.7 0.9,-2.2 0,-1.4 -0.8,-2.1 -0.8,-0.6 -2.9,-0.6 z m 16,9.6 V 10.6 h 2.8 v 12 q 0,2.3 0.7,3.2 0.8,0.8 2.7,0.8 1.8,0 2.6,-0.8 0.8,-0.9 0.8,-3.2 v -12 h 2.7 v 12.2 q 0,3.1 -1.5,4.8 -1.6,1.6 -4.6,1.6 -3.1,0 -4.7,-1.6 -1.5,-1.7 -1.5,-4.8 z m 22.4,6.1 h -2.1 V 10.6 h 1.8 q 4.1,0 6.8,2.7 2.8,2.7 2.8,6.9 0,4 -2.6,6.4 -2.5,2.3 -6.7,2.3 z m 0.7,-15.7 v 13.2 q 2.7,0 4.2,-1.8 1.6,-1.7 1.6,-4.5 0,-2.7 -1.7,-4.8 -1.6,-2 -4.1,-2.1 z m 18.8,15.7 h -2.1 V 10.6 h 1.7 q 4.1,0 6.9,2.7 2.7,2.7 2.7,6.9 0,4 -2.5,6.4 -2.6,2.3 -6.7,2.3 z m 0.7,-15.7 v 13.2 q 2.6,0 4.2,-1.8 1.5,-1.7 1.5,-4.5 0,-2.7 -1.6,-4.8 -1.7,-2 -4.1,-2.1 z m 27.6,0 h -8.1 v 4.9 h 7.1 v 2.5 h -7.1 v 5.8 h 8.5 v 2.5 H 487.3 V 10.6 h 10.9 z m 13.3,8.2 h -2.3 V 29 h -2.7 V 10.7 h 5.3 q 2.7,0 4.3,1.4 1.6,1.4 1.6,3.9 0,1.9 -1,3.2 -1,1.3 -2.7,1.6 l 4.8,8.2 h -3.2 z m -2.2,-8.2 v 5.7 h 2.1 q 2,0 2.8,-0.7 0.8,-0.7 0.8,-2.3 0,-1.4 -0.8,-2 -0.8,-0.7 -2.8,-0.7 z m 47.9,0 h -5 V 29 h -2.7 V 13.2 h -5 v -2.5 h 12.7 z m 12.6,8.2 h -2.2 v 7.5 h -2.8 V 10.6 h 5.3 q 2.8,0 4.4,1.4 1.5,1.5 1.5,4 0,1.8 -0.9,3.2 -1,1.3 -2.7,1.6 l 4.8,8.1 H 574 Z m -2.2,-8.2 v 5.7 h 2 q 2,0 2.9,-0.7 0.8,-0.7 0.8,-2.3 0,-1.4 -0.8,-2 -0.8,-0.7 -2.9,-0.7 z m 26.3,0 h -2.7 v 13.3 h 3.2 V 29 h -9.3 v -2.5 h 3.3 V 13.2 h -2.8 v -2.5 h 8.3 z m 13.2,-2.5 2.1,7 2.2,-7 h 4.3 V 29 h -2.8 V 13.7 l -2.6,9.3 h -2.2 l -2.6,-9.3 V 29 h -2.7 V 10.7 Z M 512,42 q 2.4,0 3.6,0.5 1.2,0.5 1.8,1.7 1.2,2.3 1.2,7.6 0,7.4 -2,9.2 -1.2,1.2 -4.6,1.2 -2.6,0 -4,-0.7 -1.3,-0.7 -1.9,-3.1 -0.7,-2.4 -0.7,-6.6 0,-5.3 1.2,-7.6 0.6,-1.2 1.8,-1.7 1.2,-0.5 3.6,-0.5 z m 0,2.5 q -1.8,0 -2.4,0.3 -0.6,0.3 -0.9,1 -0.5,1.4 -0.5,6.3 0,3.8 0.4,5.7 0.2,0.9 0.5,1.3 0.4,0.3 1,0.4 0.7,0.2 1.9,0.2 1.3,0 1.9,-0.2 0.7,-0.1 1,-0.5 0.3,-0.3 0.5,-1.3 0.4,-1.9 0.4,-5.6 0,-4.8 -0.5,-6.2 -0.3,-0.8 -0.9,-1.1 -0.6,-0.3 -2.4,-0.3 z m 85,0.4 h -7.5 l -0.3,3.8 h 0.6 q 3.6,0 5.7,1.6 2,1.6 2,4.7 0,2.2 -1.2,3.9 -1.2,1.6 -3.6,2.4 -2.4,0.9 -5.3,0.9 h -0.9 v -2.5 h 1.6 q 3.1,0 4.9,-1.3 1.7,-1.2 1.7,-3.5 0,-1.8 -1.2,-2.8 -1.1,-0.9 -3.2,-0.9 -0.3,0 -0.5,0 l -3.3,0.2 0.6,-9.1 H 597 Z M 662,62 V 45.5 l -5,4.3 v -3.4 l 4.8,-4 h 3 V 62 Z m 19.7,-20 q 2.4,0 3.6,0.6 1.2,0.5 1.8,1.7 1.2,2.2 1.2,7.6 0,7.3 -2,9.2 -1.2,1.2 -4.6,1.2 -2.6,0 -4,-0.7 -1.3,-0.7 -1.9,-3.2 -0.6,-2.4 -0.6,-6.5 0,-5.4 1.1,-7.6 0.6,-1.2 1.8,-1.7 1.2,-0.6 3.6,-0.6 z m 0,2.6 q -1.8,0 -2.4,0.2 -0.6,0.3 -0.9,1.1 -0.5,1.3 -0.5,6.3 0,3.8 0.4,5.7 0.2,0.9 0.5,1.2 0.4,0.3 1,0.5 0.7,0.1 1.9,0.1 1.3,0 1.9,-0.1 0.7,-0.2 1,-0.5 0.3,-0.3 0.5,-1.3 0.4,-2 0.4,-5.6 0,-4.8 -0.5,-6.2 -0.3,-0.8 -0.9,-1.1 -0.6,-0.3 -2.4,-0.3 z M 742,62 V 45.5 l -5,4.3 v -3.4 l 4.7,-4 h 3 V 62 Z m 24.8,-17.1 h -7.5 l -0.3,3.8 h 0.6 q 3.6,0 5.6,1.7 2.1,1.6 2.1,4.6 0,2.3 -1.2,3.9 -1.3,1.6 -3.6,2.5 -2.4,0.9 -5.3,0.9 h -1 v -2.6 h 1.6 q 3.2,0 4.9,-1.2 1.8,-1.2 1.8,-3.5 0,-1.8 -1.2,-2.8 -1.1,-1 -3.2,-1 -0.3,0 -0.5,0.1 l -3.4,0.2 0.6,-9.1 h 10 z M 262,62 V 45.5 l -4.9,4.3 v -3.5 l 4.7,-4 h 3 V 62 Z m 24.7,-17.1 h -7.4 l -0.3,3.8 h 0.6 q 3.6,0 5.6,1.6 2.1,1.7 2.1,4.7 0,2.3 -1.2,3.9 -1.3,1.6 -3.7,2.5 -2.3,0.8 -5.2,0.8 h -1 v -2.5 h 1.6 q 3.2,0 4.9,-1.2 1.8,-1.3 1.8,-3.6 0,-1.8 -1.2,-2.7 -1.2,-1 -3.2,-1 -0.3,0 -0.5,0 l -3.4,0.2 0.6,-9.1 h 9.9 z M 342,62 V 45.5 l -5,4.3 v -3.4 l 4.8,-4 h 3 V 62 Z m 19.7,-20 q 2.5,0 3.6,0.6 1.2,0.5 1.9,1.7 1.1,2.2 1.1,7.6 0,7.3 -1.9,9.2 -1.2,1.2 -4.7,1.2 -2.5,0 -3.9,-0.7 -1.4,-0.7 -2,-3.1 -0.6,-2.5 -0.6,-6.6 0,-5.3 1.2,-7.6 0.6,-1.2 1.8,-1.7 1.1,-0.6 3.5,-0.6 z m 0,2.6 q -1.8,0 -2.4,0.3 -0.5,0.2 -0.8,1 -0.5,1.3 -0.5,6.3 0,3.8 0.4,5.7 0.2,0.9 0.5,1.2 0.3,0.3 1,0.5 0.6,0.1 1.8,0.1 1.3,0 2,-0.1 0.6,-0.2 0.9,-0.5 0.3,-0.3 0.5,-1.3 0.4,-2 0.4,-5.6 0,-4.8 -0.4,-6.2 -0.3,-0.8 -0.9,-1.1 -0.6,-0.3 -2.5,-0.3 z m 75.3,0.3 h -7.5 l -0.3,3.8 h 0.7 q 3.5,0 5.6,1.7 2,1.6 2,4.6 0,2.3 -1.2,3.9 -1.2,1.6 -3.6,2.5 -2.4,0.9 -5.3,0.9 h -0.9 v -2.6 h 1.6 q 3.1,0 4.9,-1.2 1.8,-1.2 1.8,-3.5 0,-1.8 -1.2,-2.8 -1.2,-1 -3.3,-1 -0.2,0 -0.5,0.1 l -3.3,0.2 0.6,-9.1 h 9.9 z"
         style="fill:#ffffff" />
    </g>
  </g>
</svg>
