<?xml version="1.0" encoding="UTF-8" standalone="no"?>
<!-- Created with Inkscape (http://www.inkscape.org/) -->

<svg
   width="512"
   height="512"
   viewBox="0 0 135.46665 135.46665"
   version="1.1"
   id="svg228"
   xml:space="preserve"
   inkscape:version="1.2.1 (9c6d41e410, 2022-07-14)"
   sodipodi:docname="annunciator.svg"
   xmlns:inkscape="http://www.inkscape.org/namespaces/inkscape"
   xmlns:sodipodi="http://sodipodi.sourceforge.net/DTD/sodipodi-0.dtd"
   xmlns="http://www.w3.org/2000/svg"
   xmlns:svg="http://www.w3.org/2000/svg"><sodipodi:namedview
     id="namedview230"
     pagecolor="#505050"
     bordercolor="#eeeeee"
     borderopacity="1"
     inkscape:showpageshadow="0"
     inkscape:pageopacity="0"
     inkscape:pagecheckerboard="0"
     inkscape:deskcolor="#505050"
     inkscape:document-units="px"
     showgrid="false"
     inkscape:zoom="1.728589"
     inkscape:cx="262.64196"
     inkscape:cy="306.3192"
     inkscape:window-width="1920"
     inkscape:window-height="1001"
     inkscape:window-x="-9"
     inkscape:window-y="-9"
     inkscape:window-maximized="1"
     inkscape:current-layer="layer1"><inkscape:grid
       type="xygrid"
       id="grid2348"
       originx="0"
       originy="0" /></sodipodi:namedview><defs
     id="defs225"><rect
       x="3.8014644"
       y="21.964016"
       width="302.42761"
       height="131.36171"
       id="rect168" /><rect
       x="4.1370504"
       y="15.169185"
       width="228.91679"
       height="60.67674"
       id="rect2571" /><rect
       x="3.8014644"
       y="21.964016"
       width="302.42761"
       height="131.36171"
       id="rect280" /><rect
       x="3.8014644"
       y="21.964016"
       width="302.42761"
       height="131.36171"
       id="rect286" /><rect
       x="3.8014644"
       y="21.964016"
       width="302.42761"
       height="131.36171"
       id="rect292" /><rect
       x="3.8014644"
       y="21.964016"
       width="302.42761"
       height="131.36171"
       id="rect298" /><rect
       x="3.8014644"
       y="21.964016"
       width="302.42761"
       height="131.36171"
       id="rect304" /><rect
       x="3.8014644"
       y="21.964016"
       width="302.42761"
       height="131.36171"
       id="rect330" /><rect
       x="3.8014644"
       y="21.964016"
       width="302.42761"
       height="131.36171"
       id="rect332" /><rect
       x="3.8014644"
       y="21.964016"
       width="302.42761"
       height="131.36171"
       id="rect334" /><rect
       x="3.8014644"
       y="21.964016"
       width="302.42761"
       height="131.36171"
       id="rect336" /><rect
       x="3.8014644"
       y="21.964016"
       width="302.42761"
       height="131.36171"
       id="rect338" /><rect
       x="3.8014644"
       y="21.964016"
       width="302.42761"
       height="131.36171"
       id="rect340" /></defs><g
     inkscape:label="Layer 1"
     inkscape:groupmode="layer"
     id="layer1"><rect
       style="fill:#000000;stroke-width:0.298992"
       id="rect556"
       width="135.46664"
       height="135.46664"
       x="0"
       y="0" /><path
       id="flt-cont"
       d="M 155.46401 24.495096 C 153.53107 24.495096 152.56493 26.065297 152.56493 29.205272 C 152.56493 32.235515 153.48454 33.750678 155.32463 33.750678 C 155.77199 33.750678 156.19426 33.645005 156.59098 33.433985 L 156.59098 32.243734 C 156.19426 32.471635 155.83553 32.585561 155.51478 32.585561 C 154.35839 32.585561 153.78001 31.454557 153.78001 29.192425 C 153.78001 27.976951 153.9236 27.082052 154.21059 26.508077 C 154.50602 25.925663 154.98284 25.634519 155.64122 25.634519 C 155.91976 25.634519 156.23647 25.718723 156.59098 25.887539 L 156.59098 24.735827 C 156.26179 24.575453 155.88605 24.495096 155.46401 24.495096 z M 159.98436 24.495096 C 159.05587 24.495096 158.39294 24.86219 157.99622 25.596539 C 157.60794 26.330887 157.41382 27.508678 157.41382 29.12931 C 157.41382 30.741501 157.60794 31.914328 157.99622 32.648676 C 158.39294 33.383025 159.05587 33.750678 159.98436 33.750678 C 160.91284 33.750678 161.57127 33.383025 161.95955 32.648676 C 162.34783 31.914328 162.54196 30.741501 162.54196 29.12931 C 162.54196 27.508678 162.34783 26.330887 161.95955 25.596539 C 161.57127 24.86219 160.91284 24.495096 159.98436 24.495096 z M 136.66231 24.609038 L 136.66231 33.636735 L 137.87789 33.636735 L 137.87789 29.471137 L 140.15674 29.471137 L 140.15674 28.394829 L 137.87789 28.394829 L 137.87789 25.697635 L 140.35933 25.697635 L 140.35933 24.609038 L 136.66231 24.609038 z M 141.52414 24.609038 L 141.52414 33.636735 L 145.3476 33.636735 L 145.3476 32.5096 L 142.73972 32.5096 L 142.73972 24.609038 L 141.52414 24.609038 z M 144.90457 24.609038 L 144.90457 25.735615 L 146.57612 25.735615 L 146.57612 33.636735 L 147.80415 33.636735 L 147.80415 25.735615 L 149.4752 25.735615 L 149.4752 24.609038 L 144.90457 24.609038 z M 163.88398 24.609038 L 163.88398 33.636735 L 165.03584 33.636735 L 165.03584 27.31852 L 167.41623 33.636735 L 168.55565 33.636735 L 168.55565 24.609038 L 167.40379 24.609038 L 167.40379 30.876426 L 165.01046 24.609038 L 163.88398 24.609038 z M 169.48003 24.609038 L 169.48003 25.735615 L 171.15158 25.735615 L 171.15158 33.636735 L 172.37961 33.636735 L 172.37961 25.735615 L 174.05066 25.735615 L 174.05066 24.609038 L 169.48003 24.609038 z M 159.98436 25.621673 C 160.4908 25.621673 160.83653 25.891905 161.02223 26.432116 C 161.21637 26.972327 161.31343 27.862821 161.31343 29.103617 C 161.31343 30.352855 161.22087 31.247755 161.03517 31.787965 C 160.85791 32.328176 160.51169 32.598408 159.9968 32.598408 C 159.49036 32.598408 159.13612 32.32377 158.93354 31.775118 C 158.7394 31.226467 158.64234 30.335973 158.64234 29.103617 C 158.64234 27.871262 158.7394 26.985173 158.93354 26.444962 C 159.12768 25.896311 159.47791 25.621673 159.98436 25.621673 z "
       style="font-size:12.6612px;line-height:125%;font-family:'Futura Condensed';-inkscape-font-specification:'Futura Condensed, Normal';text-align:center;text-anchor:middle;white-space:pre;shape-inside:url(#rect168);fill:#ff6600"
       transform="matrix(1.0381353,0,0,0.92520393,-127.41439,-15.385368)"
       inkscape:label="flt-cont" /><path
       id="irs"
       d="M 159.36363 24.495312 C 158.73057 24.495312 158.19471 24.718758 157.75579 25.16612 C 157.32531 25.613482 157.11017 26.183111 157.11017 26.875255 C 157.11017 27.373262 157.22424 27.812459 157.45215 28.192295 C 157.68849 28.56369 158.05523 28.956101 158.55324 29.369699 C 158.59544 29.403462 158.6885 29.479413 158.83199 29.597584 C 158.97551 29.715758 159.06408 29.791708 159.09781 29.825468 C 159.13158 29.85079 159.20763 29.914082 159.32579 30.015372 C 159.44396 30.116659 159.5155 30.188204 159.54084 30.230411 C 159.5746 30.264174 159.62963 30.327466 159.7056 30.420315 C 159.78158 30.513162 159.82811 30.589113 159.84498 30.648199 C 159.87031 30.698844 159.89985 30.770947 159.93358 30.863796 C 159.97578 30.948204 160.00128 31.032407 160.00975 31.116815 C 160.02661 31.201223 160.03463 31.289832 160.03463 31.382681 C 160.03463 31.745635 159.92506 32.036778 159.7056 32.256239 C 159.48614 32.467258 159.19094 32.572931 158.81955 32.572931 C 158.39751 32.572931 157.90369 32.400119 157.33815 32.054047 L 157.33815 33.294566 C 157.87836 33.598434 158.4017 33.750336 158.90816 33.750336 C 159.60029 33.750336 160.16567 33.526889 160.60459 33.079528 C 161.04351 32.623725 161.26316 32.054097 161.26316 31.370393 C 161.26316 30.855504 161.14908 30.408054 160.92118 30.028219 C 160.70172 29.648383 160.34299 29.255973 159.84498 28.850815 C 159.80278 28.817051 159.73923 28.765859 159.65483 28.698333 C 159.4016 28.495754 159.21598 28.343853 159.09781 28.242563 C 158.97964 28.141274 158.84905 28.010843 158.70556 27.850468 C 158.56205 27.690093 158.46048 27.533786 158.40141 27.381852 C 158.35075 27.221477 158.32575 27.048665 158.32575 26.862967 C 158.32575 26.491572 158.43933 26.191618 158.66723 25.963716 C 158.89513 25.735815 159.20333 25.621889 159.59161 25.621889 C 160.02209 25.621889 160.47388 25.786449 160.94657 26.11564 L 160.94657 24.900255 C 160.44012 24.63015 159.91228 24.495312 159.36363 24.495312 z M 149.20939 24.609255 L 149.20939 33.636393 L 150.42497 33.636393 L 150.42497 24.609255 L 149.20939 24.609255 z M 152.05819 24.609255 L 152.05819 33.636393 L 153.27377 33.636393 L 153.27377 29.230622 L 153.3116 29.230622 L 155.3754 33.636393 L 156.67959 33.636393 L 154.53963 29.192642 C 155.67069 29.049148 156.23656 28.306149 156.23656 26.964063 C 156.23656 26.103103 156.02543 25.495499 155.60339 25.140986 C 155.18135 24.786472 154.48939 24.609255 153.52714 24.609255 L 152.05819 24.609255 z M 153.27377 25.672717 L 153.61575 25.672717 C 154.13907 25.672717 154.50181 25.765173 154.70439 25.95087 C 154.90697 26.128127 155.00854 26.466057 155.00854 26.964063 C 155.00854 27.529597 154.91148 27.934665 154.71734 28.179448 C 154.5232 28.41579 154.16847 28.534122 153.65358 28.534122 L 153.27377 28.534122 L 153.27377 25.672717 z "
       inkscape:label="irs"
       style="font-size:12.6612px;line-height:125%;font-family:'Futura Condensed';-inkscape-font-specification:'Futura Condensed, Normal';text-align:center;text-anchor:middle;white-space:pre;shape-inside:url(#rect280);fill:#ff6600"
       transform="matrix(1.0381353,0,0,0.92520393,-127.41439,7.2259686)" /><path
       id="fuel"
       d="M 145.46159 24.608964 L 145.46159 33.636661 L 146.67717 33.636661 L 146.67717 29.471063 L 148.95602 29.471063 L 148.95602 28.394754 L 146.67717 28.394754 L 146.67717 25.698119 L 149.15861 25.698119 L 149.15861 24.608964 L 145.46159 24.608964 z M 150.24776 24.608964 L 150.24776 31.231025 C 150.24776 32.100426 150.43739 32.737752 150.81722 33.142911 C 151.19706 33.548068 151.80095 33.750603 152.62815 33.750603 C 153.45535 33.750603 154.05874 33.548068 154.43858 33.142911 C 154.81842 32.737752 155.00854 32.100426 155.00854 31.231025 L 155.00854 24.608964 L 153.8054 24.608964 L 153.8054 31.332121 C 153.8054 32.1762 153.41314 32.598333 152.62815 32.598333 C 151.84315 32.598333 151.4504 32.1762 151.4504 31.332121 L 151.4504 24.608964 L 150.24776 24.608964 z M 156.51482 24.608964 L 156.51482 33.636661 L 160.12324 33.636661 L 160.12324 32.509525 L 157.7304 32.509525 L 157.7304 29.458216 L 159.92064 29.458216 L 159.92064 28.381908 L 157.7304 28.381908 L 157.7304 25.698119 L 160.12324 25.698119 L 160.12324 24.608964 L 156.51482 24.608964 z M 161.41498 24.608964 L 161.41498 33.636661 L 165.23844 33.636661 L 165.23844 32.509525 L 162.63056 32.509525 L 162.63056 24.608964 L 161.41498 24.608964 z "
       inkscape:label="fuel"
       style="font-size:12.6612px;line-height:125%;font-family:'Futura Condensed';-inkscape-font-specification:'Futura Condensed, Normal';text-align:center;text-anchor:middle;white-space:pre;shape-inside:url(#rect286);fill:#ff6600"
       transform="matrix(1.0381353,0,0,0.92520393,-127.41439,29.837257)" /><path
       id="anti-ice"
       d="M 166.49832 24.495291 C 164.56539 24.495291 163.59875 26.064933 163.59875 29.204908 C 163.59875 32.235151 164.51885 33.750314 166.35894 33.750314 C 166.8063 33.750314 167.22858 33.644641 167.6253 33.433621 L 167.6253 32.243929 C 167.22858 32.47183 166.86985 32.585756 166.5491 32.585756 C 165.39271 32.585756 164.81433 31.454751 164.81433 29.19262 C 164.81433 27.977146 164.95792 27.082246 165.24491 26.508272 C 165.54034 25.925857 166.01715 25.634714 166.67553 25.634714 C 166.95408 25.634714 167.27079 25.718917 167.6253 25.887733 L 167.6253 24.735463 C 167.29611 24.575089 166.92036 24.495291 166.49832 24.495291 z M 139.47926 24.609233 L 137.36468 33.636371 L 138.59321 33.636371 L 139.01084 31.864121 L 141.07465 31.864121 L 141.50523 33.636371 L 142.73325 33.636371 L 140.61868 24.609233 L 139.47926 24.609233 z M 143.63225 24.609233 L 143.63225 33.636371 L 144.78461 33.636371 L 144.78461 27.318715 L 147.1645 33.636371 L 148.30442 33.636371 L 148.30442 24.609233 L 147.15206 24.609233 L 147.15206 30.876062 L 144.75922 24.609233 L 143.63225 24.609233 z M 149.2283 24.609233 L 149.2283 25.73581 L 150.89985 25.73581 L 150.89985 33.636371 L 152.12788 33.636371 L 152.12788 25.73581 L 153.79893 25.73581 L 153.79893 24.609233 L 149.2283 24.609233 z M 154.73625 24.609233 L 154.73625 33.636371 L 155.95133 33.636371 L 155.95133 24.609233 L 154.73625 24.609233 z M 161.04115 24.609233 L 161.04115 33.636371 L 162.25673 33.636371 L 162.25673 24.609233 L 161.04115 24.609233 z M 168.67612 24.609233 L 168.67612 33.636371 L 172.28453 33.636371 L 172.28453 32.509794 L 169.8917 32.509794 L 169.8917 29.458485 L 172.08194 29.458485 L 172.08194 28.382177 L 169.8917 28.382177 L 169.8917 25.697829 L 172.28453 25.697829 L 172.28453 24.609233 L 168.67612 24.609233 z M 140.04922 26.938907 L 140.8596 30.850928 L 139.23883 30.850928 L 140.04922 26.938907 z M 157.24308 30.104159 L 157.24308 31.104505 L 159.76285 31.104505 L 159.76285 30.104159 L 157.24308 30.104159 z "
       style="font-size:12.6612px;line-height:125%;font-family:'Futura Condensed';-inkscape-font-specification:'Futura Condensed, Normal';text-align:center;text-anchor:middle;white-space:pre;shape-inside:url(#rect292);fill:#ff6600"
       transform="matrix(1.0381353,0,0,0.92520393,-127.41439,52.448546)"
       inkscape:label="anti-ice" /><path
       id="hyd"
       d="M 147.13961 24.608942 L 147.13961 33.636639 L 148.3547 33.636639 L 148.3547 29.179483 L 150.53249 29.179483 L 150.53249 33.636639 L 151.74807 33.636639 L 151.74807 24.608942 L 150.53249 24.608942 L 150.53249 28.040059 L 148.3547 28.040059 L 148.3547 24.608942 L 147.13961 24.608942 z M 152.65951 24.608942 L 154.35644 29.800022 L 154.35644 33.636639 L 155.60986 33.636639 L 155.60986 29.800022 L 157.33168 24.608942 L 156.06533 24.608942 L 155.30571 27.141367 C 155.17066 27.580288 155.06509 28.056902 154.98912 28.57179 C 154.8794 27.947172 154.77433 27.466152 154.67303 27.12852 L 153.91292 24.608942 L 152.65951 24.608942 z M 158.24312 24.608942 L 158.24312 33.636639 L 159.85145 33.636639 C 161.0838 33.636639 161.94888 33.298709 162.44688 32.623446 C 162.94489 31.939741 163.19355 30.770763 163.19355 29.116368 C 163.19355 27.461973 162.94489 26.297399 162.44688 25.622136 C 161.94888 24.946872 161.0838 24.608942 159.85145 24.608942 L 158.24312 24.608942 z M 159.47115 25.748366 L 160.10432 25.748366 C 160.80491 25.748366 161.29023 26.001534 161.56033 26.507981 C 161.83044 27.014429 161.96553 27.879606 161.96553 29.103521 C 161.96553 30.327436 161.83044 31.197019 161.56033 31.711907 C 161.29023 32.218355 160.80491 32.471523 160.10432 32.471523 L 159.47115 32.471523 L 159.47115 25.748366 z "
       inkscape:label="hyd"
       style="font-size:12.6612px;line-height:125%;font-family:'Futura Condensed';-inkscape-font-specification:'Futura Condensed, Normal';text-align:center;text-anchor:middle;white-space:pre;shape-inside:url(#rect298);fill:#ff6600"
       transform="matrix(1.0381353,0,0,0.92520393,-127.41439,75.059835)" /><path
       id="doors"
       d="M 149.85501 24.495268 C 148.92652 24.495268 148.26408 24.862362 147.86737 25.596711 C 147.47909 26.331059 147.28496 27.508291 147.28496 29.128923 C 147.28496 30.741115 147.47909 31.9145 147.86737 32.648848 C 148.26408 33.383197 148.92652 33.750291 149.85501 33.750291 C 150.78349 33.750291 151.44193 33.383197 151.8302 32.648848 C 152.21848 31.9145 152.41261 30.741115 152.41261 29.128923 C 152.41261 27.508291 152.21848 26.331059 151.8302 25.596711 C 151.44193 24.862362 150.78349 24.495268 149.85501 24.495268 z M 156.0718 24.495268 C 155.14331 24.495268 154.48087 24.862362 154.08416 25.596711 C 153.69588 26.331059 153.50175 27.508291 153.50175 29.128923 C 153.50175 30.741115 153.69588 31.9145 154.08416 32.648848 C 154.48087 33.383197 155.14331 33.750291 156.0718 33.750291 C 157.00028 33.750291 157.65872 33.383197 158.04699 32.648848 C 158.43527 31.9145 158.6294 30.741115 158.6294 29.128923 C 158.6294 27.508291 158.43527 26.331059 158.04699 25.596711 C 157.65872 24.862362 157.00028 24.495268 156.0718 24.495268 z M 167.2898 24.495268 C 166.65674 24.495268 166.12088 24.718714 165.68196 25.166076 C 165.25148 25.613438 165.03584 26.183066 165.03584 26.875211 C 165.03584 27.373218 165.14992 27.812415 165.37782 28.19225 C 165.61416 28.563645 165.9814 28.956056 166.47941 29.369655 C 166.52161 29.403418 166.61467 29.479368 166.75817 29.597539 C 166.90169 29.715714 166.99025 29.791664 167.02398 29.825424 C 167.05774 29.850746 167.13329 29.914038 167.25147 30.015328 C 167.36963 30.116615 167.44167 30.18816 167.46701 30.230366 C 167.50077 30.264129 167.5558 30.327422 167.63177 30.42027 C 167.70775 30.513118 167.75379 30.589068 167.77065 30.648155 C 167.79599 30.698799 167.82552 30.770903 167.85926 30.863752 C 167.90146 30.94816 167.92695 31.032363 167.93542 31.116771 C 167.95228 31.201179 167.9608 31.289788 167.9608 31.382636 C 167.9608 31.74559 167.85123 32.036734 167.63177 32.256194 C 167.4123 32.467214 167.11662 32.572887 166.74522 32.572887 C 166.32318 32.572887 165.82936 32.400075 165.26383 32.054002 L 165.26383 33.294522 C 165.80404 33.59839 166.32738 33.750291 166.83383 33.750291 C 167.52597 33.750291 168.09184 33.526845 168.53076 33.079483 C 168.96968 32.623681 169.18883 32.054052 169.18883 31.370348 C 169.18883 30.85546 169.07475 30.40801 168.84686 30.028174 C 168.6274 29.648339 168.26866 29.255928 167.77065 28.85077 C 167.72845 28.817007 167.6654 28.766373 167.581 28.698847 C 167.32777 28.496268 167.14215 28.344367 167.02398 28.243078 C 166.90581 28.141788 166.77472 28.010798 166.63123 27.850423 C 166.48772 27.690049 166.38665 27.533742 166.32758 27.381807 C 166.27692 27.221432 166.25142 27.04862 166.25142 26.862923 C 166.25142 26.491528 166.36549 26.191573 166.5934 25.963672 C 166.8213 25.73577 167.12951 25.621845 167.51778 25.621845 C 167.94827 25.621845 168.39956 25.786404 168.87224 26.115595 L 168.87224 24.90021 C 168.3658 24.630105 167.83845 24.495268 167.2898 24.495268 z M 141.28371 24.60921 L 141.28371 33.636349 L 142.89155 33.636349 C 144.1239 33.636349 144.98897 33.298977 145.48698 32.623714 C 145.98498 31.940009 146.23415 30.771031 146.23415 29.116636 C 146.23415 27.462241 145.98498 26.297108 145.48698 25.621845 C 144.98897 24.946582 144.1239 24.60921 142.89155 24.60921 L 141.28371 24.60921 z M 159.98436 24.60921 L 159.98436 33.636349 L 161.19944 33.636349 L 161.19944 29.230578 L 161.23777 29.230578 L 163.30157 33.636349 L 164.60526 33.636349 L 162.4658 29.192597 C 163.59686 29.049103 164.16224 28.306105 164.16224 26.964019 C 164.16224 26.103058 163.9511 25.495454 163.52906 25.140941 C 163.10702 24.786428 162.41506 24.60921 161.45281 24.60921 L 159.98436 24.60921 z M 149.85501 25.621845 C 150.36145 25.621845 150.70768 25.892077 150.89338 26.432288 C 151.08751 26.972499 151.18458 27.862993 151.18458 29.103789 C 151.18458 30.353027 151.09202 31.247927 150.90632 31.788137 C 150.72906 32.328348 150.38284 32.598021 149.86795 32.598021 C 149.3615 32.598021 149.00677 32.323942 148.80419 31.77529 C 148.61005 31.226639 148.51299 30.336145 148.51299 29.103789 C 148.51299 27.871434 148.61005 26.985345 148.80419 26.445134 C 148.99833 25.896483 149.34856 25.621845 149.85501 25.621845 z M 156.0718 25.621845 C 156.57824 25.621845 156.92448 25.892077 157.11017 26.432288 C 157.30431 26.972499 157.40137 27.862993 157.40137 29.103789 C 157.40137 30.353027 157.30831 31.247927 157.12261 31.788137 C 156.94535 32.328348 156.59963 32.598021 156.08474 32.598021 C 155.57829 32.598021 155.22356 32.323942 155.02098 31.77529 C 154.82684 31.226639 154.72978 30.336145 154.72978 29.103789 C 154.72978 27.871434 154.82684 26.985345 155.02098 26.445134 C 155.21511 25.896483 155.56535 25.621845 156.0718 25.621845 z M 161.19944 25.672672 L 161.54142 25.672672 C 162.06475 25.672672 162.42798 25.765687 162.63056 25.951384 C 162.83314 26.128641 162.93421 26.466013 162.93421 26.964019 C 162.93421 27.529552 162.83715 27.934621 162.64301 28.179404 C 162.44887 28.415746 162.09414 28.534077 161.57925 28.534077 L 161.19944 28.534077 L 161.19944 25.672672 z M 142.51174 25.748634 L 143.14492 25.748634 C 143.8455 25.748634 144.33082 26.001802 144.60093 26.508249 C 144.87103 27.014697 145.00612 27.879874 145.00612 29.103789 C 145.00612 30.327704 144.87103 31.197287 144.60093 31.712175 C 144.33082 32.218623 143.8455 32.471791 143.14492 32.471791 L 142.51174 32.471791 L 142.51174 25.748634 z "
       inkscape:label="doors"
       style="font-size:12.6612px;line-height:125%;font-family:'Futura Condensed';-inkscape-font-specification:'Futura Condensed, Normal';text-align:center;text-anchor:middle;white-space:pre;shape-inside:url(#rect304);fill:#ff6600"
       transform="matrix(1.0381353,0,0,0.92520393,-127.41439,97.671124)" /><path
       id="elec"
       d="M 163.26971 24.495096 C 161.33678 24.495096 160.37014 26.065297 160.37014 29.205272 C 160.37014 32.235515 161.29024 33.750678 163.13034 33.750678 C 163.5777 33.750678 163.99997 33.645005 164.39669 33.433985 L 164.39669 32.243734 C 163.99997 32.471635 163.64123 32.585561 163.32049 32.585561 C 162.1641 32.585561 161.58572 31.454557 161.58572 29.192425 C 161.58572 27.976951 161.72931 27.082052 162.0163 26.508077 C 162.31173 25.925663 162.78854 25.634519 163.44692 25.634519 C 163.72547 25.634519 164.04218 25.718723 164.39669 25.887539 L 164.39669 24.735827 C 164.0675 24.575453 163.69175 24.495096 163.26971 24.495096 z M 146.12663 24.609038 L 146.12663 33.636735 L 149.73504 33.636735 L 149.73504 32.5096 L 147.34171 32.5096 L 147.34171 29.458291 L 149.53245 29.458291 L 149.53245 28.381982 L 147.34171 28.381982 L 147.34171 25.697635 L 149.73504 25.697635 L 149.73504 24.609038 L 146.12663 24.609038 z M 151.02629 24.609038 L 151.02629 33.636735 L 154.85024 33.636735 L 154.85024 32.5096 L 152.24187 32.5096 L 152.24187 24.609038 L 151.02629 24.609038 z M 155.76168 24.609038 L 155.76168 33.636735 L 159.3701 33.636735 L 159.3701 32.5096 L 156.97726 32.5096 L 156.97726 29.458291 L 159.1675 29.458291 L 159.1675 28.381982 L 156.97726 28.381982 L 156.97726 25.697635 L 159.3701 25.697635 L 159.3701 24.609038 L 155.76168 24.609038 z "
       inkscape:label="elec"
       style="font-size:12.6612px;line-height:125%;font-family:'Futura Condensed';-inkscape-font-specification:'Futura Condensed, Normal';text-align:center;text-anchor:middle;white-space:pre;shape-inside:url(#rect330);fill:#ff6600"
       transform="matrix(1.0381353,0,0,0.92520393,-59.681066,-15.385368)" /><path
       id="apu"
       d="M 148.55729 24.609255 L 146.44322 33.636393 L 147.67124 33.636393 L 148.08888 31.864143 L 150.15268 31.864143 L 150.58326 33.636393 L 151.81129 33.636393 L 149.69671 24.609255 L 148.55729 24.609255 z M 152.72273 24.609255 L 152.72273 33.636393 L 153.93831 33.636393 L 153.93831 29.660699 C 154.01427 29.669139 154.13235 29.673545 154.29273 29.673545 C 155.22121 29.673545 155.92217 29.458352 156.39486 29.027872 C 156.87598 28.597392 157.11664 27.972724 157.11664 27.153967 C 157.11664 26.242362 156.83796 25.562655 156.28087 25.115293 C 155.86727 24.777661 155.17482 24.609255 154.20412 24.609255 L 152.72273 24.609255 z M 158.19284 24.609255 L 158.19284 31.230757 C 158.19284 32.100159 158.38247 32.737485 158.76231 33.142643 C 159.14215 33.547801 159.74554 33.750336 160.57274 33.750336 C 161.39993 33.750336 162.00382 33.547801 162.38366 33.142643 C 162.7635 32.737485 162.95313 32.100159 162.95313 31.230757 L 162.95313 24.609255 L 161.75049 24.609255 L 161.75049 31.331853 C 161.75049 32.175932 161.35773 32.598066 160.57274 32.598066 C 159.78774 32.598066 159.39548 32.175932 159.39548 31.331853 L 159.39548 24.609255 L 158.19284 24.609255 z M 153.93831 25.672717 L 154.30567 25.672717 C 154.86276 25.672717 155.26803 25.782237 155.52125 26.001697 C 155.77447 26.221158 155.90106 26.588251 155.90106 27.10314 C 155.90106 27.634909 155.78298 28.014662 155.54664 28.242563 C 155.31874 28.462024 154.93449 28.572103 154.39428 28.572103 L 153.93831 28.572103 L 153.93831 25.672717 z M 149.12725 26.938929 L 149.93764 30.85095 L 148.31686 30.85095 L 149.12725 26.938929 z "
       inkscape:label="apu"
       style="font-size:12.6612px;line-height:125%;font-family:'Futura Condensed';-inkscape-font-specification:'Futura Condensed, Normal';text-align:center;text-anchor:middle;white-space:pre;shape-inside:url(#rect332);fill:#ff6600"
       transform="matrix(1.0381353,0,0,0.92520393,-59.681066,7.2259686)" /><path
       id="ovht-det"
       d="M 137.14317 24.495022 C 136.21468 24.495022 135.55225 24.862116 135.15553 25.596464 C 134.76726 26.330813 134.57312 27.508603 134.57312 29.129236 C 134.57312 30.741427 134.76726 31.914812 135.15553 32.64916 C 135.55225 33.383509 136.21468 33.750603 137.14317 33.750603 C 138.07165 33.750603 138.73009 33.383509 139.11837 32.64916 C 139.50664 31.914812 139.70077 30.741427 139.70077 29.129236 C 139.70077 27.508603 139.50664 26.330813 139.11837 25.596464 C 138.73009 24.862116 138.07165 24.495022 137.14317 24.495022 z M 159.14858 24.495022 L 156.54021 34.814065 L 157.4392 34.814065 L 160.04758 24.495022 L 159.14858 24.495022 z M 140.37178 24.608964 L 142.34697 33.636661 L 143.3724 33.636661 L 145.36054 24.608964 L 144.13252 24.608964 L 142.86616 30.737275 L 141.6003 24.608964 L 140.37178 24.608964 z M 146.29737 24.608964 L 146.29737 33.636661 L 147.51295 33.636661 L 147.51295 29.179504 L 149.69074 29.179504 L 149.69074 33.636661 L 150.90582 33.636661 L 150.90582 24.608964 L 149.69074 24.608964 L 149.69074 28.040081 L 147.51295 28.040081 L 147.51295 24.608964 L 146.29737 24.608964 z M 151.84315 24.608964 L 151.84315 25.736099 L 153.5142 25.736099 L 153.5142 33.636661 L 154.74222 33.636661 L 154.74222 25.736099 L 156.41377 25.736099 L 156.41377 24.608964 L 151.84315 24.608964 z M 160.85796 24.608964 L 160.85796 33.636661 L 162.4658 33.636661 C 163.69816 33.636661 164.56322 33.298731 165.06123 32.623468 C 165.55924 31.939763 165.8084 30.770784 165.8084 29.116389 C 165.8084 27.461994 165.55924 26.29742 165.06123 25.622157 C 164.56322 24.946894 163.69816 24.608964 162.4658 24.608964 L 160.85796 24.608964 z M 167.0872 24.608964 L 167.0872 33.636661 L 170.69561 33.636661 L 170.69561 32.509525 L 168.30278 32.509525 L 168.30278 29.458216 L 170.49302 29.458216 L 170.49302 28.381908 L 168.30278 28.381908 L 168.30278 25.698119 L 170.69561 25.698119 L 170.69561 24.608964 L 167.0872 24.608964 z M 171.30341 24.608964 L 171.30341 25.736099 L 172.97446 25.736099 L 172.97446 33.636661 L 174.20248 33.636661 L 174.20248 25.736099 L 175.87403 25.736099 L 175.87403 24.608964 L 171.30341 24.608964 z M 137.14317 25.622157 C 137.64962 25.622157 137.99584 25.891831 138.18154 26.432041 C 138.37568 26.972252 138.47274 27.862747 138.47274 29.103543 C 138.47274 30.35278 138.37969 31.24768 138.19399 31.78789 C 138.01673 32.328101 137.671 32.598333 137.15611 32.598333 C 136.64967 32.598333 136.29493 32.323695 136.09235 31.775044 C 135.89821 31.226392 135.80115 30.335898 135.80115 29.103543 C 135.80115 27.871187 135.89821 26.985099 136.09235 26.444888 C 136.28649 25.896236 136.63672 25.622157 137.14317 25.622157 z M 162.08599 25.748387 L 162.71917 25.748387 C 163.41975 25.748387 163.90508 26.001556 164.17518 26.508003 C 164.44528 27.01445 164.58037 27.879628 164.58037 29.103543 C 164.58037 30.327457 164.44528 31.197041 164.17518 31.711929 C 163.90508 32.218376 163.41975 32.471544 162.71917 32.471544 L 162.08599 32.471544 L 162.08599 25.748387 z "
       inkscape:label="ovht-det"
       style="font-size:12.6612px;line-height:125%;font-family:'Futura Condensed';-inkscape-font-specification:'Futura Condensed, Normal';text-align:center;text-anchor:middle;white-space:pre;shape-inside:url(#rect334);fill:#ff6600"
       transform="matrix(1.0381353,0,0,0.92520393,-59.681066,29.837257)" /><path
       id="eng"
       d="M 160.62998 24.495291 C 159.65929 24.495291 158.97133 24.862385 158.56618 25.596733 C 158.16946 26.331082 157.97083 27.508314 157.97083 29.128946 C 157.97083 30.741137 158.16946 31.914522 158.56618 32.648871 C 158.97133 33.38322 159.64678 33.750314 160.59215 33.750314 C 161.49531 33.750314 162.15775 33.433853 162.57979 32.800794 C 163.01027 32.159294 163.22541 31.180191 163.22541 29.863427 C 163.22541 29.525796 163.21291 29.166955 163.18758 28.787119 L 160.75642 28.787119 L 160.75642 29.850581 L 162.04816 29.850581 C 162.05663 29.95187 162.0606 30.095518 162.0606 30.281216 C 162.0606 31.82588 161.5878 32.598044 160.64243 32.598044 C 160.09378 32.598044 159.71402 32.32837 159.503 31.788159 C 159.30042 31.247949 159.19936 30.353049 159.19936 29.103812 C 159.19936 27.854575 159.30042 26.959675 159.503 26.419464 C 159.70558 25.879253 160.08533 25.609021 160.64243 25.609021 C 161.37678 25.609021 161.83258 26.043812 162.00983 26.913214 L 163.08603 26.39433 C 162.78216 25.128212 161.96363 24.495291 160.62998 24.495291 z M 147.1202 24.609233 L 147.1202 33.636371 L 150.72861 33.636371 L 150.72861 32.509794 L 148.33578 32.509794 L 148.33578 29.458485 L 150.52602 29.458485 L 150.52602 28.382177 L 148.33578 28.382177 L 148.33578 25.697829 L 150.72861 25.697829 L 150.72861 24.609233 L 147.1202 24.609233 z M 152.00741 24.609233 L 152.00741 33.636371 L 153.15978 33.636371 L 153.15978 27.318715 L 155.54017 33.636371 L 156.67959 33.636371 L 156.67959 24.609233 L 155.52723 24.609233 L 155.52723 30.876062 L 153.13439 24.609233 L 152.00741 24.609233 z "
       inkscape:label="eng"
       style="font-size:12.6612px;line-height:125%;font-family:'Futura Condensed';-inkscape-font-specification:'Futura Condensed, Normal';text-align:center;text-anchor:middle;white-space:pre;shape-inside:url(#rect336);fill:#ff6600"
       transform="matrix(1.0381353,0,0,0.92520393,-59.681066,52.448546)" /><path
       id="overhead"
       d="M 135.75038 24.495 C 134.82189 24.495 134.15946 24.862094 133.76274 25.596443 C 133.37446 26.330791 133.18033 27.508582 133.18033 29.129214 C 133.18033 30.741405 133.37446 31.91479 133.76274 32.649139 C 134.15946 33.383488 134.82189 33.750582 135.75038 33.750582 C 136.67886 33.750582 137.33729 33.383488 137.72557 32.649139 C 138.11385 31.91479 138.30798 30.741405 138.30798 29.129214 C 138.30798 27.508582 138.11385 26.330791 137.72557 25.596443 C 137.33729 24.862094 136.67886 24.495 135.75038 24.495 z M 138.97899 24.608942 L 140.95418 33.636639 L 141.98011 33.636639 L 143.96775 24.608942 L 142.73972 24.608942 L 141.47337 30.737253 L 140.20751 24.608942 L 138.97899 24.608942 z M 144.86674 24.608942 L 144.86674 33.636639 L 148.47516 33.636639 L 148.47516 32.509504 L 146.08232 32.509504 L 146.08232 29.458195 L 148.27256 29.458195 L 148.27256 28.381886 L 146.08232 28.381886 L 146.08232 25.698097 L 148.47516 25.698097 L 148.47516 24.608942 L 144.86674 24.608942 z M 149.7664 24.608942 L 149.7664 33.636639 L 150.98198 33.636639 L 150.98198 29.23031 L 151.01982 29.23031 L 153.08362 33.636639 L 154.3878 33.636639 L 152.24834 29.192329 C 153.37941 29.048835 153.94478 28.305837 153.94478 26.963751 C 153.94478 26.10279 153.73364 25.495186 153.3116 25.140673 C 152.88956 24.78616 152.19761 24.608942 151.23536 24.608942 L 149.7664 24.608942 z M 155.27435 24.608942 L 155.27435 33.636639 L 156.48944 33.636639 L 156.48944 29.179483 L 158.66723 29.179483 L 158.66723 33.636639 L 159.88281 33.636639 L 159.88281 24.608942 L 158.66723 24.608942 L 158.66723 28.040059 L 156.48944 28.040059 L 156.48944 24.608942 L 155.27435 24.608942 z M 161.46576 24.608942 L 161.46576 33.636639 L 165.07417 33.636639 L 165.07417 32.509504 L 162.68084 32.509504 L 162.68084 29.458195 L 164.87157 29.458195 L 164.87157 28.381886 L 162.68084 28.381886 L 162.68084 25.698097 L 165.07417 25.698097 L 165.07417 24.608942 L 161.46576 24.608942 z M 167.77065 24.608942 L 165.65658 33.636639 L 166.8846 33.636639 L 167.30224 31.86383 L 169.36604 31.86383 L 169.79662 33.636639 L 171.02465 33.636639 L 168.91007 24.608942 L 167.77065 24.608942 z M 171.93658 24.608942 L 171.93658 33.636639 L 173.54442 33.636639 C 174.77677 33.636639 175.64184 33.298709 176.13985 32.623446 C 176.63785 31.939741 176.88702 30.770763 176.88702 29.116368 C 176.88702 27.461973 176.63785 26.297399 176.13985 25.622136 C 175.64184 24.946872 174.77677 24.608942 173.54442 24.608942 L 171.93658 24.608942 z M 135.75038 25.622136 C 136.25682 25.622136 136.60305 25.891809 136.78875 26.43202 C 136.98289 26.972231 137.07995 27.862725 137.07995 29.103521 C 137.07995 30.352759 136.98739 31.247659 136.80169 31.787869 C 136.62444 32.32808 136.27821 32.598312 135.76332 32.598312 C 135.25687 32.598312 134.90214 32.323674 134.69956 31.775022 C 134.50543 31.226371 134.40836 30.335877 134.40836 29.103521 C 134.40836 27.871166 134.50543 26.985077 134.69956 26.444866 C 134.8937 25.896215 135.24393 25.622136 135.75038 25.622136 z M 150.98198 25.672404 L 151.32396 25.672404 C 151.84729 25.672404 152.21004 25.765419 152.41261 25.951116 C 152.61519 26.128373 152.71675 26.465745 152.71675 26.963751 C 152.71675 27.529284 152.61968 27.934911 152.42555 28.179694 C 152.23141 28.416036 151.87668 28.533809 151.36179 28.533809 L 150.98198 28.533809 L 150.98198 25.672404 z M 173.16461 25.748366 L 173.79779 25.748366 C 174.49837 25.748366 174.98369 26.001534 175.2538 26.507981 C 175.5239 27.014429 175.65849 27.879606 175.65849 29.103521 C 175.65849 30.327436 175.5239 31.197019 175.2538 31.711907 C 174.98369 32.218355 174.49837 32.471523 173.79779 32.471523 L 173.16461 32.471523 L 173.16461 25.748366 z M 168.34061 26.938617 L 169.151 30.851196 L 167.53022 30.851196 L 168.34061 26.938617 z "
       inkscape:label="overhead"
       style="font-size:12.6612px;line-height:125%;font-family:'Futura Condensed';-inkscape-font-specification:'Futura Condensed, Normal';text-align:center;text-anchor:middle;white-space:pre;shape-inside:url(#rect338);fill:#ff6600"
       transform="matrix(1.0381353,0,0,0.92520393,-59.681066,75.059835)" /><path
       id="air-cond"
       d="M 154.83083 24.495268 C 152.89789 24.495268 151.93175 26.064911 151.93175 29.204885 C 151.93175 32.235129 152.85186 33.750291 154.69195 33.750291 C 155.13931 33.750291 155.56109 33.645177 155.95781 33.434157 L 155.95781 32.243906 C 155.56109 32.471807 155.20235 32.585733 154.8816 32.585733 C 153.72521 32.585733 153.14733 31.454729 153.14733 29.192597 C 153.14733 27.977123 153.29043 27.082224 153.57742 26.508249 C 153.87284 25.925835 154.35015 25.634691 155.00854 25.634691 C 155.28708 25.634691 155.60329 25.718895 155.95781 25.88771 L 155.95781 24.735441 C 155.62861 24.575066 155.25287 24.495268 154.83083 24.495268 z M 159.35118 24.495268 C 158.42269 24.495268 157.76025 24.862362 157.36354 25.596711 C 156.97526 26.331059 156.78114 27.508291 156.78114 29.128923 C 156.78114 30.741115 156.97526 31.9145 157.36354 32.648848 C 157.76025 33.383197 158.42269 33.750291 159.35118 33.750291 C 160.27967 33.750291 160.9381 33.383197 161.32638 32.648848 C 161.71466 31.9145 161.90878 30.741115 161.90878 29.128923 C 161.90878 27.508291 161.71466 26.331059 161.32638 25.596711 C 160.9381 24.862362 160.27967 24.495268 159.35118 24.495268 z M 137.25716 24.60921 L 135.14308 33.636349 L 136.37111 33.636349 L 136.78875 31.864098 L 138.85255 31.864098 L 139.28313 33.636349 L 140.51116 33.636349 L 138.39658 24.60921 L 137.25716 24.60921 z M 141.42259 24.60921 L 141.42259 33.636349 L 142.63818 33.636349 L 142.63818 24.60921 L 141.42259 24.60921 z M 144.2714 24.60921 L 144.2714 33.636349 L 145.48698 33.636349 L 145.48698 29.230578 L 145.52531 29.230578 L 147.58861 33.636349 L 148.8928 33.636349 L 146.75333 29.192597 C 147.8844 29.049103 148.44977 28.306105 148.44977 26.964019 C 148.44977 26.103058 148.23863 25.495454 147.81659 25.140941 C 147.39455 24.786428 146.7026 24.60921 145.74035 24.60921 L 144.2714 24.60921 z M 163.2508 24.60921 L 163.2508 33.636349 L 164.40316 33.636349 L 164.40316 27.318692 L 166.78305 33.636349 L 167.92297 33.636349 L 167.92297 24.60921 L 166.77061 24.60921 L 166.77061 30.876598 L 164.37778 24.60921 L 163.2508 24.60921 z M 169.53081 24.60921 L 169.53081 33.636349 L 171.13864 33.636349 C 172.371 33.636349 173.23607 33.298977 173.73407 32.623714 C 174.23208 31.940009 174.48124 30.771031 174.48124 29.116636 C 174.48124 27.462241 174.23208 26.297108 173.73407 25.621845 C 173.23607 24.946582 172.371 24.60921 171.13864 24.60921 L 169.53081 24.60921 z M 159.35118 25.621845 C 159.85763 25.621845 160.20386 25.892077 160.38955 26.432288 C 160.58369 26.972499 160.68075 27.862993 160.68075 29.103789 C 160.68075 30.353027 160.5877 31.247927 160.402 31.788137 C 160.22474 32.328348 159.87851 32.598021 159.36363 32.598021 C 158.85717 32.598021 158.50294 32.323942 158.30036 31.77529 C 158.10622 31.226639 158.00916 30.336145 158.00916 29.103789 C 158.00916 27.871434 158.10622 26.985345 158.30036 26.445134 C 158.4945 25.896483 158.84473 25.621845 159.35118 25.621845 z M 145.48698 25.672672 L 145.82895 25.672672 C 146.35229 25.672672 146.71502 25.765687 146.9176 25.951384 C 147.12018 26.128641 147.22175 26.466013 147.22175 26.964019 C 147.22175 27.529552 147.12468 27.934621 146.93054 28.179404 C 146.7364 28.415746 146.38167 28.534077 145.86679 28.534077 L 145.48698 28.534077 L 145.48698 25.672672 z M 170.75883 25.748634 L 171.39201 25.748634 C 172.0926 25.748634 172.57792 26.001802 172.84802 26.508249 C 173.11813 27.014697 173.25321 27.879874 173.25321 29.103789 C 173.25321 30.327704 173.11813 31.197287 172.84802 31.712175 C 172.57792 32.218623 172.0926 32.471791 171.39201 32.471791 L 170.75883 32.471791 L 170.75883 25.748634 z M 137.82712 26.938885 L 138.63751 30.850905 L 137.01673 30.850905 L 137.82712 26.938885 z "
       inkscape:label="air-cond"
       style="font-size:12.6612px;line-height:125%;font-family:'Futura Condensed';-inkscape-font-specification:'Futura Condensed, Normal';text-align:center;text-anchor:middle;white-space:pre;shape-inside:url(#rect340);fill:#ff6600"
       transform="matrix(1.0381353,0,0,0.92520393,-59.681066,97.671124)" /></g></svg>
